<?xml version="1.0" encoding="UTF-8"?><svg id="Calque_1" xmlns="http://www.w3.org/2000/svg" viewBox="0 0 425.2 283.46"><defs><style>.cls-1{fill:#36a9e1;}.cls-2{fill:#3a5987;}.cls-3{fill:none;stroke:#36a9e1;stroke-linecap:round;stroke-miterlimit:10;stroke-width:1.66px;}</style></defs><path class="cls-3" d="M62.72,120.69l5.39,5.39v4.55l3.71,3.71m11.2-11.07l5.04,5.03v4.99m6.76-.45v3.77l-3.32,3.32m7.61-33.08v4.93l-4.25,4.25v9.72m-13.34,12.63l-4.99-4.99m2.33-18.69l4.6-4.6v-4.9m-27.48,17.45l5.86,5.86,3.62,.4m13.99-9.6l-5.85-5.85v-9.19m13.02-6.41l4.21,4.21v9.57l-11.01,11.01v8.24l4.69,4.69v34.89m23.75-61.61v7.09l-20.4,20.4v34.13m-27.2-61.61l6.13,6.13v3.83l7.47,7.47v9.96l7.08,7.09v27.13m31.6-42.89l-5.27,5.27h-4.5l-12.02,12.02v25.6m-39.88-41.88l5.27,5.27h9.48l12.02,12.02v24.59"/><path class="cls-1" d="M99.1,108.54c-.92,0-1.68-.75-1.68-1.68s.75-1.67,1.68-1.67,1.68,.75,1.68,1.67-.75,1.68-1.68,1.68"/><path class="cls-1" d="M99.1,104.75c-1.16,0-2.11,.94-2.11,2.11s.94,2.11,2.11,2.11,2.11-.94,2.11-2.11-.94-2.11-2.11-2.11m0,.86c.69,0,1.25,.56,1.25,1.25s-.56,1.24-1.25,1.24-1.24-.56-1.24-1.24,.56-1.25,1.24-1.25"/><path class="cls-1" d="M83.45,106.88c-.92,0-1.67-.75-1.67-1.67s.75-1.68,1.67-1.68,1.68,.75,1.68,1.68-.75,1.67-1.68,1.67"/><path class="cls-1" d="M83.45,103.1c-1.16,0-2.11,.94-2.11,2.11s.94,2.1,2.11,2.1,2.11-.94,2.11-2.1-.94-2.11-2.11-2.11m0,.86c.69,0,1.25,.56,1.25,1.25s-.56,1.24-1.25,1.24-1.24-.56-1.24-1.24,.56-1.25,1.24-1.25"/><path class="cls-1" d="M73.59,105.94c-.92,0-1.68-.75-1.68-1.68s.75-1.68,1.68-1.68,1.67,.75,1.67,1.68-.75,1.68-1.67,1.68"/><path class="cls-1" d="M73.59,102.16c-1.16,0-2.11,.94-2.11,2.11s.94,2.11,2.11,2.11,2.1-.95,2.1-2.11-.94-2.11-2.1-2.11m0,.86c.69,0,1.24,.56,1.24,1.25s-.55,1.25-1.24,1.25-1.25-.56-1.25-1.25,.56-1.25,1.25-1.25"/><path class="cls-1" d="M55.97,124.33c-.92,0-1.67-.75-1.67-1.68s.75-1.68,1.67-1.68,1.68,.75,1.68,1.68-.75,1.68-1.68,1.68"/><path class="cls-1" d="M55.97,120.54c-1.16,0-2.11,.94-2.11,2.11s.94,2.11,2.11,2.11,2.11-.95,2.11-2.11-.94-2.11-2.11-2.11m0,.86c.69,0,1.24,.56,1.24,1.24s-.56,1.24-1.24,1.24-1.24-.56-1.24-1.24,.56-1.24,1.24-1.24"/><path class="cls-1" d="M62.72,122.36c-.92,0-1.67-.75-1.67-1.68s.75-1.67,1.67-1.67,1.68,.75,1.68,1.67-.75,1.68-1.68,1.68"/><path class="cls-1" d="M62.72,118.58c-1.16,0-2.11,.94-2.11,2.1s.95,2.11,2.11,2.11,2.11-.95,2.11-2.11-.94-2.1-2.11-2.1m0,.86c.69,0,1.24,.56,1.24,1.24s-.56,1.25-1.24,1.25-1.24-.56-1.24-1.25,.56-1.24,1.24-1.24"/><path class="cls-2" d="M50.61,131.19c-1.8,0-3.27-1.47-3.27-3.27s1.47-3.27,3.27-3.27,3.27,1.47,3.27,3.27-1.47,3.27-3.27,3.27"/><path class="cls-1" d="M50.61,123.82c-2.26,0-4.09,1.84-4.09,4.1s1.84,4.1,4.09,4.1,4.1-1.84,4.1-4.1-1.84-4.1-4.1-4.1m0,1.65c1.35,0,2.44,1.09,2.44,2.44s-1.09,2.44-2.44,2.44-2.44-1.09-2.44-2.44,1.09-2.44,2.44-2.44"/><path class="cls-2" d="M60.66,112.23c-1.8,0-3.27-1.47-3.27-3.27s1.47-3.27,3.27-3.27,3.27,1.46,3.27,3.27-1.47,3.27-3.27,3.27"/><path class="cls-1" d="M60.66,104.86c-2.26,0-4.1,1.84-4.1,4.1s1.84,4.1,4.1,4.1,4.1-1.84,4.1-4.1-1.84-4.1-4.1-4.1m0,1.65c1.35,0,2.44,1.09,2.44,2.44s-1.09,2.45-2.44,2.45-2.44-1.1-2.44-2.45,1.1-2.44,2.44-2.44"/><path class="cls-2" d="M84.91,99.42c-1.8,0-3.27-1.47-3.27-3.27s1.47-3.27,3.27-3.27,3.27,1.47,3.27,3.27-1.47,3.27-3.27,3.27"/><path class="cls-1" d="M84.91,92.05c-2.26,0-4.1,1.84-4.1,4.1s1.84,4.1,4.1,4.1,4.1-1.84,4.1-4.1-1.84-4.1-4.1-4.1m0,1.65c1.35,0,2.44,1.09,2.44,2.45s-1.09,2.44-2.44,2.44-2.44-1.09-2.44-2.44,1.09-2.45,2.44-2.45"/><path class="cls-2" d="M108.26,112.13c-1.8,0-3.27-1.47-3.27-3.27s1.47-3.27,3.27-3.27,3.27,1.47,3.27,3.27-1.47,3.27-3.27,3.27"/><path class="cls-1" d="M108.26,104.76c-2.26,0-4.1,1.84-4.1,4.1s1.84,4.1,4.1,4.1,4.1-1.84,4.1-4.1-1.84-4.1-4.1-4.1m0,1.65c1.35,0,2.44,1.09,2.44,2.44s-1.09,2.44-2.44,2.44-2.44-1.1-2.44-2.44,1.09-2.44,2.44-2.44"/><path class="cls-2" d="M112.73,130.71c-1.8,0-3.27-1.47-3.27-3.27s1.47-3.27,3.27-3.27,3.27,1.47,3.27,3.27-1.47,3.27-3.27,3.27"/><path class="cls-1" d="M112.73,123.34c-2.26,0-4.1,1.84-4.1,4.09s1.84,4.1,4.1,4.1,4.1-1.84,4.1-4.1-1.84-4.09-4.1-4.09m0,1.65c1.35,0,2.44,1.09,2.44,2.44s-1.09,2.44-2.44,2.44-2.44-1.09-2.44-2.44,1.09-2.44,2.44-2.44"/><path class="cls-1" d="M133.25,190.69c-.45,.18-1.43,.37-2.67,.37-3.29,0-5.28-1.65-5.28-4.17,0-2.73,2.37-4.37,5.53-4.37,1.24,0,2.13,.21,2.52,.37l-.42,1.21c-.49-.17-1.17-.32-2.02-.32-2.1,0-3.62,1.06-3.62,3.05,0,1.82,1.33,2.99,3.61,2.99,.77,0,1.57-.12,2.06-.31l.31,1.19Z"/><path class="cls-1" d="M138.07,186.83c0,1.68,1.06,3.02,2.87,3.02s2.86-1.35,2.86-3.08c0-1.56-.97-3.04-2.86-3.04s-2.87,1.39-2.87,3.1m7.72-.12c0,2.78-2.1,4.37-4.96,4.37s-4.76-1.78-4.76-4.22,2-4.34,4.91-4.34,4.8,1.83,4.8,4.19"/><path class="cls-1" d="M149.57,190.94v-8.29h2.15l2.67,3.55c.69,.92,1.29,1.88,1.77,2.78h.03c-.12-1.1-.17-2.17-.17-3.44v-2.89h1.75v8.29h-1.95l-2.71-3.64c-.66-.91-1.35-1.93-1.86-2.86h-.05c.07,1.08,.09,2.17,.09,3.54v2.96h-1.74Z"/><path class="cls-1" d="M162.11,190.94v-8.29h2.15l2.67,3.55c.69,.92,1.29,1.88,1.77,2.78h.03c-.12-1.1-.17-2.17-.17-3.44v-2.89h1.75v8.29h-1.95l-2.7-3.64c-.66-.91-1.35-1.93-1.86-2.86h-.05c.08,1.08,.09,2.17,.09,3.54v2.96h-1.74Z"/><polygon class="cls-1" points="174.64 182.65 174.64 190.94 180.89 190.94 180.89 189.7 176.53 189.7 176.53 187.26 180.43 187.26 180.43 186.03 176.53 186.03 176.53 183.9 180.66 183.9 180.66 182.65 174.64 182.65"/><path class="cls-1" d="M192.12,190.69c-.44,.18-1.43,.37-2.67,.37-3.28,0-5.28-1.65-5.28-4.17,0-2.73,2.37-4.37,5.53-4.37,1.25,0,2.14,.21,2.52,.37l-.41,1.21c-.5-.17-1.17-.32-2.03-.32-2.1,0-3.62,1.06-3.62,3.05,0,1.82,1.33,2.99,3.61,2.99,.77,0,1.57-.12,2.06-.31l.31,1.19Z"/><polygon class="cls-1" points="195.22 182.65 195.22 183.92 198.17 183.92 198.17 190.94 200.06 190.94 200.06 183.92 203.04 183.92 203.04 182.65 195.22 182.65"/><path class="cls-1" d="M207.43,186.83c0,1.68,1.06,3.02,2.87,3.02s2.86-1.35,2.86-3.08c0-1.56-.97-3.04-2.86-3.04s-2.87,1.39-2.87,3.1m7.73-.12c0,2.78-2.1,4.37-4.96,4.37s-4.76-1.78-4.76-4.22,2-4.34,4.91-4.34,4.81,1.83,4.81,4.19"/><path class="cls-1" d="M218.94,190.94v-8.29h2.15l2.67,3.55c.69,.92,1.29,1.88,1.77,2.78h.03c-.12-1.1-.16-2.17-.16-3.44v-2.89h1.75v8.29h-1.95l-2.7-3.64c-.66-.91-1.35-1.93-1.86-2.86h-.04c.08,1.08,.09,2.17,.09,3.54v2.96h-1.74Z"/><path class="cls-1" d="M231.43,189.29c.62,.29,1.54,.53,2.5,.53,1.21,0,1.89-.45,1.89-1.13,0-.63-.52-1-1.84-1.38-1.71-.49-2.8-1.22-2.8-2.41,0-1.35,1.42-2.38,3.66-2.38,1.12,0,1.95,.19,2.49,.42l-.46,1.22c-.37-.16-1.09-.39-2.06-.39-1.2,0-1.72,.51-1.72,.99,0,.64,.6,.94,1.98,1.37,1.79,.54,2.68,1.26,2.68,2.45,0,1.33-1.26,2.49-3.93,2.49-1.09,0-2.23-.25-2.79-.52l.41-1.25Z"/><path class="cls-1" d="M246.93,190.94v-8.29h2.15l2.67,3.55c.69,.92,1.29,1.88,1.76,2.78h.03c-.12-1.1-.16-2.17-.16-3.44v-2.89h1.75v8.29h-1.95l-2.7-3.64c-.66-.91-1.35-1.93-1.86-2.86h-.04c.08,1.08,.09,2.17,.09,3.54v2.96h-1.74Z"/><path class="cls-1" d="M260.92,186.83c0,1.68,1.05,3.02,2.87,3.02s2.86-1.35,2.86-3.08c0-1.56-.97-3.04-2.86-3.04s-2.87,1.39-2.87,3.1m7.72-.12c0,2.78-2.1,4.37-4.96,4.37s-4.76-1.78-4.76-4.22,2-4.34,4.91-4.34,4.81,1.83,4.81,4.19"/><path class="cls-1" d="M272.37,189.29c.62,.29,1.54,.53,2.51,.53,1.21,0,1.89-.45,1.89-1.13,0-.63-.53-1-1.84-1.38-1.7-.49-2.79-1.22-2.79-2.41,0-1.35,1.41-2.38,3.65-2.38,1.12,0,1.95,.19,2.49,.42l-.46,1.22c-.37-.16-1.09-.39-2.06-.39-1.2,0-1.72,.51-1.72,.99,0,.64,.6,.94,1.98,1.37,1.8,.54,2.68,1.26,2.68,2.45,0,1.33-1.26,2.49-3.93,2.49-1.09,0-2.23-.25-2.79-.52l.41-1.25Z"/><polygon class="cls-1" points="286.29 182.65 286.29 183.92 289.25 183.92 289.25 190.94 291.13 190.94 291.13 183.92 294.11 183.92 294.11 182.65 286.29 182.65"/><path class="cls-1" d="M301.39,187.45l-.81-2.04c-.2-.5-.37-1.07-.52-1.55h-.03c-.16,.48-.31,1.06-.49,1.55l-.8,2.04h2.66Zm-2.96,1.14l-.89,2.35h-1.95l3.32-8.29h2.41l3.36,8.29h-2.03l-.93-2.35h-3.29Z"/><polygon class="cls-1" points="308.27 182.65 308.27 190.94 314.42 190.94 314.42 189.67 310.17 189.67 310.17 182.65 308.27 182.65"/><polygon class="cls-1" points="318 182.65 318 190.94 324.25 190.94 324.25 189.7 319.89 189.7 319.89 187.26 323.79 187.26 323.79 186.03 319.89 186.03 319.89 183.9 324.02 183.9 324.02 182.65 318 182.65"/><path class="cls-1" d="M328.06,190.94v-8.29h2.14l2.67,3.55c.69,.92,1.29,1.88,1.77,2.78h.03c-.12-1.1-.17-2.17-.17-3.44v-2.89h1.75v8.29h-1.95l-2.7-3.64c-.66-.91-1.35-1.93-1.86-2.86h-.04c.08,1.08,.09,2.17,.09,3.54v2.96h-1.73Z"/><polygon class="cls-1" points="339.62 182.65 339.62 183.92 342.58 183.92 342.58 190.94 344.46 190.94 344.46 183.92 347.45 183.92 347.45 182.65 339.62 182.65"/><path class="cls-1" d="M350.64,189.29c.61,.29,1.54,.53,2.5,.53,1.21,0,1.89-.45,1.89-1.13,0-.63-.52-1-1.84-1.38-1.71-.49-2.79-1.22-2.79-2.41,0-1.35,1.41-2.38,3.65-2.38,1.12,0,1.95,.19,2.49,.42l-.46,1.22c-.37-.16-1.09-.39-2.06-.39-1.2,0-1.72,.51-1.72,.99,0,.64,.6,.94,1.98,1.37,1.79,.54,2.67,1.26,2.67,2.45,0,1.33-1.26,2.49-3.93,2.49-1.09,0-2.23-.25-2.79-.52l.41-1.25Z"/><path class="cls-2" d="M158.97,138.08l-5.07,3.72c-1.12,.66-1.08,.8-1.71,.85l-.33-.14,.1-.78,.46-.74c.26-.54,1.49-2,2.08-2.36,.61-.8,2.01-1.84,2.3-2.09,.06,0,2.22-1.66,2.43-1.91,0,0,2.53-1.48,2.98-1.5,.44-.02,1.24,.38,1.48,1.75-1.65,.44-2.32,1.48-4.73,3.2m34.89-15.7l-6.32,.06c.08-.48,.62-1.19,.86-1.66,.02-.12,.37-.9,.51-1.02,.43-1.26,.54-1.98,.12-2.47-.48-.42-.95-.48-1.46-.3-1.97,.72-2.54,3.31-3.4,4.27-.37,.41-1.24,.96-2.11,1.12h-3.08c-.79,.48-.41,.36-.88,1.08l-.28,1.02c-.09,.66-.22,1.09-.23,1.21-.08,.54-.16,.66,.03,1.02,1.01,.27,1.99,.44,2.9,.55l-1.12,1.93c-3.21,4.63-3.55,4.76-5.82,7.11l-3.02,2.95c-.4,.38-1.64,1.3-2.01,1.62-.86,.54-1.18,.66-1.37,.72-.8,.12-1.48,.22-1.81-.38-.65-.91,.03-2.63,.16-3.53,.12-.84-.04-1.38-.08-1.5,.08-.54,.16-1.08-.28-1.39-.2,.02-.18-.12-.14-.15,.5-.39,1.45-1.26,1.49-1.67,.31-2.93-1.27-3.16-1.58-3.45-.81-.78-2.17-1.19-3.1-.53l-1.99,.81c-1.05,.75-1.14,.47-2.28,1.24-.73,.48-1.47,.86-2.21,1.4-1,.66-1.73,1.4-2.87,2.32l-1.06,.82c-.29,.3-1.28,1.33-1.63,1.63l-1.83,1.82c-.29,.24-.55,.53-.76,.85l-3.01,2.74-2.17,1.34c-1.88,1.15-4.12,2.03-5.98,2.29-1.21,.17-2.59,.31-3.64-.12-.74-.3-1.44-.73-2.09-1.34-.63-.59-1.01-1.47-1.19-1.82-.05-.17-.14-.14-.14-.33,0-.19-.13-.63-.13-.63,0,0-.2-.81-.2-.91l-.11-.36c-.06-.51-.09-1.8-.09-1.8l.08-.51c-.07-1.59,.11-4.59,1.15-7.5,.61-1.73,1.3-3.33,1.85-4.37,.77-1.41,4.83-8.51,9.87-9.92,2.85-.74,4.19-1.01,6.15,.46,.83,.62,.86,.86,.7,1.78-.18,.63-.41,.93-.45,.97h0s0,.01,0,.01c-.22,.23-.35,.38-.44,.49-.18,.21-.24,.28-.77,.58h-.02s-.02,.03-.02,.03c-.57,.67-.75,1.14-.95,1.64-.08,.2-.16,.41-.28,.64-.15,.29-.27,.49-.38,.7-.34,.6-.14,.13-.76,1.77,0,0-.44,.49-.44,.5-.41,1.17-.5,1.78-.61,2.56-.07,.46-.14,.97-.29,1.68l-.02,.09,.08,.06c.3,.2,.92,.32,1.24,.33h.04s1.09-.28,1.09-.28c1.32-.34,1.82-.63,2.34-1.36,3.75-4.84,5.03-10.09,4.94-14.33,.04-2-1.05-2.45-2.55-3.06-2.64-1.1-7.46,.05-11.46,2.55-4.77,3.03-9.99,7.81-12.35,12.25-.44,.83-1.64,3.43-2.04,4.39-.68,1.61-1.37,4.02-1.43,5.34-1.22,4.11-.56,9.52,2.73,11.96,3.43,2.46,9.18,1.69,12.85,.23,1.39-.57,3.95-1.74,6-3.39l.02-.02c.94-.7,1.56-1.16,2-1.56,0,.18,0,.34,.02,.47l-.11,.8c-.43,1.12,.05,1.29,.43,2.09,.3,.6-.04,.59,.79,.97l1.24,.32c2.45,.05,6.51-3.59,9.04-5.64l2.41-2.05,.44,.31c-.11,.72-.24,1.62-.12,2.4,.27,1.45,1.28,2.35,2.26,2.65,1.5,.48,3.01,0,5.02-1.38,2.96-1.6,8-6.79,8-6.79,.37-.48,1.02-1.15,1.27-1.27,.19,.36,.02,.31-.21,.67-.08,.12-.47,.95-.67,1.56l-.8,2.17c-.4,1.08-2.18,6.6-1.62,7.68,.32,.66,.74,.36,1.17,.72l1.04,.72c.72,0,5.17-3.17,5.65-3.59l1-.66c4.57-3.67,3.3-1.98,4.15-6.14l-.32-.24-1.88,1.32c-.39,.18-1.29,1.02-1.65,1.38l-1.34,.46c-.54,.36-1.41,1.02-1.85,1.14l-.37-.36c.23-1.14,.83-2.69,1.1-3.35l.16-1.08,.88-2.71,.57-1.44c.34-.65,.53-.78,.66-1.62l2.67-5.9h-.08c.07-.01,.13-.01,.18-.02l.49-.31,5.46,.11c.25-.06,1.72-.24,1.99-.42,.6-.36,.58-.35,.75-1.49,.04-.3,.12-.78,.22-1.08l.16-1.09-.7-.6Z"/><path class="cls-2" d="M204.65,134.2c.15,.24,.61,1.62,.37,1.98-.08,.6-.59,1.56-1.48,1.87-2.09,.31-2.1,0-4.14-.06l-.46,.3s-4.44-.12-4.68-.12h-1.62c-.36,0-.95-.06-1.2-.42l.07-.48c.16-.24,.15-.18,.37-.48l.21-.18,.1-.3c.37-.48,.21-.18,.9-.78,.28-.24,.33-.6,.43-.9,.46-.3,.6-.42,1.09-.42s1.19,.12,1.85,.12c.06,0,1.82-.12,2-.12h6.2Z"/><path class="cls-2" d="M335.71,118.43c.31,1.46-1.74,5-4.62,6.14-.79,.48-2.39,.3-2.78,.12-.45-1.44-.62-2.35,.43-3.73,.25-.42,.67-.84,1.15-1.26,.42-.42,1.62-1.2,1.96-1.45,0-.06,.35-.36,.67-.48,.26-.12,.84-.36,1.39-.49,.76-.24,1.5-.32,1.8,1.14"/><path class="cls-2" d="M349.92,135.62l-2.08,1.81s-.04,.05-.07,.07c-.18,.15-.39,.31-.62,.48l-1.15,1.13-3.3,2.6c-1.1,.69-.83,.78-1.83,.84,0,0-.24-.02-.21-.26-.04-.75,1.48-2.77,1.97-3.41,1.89-2.21,3.62-3.45,4.42-4.11,0,0,.23-.34,1.5-.74,.55-.17,1.82,.53,2.22,1.55-.27,0-.56,.02-.86,.05m-63.02,.74c-.63,.51-1.31,1.14-2.54,1.99l-1.68,1.28-3.37,2.29c-1.13,.65-1.02,.93-1.99,.94l-.14-.26,.06-.38,.4-.67c.27-.52,1.42-1.88,2.08-2.57,.63-.77,1.88-1.7,2.17-1.94,.07,0,2.04-1.59,2.45-1.84,0,0,.89-.65,2.14-1,.69-.19,1.01,.78,.43,2.17m-54.39-11.52l-.21,1.53c-.04,.29-.12,.82-.02,1.12l-.27,1.99c-.06,.47-.25,2.85-.25,2.85-.2,0-3.37,.4-3.56,.39l-2.66,.31c-.52,0-4.56,.44-4.56,.44h-.26s-.21,.04-.21,.04h-.26s-.31-.02-.31-.02l.51-1.06c.16-.17,.52-.69,.63-.92,.62-.57,3.63-5.57,4.26-6.16,.24-.24,.52-.71,.78-1.06,.17-.24,.32-.35,.5-.59l.12-.29,.25-.3c.35-.47,.53-.71,.62-1.24,.48-.47,1.42-1.6,1.92-1.89,2.33,1.39,2.79,1.77,3.03,3.8-.02,.18,0,.77-.04,1.07m125.67,16.23c-.83,.65-1.43,.95-1.95,1.13-.97,.23-1.39,0-1.68-.23-1.48-2.44-1.17-5.31-1.28-5.52-.38-.62-.95-.82-1.75-.9,.81-.6,1.26-1.42,1.44-1.73,1.09-1.9-.59-3.18-.95-3.43-.69-.49-2.05-.66-3.08-.45-.37,.07-1.72,.43-1.85,.53-.72,.5-.85,.13-1.78,.8-.71,.49-1.42,.99-2.14,1.55-.97,.68-2,1.46-2.96,2.32l-1.1,1c-.26,.3-.92,1-1.26,1.3l-1.41,1.91c-.54,.41-1.32,.96-1.73,1.29-.81,.6-1.63,.97-2.13,1.08-1.12,.28-1.93,.22-2.16-2.08-.18-1.98-.1-4.96-.16-5.14-.42-.97-1.32-1.33-2.47-1.46-.2-.02-1.01,.32-1.01,.32l-1.99,1.87c-.49,.48-1.01,1.2-1.21,1.38l-1.62,1.63c-.5,.67-.95,1.02-1.87,1.79-.04,.03-.08,.06-.12,.1-.03,.03-.06,.04-.08,.07-.03,.02-.05,.05-.07,.07-.67,.66-1.43,.94-1.82,.8-1.08-.42-1.28-3.19-1.58-3.97-.57-1.81-1.02-2.47-2.46-2.53-1.92-.06-3.24,1.14-5.44,3.07-.43,.41-.35,.3-.74,.54-.28,.24-2.42,2.11-3.14,2.95-.55,.48-.91,1.1-1.12,1.02-.07-.3,.1-.66,.27-.96l1.38-2.89c.95-2.35,2.91-5.41,2.13-7.09-.48-.91-1.03-1.2-1.63-1.26-1.12-.06-3.29,1.37-4.92,2.97-.68,.66-1.34,1.31-1.95,1.86l-.71,.71c-1.33,1.42-2.53,2.39-3.14,3.1-1.44,1.63-3.12,2.91-3.32,2.97-.88,.43-1.23,.24-1.01-1.23,.11-.79,.51-1.71,.62-2.3,.15-.83,.42-2.74-.34-2.8-.2,.02-.4,.04-.58,.07,.44-.57,.64-.8,.92-1.22,1.24-1.91-.41-3.55-.75-3.82-.86-.72-2.55-.54-3.72-.19,0,0-2.7,.94-3.87,1.71-.76,.48-1.82,1.19-2.31,1.5-.36,.23-2.05,1.56-2.72,2.06-.31,.25-1.29,1.04-1.29,1.04-.3,.3-1.05,1-1.42,1.3l-1.43,1.42c-1.7,1.58-3.35,2.2-3.57,2.2-.68,.12-1.1-.42-1.42-1.15-.56-1.27-.71-4.74-2.71-5.1-1.83-.36-7.2,4.26-7.9,4.98l.17-1.26,.82-2.28c.06-.42,.23-.78,.29-1.2,.17-.36,.15-.66,.33-1.02,.25-.84,.42-1.68,.52-2.34,.03-.65-.03-1.01-.09-1.08-.15-.65-.16-.53-.59-.95-1.95-.3-4.29,2.13-6.86,4.42,0,0-3.13,2.55-3.63,3.05-.5,.51-1.06,.99-1.44,1.19-.49,.27,.27-1.56,.43-1.8l.28-1.08c.47-1.14,.09-2.5-.12-2.89-.43-.84-1.33-1.46-2-1.61-1.72-.52-3.31-.15-6.45,.26-1.09-.2-3.01,.55-2.92-.11-.09-.36,.2-1,.25-1.35l.18-1.35c.06-.47,.2-.94,.27-1.41l.12-.88c.03-.18,.17-.76,.11-.82l.36-3.91c.13-2.55,.11-3.01-.33-4.14-.37-.72-1-1.06-1.95-1.55-.57-.34-.61-.3-1.15-.65-.43-.23-.24-.12-.59-.48-.25-.12-.58-.46-.63-.58l1.2-2.61c-.31-.59-1.48-.66-1.94-.72-1,.59-.66,.46-1.65,.99-.73,.44-.77,.46-1.56,.99-.44,.22-.72,.38-.93,.56l-.44,.17c-.21,.11-1.61,.41-1.68,.47-1.15,.64-.89,1.3-1.08,1.95l.47,.6c-1.57,1.47-2.6,3.18-3.84,5.31l-3.15,5.38c-.18,.29-.31,.64-.57,.93l-.67,1.52c-.08,.12-1.57,2.13-1.87,2.65-.22,.47-.33,1.06-.72,1.4-.31,.23-1.39,.42-1.66,.47-3.38,1.18-3.13,2.18-3.6,4.5-.02,.14,.12,.42,.32,.44l2.12-.35-.82,1.87-.69,1.22-2.04,4.15c-.44,.94-.55,1.58-.66,2.83,.72,.33,1.13,.28,1.8,.13,.48-.1,.46-.04,.91-.32,.39-.34,.41-.45,.72-.74l.79-1.46,.16-.17,.11-.23s.27-.6,.76-1.47l.92-1.8c1.27-1.91,1.73-2.72,2.66-4.59,1.32-.18,6.36-.95,7.2-1.07l1.43-.34c.18-.05,2.6-.39,5.72-.78-.07,.84-.48,3.13-.54,3.52l-.98,7.22c-.04,.29-.28,.65-.19,.88l-.39,2.45c-.05,.35-.09,1.17,.26,1.47,.66,0,1.4-.58,1.55-.7,.86-.58,1.13-1.11,1.21-1.17,.02-.11,.38-1.38,.56-1.74,.19-.47,.37-.82,.43-1.23,.03-.24,.25-.88,.42-1.17,.19-.41,.55-2.05,.61-2.47l.5-1.29,1.51-6.21c0-.06,.02-.12,.03-.16,.72-.13,2.77-.4,2.77-.4,1.74-.27,3.49-.61,4.05-.37,1.35,.59-1.05,5.22-1.05,5.22l.04-.03-.54,1.27-.57,1.5c-.27,.54-2.23,4.56-1.95,5.09,.09,.24,.54,.48,1.14,.48,1.33,0,4.97-3.87,5.81-4.65l3.4-3.22c1.25-1.15,1.3-1.08,2.23-1.8,.91-.71,1.73-1.09,2.02-1.09l.32,.35c-.5,1.8-.48,2.04-1.08,3.72l-.77,1.98c-.16,.24-.31,.61-.33,.79l-1.33,3.85s-.04,.84,.67,1.02c.7,.17,2.2-.86,3.42-2.07l1.66-1.71c2.8-2.66,3.84-4.88,5.87-4.64,.98,.08,1.5,1.57,2.48,2.94,.41,.58,.97,2.08,2.68,2.08,.79,.04,1.66-.47,2.7-1.01,.66-.37,1.2-.71,1.65-1.02-.04,.37-.04,.68-.02,.91,0,0-.11,1.53,.26,2.31,.29,.58,.48,.76,1.31,1.11l1.26,.29c2.51,0,6.21-3.29,8.84-5.33,0,0,1.73-1.34,2.29-1.8,.55-.47,.43,.29,.43,.29-.11,.71-.27,1.59-.17,2.35,.25,1.41,1.48,2.04,2.47,2.31,1.52,.45,2.75-.18,4.83-1.57,.27-.12,2.89-2.71,2.86-2.81,.06-.05,.13-.11,.2-.17,.39-.34,1.49-1.51,2.67-2.61,1.07-.99,1.51-1.26,1.75-1.26,0,0,.08,.08-.17,.8-.25,.72-.28,.98-.46,1.41-.22,.3-.28,.66-.3,.84l-.61,1.26c-1.28,2.95-2.22,4.87-2.46,7.7,.38,.3,.85,.36,1.21,.36l1.04-.12c1.32-.42,1.21-.9,2.24-1.75,.14-.12,1.79-1.5,2.38-2.22,.67-.48,6.54-5.67,6.98-5.77,.77-.3,1.18,.6,1.23,1.02,.49,.36,1.15,1.98,1.49,2.52,.66,1.26,1.14,1.63,1.96,1.81,1.2,.42,2.54-.32,3.84-1.34,.68-.53,1.17-.94,1.48-1.25,.45-.26,1.39-1.16,1.53-1.33,.09-.12,2-1.87,2.06-1.87,1.01-.57,.85,.36,1.14,.84,.13,.36,.47,2.64,.67,2.88,.16,.54,.5,1.14,.64,1.38,.74,1.15,1.33,1.1,1.73,1.28,1.7,.52,4.28-.9,6.85-2.89,.02,.27-.75,2,.62,3.62,.19,.23,.06,.47,1,.76l1.36,.21c2.64-.12,6.6-3.8,9.11-5.89l.45-.5c.86-.57,.89,0,1.17,.8,.14,.32,.68,2.13,.9,2.33,.18,.47,.45,.72,.61,.92,.79,.95,1.44,1.14,1.88,1.25,2.13,.29,5.66-2.31,8.79-5.02l.29-2.84c-.58,.07-2.23,1.5-2.92,2.08"/><path class="cls-2" d="M45.78,181.55c13.19-3.35,87.79-11.24,121.92-12.67,105.95-4.43,148.78-6.71,200.95-5.96,3.19,.08,9.56-2.58,3.54-2.74-57.87-1.51-115.78-2.21-173.65-.72-38.93,1-77.95,2.91-116.63,7.61-8.54,1.04-17.06,2.25-25.55,3.67-1.64,.28-3.05,.55-4.74,1.61-4.01,2.5-4.02,4.14-4.02,4.14l-1.82,5.07Z"/></svg>