<svg id="Central_3" data-name="Central 3" xmlns="http://www.w3.org/2000/svg" viewBox="0 0 405.43 424.08"><defs><style>.cls-1{fill:#815aa2;}.cls-2{fill:#d07412;}.cls-3{fill:none;stroke:#44529f;stroke-miterlimit:10;}.cls-4{fill:#74539e;}.cls-5{fill:#654d8f;}.cls-6{fill:#8465a9;}.cls-7{fill:#29345a;}</style></defs><polygon class="cls-1" points="170.74 289.48 176.59 227.17 182.8 233.94 190.95 249.43 201.27 249.43 201.27 307.62 170.74 289.48"/><polygon class="cls-2" points="193.79 303.18 185.23 238.79 190.95 249.43 201.27 249.43 201.27 307.62 193.79 303.18"/><path class="cls-3" d="M358.64,229.89" transform="translate(-218.23 -72)"/><polygon class="cls-4" points="150.45 248.65 171.24 219.46 176.59 227.17 170.74 289.48 150.45 248.65"/><path class="cls-5" d="M376.08,294.43l8-13.7,5.41,10.73-20.79,29.19Z" transform="translate(-218.23 -72)"/><polygon class="cls-6" points="190.67 226.93 201.27 223.44 201.27 242.07 185.23 238.79 190.67 226.93"/><polygon class="cls-7" points="194.53 228.51 201.27 229.4 201.27 236.21 196.83 235.8 193.79 232.53 194.53 228.51"/><polygon class="cls-1" points="201.27 242.07 201.27 249.43 190.95 249.43 185.23 238.79 201.27 242.07"/><polygon class="cls-4" points="180.26 216.05 190.67 226.93 185.23 238.79 182.8 233.94 180.26 216.05"/><polygon class="cls-1" points="180.26 216.05 188.8 202.45 201.27 213.22 201.27 223.44 190.67 226.93 180.26 216.05"/><path class="cls-6" d="M401,306l-6.21-6.78-5.35-7.71-5.41-10.73-3.86-18.62,7.67-19.64,17.78,21s5.34,6.22,1.38,11l-8.54,13.61Z" transform="translate(-218.23 -72)"/><polygon class="cls-1" points="164.48 202.21 161.97 190.11 169.64 170.47 181.78 184.77 187.41 191.42 176.12 202.21 164.48 202.21"/><polygon class="cls-4" points="201.27 174.62 189.16 179.63 187.41 191.42 188.8 202.45 201.27 213.22 201.27 174.62"/><polygon class="cls-6" points="181.78 196.4 187.41 191.42 188.8 202.45 181.78 196.4"/><polygon class="cls-6" points="151.4 180.57 165.51 165.6 169.64 170.47 165.68 180.6 151.4 180.57"/><path class="cls-4" d="M347.79,236.34v11.33s15.14,5,21.84,4.91l14.11-15Z" transform="translate(-218.23 -72)"/><path class="cls-1" d="M329.11,220.22l18.68,16.12v11.33s-20-7.75-21-13.72S325.65,221.18,329.11,220.22Z" transform="translate(-218.23 -72)"/><path class="cls-6" d="M383.74,237.61l-24.06-15.1a15.14,15.14,0,0,0-7.56-1.89c-4.05.2-23-.4-23-.4l18.68,16.12Z" transform="translate(-218.23 -72)"/><polygon class="cls-4" points="201.27 174.62 201.27 154.37 189.59 157.88 201.27 174.62"/><polygon class="cls-6" points="187.41 191.42 169.64 170.47 189.16 179.63 187.41 191.42"/><polygon class="cls-1" points="182.46 169.4 169.64 170.47 189.16 179.63 182.46 169.4"/><polygon class="cls-4" points="182.46 169.4 189.59 157.88 189.16 179.63 182.46 169.4"/><polyline class="cls-6" points="201.27 174.62 189.59 157.88 189.16 179.63"/><polygon class="cls-2" points="169.64 170.47 165.51 165.6 157.9 154.61 102.95 128.83 67.61 92.38 63.29 65.85 66.78 46.47 67.64 65.54 72.37 84.35 81.33 91.37 76.56 67.77 69.84 42.96 73.82 23.43 83.06 13.04 95.77 9.08 110.26 0 97.53 13.23 87.66 19.24 83.71 25 81.04 42.6 85.01 57.84 97.87 49.82 105.28 46.38 112.99 46.09 132.22 42.89 118.14 50.42 106.54 51.47 100.07 56.58 87.35 67.48 98.16 103.14 115.56 117.93 115.82 101.5 120.4 86.96 149.31 69.46 128.54 91.56 126.39 102.47 129 118 138.46 129.28 148.63 132.89 163.16 139.71 161.96 124.98 166.86 111.27 190.75 90.66 174.06 113.38 170.54 125.66 179.14 151.84 189.59 157.88 189.59 157.88 182.46 169.4 169.64 170.47"/><path class="cls-4" d="M440.68,454.25q2.22-5.4,4.1-10.9A40.9,40.9,0,0,0,447,432.12c.74-.44,1.34-.76,1.81-1a2.21,2.21,0,0,1,1.42-.16,3.93,3.93,0,0,1,1.58.9c.58.49,1.29,1.18,2.13,2.05a6.83,6.83,0,0,0,1.73-1.39,17.49,17.49,0,0,0,1.27-1.72c1.47-1.09,2.91-2.14,4.33-3.12a14.45,14.45,0,0,1,4.81-2.13,22.46,22.46,0,0,1,4.18-.25,8.16,8.16,0,0,1,3.71,1.07,2.31,2.31,0,0,1,1.57,2.29c-.42,1.1-.94,1.64-1.57,1.64h-1.42a3.68,3.68,0,0,1-1.42-.32,17,17,0,0,0-3.71.41,6.43,6.43,0,0,0-3.39,2.21,111.7,111.7,0,0,0-8.36,9,42.47,42.47,0,0,0-6.46,10.82,10.38,10.38,0,0,1-.71,1.72c-.26.49-.61,1.07-1,1.72-.52,1.31-1.36,1.75-2.52,1.31a11.73,11.73,0,0,1-2.28-.82A4.92,4.92,0,0,1,440.68,454.25Z" transform="translate(-218.23 -72)"/><path class="cls-4" d="M493.67,459.5a11.91,11.91,0,0,1-3.95-.66,3.22,3.22,0,0,1-.63-.41,5.62,5.62,0,0,0-.63-.41,4.89,4.89,0,0,1-1.26-3.44,8.78,8.78,0,0,1,.47-1.8,2.46,2.46,0,0,0,.16-1.48.57.57,0,0,0-.63-.65.43.43,0,0,1-.31.16.47.47,0,0,0-.32.16,9.72,9.72,0,0,1-2.21,2.46c-.52.44-1,.82-1.42,1.15a15.86,15.86,0,0,1-1.42,1A17.76,17.76,0,0,0,480,457a6.57,6.57,0,0,1-1.66,1.23,10.78,10.78,0,0,1-8.2,2.29,4.64,4.64,0,0,1-2.84-1.31,10.08,10.08,0,0,0-1.1-1.47,2.18,2.18,0,0,1-.16-2.79c.32-.76.61-1.53.87-2.3a7.55,7.55,0,0,0,.39-2.46,4,4,0,0,1,.95-2,20.81,20.81,0,0,1,1.58-2.3,16.36,16.36,0,0,1,1.89-2c.52-.54,1.05-1.12,1.57-1.72s1.05-1.17,1.58-1.72a6,6,0,0,1,1.1-1.15,7.24,7.24,0,0,0,1.27-1.31,10.45,10.45,0,0,0,1.34-1.31c.36-.44.76-.87,1.18-1.31a12.88,12.88,0,0,1,5-3.61l4.25-2a2.69,2.69,0,0,1,1.11-.41,9.31,9.31,0,0,0,1.26-.24,2.24,2.24,0,0,1,2.05,0h.31a6.47,6.47,0,0,0,2.13.65l2.29.33a3.1,3.1,0,0,1,2.13,1.23,2.5,2.5,0,0,1,.23,2.05,10.59,10.59,0,0,1-1.1,4.59,28,28,0,0,1-1.1,2.62,13.23,13.23,0,0,0-.95,2.63c-.21.55-.42,1.06-.63,1.56s-.42,1-.63,1.55l-.95,2.63c-.31.87-.58,1.69-.79,2.46v1.14c0,.11.11.25.32.41a1,1,0,0,0,.63.25,3.94,3.94,0,0,0,1.26-.16c.84-.33,1.71-.71,2.6-1.15s1.76-.88,2.61-1.31q1.89-1.32,3.94-2.71l3.94-2.7a37.56,37.56,0,0,1,5.36-2.46,3.36,3.36,0,0,1,1.11-.17.93.93,0,0,1,.63.33,1,1,0,0,1,.31.66l-.94,1.47-1.9,2c-.63.65-1.26,1.26-1.89,1.8a42.82,42.82,0,0,0-4.1,3.12c-1.26,1.09-2.58,2.13-3.94,3.11a25.55,25.55,0,0,1-2.37,1.56q-1.26.74-2.52,1.56A11.83,11.83,0,0,1,493.67,459.5Zm-.16-25.41c0-.66-.27-1-.79-1a2.46,2.46,0,0,1-1.1.33,1.63,1.63,0,0,0-.95.33,8.38,8.38,0,0,0-2.21.9,14.25,14.25,0,0,0-1.89,1.39,25,25,0,0,0-2.52,2.3c-.84.88-1.69,1.75-2.53,2.62-1.26,1.53-2.47,3.15-3.62,4.84s-2.32,3.36-3.47,5v.66c-.11.22-.13.35-.08.41a.33.33,0,0,1,.08.24h1.1a3.84,3.84,0,0,1,1-.74,3.75,3.75,0,0,0,.94-.73c1.37-1.21,2.74-2.43,4.1-3.69s2.68-2.49,4-3.69l3.39-3.2c1.1-1,2.18-2.1,3.23-3.2a9.78,9.78,0,0,0,.79-.9,4.92,4.92,0,0,0,.63-1.23c.1-.22.13-.35.08-.41A.29.29,0,0,1,493.51,434.09Z" transform="translate(-218.23 -72)"/><path class="cls-4" d="M561.79,427.69c-.22.66-.43,1.42-.64,2.3a9.17,9.17,0,0,1-1.1,2.62q-.94,2.29-2,4.43c-.69,1.42-1.34,2.89-2,4.42-.42,1.21-.82,2.3-1.18,3.28a18.43,18.43,0,0,0-.87,3.28,16.41,16.41,0,0,0-.4,2.87c0,1-.07,2-.07,2.87.2,2.19.76,3.67,1.65,4.43s2.39,1,4.49.82a24.26,24.26,0,0,0,8.83-2.63l2.37-1.22a10.69,10.69,0,0,1,2.37-.91,1.91,1.91,0,0,1,.71.17,2.66,2.66,0,0,0,1,.16q-1.74,2.3-3.15,4.43a9.76,9.76,0,0,1-3.63,3.28,16.35,16.35,0,0,1-10.41,1.8,10.61,10.61,0,0,1-7.41-4.67,13.29,13.29,0,0,1-2.52-8.77A26.79,26.79,0,0,1,549,446q.79-2.37,1.42-5c1.16-2.62,2.31-5.24,3.47-7.87a64.92,64.92,0,0,1,3.94-7.54,10.82,10.82,0,0,0,1.74-2.79c.42-1,.89-2,1.42-3.11.52-1.31,2.44-3.12,1.91-4.54-.63,0,1.87-4.81,1.87-4.81a20.78,20.78,0,0,0,3.78-6.39q1.28-2.13,2.53-4.1a36.2,36.2,0,0,0,2.21-3.94,2.28,2.28,0,0,0,.47-.73,2.07,2.07,0,0,1,.47-.74,4.62,4.62,0,0,1,2.21-1.31,9.91,9.91,0,0,1,2.52-.33c1.16,0,1.89.33,2.21,1a14.72,14.72,0,0,0,1.26,2.13q-2.69,3.28-5.12,6.56a58.4,58.4,0,0,0-4.5,7.05c-1.29,2.75-3.1,6-3.94,6.48a4.56,4.56,0,0,0-1.89,2.7,22.18,22.18,0,0,1-1.89,3.45,35.47,35.47,0,0,0-2.05,3.44h-.32c-.21.44-.37.79-.47,1.07S562,427.26,561.79,427.69Z" transform="translate(-218.23 -72)"/><polygon class="cls-4" points="176.12 202.21 181.78 196.4 188.8 202.45 180.26 216.05 176.12 202.21"/><path class="cls-7" d="M407,274.45l-8.54-8.53a5,5,0,0,0-3.92-1.61,4.86,4.86,0,0,0-3.72,1.59s1.47,2.5,4,2a9.32,9.32,0,0,0,2.7-1Z" transform="translate(-218.23 -72)"/><polygon class="cls-1" points="231.79 289.48 225.94 227.17 219.73 233.94 211.58 249.43 201.27 249.43 201.27 307.62 231.79 289.48"/><polygon class="cls-2" points="208.74 303.18 217.3 238.79 211.58 249.43 201.27 249.43 201.27 307.62 208.74 303.18"/><path class="cls-3" d="M480.35,229.89" transform="translate(-218.23 -72)"/><polygon class="cls-4" points="252.09 248.65 231.29 219.46 225.94 227.17 231.79 289.48 252.09 248.65"/><path class="cls-5" d="M462.92,294.43l-8-13.7-5.41,10.73,20.8,29.19Z" transform="translate(-218.23 -72)"/><polygon class="cls-6" points="211.86 226.93 201.27 223.44 201.27 242.07 217.3 238.79 211.86 226.93"/><polygon class="cls-7" points="208 228.51 201.27 229.4 201.27 236.21 205.7 235.8 208.74 232.53 208 228.51"/><polygon class="cls-1" points="201.27 242.07 201.27 249.43 211.58 249.43 217.3 238.79 201.27 242.07"/><polygon class="cls-4" points="222.27 216.05 211.86 226.93 217.3 238.79 219.73 233.94 222.27 216.05"/><polygon class="cls-1" points="222.27 216.05 213.73 202.45 201.27 213.22 201.27 223.44 211.86 226.93 222.27 216.05"/><path class="cls-6" d="M438,306l6.21-6.78,5.35-7.71,5.41-10.73,3.86-18.62-7.66-19.64-17.78,21s-5.34,6.22-1.39,11l8.54,13.61Z" transform="translate(-218.23 -72)"/><polygon class="cls-1" points="238.05 202.21 240.56 190.11 232.89 170.47 220.76 184.77 215.12 191.42 226.41 202.21 238.05 202.21"/><polygon class="cls-4" points="201.27 174.62 213.37 179.63 215.12 191.42 213.73 202.45 201.27 213.22 201.27 174.62"/><polygon class="cls-6" points="220.76 196.4 215.12 191.42 213.73 202.45 220.76 196.4"/><polygon class="cls-6" points="251.13 180.57 237.02 165.6 232.89 170.47 236.85 180.6 251.13 180.57"/><path class="cls-4" d="M491.2,236.34v11.33s-15.13,5-21.84,4.91l-14.11-15Z" transform="translate(-218.23 -72)"/><path class="cls-1" d="M509.88,220.22,491.2,236.34v11.33s20-7.75,21-13.72S513.35,221.18,509.88,220.22Z" transform="translate(-218.23 -72)"/><path class="cls-6" d="M455.25,237.61l24.06-15.1a15.16,15.16,0,0,1,7.57-1.89c4,.2,23-.4,23-.4L491.2,236.34Z" transform="translate(-218.23 -72)"/><polygon class="cls-4" points="201.27 174.62 201.27 154.37 212.94 157.88 201.27 174.62"/><polygon class="cls-6" points="215.12 191.42 232.89 170.47 213.37 179.63 215.12 191.42"/><polygon class="cls-1" points="220.07 169.4 232.89 170.47 213.37 179.63 220.07 169.4"/><polygon class="cls-4" points="220.07 169.4 212.94 157.88 213.37 179.63 220.07 169.4"/><polyline class="cls-6" points="201.27 174.62 212.94 157.88 213.37 179.63"/><polygon class="cls-2" points="232.89 170.47 237.02 165.6 244.63 154.61 299.58 128.83 334.92 92.38 339.24 65.85 335.75 46.47 334.89 65.54 330.16 84.35 321.2 91.37 325.97 67.77 332.69 42.96 328.71 23.43 319.48 13.04 306.76 9.08 292.27 0 305 13.23 314.88 19.24 318.83 25 321.49 42.6 317.52 57.84 304.66 49.82 297.26 46.38 289.55 46.09 270.31 42.89 284.39 50.42 295.99 51.47 302.46 56.58 315.18 67.48 304.37 103.14 286.98 117.93 286.71 101.5 282.14 86.96 253.22 69.46 273.99 91.56 276.14 102.47 273.53 118 264.07 129.28 253.9 132.89 239.37 139.71 240.58 124.98 235.67 111.27 211.78 90.66 228.47 113.38 231.99 125.66 223.39 151.84 212.94 157.88 212.94 157.88 220.07 169.4 232.89 170.47"/><polygon class="cls-4" points="226.41 202.21 220.76 196.4 213.73 202.45 222.27 216.05 226.41 202.21"/><path class="cls-7" d="M432,274.45l8.54-8.53a5,5,0,0,1,3.92-1.61,4.86,4.86,0,0,1,3.72,1.59s-1.47,2.5-4.05,2a9.34,9.34,0,0,1-2.69-1Z" transform="translate(-218.23 -72)"/><path class="cls-4" d="M310.82,463.6a7,7,0,0,1-2.84-.49l-.63-.33a4.8,4.8,0,0,0-1-.33,1.9,1.9,0,0,1-.47-.33,2,2,0,0,0-.47-.32c-.53-.55-1-1-1.5-1.48a5.19,5.19,0,0,1-1.18-1.64,4,4,0,0,1,0-3.11,23.88,23.88,0,0,1,.79-2.63c.31-.87.63-1.8.94-2.79.11-.32.24-.71.4-1.14a5.34,5.34,0,0,1,.55-1.15,14.34,14.34,0,0,0,1.26-3.61,4.35,4.35,0,0,1,1.26-2.62,10.45,10.45,0,0,1,3-4.1c.63-.66,1.23-1.31,1.81-2a20.48,20.48,0,0,1,1.81-1.8,10.86,10.86,0,0,0,1.11-.66c.63-.22,1.23-.41,1.81-.57s1.29-.35,2.13-.58a1.65,1.65,0,0,1,.71-.16h.71a2.85,2.85,0,0,1,1.73.82,22.4,22.4,0,0,1,2.21,2.3,11.08,11.08,0,0,1,1.1,2.29,2.93,2.93,0,0,1-.31,2.62,19.2,19.2,0,0,1-2.21,2.55q-1.26,1.23-2.52,2.37c-1.05.88-2.11,1.78-3.15,2.71s-2.16,1.83-3.32,2.7a3.39,3.39,0,0,1-2.52.66,2.29,2.29,0,0,0-.95.16,3.27,3.27,0,0,0-1.26,1,5.15,5.15,0,0,0-.63,2,7.55,7.55,0,0,0-.47,4.09,3.85,3.85,0,0,1,.47.58,2.63,2.63,0,0,0,.63.57,4.65,4.65,0,0,0,2.05.17,13.94,13.94,0,0,0,3.79-1.15,31.3,31.3,0,0,0,4-1.81c1.21-.65,2.44-1.36,3.7-2.13l4-2.54c1.32-.82,2.66-1.66,4-2.54a4.78,4.78,0,0,1,1.42-.33.82.82,0,0,1,1,.08c.37.28.5.52.39.74a7.69,7.69,0,0,1-2.36,4.1,26,26,0,0,0-3.39,2.3c-1.11.87-2.13,1.75-3.08,2.62-.84.55-1.71,1.12-2.6,1.72a11.33,11.33,0,0,1-2.91,1.4c-.74.32-1.5.63-2.29.9a7.54,7.54,0,0,1-2.45.41,15.79,15.79,0,0,1-2.2.49A7.44,7.44,0,0,1,310.82,463.6Zm9.93-25.25a.9.9,0,0,1-.31-.58c0-.16-.06-.24-.16-.24h-.95a3.25,3.25,0,0,1-.63.82q-1.57,1.63-3.07,3.44a17.3,17.3,0,0,0-2.45,3.94c0,.44.06.65.16.65h.48c.52-.54,1.05-1.06,1.57-1.55s1.05-1,1.58-1.56a7.28,7.28,0,0,0,2-2,27,27,0,0,0,1.42-2.3A.92.92,0,0,0,320.75,438.35Z" transform="translate(-218.23 -72)"/><path class="cls-4" d="M356.55,459.5a11.85,11.85,0,0,1-3.94-.66,3,3,0,0,1-.64-.41,5.62,5.62,0,0,0-.63-.41,4.89,4.89,0,0,1-1.26-3.44,9.47,9.47,0,0,1,.47-1.8,2.46,2.46,0,0,0,.16-1.48.57.57,0,0,0-.63-.65.43.43,0,0,1-.31.16.47.47,0,0,0-.32.16,9.72,9.72,0,0,1-2.21,2.46c-.52.44-1,.82-1.42,1.15a17.21,17.21,0,0,1-1.41,1,16.46,16.46,0,0,0-1.5,1.39,6.57,6.57,0,0,1-1.66,1.23,10.77,10.77,0,0,1-8.2,2.29,4.66,4.66,0,0,1-2.84-1.31,9.41,9.41,0,0,0-1.1-1.47,2.18,2.18,0,0,1-.16-2.79c.32-.76.61-1.53.87-2.3a7.55,7.55,0,0,0,.39-2.46,4,4,0,0,1,1-2,20.81,20.81,0,0,1,1.58-2.3,16.36,16.36,0,0,1,1.89-2c.52-.54,1.05-1.12,1.58-1.72s1.05-1.17,1.57-1.72a6,6,0,0,1,1.11-1.15,7.57,7.57,0,0,0,1.26-1.31,10.45,10.45,0,0,0,1.34-1.31c.37-.44.76-.87,1.18-1.31a12.88,12.88,0,0,1,5.05-3.61l4.25-2a2.69,2.69,0,0,1,1.11-.41,9.31,9.31,0,0,0,1.26-.24,2.24,2.24,0,0,1,2.05,0h.31a6.55,6.55,0,0,0,2.13.65l2.29.33a3.1,3.1,0,0,1,2.13,1.23,2.54,2.54,0,0,1,.24,2.05,10.46,10.46,0,0,1-1.11,4.59,25.58,25.58,0,0,1-1.1,2.62,13.23,13.23,0,0,0-.95,2.63c-.21.55-.42,1.06-.63,1.56s-.42,1-.63,1.55l-.95,2.63q-.47,1.31-.78,2.46v1.14c0,.11.1.25.31.41a1,1,0,0,0,.63.25,3.9,3.9,0,0,0,1.26-.16c.84-.33,1.71-.71,2.61-1.15l2.6-1.31q1.89-1.32,3.94-2.71l3.94-2.7a37.56,37.56,0,0,1,5.36-2.46,3.36,3.36,0,0,1,1.11-.17.89.89,0,0,1,.63.33,1,1,0,0,1,.31.66l-.94,1.47-1.9,2c-.63.65-1.26,1.26-1.89,1.8a42.82,42.82,0,0,0-4.1,3.12c-1.26,1.09-2.58,2.13-3.94,3.11a25.55,25.55,0,0,1-2.37,1.56q-1.26.74-2.52,1.56A11.83,11.83,0,0,1,356.55,459.5Zm-.16-25.41c0-.66-.26-1-.79-1a2.46,2.46,0,0,1-1.1.33,1.66,1.66,0,0,0-.95.33,8.38,8.38,0,0,0-2.21.9,14.25,14.25,0,0,0-1.89,1.39,25,25,0,0,0-2.52,2.3L344.41,441c-1.27,1.53-2.48,3.15-3.63,4.84s-2.31,3.36-3.47,5v.66c-.11.22-.13.35-.08.41a.33.33,0,0,1,.08.24h1.1a3.84,3.84,0,0,1,.95-.74,3.58,3.58,0,0,0,.94-.73c1.37-1.21,2.74-2.43,4.11-3.69s2.68-2.49,3.94-3.69l3.39-3.2c1.1-1,2.18-2.1,3.23-3.2a8.47,8.47,0,0,0,.79-.9,4.92,4.92,0,0,0,.63-1.23c.1-.22.13-.35.08-.41A.29.29,0,0,1,356.39,434.09Z" transform="translate(-218.23 -72)"/><path class="cls-2" d="M389,427.69c-.21.66-.42,1.42-.63,2.3a9.2,9.2,0,0,1-1.11,2.62q-.93,2.29-2,4.43t-2,4.42c-.42,1.21-.81,2.3-1.18,3.28a18.43,18.43,0,0,0-.87,3.28,15.54,15.54,0,0,0-.39,2.87c-.05,1-.08,2-.08,2.87q.32,3.28,1.66,4.43c.89.76,2.39,1,4.49.82a24.32,24.32,0,0,0,8.83-2.63l2.37-1.22a10.8,10.8,0,0,1,2.36-.91,1.87,1.87,0,0,1,.71.17,2.68,2.68,0,0,0,1,.16q-1.74,2.3-3.16,4.43a9.61,9.61,0,0,1-3.63,3.28,16.31,16.31,0,0,1-10.4,1.8,10.61,10.61,0,0,1-7.41-4.67,13.3,13.3,0,0,1-2.53-8.77,26.84,26.84,0,0,1,1.11-4.68c.52-1.58,1-3.25,1.42-5q1.72-3.93,3.47-7.87a62,62,0,0,1,3.94-7.54,11.05,11.05,0,0,0,1.73-2.79c.42-1,.89-2,1.42-3.11a5.48,5.48,0,0,0,0-4.1,9.17,9.17,0,0,1-1.73-.16,9.42,9.42,0,0,0-1.9-.17q-3.78,0-7.8.17c-2.68.1-5.39.16-8.12.16a46.56,46.56,0,0,1-5.68-.33,26.85,26.85,0,0,1-5.52-1.31,4.73,4.73,0,0,1-1.65-1,16,16,0,0,0-1.66-1.32,7.42,7.42,0,0,1,3.08-1.14,25.32,25.32,0,0,1,2.76-.17h32a20.78,20.78,0,0,0,3.78-6.39q1.26-2.13,2.52-4.1a36.2,36.2,0,0,0,2.21-3.94,2.12,2.12,0,0,0,.47-.73,2.1,2.1,0,0,1,.48-.74,4.59,4.59,0,0,1,2.2-1.31,10,10,0,0,1,2.53-.33c1.15,0,1.89.33,2.21,1a14.72,14.72,0,0,0,1.26,2.13q-2.69,3.28-5.13,6.56a58.34,58.34,0,0,0-4.49,7.05,47.68,47.68,0,0,0,9.62.33c3.05-.22,6.09-.33,9.14-.33a75.71,75.71,0,0,0,8.68.17c2.94-.11,98.52,2.71,101.26,2.71,2.94.22-86.81-2.52-83.76-2.47s175.6,3.39,178.65,3.61c-4.94,1.75-87.22,2.3-93.31,2.3-3,.22-69.59-.22-72.37,0s-34.63-1.78-37.57-1.56q-4.73.33-9.62.49t-9.78.49h-1.73a6.17,6.17,0,0,0-3.15.74,4.53,4.53,0,0,0-1.9,2.7,20.63,20.63,0,0,1-1.89,3.45,35.47,35.47,0,0,0-2,3.44H390c-.22.44-.37.79-.48,1.07S389.24,427.26,389,427.69Z" transform="translate(-218.23 -72)"/><path class="cls-4" d="M503.76,479.5A7.44,7.44,0,0,0,504,478a12.4,12.4,0,0,1,.4-2.22c.1-1.42.21-2.78.31-4.1a15.5,15.5,0,0,1,.95-4.1,9.19,9.19,0,0,1,.39-2.62c.27-.87.56-1.75.87-2.62.31-1.2.68-2.38,1.1-3.53s.79-2.32,1.11-3.52q1.89-5.75,4.41-11.64c.32-.77.68-1.62,1.11-2.55s.78-1.82,1.1-2.7a23.54,23.54,0,0,1,1.58-3.53c.63-1.14,1.2-2.32,1.73-3.52.74-1.53,1.47-3,2.21-4.35s1.47-2.81,2.21-4.34c.52-1,1.07-2.05,1.65-3.2a17.55,17.55,0,0,0,1.34-3.52,3.66,3.66,0,0,0,.63-1.31,7.47,7.47,0,0,1,.63-1.32,2.06,2.06,0,0,0,.32-1.14,13.06,13.06,0,0,1,2.37-4.76,25.73,25.73,0,0,0,1.73-2.79c.52-1,1.1-2,1.73-2.95s1-1.83,1.58-2.87,1-2.05,1.58-3a12.75,12.75,0,0,0,1.26-2.3c1.16-1.64,2.26-3.3,3.31-5a54.35,54.35,0,0,0,2.84-5.16,2,2,0,0,1,.55-.66.48.48,0,0,1,.71,0h1.5a7.42,7.42,0,0,1,1.5.17,2.78,2.78,0,0,1,1.57,1.31,2.58,2.58,0,0,1,.32,2.46,8.73,8.73,0,0,1-.55,1.72c-.27.6-.56,1.18-.87,1.72q-1.74,2.63-3.39,5.41c-1.1,1.86-2.24,3.61-3.39,5.25-.74,1.2-1.47,2.32-2.21,3.36a19,19,0,0,0-1.89,3.36,8.2,8.2,0,0,1-.4,1,2.88,2.88,0,0,1-.55.81,46.62,46.62,0,0,0-3.54,5.58q-1.5,2.79-3.24,5.9-1.57,2.79-3.23,5.74a53.69,53.69,0,0,0-2.92,6.07,10.93,10.93,0,0,1-1.18,2.37,7.33,7.33,0,0,0-1,2.38,1.32,1.32,0,0,0-.16.82,1,1,0,0,0,.71,1.07,3.79,3.79,0,0,0,1.18.24h1.26a16.38,16.38,0,0,1,6.31.25,18.93,18.93,0,0,0,6.31.41,4.26,4.26,0,0,0,2.36,0q3,.17,5.91.16a47.65,47.65,0,0,0,5.76-.33,1.32,1.32,0,0,1,1.26,0q.95,0,.63,1a3,3,0,0,0-.31,1.15,1,1,0,0,1-.63.65c-.22.11-.4.19-.55.25a1.48,1.48,0,0,0-.56.41l-3.78.65-3.79.66a21.27,21.27,0,0,1-7-.49,28.29,28.29,0,0,0-6.7-.82,2.21,2.21,0,0,0-.87.16,5.3,5.3,0,0,0-.87.49c.21,1,.4,1.75.55,2.3a14.31,14.31,0,0,0,.55,1.56,3.84,3.84,0,0,1,.32.9,36.2,36.2,0,0,1,1.26,6.89,51.82,51.82,0,0,1,.16,6.88,42.71,42.71,0,0,1-1,10,81.14,81.14,0,0,1-2.76,9c-.31.88-.65,1.72-1,2.54a25.14,25.14,0,0,1-1.34,2.54,7.67,7.67,0,0,1-1.34,2.14,21.49,21.49,0,0,0-1.66,2.13,23.73,23.73,0,0,1-2,2.38,11.44,11.44,0,0,1-2.44,1.88,5,5,0,0,1-3.47,1,3.16,3.16,0,0,1-1.26-.16,4.37,4.37,0,0,1-2.37-.82,16,16,0,0,0-1.73-1,5.66,5.66,0,0,1-.87-.74l-.71-.74a12.11,12.11,0,0,1-1.58-2.46,26.86,26.86,0,0,0-1.42-2.62,4.45,4.45,0,0,0-.31-.58,1,1,0,0,1-.16-.57,18.78,18.78,0,0,1-.31-3.2Zm4.88,1.15v2a9.11,9.11,0,0,0,.16,1.64,13.87,13.87,0,0,0,1.11,5.08,6.89,6.89,0,0,0,1.1,1.81,2.71,2.71,0,0,0,2.36.49.63.63,0,0,1,.64-.49,11.44,11.44,0,0,0,2.2-2,12.3,12.3,0,0,1,1.66-2,5.33,5.33,0,0,0,1.34-2.13l.47-.49a9.6,9.6,0,0,1,.79-1.81c.63-1.31,1.23-2.62,1.81-3.93s1.13-2.73,1.66-4.26.81-3.31,1.18-5.33.66-4.07.87-6.15a47.3,47.3,0,0,0,.24-6,17.88,17.88,0,0,0-.71-4.83,6.64,6.64,0,0,0-.16-1.48c-.11-.43-.24-1.2-.4-2.3s-.34-2.21-.55-3.36a15.36,15.36,0,0,0-.86-3c-.37-.87-.77-1.31-1.19-1.31a2.72,2.72,0,0,0-2.52,1.31.14.14,0,0,1-.16.16q-1.26,2.63-2.28,5c-.69,1.59-1.29,3.2-1.82,4.84a13.51,13.51,0,0,0-.47,1.4,4.39,4.39,0,0,1-.47,1.06,60,60,0,0,0-2,6.23,68.37,68.37,0,0,0-3.31,14.43c-.11,1-.21,1.94-.32,2.87S508.75,479.89,508.64,480.65Z" transform="translate(-218.23 -72)"/><path class="cls-4" d="M432,448.36a92.21,92.21,0,0,1,8.9-5.42,9.15,9.15,0,0,1,1.84-.87c.58-.19,1.19-.42,1.84-.68q.78-.76.78,0c.38.39.38.71,0,1a1.51,1.51,0,0,1-.2.58c-.26.39-.55.77-.87,1.16s-.68.78-1.06,1.16a11.44,11.44,0,0,0-1.16.88c-.39.32-.78.67-1.17,1.06a22.56,22.56,0,0,1-1.45,2.13,9,9,0,0,1-1.64,1.74,11.92,11.92,0,0,0-3,2.33,14.11,14.11,0,0,1-2.8,2.32l-2.33,1.93-6.19,4.07a18.89,18.89,0,0,1-9.88,2.32h-2.71a6.16,6.16,0,0,1-3.48-1.55,9.61,9.61,0,0,1-1.45-1.74c-.32-.51-.68-1.09-1.07-1.74a.6.6,0,0,1-.19-.39.52.52,0,0,1-.19-.38,9.67,9.67,0,0,0,.48-2.33,20.35,20.35,0,0,1,.29-2.13,18.31,18.31,0,0,0,.39-5,2.68,2.68,0,0,1,.19-1.16,17.91,17.91,0,0,0,2.71-3.49,38,38,0,0,0,2.13-4.06,5.18,5.18,0,0,1,1-2.23,15.39,15.39,0,0,0,1.35-2.23,7,7,0,0,1,.88-1.35c.32-.39.61-.78.87-1.16a4.62,4.62,0,0,0,1.55-1,10.69,10.69,0,0,1,1.35-1.16,15.23,15.23,0,0,1,3.29-1.55,4.05,4.05,0,0,1,3.49,0,2.25,2.25,0,0,1,1.06,1,12.91,12.91,0,0,0,.68,1.16l2.9,4.84-1.74.87q-1.35.67-5-.1l-.39.39a38.61,38.61,0,0,0-4.07,5.23q-1.74,2.72-3.29,5.61c-.51,1.29-1,2.52-1.35,3.68a16.7,16.7,0,0,0-.78,3.49c-.26.64-.19,1.09.2,1.35a2.07,2.07,0,0,0,1.35.77,6.3,6.3,0,0,0,1.94-.38l3.48-1.55c1.16-.52,2.39-1.1,3.68-1.74.9-.65,1.84-1.26,2.81-1.84s2-1.2,3-1.84l2.71-1.94v.2Z" transform="translate(-218.23 -72)"/><path class="cls-4" d="M262.83,406.11a7.61,7.61,0,0,0-1,1.52c-.39.75-.79,1.52-1.18,2.31s-.75,1.56-1.06,2.31a12,12,0,0,0-.59,1.65q-4.75,9.9-9.77,18.94T238.82,452a124.43,124.43,0,0,1-5.74,11.08q-3.24,5.53-6.27,11.09c-.44.61-.93,1.25-1.45,1.91a7.86,7.86,0,0,1-2.11,1.78c-1.15.61-2,1.1-2.64,1.45s-1.41.18-2.38-.53a50.55,50.55,0,0,1,2.77-5.27,54.72,54.72,0,0,0,3-4.69q1.4-2.44,2.71-5.34,1.71-3.43,3.56-7t3.69-7c.62-1.14,1.24-2.31,1.85-3.5s1.14-2.31,1.59-3.36q2.24-4.62,4.42-9t4.55-9.31q2.64-5,5.15-10.22c1.66-3.48,3.21-7.06,4.61-10.76a52.56,52.56,0,0,0,2.51-6.2q1-3.17,1.85-6.6c.26-1.14.48-2.31.66-3.49a25.64,25.64,0,0,0,.26-3.63h2.51a12.33,12.33,0,0,0,2.51,1.05,13.13,13.13,0,0,1,2.5,1.06c.27,1.23,2.31,2.2,2.31,3.3s-.48,2.18.22,3.41V394q0,3.82-.32,7.78c-.23,2.64-.42,5.24-.6,7.79q-.79,7.92-1.78,15.77a78.92,78.92,0,0,0-.33,16.16q.39,2.78.86,5.74a42,42,0,0,0,1.25,5.61,9.28,9.28,0,0,0,1,2.77c.48.88.95,1.76,1.39,2.64a4,4,0,0,0,2,1.84,11.92,11.92,0,0,0,2.84,1c1,.22.82.62,1.84.62a7.23,7.23,0,0,0,2.57-.4,23.71,23.71,0,0,1,3.3-1.84,27.08,27.08,0,0,0,3.17-1.72,12.22,12.22,0,0,0,2.57-2.18,7.66,7.66,0,0,0,1.65-3.23,10,10,0,0,1,.66-2.05l1.05-2.5c.36-.84.71-1.67,1.06-2.51s.61-1.52.79-2.05q3.16-9.36,6.07-17.28t6.07-15.31q3.17-7.39,6.86-14.65t8.45-15.44a1.32,1.32,0,0,0,.53-.86,1.28,1.28,0,0,1,.53-.85c.61-.88,1.12-1.63,1.51-2.25a3.46,3.46,0,0,1,1.26-1.25,1.53,1.53,0,0,1,1.45.07,10.53,10.53,0,0,1,2.11,1.58c0,1,1.5,1.75,1.06,2.45l-1.32,2.11a118.58,118.58,0,0,0-9.44,14.91q-3.89,7.4-7,14.92t-5.87,15.24q-2.78,7.71-5.94,16-2.25,6.33-4,11.88a55,55,0,0,1-2,6.07c-.79,2-3.52,4-4.75,5.86a13.33,13.33,0,0,1-1.52.86c-.31.13-.9.42-1.78.85v-4.88q-1.59.27-3,.6c-.92.22-1.78.46-2.57.72q-4.76,1.73-7.92.4a28.08,28.08,0,0,1-6.86-4.36,14.38,14.38,0,0,1-4.09-5.61,31.33,31.33,0,0,1-1.92-6.79,44.33,44.33,0,0,1-.59-7.19v-6.67a125.87,125.87,0,0,0,1-13.26q.19-7.32.72-13.26v-1.19c0-.17,0-.26-.13-.26a.36.36,0,0,1-.26-.14A.38.38,0,0,1,262.83,406.11Z" transform="translate(-218.23 -72)"/></svg>