<svg width="185" height="204" viewBox="0 0 185 204" fill="none" xmlns="http://www.w3.org/2000/svg">
<path d="M7.94141 117.525L24.7792 109.902L44.4762 112.125L46.0647 64.1625H78.4695L92.448 73.3739H137.243L162.341 74.6445L156.94 114.667H176.955L178.861 168.982L94.6718 164.853L27.9561 173.112L7.94141 165.806V117.525Z" fill="#F1DDB6"/>
<path d="M70.7773 78.2005V106.153C70.7773 107.266 70.1443 107.823 68.8781 107.823H63.7891V76.5303H68.8781C70.1443 76.5303 70.7773 77.0856 70.7773 78.2005Z" fill="#17260F"/>
<path d="M108.558 94H101.416V89.214C101.416 88.1013 102.049 87.5438 103.315 87.5438H106.658C107.924 87.5438 108.558 88.0991 108.558 89.214V94Z" fill="#17260F"/>
<path d="M23.2545 152.701V126.268C23.2545 125.155 23.8876 124.598 25.1537 124.598H28.3435C29.6097 124.598 30.2428 125.153 30.2428 126.268V152.701C30.2428 153.814 29.6097 154.371 28.3435 154.371H25.1537C23.8876 154.371 23.2545 153.816 23.2545 152.701Z" fill="#17260F"/>
<path d="M104.77 141.305H97.6286V136.519C97.6286 135.407 98.2617 134.849 99.5278 134.849H102.871C104.137 134.849 104.77 135.404 104.77 136.519V141.305Z" fill="#17260F"/>
<path fill-rule="evenodd" clip-rule="evenodd" d="M134.332 52.3846L151.618 56.6954L157.018 53.4506L153.773 48.0516L130.002 42.1262L135.931 18.3625L144.03 13.4965L135.918 0L122.421 8.10854L127.286 16.206L121.359 39.9719L97.5888 34.0466L92.1909 37.2913L95.4341 42.6881L112.723 46.9989L107.318 68.6639H100.394C97.9466 68.6639 95.3388 68.9126 92.7909 69.63C91.8024 67.0226 90.1964 64.5619 87.7685 62.512C83.3636 58.7964 77.8348 57.8014 72.9479 57.8014H40.5411V106.228C37.8288 105.393 35.0278 105.109 32.4111 105.109H21.1668C9.31381 104.805 -0.157886 112.256 0.00204857 124.52V154.447C-0.160108 166.722 9.32492 174.162 21.1645 173.86H23.5591L28.3461 179.025H70.9354L66.0818 173.86H105.87C110.164 173.86 114.953 173.091 119.04 170.386C123.127 173.091 127.917 173.86 132.21 173.86H139.656C144.392 173.86 149.73 172.925 154.064 169.487C158.397 172.925 163.735 173.86 168.471 173.86H184.924L185 115.969H180.215V108.525H160.232L170.459 68.6639H130.271L134.332 52.3846ZM72.9054 67.7955H50.4945V116.56H72.9054C80.349 116.56 84.0719 113.42 84.0719 107.141V77.2144C84.0719 70.9359 80.3512 67.7955 72.9054 67.7955ZM109.619 78.658H100.352V78.6558C92.9083 78.6558 89.1854 81.7961 89.1854 88.0746V107.139C89.1854 113.417 92.9061 116.558 100.352 116.558H109.619C117.063 116.558 120.786 113.417 120.786 107.139V103.721H108.555V105.849C108.555 107.063 107.922 107.672 106.656 107.672H103.313C102.047 107.672 101.414 107.117 101.414 106.002V100.989H120.786V88.0769C120.786 81.7983 117.065 78.658 109.619 78.658ZM140.138 102.964L135.504 78.658H122.663L132.388 116.56H147.81L157.535 78.658H144.696L140.138 102.964ZM9.95992 154.447C9.95992 160.725 13.6806 163.865 21.1265 163.865H27.8882L32.6751 169.031H47.7934L40.7274 161.511C42.5999 159.941 43.5373 157.587 43.5373 154.447V124.52C43.5373 118.241 39.8166 115.101 32.3708 115.101H21.1265C13.6828 115.101 9.95992 118.241 9.95992 124.52V154.447ZM80.0513 125.963H67.1366L67.1344 125.961V152.09C67.1344 153.609 66.4524 154.369 65.0841 154.369H63.7935C62.5274 154.369 61.8943 153.814 61.8943 152.699V125.963H48.9796V154.447C48.9796 160.725 52.3493 163.865 59.0843 163.865H60.4527C64.3511 163.865 66.6568 162.244 67.3654 159.004V163.865H80.0513V125.963ZM105.832 125.963H96.5646V125.961C89.121 125.961 85.3981 129.102 85.3981 135.38V154.444C85.3981 160.723 89.1188 163.863 96.5646 163.863H105.832C113.276 163.863 116.999 160.723 116.999 154.444V151.026H104.768V153.154C104.768 154.369 104.135 154.977 102.869 154.977H99.5256C98.2595 154.977 97.6264 154.422 97.6264 153.307V148.295H116.999V135.382C116.999 129.104 113.278 125.963 105.832 125.963ZM138.25 150.8V153.836C138.25 154.948 137.617 155.506 136.351 155.506H135.44C134.174 155.506 133.541 154.951 133.541 153.836V151.328H121.006V154.442C121.006 160.721 124.726 163.861 132.172 163.861H139.618C147.062 163.861 150.785 160.721 150.785 154.442V150.265C150.785 147.277 149.923 144.999 148.201 143.429C146.531 141.81 143.745 140.999 139.845 140.999H135.211C133.945 140.999 133.312 140.444 133.312 139.329V135.986C133.312 134.874 133.945 134.316 135.211 134.316H135.971C137.237 134.316 137.87 134.871 137.87 135.986V138.569H150.176V135.38C150.176 129.102 146.455 125.961 139.01 125.961H131.944C124.5 125.961 120.777 129.102 120.777 135.38V139.786C120.777 146.016 124.424 149.13 131.717 149.13H136.351C137.617 149.13 138.25 149.685 138.25 150.8ZM170.179 135.458H174.966V125.961H170.179V118.517H157.264V125.961H153.086V135.456H157.264V154.444C157.264 160.723 160.985 163.863 168.431 163.863H174.888V154.369H172.078C170.812 154.369 170.179 153.814 170.179 152.699V135.458Z" fill="#17260F"/>
<path d="M79.803 179.005H95.8698L95.8697 179.006L95.87 179.005H102.756L98.7733 194.978L98.7728 194.978L98.773 194.978L85.2741 203.089L77.1641 189.592L79.803 179.005Z" fill="#17260F"/>
</svg>
