<svg width="52" height="58" viewBox="0 0 52 58" fill="none" xmlns="http://www.w3.org/2000/svg">
    <path d="M2.23242 33.0897L6.9652 30.947L12.5017 31.572L12.9482 18.0905H22.0565L25.9856 20.6796H38.5766L45.6311 21.0368L44.1131 32.2862H49.7388L50.2746 47.5533L26.6107 46.3927L7.85818 48.714L2.23242 46.6605V33.0897Z"
          fill="#800016"/>
    <path d="M19.8942 21.9807V29.8375C19.8942 30.1503 19.7162 30.307 19.3603 30.307H17.9299V21.5112H19.3603C19.7162 21.5112 19.8942 21.6673 19.8942 21.9807Z"
          fill="white"/>
    <path d="M30.5135 26.4216H28.5061V25.0764C28.5061 24.7636 28.6841 24.6069 29.04 24.6069H29.9796C30.3355 24.6069 30.5135 24.763 30.5135 25.0764V26.4216Z"
          fill="white"/>
    <path d="M6.5364 42.9213V35.4914C6.5364 35.1787 6.71435 35.022 7.07024 35.022H7.96683C8.32272 35.022 8.50067 35.1781 8.50067 35.4914V42.9213C8.50067 43.2341 8.32272 43.3908 7.96683 43.3908H7.07024C6.71435 43.3908 6.5364 43.2347 6.5364 42.9213Z"
          fill="white"/>
    <path d="M29.4489 39.7183H27.4416V38.373C27.4416 38.0602 27.6195 37.9036 27.9754 37.9036H28.9151C29.271 37.9036 29.4489 38.0596 29.4489 38.373V39.7183Z"
          fill="white"/>
    <path fill-rule="evenodd" clip-rule="evenodd"
          d="M37.7581 14.7243L42.6169 15.936L44.1348 15.024L43.2225 13.5064L36.5412 11.8409L38.2076 5.16135L40.4841 3.7936L38.2039 0L34.4102 2.27916L35.7776 4.55519L34.1117 11.2354L27.4304 9.56984L25.9131 10.4819L26.8247 11.9988L31.6842 13.2105L30.1651 19.3001H28.219C27.5309 19.3001 26.7979 19.37 26.0818 19.5717C25.8039 18.8388 25.3525 18.1471 24.6701 17.5709C23.4319 16.5265 21.8779 16.2469 20.5043 16.2469H11.3953V29.8588C10.633 29.6241 9.84564 29.5441 9.11014 29.5441H5.94957C2.61794 29.4586 -0.0443788 31.553 0.000575814 35.0001V43.412C-0.0450032 46.8623 2.62106 48.9535 5.94895 48.8686H6.62202L7.96754 50.3206H19.9386L18.5743 48.8686H29.7581C30.965 48.8686 32.3111 48.6526 33.46 47.8923C34.6088 48.6526 35.9549 48.8686 37.1618 48.8686H39.2547C40.5859 48.8686 42.0863 48.6058 43.3044 47.6395C44.5225 48.6058 46.0229 48.8686 47.3541 48.8686H51.9788L52 32.5968H50.6551V30.5043H45.0383L47.9129 19.3001H36.6167L37.7581 14.7243ZM20.4923 19.056H14.1931V32.7628H20.4923C22.5846 32.7628 23.631 31.8801 23.631 30.1153V21.7035C23.631 19.9387 22.5852 19.056 20.4923 19.056ZM30.8119 22.1093H28.207V22.1086C26.1148 22.1086 25.0683 22.9913 25.0683 24.7561V30.1147C25.0683 31.8795 26.1142 32.7622 28.207 32.7622H30.8119C32.9042 32.7622 33.9506 31.8795 33.9506 30.1147V29.154H30.5128V29.752C30.5128 30.0935 30.3349 30.2645 29.979 30.2645H29.0393C28.6834 30.2645 28.5055 30.1085 28.5055 29.7951V28.3862H33.9506V24.7567C33.9506 22.992 32.9048 22.1093 30.8119 22.1093ZM39.3901 28.9411L38.0877 22.1093H34.4782L37.2117 32.7628H41.5467L44.2802 22.1093H40.6713L39.3901 28.9411ZM2.79954 43.412C2.79954 45.1768 3.84536 46.0595 5.93825 46.0595H7.83884L9.18435 47.5115H13.4338L11.4477 45.3977C11.974 44.9564 12.2375 44.2947 12.2375 43.412V35.0001C12.2375 33.2354 11.1917 32.3527 9.09881 32.3527H5.93825C3.84599 32.3527 2.79954 33.2354 2.79954 35.0001V43.412ZM22.5009 35.4059H18.8708L18.8702 35.4053V42.7497C18.8702 43.1766 18.6785 43.3901 18.2939 43.3901H17.9312C17.5753 43.3901 17.3973 43.2341 17.3973 42.9207V35.4059H13.7672V43.412C13.7672 45.1768 14.7144 46.0595 16.6075 46.0595H16.9921C18.0879 46.0595 18.736 45.6038 18.9351 44.693V46.0595H22.5009V35.4059ZM29.7474 35.4059H27.1425V35.4053C25.0502 35.4053 24.0038 36.288 24.0038 38.0528V43.4114C24.0038 45.1761 25.0496 46.0588 27.1425 46.0588H29.7474C31.8396 46.0588 32.8861 45.1761 32.8861 43.4114V42.4506H29.4483V43.0487C29.4483 43.3901 29.2703 43.5612 28.9145 43.5612H27.9748C27.6189 43.5612 27.4409 43.4051 27.4409 43.0917V41.6828H32.8861V38.0534C32.8861 36.2886 31.8403 35.4059 29.7474 35.4059ZM38.8594 42.387V43.2403C38.8594 43.5531 38.6815 43.7098 38.3256 43.7098H38.0696C37.7137 43.7098 37.5358 43.5537 37.5358 43.2403V42.5355H34.0124V43.4107C34.0124 45.1755 35.0583 46.0582 37.1511 46.0582H39.244C41.3363 46.0582 42.3827 45.1755 42.3827 43.4107V42.2365C42.3827 41.3969 42.1405 40.7564 41.6566 40.3151C41.1871 39.86 40.4041 39.6321 39.3077 39.6321H38.0053C37.6494 39.6321 37.4714 39.4761 37.4714 39.1627V38.2232C37.4714 37.9104 37.6494 37.7537 38.0053 37.7537H38.2188C38.5747 37.7537 38.7527 37.9098 38.7527 38.2232V38.9492H42.2117V38.0528C42.2117 36.288 41.1658 35.4053 39.073 35.4053H37.0868C34.9946 35.4053 33.9481 36.288 33.9481 38.0528V39.2913C33.9481 41.0423 34.9733 41.9175 37.0232 41.9175H38.3256C38.6815 41.9175 38.8594 42.0736 38.8594 42.387ZM47.8341 38.0746H49.1796V35.4053H47.8341V33.3128H44.204V35.4053H43.0296V38.074H44.204V43.4114C44.204 45.1761 45.2498 46.0588 47.3427 46.0588H49.1578V43.3901H48.368C48.0121 43.3901 47.8341 43.2341 47.8341 42.9207V38.0746Z"
          fill="white"/>
    <path d="M22.4312 50.315H26.9473L26.9472 50.3151L26.9473 50.315H28.8829L27.7634 54.8046L27.7633 54.8045L27.7633 54.8046L23.969 57.0844L21.6895 53.2908L22.4312 50.315Z"
          fill="white"/>
</svg>
