<svg xmlns="http://www.w3.org/2000/svg" xmlns:xlink="http://www.w3.org/1999/xlink" width="1024" zoomAndPan="magnify" viewBox="0 0 768 767.999994" height="1024" preserveAspectRatio="xMidYMid meet" version="1.0"><defs><g/><clipPath id="a48565208d"><path d="M 102 73.644531 L 666 73.644531 L 666 619 L 102 619 Z M 102 73.644531 " clip-rule="nonzero"/></clipPath></defs><path fill="#f1ddb6" d="M 126.714844 432.351562 L 177.957031 409.148438 L 237.898438 415.917969 L 242.730469 269.910156 L 341.347656 269.910156 L 383.886719 297.949219 L 520.207031 297.949219 L 596.585938 301.816406 L 580.152344 423.652344 L 641.0625 423.652344 L 646.859375 588.996094 L 390.652344 576.425781 L 187.625 601.566406 L 126.714844 579.328125 Z M 126.714844 432.351562 " fill-opacity="1" fill-rule="nonzero"/><path fill="#290056" d="M 317.9375 312.039062 L 317.9375 397.132812 C 317.9375 400.519531 316.007812 402.214844 312.15625 402.214844 L 296.667969 402.214844 L 296.667969 306.957031 L 312.15625 306.957031 C 316.007812 306.957031 317.9375 308.648438 317.9375 312.039062 Z M 317.9375 312.039062 " fill-opacity="1" fill-rule="nonzero"/><path fill="#290056" d="M 432.910156 360.136719 L 411.175781 360.136719 L 411.175781 345.566406 C 411.175781 342.179688 413.105469 340.484375 416.957031 340.484375 L 427.132812 340.484375 C 430.980469 340.484375 432.910156 342.171875 432.910156 345.566406 Z M 432.910156 360.136719 " fill-opacity="1" fill-rule="nonzero"/><path fill="#290056" d="M 173.3125 538.832031 L 173.3125 458.363281 C 173.3125 454.976562 175.238281 453.28125 179.09375 453.28125 L 188.800781 453.28125 C 192.652344 453.28125 194.578125 454.96875 194.578125 458.363281 L 194.578125 538.832031 C 194.578125 542.21875 192.652344 543.914062 188.800781 543.914062 L 179.09375 543.914062 C 175.238281 543.914062 173.3125 542.226562 173.3125 538.832031 Z M 173.3125 538.832031 " fill-opacity="1" fill-rule="nonzero"/><path fill="#290056" d="M 421.382812 504.140625 L 399.652344 504.140625 L 399.652344 489.570312 C 399.652344 486.183594 401.578125 484.488281 405.429688 484.488281 L 415.605469 484.488281 C 419.457031 484.488281 421.382812 486.179688 421.382812 489.570312 Z M 421.382812 504.140625 " fill-opacity="1" fill-rule="nonzero"/><g clip-path="url(#a48565208d)"><path fill="#290056" d="M 511.347656 233.453125 L 563.953125 246.574219 L 580.386719 236.699219 L 570.511719 220.261719 L 498.171875 202.226562 L 516.210938 129.882812 L 540.859375 115.070312 L 516.171875 73.984375 L 475.097656 98.667969 L 489.90625 123.320312 L 471.867188 195.667969 L 399.53125 177.628906 L 383.101562 187.507812 L 392.972656 203.933594 L 445.585938 217.058594 L 429.136719 283.007812 L 408.066406 283.007812 C 400.617188 283.007812 392.683594 283.765625 384.929688 285.949219 C 381.921875 278.011719 377.03125 270.523438 369.644531 264.28125 C 356.238281 252.972656 339.414062 249.941406 324.542969 249.941406 L 225.921875 249.941406 L 225.921875 397.363281 C 217.667969 394.820312 209.140625 393.953125 201.179688 393.953125 L 166.960938 393.953125 C 130.886719 393.027344 102.0625 415.710938 102.550781 453.042969 L 102.550781 544.144531 C 102.058594 581.511719 130.921875 604.164062 166.953125 603.242188 L 174.242188 603.242188 L 188.808594 618.96875 L 318.417969 618.96875 L 303.644531 603.242188 L 424.730469 603.242188 C 437.796875 603.242188 452.375 600.902344 464.8125 592.667969 C 477.25 600.902344 491.824219 603.242188 504.890625 603.242188 L 527.550781 603.242188 C 541.964844 603.242188 558.207031 600.394531 571.394531 589.929688 C 584.585938 600.394531 600.828125 603.242188 615.238281 603.242188 L 665.3125 603.242188 L 665.542969 427.015625 L 650.980469 427.015625 L 650.980469 404.351562 L 590.167969 404.351562 L 621.289062 283.007812 L 498.988281 283.007812 Z M 324.414062 280.367188 L 256.210938 280.367188 L 256.210938 428.8125 L 324.414062 428.8125 C 347.066406 428.8125 358.394531 419.253906 358.394531 400.140625 L 358.394531 309.039062 C 358.394531 289.925781 347.070312 280.367188 324.414062 280.367188 Z M 436.140625 313.433594 L 407.9375 313.433594 L 407.9375 313.425781 C 385.285156 313.425781 373.957031 322.984375 373.957031 342.097656 L 373.957031 400.136719 C 373.957031 419.246094 385.28125 428.804688 407.9375 428.804688 L 436.140625 428.804688 C 458.792969 428.804688 470.125 419.246094 470.125 400.136719 L 470.125 389.730469 L 432.902344 389.730469 L 432.902344 396.207031 C 432.902344 399.90625 430.976562 401.757812 427.125 401.757812 L 416.949219 401.757812 C 413.097656 401.757812 411.167969 400.066406 411.167969 396.671875 L 411.167969 381.414062 L 470.125 381.414062 L 470.125 342.105469 C 470.125 322.992188 458.800781 313.433594 436.140625 313.433594 Z M 529.015625 387.421875 L 514.917969 313.433594 L 475.835938 313.433594 L 505.429688 428.8125 L 552.363281 428.8125 L 581.960938 313.433594 L 542.890625 313.433594 Z M 132.855469 544.144531 C 132.855469 563.257812 144.175781 572.816406 166.835938 572.816406 L 187.414062 572.816406 L 201.980469 588.542969 L 247.992188 588.542969 L 226.488281 565.652344 C 232.1875 560.871094 235.039062 553.707031 235.039062 544.144531 L 235.039062 453.042969 C 235.039062 433.929688 223.714844 424.371094 201.054688 424.371094 L 166.835938 424.371094 C 144.183594 424.371094 132.855469 433.929688 132.855469 453.042969 Z M 346.160156 457.4375 L 306.855469 457.4375 L 306.851562 457.429688 L 306.851562 536.972656 C 306.851562 541.597656 304.773438 543.910156 300.609375 543.910156 L 296.683594 543.910156 C 292.828125 543.910156 290.902344 542.21875 290.902344 538.824219 L 290.902344 457.4375 L 251.601562 457.4375 L 251.601562 544.144531 C 251.601562 563.257812 261.855469 572.816406 282.351562 572.816406 L 286.515625 572.816406 C 298.378906 572.816406 305.398438 567.882812 307.554688 558.019531 L 307.554688 572.816406 L 346.160156 572.816406 Z M 424.617188 457.4375 L 396.410156 457.4375 L 396.410156 457.429688 C 373.757812 457.429688 362.433594 466.992188 362.433594 486.105469 L 362.433594 544.140625 C 362.433594 563.25 373.753906 572.8125 396.410156 572.8125 L 424.617188 572.8125 C 447.269531 572.8125 458.597656 563.25 458.597656 544.140625 L 458.597656 533.734375 L 421.375 533.734375 L 421.375 540.210938 C 421.375 543.910156 419.453125 545.761719 415.597656 545.761719 L 405.425781 545.761719 C 401.570312 545.761719 399.644531 544.070312 399.644531 540.675781 L 399.644531 525.417969 L 458.597656 525.417969 L 458.597656 486.113281 C 458.597656 466.996094 447.273438 457.4375 424.617188 457.4375 Z M 523.269531 533.046875 L 523.269531 542.285156 C 523.269531 545.671875 521.34375 547.371094 517.492188 547.371094 L 514.71875 547.371094 C 510.867188 547.371094 508.9375 545.679688 508.9375 542.285156 L 508.9375 534.652344 L 470.792969 534.652344 L 470.792969 544.132812 C 470.792969 563.242188 482.113281 572.804688 504.773438 572.804688 L 527.433594 572.804688 C 550.085938 572.804688 561.417969 563.242188 561.417969 544.132812 L 561.417969 531.417969 C 561.417969 522.324219 558.796875 515.382812 553.554688 510.605469 C 548.472656 505.679688 539.992188 503.210938 528.125 503.210938 L 514.023438 503.210938 C 510.167969 503.210938 508.242188 501.519531 508.242188 498.125 L 508.242188 487.949219 C 508.242188 484.5625 510.167969 482.867188 514.023438 482.867188 L 516.335938 482.867188 C 520.1875 482.867188 522.117188 484.554688 522.117188 487.949219 L 522.117188 495.8125 L 559.566406 495.8125 L 559.566406 486.105469 C 559.566406 466.992188 548.242188 457.429688 525.582031 457.429688 L 504.078125 457.429688 C 481.425781 457.429688 470.097656 466.992188 470.097656 486.105469 L 470.097656 499.519531 C 470.097656 518.480469 481.195312 527.960938 503.390625 527.960938 L 517.492188 527.960938 C 521.34375 527.960938 523.269531 529.652344 523.269531 533.046875 Z M 620.441406 486.339844 L 635.003906 486.339844 L 635.003906 457.429688 L 620.441406 457.429688 L 620.441406 434.769531 L 581.136719 434.769531 L 581.136719 457.429688 L 568.421875 457.429688 L 568.421875 486.335938 L 581.136719 486.335938 L 581.136719 544.140625 C 581.136719 563.25 592.460938 572.8125 615.117188 572.8125 L 634.769531 572.8125 L 634.769531 543.910156 L 626.21875 543.910156 C 622.363281 543.910156 620.441406 542.21875 620.441406 538.824219 Z M 620.441406 486.339844 " fill-opacity="1" fill-rule="evenodd"/></g><path fill="#290056" d="M 345.402344 618.90625 L 415.253906 618.90625 L 403.132812 667.53125 L 362.050781 692.21875 L 337.371094 651.136719 Z M 345.402344 618.90625 " fill-opacity="1" fill-rule="nonzero"/><path stroke-linecap="butt" transform="matrix(1.11077, 0, 0, 1.11077, 174.079389, 615.484982)" fill="none" stroke-linejoin="miter" d="M 17.684364 14.931377 L 26.170169 14.931377 L 26.170169 49.0012 L 18.215386 49.0012 L 10.62634 31.12228 L 10.62634 49.0012 L 2.140535 49.0012 L 2.140535 14.931377 L 10.095318 14.931377 L 17.684364 33.130317 Z M 30.41483 14.931377 L 39.702444 14.931377 L 39.702444 49.0012 L 30.41483 49.0012 Z M 51.585385 14.931377 L 59.434667 14.931377 C 64.632355 14.931377 67.231199 17.1258 67.231199 21.511129 L 67.231199 42.417931 C 67.231199 46.806777 64.632355 49.0012 59.434667 49.0012 L 51.585385 49.0012 C 46.384181 49.0012 43.785337 46.806777 43.785337 42.417931 L 43.785337 21.511129 C 43.785337 17.1258 46.384181 14.931377 51.585385 14.931377 Z M 57.943585 41.201152 L 57.943585 22.727908 C 57.943585 21.950717 57.503997 21.56388 56.624821 21.56388 L 54.395231 21.56388 C 53.505505 21.56388 53.062401 21.950717 53.062401 22.727908 L 53.062401 41.201152 C 53.062401 41.978343 53.505505 42.368697 54.395231 42.368697 L 56.624821 42.368697 C 57.503997 42.368697 57.943585 41.978343 57.943585 41.201152 Z M 80.601706 36.900223 L 80.601706 49.0012 L 71.314092 49.0012 L 71.314092 14.931377 L 87.065407 14.931377 C 92.263094 14.931377 94.865455 17.1258 94.865455 21.511129 L 94.865455 30.320471 C 94.865455 33.678923 93.342722 35.746745 90.30429 36.523936 L 96.574573 49.0012 L 86.587135 49.0012 L 81.185478 36.900223 Z M 84.25556 21.56388 L 80.601706 21.56388 L 80.601706 30.591257 L 84.25556 30.591257 C 85.145286 30.591257 85.588391 30.20442 85.588391 29.427228 L 85.588391 22.727908 C 85.588391 21.950717 85.145286 21.56388 84.25556 21.56388 Z M 119.113125 14.931377 L 119.113125 21.56388 L 112.529856 21.56388 L 112.529856 49.0012 L 103.242242 49.0012 L 103.242242 21.56388 L 96.715241 21.56388 L 96.715241 14.931377 Z M 119.113125 14.931377 " stroke="#380062" stroke-width="13.930009" stroke-opacity="1" stroke-miterlimit="4"/><g fill="#f1ddb6" fill-opacity="1"><g transform="translate(174.096745, 669.91273)"><g><path d="M 19.625 -37.84375 L 29.0625 -37.84375 L 29.0625 0 L 20.21875 0 L 11.78125 -19.859375 L 11.78125 0 L 2.359375 0 L 2.359375 -37.84375 L 11.203125 -37.84375 L 19.625 -17.625 Z M 19.625 -37.84375 "/></g></g></g><g fill="#f1ddb6" fill-opacity="1"><g transform="translate(205.502685, 669.91273)"><g><path d="M 2.359375 -37.84375 L 12.671875 -37.84375 L 12.671875 0 L 2.359375 0 Z M 2.359375 -37.84375 "/></g></g></g><g fill="#f1ddb6" fill-opacity="1"><g transform="translate(220.528051, 669.91273)"><g><path d="M 10.84375 -37.84375 L 19.5625 -37.84375 C 25.34375 -37.84375 28.234375 -35.40625 28.234375 -30.53125 L 28.234375 -7.3125 C 28.234375 -2.4375 25.34375 0 19.5625 0 L 10.84375 0 C 5.070312 0 2.1875 -2.4375 2.1875 -7.3125 L 2.1875 -30.53125 C 2.1875 -35.40625 5.070312 -37.84375 10.84375 -37.84375 Z M 17.921875 -8.65625 L 17.921875 -29.171875 C 17.921875 -30.035156 17.425781 -30.46875 16.4375 -30.46875 L 13.96875 -30.46875 C 12.988281 -30.46875 12.5 -30.035156 12.5 -29.171875 L 12.5 -8.65625 C 12.5 -7.800781 12.988281 -7.375 13.96875 -7.375 L 16.4375 -7.375 C 17.425781 -7.375 17.921875 -7.800781 17.921875 -8.65625 Z M 17.921875 -8.65625 "/></g></g></g><g fill="#f1ddb6" fill-opacity="1"><g transform="translate(250.932305, 669.91273)"><g><path d="M 12.671875 -13.4375 L 12.671875 0 L 2.359375 0 L 2.359375 -37.84375 L 19.859375 -37.84375 C 25.640625 -37.84375 28.53125 -35.40625 28.53125 -30.53125 L 28.53125 -20.75 C 28.53125 -17.007812 26.835938 -14.707031 23.453125 -13.84375 L 30.40625 0 L 19.328125 0 L 13.3125 -13.4375 Z M 16.734375 -30.46875 L 12.671875 -30.46875 L 12.671875 -20.453125 L 16.734375 -20.453125 C 17.722656 -20.453125 18.21875 -20.882812 18.21875 -21.75 L 18.21875 -29.171875 C 18.21875 -30.035156 17.722656 -30.46875 16.734375 -30.46875 Z M 16.734375 -30.46875 "/></g></g></g><g fill="#f1ddb6" fill-opacity="1"><g transform="translate(281.218713, 669.91273)"><g><path d="M 25.171875 -37.84375 L 25.171875 -30.46875 L 17.859375 -30.46875 L 17.859375 0 L 7.546875 0 L 7.546875 -30.46875 L 0.296875 -30.46875 L 0.296875 -37.84375 Z M 25.171875 -37.84375 "/></g></g></g><g fill="#f1ddb6" fill-opacity="1"><g transform="translate(306.677602, 669.91273)"><g/></g></g><path stroke-linecap="butt" transform="matrix(0.651716, 0, 0, 0.651716, 424.270254, 615.55751)" fill="none" stroke-linejoin="miter" d="M 19.65254 45.206854 L 28.679193 45.206854 C 37.430131 45.206854 41.8056 48.899031 41.8056 56.283384 L 41.8056 71.921191 C 41.8056 79.305545 37.430131 82.997722 28.679193 82.997722 L 16.703593 82.997722 C 7.952655 82.997722 3.577186 79.305545 3.577186 71.921191 L 3.577186 62.894538 L 19.214993 62.894538 L 19.214993 69.871314 C 19.214993 71.177961 19.958223 71.831285 21.43869 71.831285 L 24.207823 71.831285 C 25.68829 71.831285 26.43152 71.177961 26.43152 69.871314 L 26.43152 58.357237 C 26.43152 57.032608 25.68829 56.373291 24.207823 56.373291 L 4.296441 56.373291 L 4.296441 25.643112 L 40.912525 25.643112 L 40.912525 36.809549 L 19.65254 36.809549 Z M 102.804437 82.997722 L 78.163952 82.997722 C 69.407019 82.997722 65.03155 79.305545 65.03155 71.921191 L 65.03155 66.754541 C 65.03155 63.769632 65.612948 61.480003 66.775744 59.87966 C 67.93854 58.26733 70.156244 56.565093 73.428855 54.778942 L 74.849384 53.96978 L 74.49575 53.514252 C 72.116214 51.01484 70.473915 49.036888 69.568852 47.580396 C 68.68177 46.129898 68.23823 44.535549 68.23823 42.803343 L 68.23823 36.719642 C 68.23823 29.335289 72.613699 25.643112 81.370631 25.643112 L 91.835795 25.643112 C 100.412913 25.643112 104.704469 29.335289 104.704469 36.719642 L 104.704469 42.803343 C 104.704469 46.075954 103.985214 48.575366 102.546703 50.307572 C 100.946361 52.213599 98.057352 54.359377 93.885672 56.738913 L 103.349872 66.838455 L 103.349872 60.580934 L 115.673111 60.580934 L 115.673111 71.921191 C 115.673111 74.420603 115.109695 76.506443 113.970874 78.178712 L 121.499078 86.204401 L 105.945184 86.204401 Z M 83.43849 37.612718 L 83.43849 43.41471 C 83.43849 44.973096 84.121782 46.459557 85.488367 47.88608 C 87.220574 46.945054 88.395357 46.171855 89.024705 45.578469 C 89.64806 44.97909 89.959737 44.145953 89.959737 43.06707 L 89.959737 37.612718 C 89.959737 36.306071 89.210513 35.652747 87.712065 35.652747 L 85.662187 35.652747 C 84.18172 35.652747 83.43849 36.306071 83.43849 37.612718 Z M 81.999979 72.730354 L 92.992597 72.730354 L 83.354577 62.714725 L 81.826159 63.613794 C 80.459575 64.452925 79.776282 65.591746 79.776282 67.012275 L 79.776282 70.764389 C 79.776282 72.071036 80.519512 72.730354 81.999979 72.730354 Z M 154.542862 48.605335 L 164.354702 48.605335 C 173.123622 48.605335 177.505085 52.297512 177.505085 59.687859 L 177.505085 71.921191 C 177.505085 79.305545 173.123622 82.997722 164.354702 82.997722 L 152.492984 82.997722 C 143.736052 82.997722 139.360583 79.305545 139.360583 71.921191 L 139.360583 36.719642 C 139.360583 29.335289 143.736052 25.643112 152.492984 25.643112 L 163.461626 25.643112 C 172.230546 25.643112 176.612009 29.335289 176.612009 36.719642 L 176.612009 43.156977 L 161.411749 43.156977 L 161.411749 38.76952 C 161.411749 37.462873 160.668519 36.809549 159.188052 36.809549 L 156.766559 36.809549 C 155.280098 36.809549 154.542862 37.462873 154.542862 38.76952 Z M 162.304824 69.871314 L 162.304824 61.300189 C 162.304824 59.993542 161.561594 59.334225 160.081127 59.334225 L 154.542862 59.334225 L 154.542862 69.871314 C 154.542862 71.177961 155.280098 71.831285 156.766559 71.831285 L 160.081127 71.831285 C 161.561594 71.831285 162.304824 71.177961 162.304824 69.871314 Z M 198.932896 60.035499 L 214.570703 60.035499 L 214.570703 69.871314 C 214.570703 71.177961 215.313934 71.831285 216.794401 71.831285 L 217.777383 71.831285 C 219.275831 71.831285 220.025055 71.177961 220.025055 69.871314 L 220.025055 25.643112 L 235.638887 25.643112 L 235.638887 71.921191 C 235.638887 79.305545 231.263418 82.997722 222.51248 82.997722 L 212.065298 82.997722 C 203.308365 82.997722 198.932896 79.305545 198.932896 71.921191 Z M 266.27916 25.643112 L 281.916967 25.643112 L 281.916967 71.921191 C 281.916967 79.305545 277.535504 82.997722 268.784565 82.997722 L 255.568251 82.997722 C 246.817312 82.997722 242.441843 79.305545 242.441843 71.921191 L 242.441843 25.643112 L 258.07965 25.643112 L 258.07965 69.871314 C 258.07965 71.177961 258.816887 71.831285 260.303348 71.831285 L 264.055462 71.831285 C 265.535929 71.831285 266.27916 71.177961 266.27916 69.871314 Z M 289.067562 25.643112 L 304.70537 25.643112 L 304.70537 82.997722 L 289.067562 82.997722 Z M 338.018874 25.643112 L 352.302084 25.643112 L 352.302084 82.997722 L 338.911949 82.997722 L 326.133181 52.902885 L 326.133181 82.997722 L 311.849971 82.997722 L 311.849971 25.643112 L 325.240106 25.643112 L 338.018874 56.283384 Z M 338.018874 25.643112 " stroke="#380062" stroke-width="23.449991" stroke-opacity="1" stroke-miterlimit="4"/><g fill="#f1ddb6" fill-opacity="1"><g transform="translate(424.270254, 669.649922)"><g><path d="M 12.8125 -24.625 L 18.6875 -24.625 C 24.394531 -24.625 27.25 -22.21875 27.25 -17.40625 L 27.25 -7.21875 C 27.25 -2.40625 24.394531 0 18.6875 0 L 10.890625 0 C 5.179688 0 2.328125 -2.40625 2.328125 -7.21875 L 2.328125 -13.09375 L 12.515625 -13.09375 L 12.515625 -8.5625 C 12.515625 -7.707031 13 -7.28125 13.96875 -7.28125 L 15.78125 -7.28125 C 16.75 -7.28125 17.234375 -7.707031 17.234375 -8.5625 L 17.234375 -16.0625 C 17.234375 -16.914062 16.75 -17.34375 15.78125 -17.34375 L 2.796875 -17.34375 L 2.796875 -37.375 L 26.671875 -37.375 L 26.671875 -30.09375 L 12.8125 -30.09375 Z M 12.8125 -24.625 "/></g></g></g><g fill="#f1ddb6" fill-opacity="1"><g transform="translate(453.262071, 669.649922)"><g/></g></g><g fill="#f1ddb6" fill-opacity="1"><g transform="translate(464.905376, 669.649922)"><g><path d="M 26.375 0 L 10.3125 0 C 4.601562 0 1.75 -2.40625 1.75 -7.21875 L 1.75 -10.59375 C 1.75 -12.53125 2.125 -14.023438 2.875 -15.078125 C 3.632812 -16.128906 5.082031 -17.234375 7.21875 -18.390625 L 8.15625 -18.921875 L 7.921875 -19.21875 C 6.367188 -20.84375 5.300781 -22.128906 4.71875 -23.078125 C 4.132812 -24.035156 3.84375 -25.078125 3.84375 -26.203125 L 3.84375 -30.15625 C 3.84375 -34.96875 6.695312 -37.375 12.40625 -37.375 L 19.21875 -37.375 C 24.800781 -37.375 27.59375 -34.96875 27.59375 -30.15625 L 27.59375 -26.203125 C 27.59375 -24.066406 27.128906 -22.4375 26.203125 -21.3125 C 25.148438 -20.0625 23.265625 -18.660156 20.546875 -17.109375 L 26.71875 -10.53125 L 26.71875 -14.609375 L 34.75 -14.609375 L 34.75 -7.21875 C 34.75 -5.59375 34.382812 -4.234375 33.65625 -3.140625 L 38.546875 2.09375 L 28.40625 2.09375 Z M 13.734375 -29.578125 L 13.734375 -25.796875 C 13.734375 -24.785156 14.179688 -23.8125 15.078125 -22.875 C 16.203125 -23.5 16.96875 -24.003906 17.375 -24.390625 C 17.78125 -24.773438 17.984375 -25.320312 17.984375 -26.03125 L 17.984375 -29.578125 C 17.984375 -30.429688 17.5 -30.859375 16.53125 -30.859375 L 15.1875 -30.859375 C 14.21875 -30.859375 13.734375 -30.429688 13.734375 -29.578125 Z M 12.8125 -6.6875 L 19.96875 -6.6875 L 13.6875 -13.21875 L 12.6875 -12.640625 C 11.800781 -12.085938 11.359375 -11.347656 11.359375 -10.421875 L 11.359375 -7.96875 C 11.359375 -7.113281 11.84375 -6.6875 12.8125 -6.6875 Z M 12.8125 -6.6875 "/></g></g></g><g fill="#f1ddb6" fill-opacity="1"><g transform="translate(501.290691, 669.649922)"><g/></g></g><g fill="#f1ddb6" fill-opacity="1"><g transform="translate(512.933995, 669.649922)"><g><path d="M 12.046875 -22.421875 L 18.453125 -22.421875 C 24.160156 -22.421875 27.015625 -20.007812 27.015625 -15.1875 L 27.015625 -7.21875 C 27.015625 -2.40625 24.160156 0 18.453125 0 L 10.71875 0 C 5.007812 0 2.15625 -2.40625 2.15625 -7.21875 L 2.15625 -30.15625 C 2.15625 -34.96875 5.007812 -37.375 10.71875 -37.375 L 17.875 -37.375 C 23.582031 -37.375 26.4375 -34.96875 26.4375 -30.15625 L 26.4375 -25.96875 L 16.53125 -25.96875 L 16.53125 -28.8125 C 16.53125 -29.664062 16.046875 -30.09375 15.078125 -30.09375 L 13.5 -30.09375 C 12.53125 -30.09375 12.046875 -29.664062 12.046875 -28.8125 Z M 17.109375 -8.5625 L 17.109375 -14.140625 C 17.109375 -14.992188 16.625 -15.421875 15.65625 -15.421875 L 12.046875 -15.421875 L 12.046875 -8.5625 C 12.046875 -7.707031 12.53125 -7.28125 13.5 -7.28125 L 15.65625 -7.28125 C 16.625 -7.28125 17.109375 -7.707031 17.109375 -8.5625 Z M 17.109375 -8.5625 "/></g></g></g><g fill="#f1ddb6" fill-opacity="1"><g transform="translate(541.692945, 669.649922)"><g/></g></g><g fill="#f1ddb6" fill-opacity="1"><g transform="translate(553.336249, 669.649922)"><g><path d="M 0.578125 -14.96875 L 10.765625 -14.96875 L 10.765625 -8.5625 C 10.765625 -7.707031 11.25 -7.28125 12.21875 -7.28125 L 12.859375 -7.28125 C 13.835938 -7.28125 14.328125 -7.707031 14.328125 -8.5625 L 14.328125 -37.375 L 24.515625 -37.375 L 24.515625 -7.21875 C 24.515625 -2.40625 21.660156 0 15.953125 0 L 9.140625 0 C 3.429688 0 0.578125 -2.40625 0.578125 -7.21875 Z M 0.578125 -14.96875 "/></g></g></g><g fill="#f1ddb6" fill-opacity="1"><g transform="translate(579.941193, 669.649922)"><g><path d="M 17.875 -37.375 L 28.0625 -37.375 L 28.0625 -7.21875 C 28.0625 -2.40625 25.207031 0 19.5 0 L 10.890625 0 C 5.179688 0 2.328125 -2.40625 2.328125 -7.21875 L 2.328125 -37.375 L 12.515625 -37.375 L 12.515625 -8.5625 C 12.515625 -7.707031 13 -7.28125 13.96875 -7.28125 L 16.421875 -7.28125 C 17.390625 -7.28125 17.875 -7.707031 17.875 -8.5625 Z M 17.875 -37.375 "/></g></g></g><g fill="#f1ddb6" fill-opacity="1"><g transform="translate(610.330207, 669.649922)"><g><path d="M 2.328125 -37.375 L 12.515625 -37.375 L 12.515625 0 L 2.328125 0 Z M 2.328125 -37.375 "/></g></g></g><g fill="#f1ddb6" fill-opacity="1"><g transform="translate(625.175418, 669.649922)"><g><path d="M 19.390625 -37.375 L 28.703125 -37.375 L 28.703125 0 L 19.96875 0 L 11.640625 -19.625 L 11.640625 0 L 2.328125 0 L 2.328125 -37.375 L 11.0625 -37.375 L 19.390625 -17.40625 Z M 19.390625 -37.375 "/></g></g></g></svg>