<svg width="186" height="209" viewBox="0 0 186 209" fill="none" xmlns="http://www.w3.org/2000/svg">
<path d="M8.94141 117.525L25.7792 109.902L45.4762 112.125L47.0647 64.1625H79.4694L93.448 73.3739H138.243L163.341 74.6445L157.94 114.667H177.955L179.861 168.982L95.6718 164.853L28.9561 173.112L8.94141 165.806V117.525Z" fill="#F1DDB6"/>
<path d="M71.7773 78.2005V106.153C71.7773 107.266 71.1443 107.823 69.8781 107.823H64.7891V76.5303H69.8781C71.1443 76.5303 71.7773 77.0856 71.7773 78.2005Z" fill="#260742"/>
<path d="M109.558 94H102.416V89.214C102.416 88.1013 103.049 87.5438 104.315 87.5438H107.658C108.924 87.5438 109.558 88.0991 109.558 89.214V94Z" fill="#260742"/>
<path d="M24.2545 152.701V126.268C24.2545 125.155 24.8876 124.598 26.1537 124.598H29.3435C30.6097 124.598 31.2428 125.153 31.2428 126.268V152.701C31.2428 153.814 30.6097 154.371 29.3435 154.371H26.1537C24.8876 154.371 24.2545 153.816 24.2545 152.701Z" fill="#260742"/>
<path d="M105.77 141.305H98.6286V136.519C98.6286 135.407 99.2617 134.849 100.528 134.849H103.871C105.137 134.849 105.77 135.404 105.77 136.519V141.305Z" fill="#260742"/>
<path fill-rule="evenodd" clip-rule="evenodd" d="M135.332 52.3846L152.618 56.6954L158.018 53.4506L154.773 48.0516L131.002 42.1262L136.931 18.3625L145.03 13.4965L136.918 0L123.421 8.10854L128.286 16.206L122.359 39.9719L98.5888 34.0466L93.1909 37.2913L96.4341 42.6881L113.723 46.9989L108.318 68.6639H101.394C98.9466 68.6639 96.3388 68.9126 93.7909 69.63C92.8024 67.0226 91.1964 64.5619 88.7685 62.512C84.3636 58.7964 78.8348 57.8014 73.9479 57.8014H41.5411V106.228C38.8289 105.393 36.0278 105.109 33.4111 105.109H22.1668C10.3138 104.805 0.842114 112.256 1.00205 124.52V154.447C0.839892 166.722 10.3249 174.162 22.1645 173.86H24.5591L29.3461 179.025H71.9354L67.0818 173.86H106.87C111.164 173.86 115.953 173.091 120.04 170.386C124.127 173.091 128.917 173.86 133.21 173.86H140.656C145.392 173.86 150.73 172.925 155.064 169.487C159.397 172.925 164.735 173.86 169.471 173.86H185.924L186 115.969H181.215V108.525H161.232L171.459 68.6639H131.271L135.332 52.3846ZM73.9054 67.7955H51.4945V116.56H73.9054C81.349 116.56 85.0719 113.42 85.0719 107.141V77.2144C85.0719 70.9359 81.3512 67.7955 73.9054 67.7955ZM110.619 78.658H101.352V78.6558C93.9083 78.6558 90.1854 81.7961 90.1854 88.0746V107.139C90.1854 113.417 93.9061 116.558 101.352 116.558H110.619C118.063 116.558 121.786 113.417 121.786 107.139V103.721H109.555V105.849C109.555 107.063 108.922 107.672 107.656 107.672H104.313C103.047 107.672 102.414 107.117 102.414 106.002V100.989H121.786V88.0769C121.786 81.7983 118.065 78.658 110.619 78.658ZM141.138 102.964L136.504 78.658H123.663L133.388 116.56H148.81L158.535 78.658H145.696L141.138 102.964ZM10.9599 154.447C10.9599 160.725 14.6806 163.865 22.1265 163.865H28.8882L33.6751 169.031H48.7934L41.7274 161.511C43.5999 159.941 44.5373 157.587 44.5373 154.447V124.52C44.5373 118.241 40.8166 115.101 33.3708 115.101H22.1265C14.6828 115.101 10.9599 118.241 10.9599 124.52V154.447ZM81.0513 125.963H68.1366L68.1344 125.961V152.09C68.1344 153.609 67.4524 154.369 66.0841 154.369H64.7935C63.5274 154.369 62.8943 153.814 62.8943 152.699V125.963H49.9796V154.447C49.9796 160.725 53.3493 163.865 60.0843 163.865H61.4527C65.3511 163.865 67.6568 162.244 68.3654 159.004V163.865H81.0513V125.963ZM106.832 125.963H97.5646V125.961C90.121 125.961 86.3981 129.102 86.3981 135.38V154.444C86.3981 160.723 90.1188 163.863 97.5646 163.863H106.832C114.276 163.863 117.999 160.723 117.999 154.444V151.026H105.768V153.154C105.768 154.369 105.135 154.977 103.869 154.977H100.526C99.2595 154.977 98.6264 154.422 98.6264 153.307V148.295H117.999V135.382C117.999 129.104 114.278 125.963 106.832 125.963ZM139.25 150.8V153.836C139.25 154.948 138.617 155.506 137.351 155.506H136.44C135.174 155.506 134.541 154.951 134.541 153.836V151.328H122.006V154.442C122.006 160.721 125.726 163.861 133.172 163.861H140.618C148.062 163.861 151.785 160.721 151.785 154.442V150.265C151.785 147.277 150.923 144.999 149.201 143.429C147.531 141.81 144.745 140.999 140.845 140.999H136.211C134.945 140.999 134.312 140.444 134.312 139.329V135.986C134.312 134.874 134.945 134.316 136.211 134.316H136.971C138.237 134.316 138.87 134.871 138.87 135.986V138.569H151.176V135.38C151.176 129.102 147.455 125.961 140.01 125.961H132.944C125.5 125.961 121.777 129.102 121.777 135.38V139.786C121.777 146.016 125.424 149.13 132.717 149.13H137.351C138.617 149.13 139.25 149.685 139.25 150.8ZM171.179 135.458H175.966V125.961H171.179V118.517H158.264V125.961H154.086V135.456H158.264V154.444C158.264 160.723 161.985 163.863 169.431 163.863H175.888V154.369H173.078C171.812 154.369 171.179 153.814 171.179 152.699V135.458Z" fill="#260742"/>
<path d="M80.803 179.005H96.8698L96.8697 179.006L96.87 179.005H103.756L99.7733 194.978L99.7728 194.978L99.773 194.978L86.2741 203.089L78.1641 189.592L80.803 179.005Z" fill="#260742"/>
<path d="M7.28348 187.362H10.433V200H7.48032L4.6654 193.366V200H1.51583V187.362H4.46855L7.28348 194.114V187.362ZM12.0118 187.362H15.4567V200H12.0118V187.362ZM19.8638 187.362H22.7771C24.7062 187.362 25.6708 188.176 25.6708 189.803V197.559C25.6708 199.186 24.7062 200 22.7771 200H19.8638C17.9346 200 16.9701 199.186 16.9701 197.559V189.803C16.9701 188.176 17.9346 187.362 19.8638 187.362ZM22.2259 197.106V190.256C22.2259 189.967 22.0619 189.823 21.7338 189.823H20.907C20.579 189.823 20.4149 189.967 20.4149 190.256V197.106C20.4149 197.395 20.579 197.539 20.907 197.539H21.7338C22.0619 197.539 22.2259 197.395 22.2259 197.106ZM30.624 195.512V200H27.1791V187.362H33.0255C34.9546 187.362 35.9192 188.176 35.9192 189.803V193.071C35.9192 194.318 35.3549 195.085 34.2263 195.374L36.5491 200H32.8483L30.8405 195.512H30.624ZM31.9822 189.823H30.624V193.169H31.9822C32.3103 193.169 32.4743 193.025 32.4743 192.736V190.256C32.4743 189.967 32.3103 189.823 31.9822 189.823ZM44.9087 187.362V189.823H42.4677V200H39.0229V189.823H36.6017V187.362H44.9087Z" fill="black"/>
<path d="M135.571 187.362V200H132.126V189.823H130.354V187.362H135.571ZM146.343 195.236V197.736H145.005V200H141.776V197.736H136.56V194.685L141.304 187.362H144.768L139.69 195.236H141.776V192.736H145.005V195.236H146.343ZM150.478 194.941H153.922V197.106C153.922 197.395 154.086 197.539 154.415 197.539H154.631C154.959 197.539 155.123 197.395 155.123 197.106V187.362H158.568V197.559C158.568 199.186 157.603 200 155.674 200H153.371C151.442 200 150.478 199.186 150.478 197.559V194.941ZM165.321 187.362H168.765V197.559C168.765 199.186 167.801 200 165.872 200H162.958C161.029 200 160.065 199.186 160.065 197.559V187.362H163.51V197.106C163.51 197.395 163.674 197.539 164.002 197.539H164.828C165.156 197.539 165.321 197.395 165.321 197.106V187.362ZM170.349 187.362H173.794V200H170.349V187.362ZM181.134 187.362H184.284V200H181.331L178.516 193.366V200H175.367V187.362H178.319L181.134 194.114V187.362Z" fill="black"/>
</svg>
