<svg width="255" height="262" viewBox="0 0 255 262" fill="none" xmlns="http://www.w3.org/2000/svg">
<path d="M32.1592 143.261L52.6376 133.99L76.5934 136.694L78.5253 78.3605H117.937L134.937 89.5636H189.418L219.942 91.1089L213.374 139.784H237.716L240.034 205.844L137.642 200.822L56.5014 210.866L32.1592 201.981V143.261Z" fill="#F1DDB6"/>
<path d="M108.581 95.1931V129.189C108.581 130.543 107.811 131.22 106.271 131.22H100.081V93.1619H106.271C107.811 93.1619 108.581 93.8372 108.581 95.1931Z" fill="#290056"/>
<path d="M154.529 114.409H145.844V108.588C145.844 107.235 146.614 106.557 148.154 106.557H152.22C153.759 106.557 154.529 107.232 154.529 108.588V114.409Z" fill="#290056"/>
<path d="M50.7825 185.802V153.653C50.7825 152.3 51.5525 151.622 53.0924 151.622H56.9719C58.5118 151.622 59.2817 152.297 59.2817 153.653V185.802C59.2817 187.155 58.5118 187.833 56.9719 187.833H53.0924C51.5525 187.833 50.7825 187.158 50.7825 185.802Z" fill="#290056"/>
<path d="M149.923 171.942H141.238V166.121C141.238 164.768 142.007 164.09 143.547 164.09H147.613C149.153 164.09 149.923 164.766 149.923 166.121V171.942Z" fill="#290056"/>
<path fill-rule="evenodd" clip-rule="evenodd" d="M185.876 63.7955L206.9 69.0383L213.468 65.092L209.521 58.5256L180.611 51.3191L187.821 22.4172L197.671 16.4991L187.805 0.0844727L171.39 9.94621L177.307 19.7944L170.099 48.699L141.189 41.4924L134.624 45.4388L138.568 52.0024L159.595 57.2453L153.022 83.5946H144.601C141.624 83.5946 138.453 83.8971 135.354 84.7696C134.152 81.5985 132.198 78.6056 129.245 76.1125C123.888 71.5936 117.164 70.3835 111.22 70.3835H71.8067V129.281C68.5081 128.265 65.1013 127.92 61.9189 127.92H48.2434C33.8276 127.55 22.308 136.612 22.5025 151.527V187.925C22.3053 202.854 33.8411 211.903 48.2407 211.535H51.153L56.9749 217.818H108.773L102.87 211.535H151.261C156.483 211.535 162.308 210.601 167.279 207.311C172.25 210.601 178.074 211.535 183.296 211.535H192.352C198.112 211.535 204.604 210.398 209.875 206.217C215.146 210.398 221.638 211.535 227.397 211.535H247.408L247.5 141.128H241.681V132.074H217.377L229.815 83.5946H180.938L185.876 63.7955ZM111.169 82.5385H83.9122V141.847H111.169C120.222 141.847 124.75 138.027 124.75 130.391V93.9938C124.75 86.3578 120.224 82.5385 111.169 82.5385ZM155.821 95.7496H144.55V95.7469C135.497 95.7469 130.969 99.5662 130.969 107.202V130.389C130.969 138.025 135.494 141.844 144.55 141.844H155.821C164.874 141.844 169.402 138.025 169.402 130.389V126.232H154.527V128.819C154.527 130.297 153.757 131.037 152.217 131.037H148.151C146.611 131.037 145.841 130.362 145.841 129.006V122.909H169.402V107.205C169.402 99.5689 164.877 95.7496 155.821 95.7496ZM192.938 125.31L187.303 95.7496H171.685L183.512 141.847H202.269L214.097 95.7496H198.482L192.938 125.31ZM34.6134 187.925C34.6134 195.561 39.1386 199.38 48.1944 199.38H56.418L62.24 205.663H80.6271L72.0333 196.517C74.3108 194.607 75.4508 191.744 75.4508 187.925V151.527C75.4508 143.891 70.9256 140.072 61.8699 140.072H48.1944C39.1413 140.072 34.6134 143.891 34.6134 151.527V187.925ZM119.86 153.283H104.153L104.15 153.28V185.059C104.15 186.907 103.321 187.83 101.656 187.83H100.087C98.5468 187.83 97.7769 187.155 97.7769 185.799V153.283H82.0698V187.925C82.0698 195.561 86.1681 199.38 94.3593 199.38H96.0235C100.765 199.38 103.569 197.408 104.431 193.467V199.38H119.86V153.283ZM151.215 153.283H139.943V153.28C130.89 153.28 126.363 157.1 126.363 164.736V187.922C126.363 195.558 130.888 199.378 139.943 199.378H151.215C160.268 199.378 164.795 195.558 164.795 187.922V183.765H149.92V186.353C149.92 187.83 149.151 188.57 147.611 188.57H143.545C142.005 188.57 141.235 187.895 141.235 186.539V180.443H164.795V164.739C164.795 157.102 160.27 153.283 151.215 153.283ZM190.642 183.49V187.182C190.642 188.535 189.872 189.213 188.332 189.213H187.224C185.684 189.213 184.914 188.538 184.914 187.182V184.132H169.669V187.919C169.669 195.555 174.194 199.375 183.25 199.375H192.306C201.359 199.375 205.887 195.555 205.887 187.919V182.839C205.887 179.206 204.839 176.434 202.745 174.525C200.713 172.556 197.325 171.57 192.581 171.57H186.946C185.406 171.57 184.636 170.894 184.636 169.538V165.473C184.636 164.12 185.406 163.442 186.946 163.442H187.87C189.41 163.442 190.18 164.117 190.18 165.473V168.615H205.147V164.736C205.147 157.1 200.621 153.28 191.566 153.28H182.972C173.919 153.28 169.391 157.1 169.391 164.736V170.095C169.391 177.671 173.827 181.458 182.696 181.458H188.332C189.872 181.458 190.642 182.134 190.642 183.49ZM229.475 164.83H235.296V153.28H229.475V144.226H213.767V153.28H208.686V164.828H213.767V187.922C213.767 195.558 218.293 199.378 227.348 199.378H235.202V187.83H231.784C230.244 187.83 229.475 187.155 229.475 185.799V164.83Z" fill="#290056"/>
<path d="M119.557 217.794H139.098L139.098 217.794L139.098 217.794H147.473L142.629 237.22L142.629 237.22L142.629 237.22L126.211 247.084L116.348 230.67L119.557 217.794Z" fill="#360362"/>
<mask id="path-4-outside-1_145_1328" maskUnits="userSpaceOnUse" x="-0.5" y="225.387" width="85" height="36" fill="black">
<rect fill="white" x="-0.5" y="225.387" width="85" height="36"/>
<path d="M17.1033 233.485H22.0633V253.387H17.4133L12.9803 242.94V253.387H8.02027V233.485H12.6703L17.1033 244.118V233.485ZM24.5496 233.485H29.9746V253.387H24.5496V233.485ZM40.6349 241.793V238.042C40.6349 237.815 40.5729 237.649 40.4489 237.546C40.3249 237.422 40.1286 237.36 39.8599 237.36H38.8369V233.485H41.5029C43.1563 233.485 44.3239 233.836 45.0059 234.539C45.7086 235.242 46.0599 236.172 46.0599 237.329V241.793H40.6349ZM40.6349 248.83V241.39H46.0599V249.543C46.0599 250.7 45.7086 251.63 45.0059 252.333C44.3239 253.036 43.1563 253.387 41.5029 253.387H38.8369V249.512H39.8599C40.1286 249.512 40.3249 249.46 40.4489 249.357C40.5729 249.233 40.6349 249.057 40.6349 248.83ZM37.7829 238.042V241.793H32.3579V237.329C32.3579 236.172 32.6989 235.242 33.3809 234.539C34.0836 233.836 35.2616 233.485 36.9149 233.485H39.5809V237.36H38.5579C38.2893 237.36 38.0929 237.422 37.9689 237.546C37.8449 237.649 37.7829 237.815 37.7829 238.042ZM37.7829 241.39V248.83C37.7829 249.057 37.8449 249.233 37.9689 249.357C38.0929 249.46 38.2893 249.512 38.5579 249.512H39.5809V253.387H36.9149C35.2616 253.387 34.0836 253.036 33.3809 252.333C32.6989 251.63 32.3579 250.7 32.3579 249.543V241.39H37.7829ZM56.7743 241.948V238.042C56.7743 237.815 56.7123 237.649 56.5883 237.546C56.4643 237.422 56.268 237.36 55.9993 237.36H50.2333V233.485H57.6423C59.2956 233.485 60.4633 233.836 61.1453 234.539C61.848 235.242 62.1993 236.172 62.1993 237.329V242.475C62.1993 243.632 61.848 244.562 61.1453 245.265C60.4633 245.968 59.2956 246.319 57.6423 246.319H50.2333V242.63H55.9993C56.268 242.63 56.4643 242.578 56.5883 242.475C56.7123 242.351 56.7743 242.175 56.7743 241.948ZM48.4353 233.485H53.8603V253.387H48.4353V233.485ZM53.2403 244.149H58.5413L63.1913 253.387H57.3633L53.2403 244.149ZM67.0871 235.345H72.5121V253.387H67.0871V235.345ZM76.3561 233.485V237.36H63.2741V233.485H76.3561Z"/>
</mask>
<path d="M17.1033 233.485H22.0633V253.387H17.4133L12.9803 242.94V253.387H8.02027V233.485H12.6703L17.1033 244.118V233.485ZM24.5496 233.485H29.9746V253.387H24.5496V233.485ZM40.6349 241.793V238.042C40.6349 237.815 40.5729 237.649 40.4489 237.546C40.3249 237.422 40.1286 237.36 39.8599 237.36H38.8369V233.485H41.5029C43.1563 233.485 44.3239 233.836 45.0059 234.539C45.7086 235.242 46.0599 236.172 46.0599 237.329V241.793H40.6349ZM40.6349 248.83V241.39H46.0599V249.543C46.0599 250.7 45.7086 251.63 45.0059 252.333C44.3239 253.036 43.1563 253.387 41.5029 253.387H38.8369V249.512H39.8599C40.1286 249.512 40.3249 249.46 40.4489 249.357C40.5729 249.233 40.6349 249.057 40.6349 248.83ZM37.7829 238.042V241.793H32.3579V237.329C32.3579 236.172 32.6989 235.242 33.3809 234.539C34.0836 233.836 35.2616 233.485 36.9149 233.485H39.5809V237.36H38.5579C38.2893 237.36 38.0929 237.422 37.9689 237.546C37.8449 237.649 37.7829 237.815 37.7829 238.042ZM37.7829 241.39V248.83C37.7829 249.057 37.8449 249.233 37.9689 249.357C38.0929 249.46 38.2893 249.512 38.5579 249.512H39.5809V253.387H36.9149C35.2616 253.387 34.0836 253.036 33.3809 252.333C32.6989 251.63 32.3579 250.7 32.3579 249.543V241.39H37.7829ZM56.7743 241.948V238.042C56.7743 237.815 56.7123 237.649 56.5883 237.546C56.4643 237.422 56.268 237.36 55.9993 237.36H50.2333V233.485H57.6423C59.2956 233.485 60.4633 233.836 61.1453 234.539C61.848 235.242 62.1993 236.172 62.1993 237.329V242.475C62.1993 243.632 61.848 244.562 61.1453 245.265C60.4633 245.968 59.2956 246.319 57.6423 246.319H50.2333V242.63H55.9993C56.268 242.63 56.4643 242.578 56.5883 242.475C56.7123 242.351 56.7743 242.175 56.7743 241.948ZM48.4353 233.485H53.8603V253.387H48.4353V233.485ZM53.2403 244.149H58.5413L63.1913 253.387H57.3633L53.2403 244.149ZM67.0871 235.345H72.5121V253.387H67.0871V235.345ZM76.3561 233.485V237.36H63.2741V233.485H76.3561Z" fill="white"/>
<path d="M17.1033 233.485V225.485H9.10327V233.485H17.1033ZM22.0633 233.485H30.0633V225.485H22.0633V233.485ZM22.0633 253.387V261.387H30.0633V253.387H22.0633ZM17.4133 253.387L10.0489 256.512L12.1175 261.387H17.4133V253.387ZM12.9803 242.94L20.3447 239.815L4.98027 242.94H12.9803ZM12.9803 253.387V261.387H20.9803V253.387H12.9803ZM8.02027 253.387H0.0202735V261.387H8.02027V253.387ZM8.02027 233.485V225.485H0.0202735V233.485H8.02027ZM12.6703 233.485L20.0543 230.407L18.0024 225.485H12.6703V233.485ZM17.1033 244.118L9.7193 247.197L25.1033 244.118H17.1033ZM17.1033 241.485H22.0633V225.485H17.1033V241.485ZM14.0633 233.485V253.387H30.0633V233.485H14.0633ZM22.0633 245.387H17.4133V261.387H22.0633V245.387ZM24.7777 250.262L20.3447 239.815L5.61586 246.065L10.0489 256.512L24.7777 250.262ZM4.98027 242.94V253.387H20.9803V242.94H4.98027ZM12.9803 245.387H8.02027V261.387H12.9803V245.387ZM16.0203 253.387V233.485H0.0202735V253.387H16.0203ZM8.02027 241.485H12.6703V225.485H8.02027V241.485ZM5.2863 236.564L9.7193 247.197L24.4873 241.04L20.0543 230.407L5.2863 236.564ZM25.1033 244.118V233.485H9.10327V244.118H25.1033ZM24.5496 233.485V225.485H16.5496V233.485H24.5496ZM29.9746 233.485H37.9746V225.485H29.9746V233.485ZM29.9746 253.387V261.387H37.9746V253.387H29.9746ZM24.5496 253.387H16.5496V261.387H24.5496V253.387ZM24.5496 241.485H29.9746V225.485H24.5496V241.485ZM21.9746 233.485V253.387H37.9746V233.485H21.9746ZM29.9746 245.387H24.5496V261.387H29.9746V245.387ZM32.5496 253.387V233.485H16.5496V253.387H32.5496ZM40.6349 241.793H32.6349V249.793H40.6349V241.793ZM40.4489 237.546L34.7921 243.203L35.0487 243.46L35.3275 243.692L40.4489 237.546ZM38.8369 237.36H30.8369V245.36H38.8369V237.36ZM38.8369 233.485V225.485H30.8369V233.485H38.8369ZM45.0059 234.539L39.2653 240.111L39.3069 240.154L39.3491 240.196L45.0059 234.539ZM46.0599 241.793V249.793H54.0599V241.793H46.0599ZM40.6349 241.39V233.39H32.6349V241.39H40.6349ZM46.0599 241.39H54.0599V233.39H46.0599V241.39ZM45.0059 252.333L39.3491 246.676L39.3069 246.718L39.2653 246.761L45.0059 252.333ZM38.8369 253.387H30.8369V261.387H38.8369V253.387ZM38.8369 249.512V241.512H30.8369V249.512H38.8369ZM40.4489 249.357L45.5704 255.503L45.8492 255.271L46.1058 255.014L40.4489 249.357ZM37.7829 241.793V249.793H45.7829V241.793H37.7829ZM32.3579 241.793H24.3579V249.793H32.3579V241.793ZM33.3809 234.539L27.7241 228.882L27.6819 228.924L27.6403 228.967L33.3809 234.539ZM39.5809 233.485H47.5809V225.485H39.5809V233.485ZM39.5809 237.36V245.36H47.5809V237.36H39.5809ZM37.9689 237.546L43.0904 243.692L43.3692 243.46L43.6258 243.203L37.9689 237.546ZM37.7829 241.39H45.7829V233.39H37.7829V241.39ZM37.9689 249.357L32.3121 255.014L32.5687 255.271L32.8475 255.503L37.9689 249.357ZM39.5809 249.512H47.5809V241.512H39.5809V249.512ZM39.5809 253.387V261.387H47.5809V253.387H39.5809ZM33.3809 252.333L27.6403 257.905L27.6819 257.948L27.7241 257.99L33.3809 252.333ZM32.3579 241.39V233.39H24.3579V241.39H32.3579ZM48.6349 241.793V238.042H32.6349V241.793H48.6349ZM48.6349 238.042C48.6349 236.452 48.1741 233.57 45.5704 231.4L35.3275 243.692C32.9717 241.729 32.6349 239.177 32.6349 238.042H48.6349ZM46.1058 231.889C43.8478 229.631 41.1442 229.36 39.8599 229.36V245.36C39.113 245.36 36.802 245.213 34.7921 243.203L46.1058 231.889ZM39.8599 229.36H38.8369V245.36H39.8599V229.36ZM46.8369 237.36V233.485H30.8369V237.36H46.8369ZM38.8369 241.485H41.5029V225.485H38.8369V241.485ZM41.5029 241.485C41.8066 241.485 41.6897 241.522 41.3137 241.409C40.9087 241.287 40.0787 240.949 39.2653 240.111L50.7466 228.967C47.8003 225.932 43.913 225.485 41.5029 225.485V241.485ZM39.3491 240.196C38.8972 239.744 38.5381 239.187 38.3127 238.591C38.096 238.017 38.0599 237.56 38.0599 237.329H54.0599C54.0599 234.427 53.1131 231.332 50.6628 228.882L39.3491 240.196ZM38.0599 237.329V241.793H54.0599V237.329H38.0599ZM46.0599 233.793H40.6349V249.793H46.0599V233.793ZM48.6349 248.83V241.39H32.6349V248.83H48.6349ZM40.6349 249.39H46.0599V233.39H40.6349V249.39ZM38.0599 241.39V249.543H54.0599V241.39H38.0599ZM38.0599 249.543C38.0599 249.312 38.096 248.855 38.3127 248.281C38.5381 247.685 38.8972 247.128 39.3491 246.676L50.6628 257.99C53.1131 255.54 54.0599 252.445 54.0599 249.543H38.0599ZM39.2653 246.761C40.0787 245.923 40.9087 245.585 41.3137 245.463C41.6897 245.35 41.8066 245.387 41.5029 245.387V261.387C43.913 261.387 47.8003 260.94 50.7466 257.905L39.2653 246.761ZM41.5029 245.387H38.8369V261.387H41.5029V245.387ZM46.8369 253.387V249.512H30.8369V253.387H46.8369ZM38.8369 257.512H39.8599V241.512H38.8369V257.512ZM39.8599 257.512C40.853 257.512 43.3225 257.376 45.5704 255.503L35.3274 243.211C36.3659 242.346 37.4217 241.934 38.1727 241.737C38.9133 241.542 39.5142 241.512 39.8599 241.512V257.512ZM46.1058 255.014C48.1378 252.982 48.6349 250.523 48.6349 248.83H32.6349C32.6349 247.592 33.0081 245.484 34.7921 243.7L46.1058 255.014ZM29.7829 238.042V241.793H45.7829V238.042H29.7829ZM37.7829 233.793H32.3579V249.793H37.7829V233.793ZM40.3579 241.793V237.329H24.3579V241.793H40.3579ZM40.3579 237.329C40.3579 237.535 40.3271 237.966 40.1247 238.518C39.9137 239.093 39.571 239.648 39.1216 240.111L27.6403 228.967C25.2498 231.43 24.3579 234.496 24.3579 237.329H40.3579ZM39.0378 240.196C38.2525 240.981 37.4642 241.3 37.0779 241.415C36.7195 241.522 36.6141 241.485 36.9149 241.485V225.485C34.4726 225.485 30.6611 225.945 27.7241 228.882L39.0378 240.196ZM36.9149 241.485H39.5809V225.485H36.9149V241.485ZM31.5809 233.485V237.36H47.5809V233.485H31.5809ZM39.5809 229.36H38.5579V245.36H39.5809V229.36ZM38.5579 229.36C37.2737 229.36 34.5701 229.631 32.3121 231.889L43.6258 243.203C41.6158 245.213 39.3049 245.36 38.5579 245.36V229.36ZM32.8475 231.4C30.2437 233.57 29.7829 236.452 29.7829 238.042H45.7829C45.7829 239.177 45.4461 241.729 43.0904 243.692L32.8475 231.4ZM29.7829 241.39V248.83H45.7829V241.39H29.7829ZM29.7829 248.83C29.7829 250.523 30.2801 252.982 32.3121 255.014L43.6258 243.7C45.4098 245.484 45.7829 247.592 45.7829 248.83H29.7829ZM32.8475 255.503C35.0953 257.376 37.5648 257.512 38.5579 257.512V241.512C38.9036 241.512 39.5045 241.542 40.2451 241.737C40.9962 241.934 42.052 242.346 43.0904 243.211L32.8475 255.503ZM38.5579 257.512H39.5809V241.512H38.5579V257.512ZM31.5809 249.512V253.387H47.5809V249.512H31.5809ZM39.5809 245.387H36.9149V261.387H39.5809V245.387ZM36.9149 245.387C36.6141 245.387 36.7195 245.35 37.0779 245.457C37.4642 245.573 38.2525 245.891 39.0378 246.676L27.7241 257.99C30.6611 260.927 34.4726 261.387 36.9149 261.387V245.387ZM39.1216 246.761C39.571 247.224 39.9137 247.779 40.1247 248.355C40.3271 248.906 40.3579 249.337 40.3579 249.543H24.3579C24.3579 252.376 25.2498 255.442 27.6403 257.905L39.1216 246.761ZM40.3579 249.543V241.39H24.3579V249.543H40.3579ZM32.3579 249.39H37.7829V233.39H32.3579V249.39ZM56.5883 237.546L50.9315 243.203L51.1881 243.46L51.4668 243.692L56.5883 237.546ZM50.2333 237.36H42.2333V245.36H50.2333V237.36ZM50.2333 233.485V225.485H42.2333V233.485H50.2333ZM61.1453 234.539L55.4047 240.111L55.4462 240.154L55.4885 240.196L61.1453 234.539ZM61.1453 245.265L55.4885 239.608L55.4462 239.65L55.4047 239.693L61.1453 245.265ZM50.2333 246.319H42.2333V254.319H50.2333V246.319ZM50.2333 242.63V234.63H42.2333V242.63H50.2333ZM56.5883 242.475L61.7098 248.621L61.9886 248.389L62.2452 248.132L56.5883 242.475ZM48.4353 233.485V225.485H40.4353V233.485H48.4353ZM53.8603 233.485H61.8603V225.485H53.8603V233.485ZM53.8603 253.387V261.387H61.8603V253.387H53.8603ZM48.4353 253.387H40.4353V261.387H48.4353V253.387ZM53.2403 244.149V236.149H40.9092L45.9349 247.41L53.2403 244.149ZM58.5413 244.149L65.6871 240.552L63.4708 236.149H58.5413V244.149ZM63.1913 253.387V261.387H76.1745L70.3371 249.79L63.1913 253.387ZM57.3633 253.387L50.0579 256.648L52.1732 261.387H57.3633V253.387ZM64.7743 241.948V238.042H48.7743V241.948H64.7743ZM64.7743 238.042C64.7743 236.452 64.3135 233.57 61.7098 231.4L51.4668 243.692C49.1111 241.729 48.7743 239.177 48.7743 238.042H64.7743ZM62.2452 231.889C59.9872 229.631 57.2836 229.36 55.9993 229.36V245.36C55.2524 245.36 52.9414 245.213 50.9315 243.203L62.2452 231.889ZM55.9993 229.36H50.2333V245.36H55.9993V229.36ZM58.2333 237.36V233.485H42.2333V237.36H58.2333ZM50.2333 241.485H57.6423V225.485H50.2333V241.485ZM57.6423 241.485C57.946 241.485 57.8291 241.522 57.4531 241.409C57.048 241.287 56.2181 240.949 55.4047 240.111L66.886 228.967C63.9397 225.932 60.0524 225.485 57.6423 225.485V241.485ZM55.4885 240.196C55.0366 239.744 54.6775 239.187 54.452 238.591C54.2353 238.017 54.1993 237.56 54.1993 237.329H70.1993C70.1993 234.427 69.2524 231.332 66.8022 228.882L55.4885 240.196ZM54.1993 237.329V242.475H70.1993V237.329H54.1993ZM54.1993 242.475C54.1993 242.244 54.2353 241.787 54.452 241.213C54.6775 240.617 55.0366 240.06 55.4885 239.608L66.8022 250.922C69.2524 248.472 70.1993 245.377 70.1993 242.475H54.1993ZM55.4047 239.693C56.2181 238.855 57.048 238.517 57.4531 238.395C57.8291 238.282 57.946 238.319 57.6423 238.319V254.319C60.0524 254.319 63.9397 253.872 66.886 250.837L55.4047 239.693ZM57.6423 238.319H50.2333V254.319H57.6423V238.319ZM58.2333 246.319V242.63H42.2333V246.319H58.2333ZM50.2333 250.63H55.9993V234.63H50.2333V250.63ZM55.9993 250.63C56.9924 250.63 59.4619 250.494 61.7098 248.621L51.4668 236.329C52.5053 235.464 53.5611 235.052 54.3121 234.855C55.0527 234.66 55.6536 234.63 55.9993 234.63V250.63ZM62.2452 248.132C64.2772 246.1 64.7743 243.641 64.7743 241.948H48.7743C48.7743 240.71 49.1475 238.602 50.9315 236.818L62.2452 248.132ZM48.4353 241.485H53.8603V225.485H48.4353V241.485ZM45.8603 233.485V253.387H61.8603V233.485H45.8603ZM53.8603 245.387H48.4353V261.387H53.8603V245.387ZM56.4353 253.387V233.485H40.4353V253.387H56.4353ZM53.2403 252.149H58.5413V236.149H53.2403V252.149ZM51.3955 247.746L56.0455 256.984L70.3371 249.79L65.6871 240.552L51.3955 247.746ZM63.1913 245.387H57.3633V261.387H63.1913V245.387ZM64.6687 250.127L60.5457 240.889L45.9349 247.41L50.0579 256.648L64.6687 250.127ZM67.0871 235.345V227.345H59.0871V235.345H67.0871ZM72.5121 235.345H80.5121V227.345H72.5121V235.345ZM72.5121 253.387V261.387H80.5121V253.387H72.5121ZM67.0871 253.387H59.0871V261.387H67.0871V253.387ZM76.3561 233.485H84.3561V225.485H76.3561V233.485ZM76.3561 237.36V245.36H84.3561V237.36H76.3561ZM63.2741 237.36H55.2741V245.36H63.2741V237.36ZM63.2741 233.485V225.485H55.2741V233.485H63.2741ZM67.0871 243.345H72.5121V227.345H67.0871V243.345ZM64.5121 235.345V253.387H80.5121V235.345H64.5121ZM72.5121 245.387H67.0871V261.387H72.5121V245.387ZM75.0871 253.387V235.345H59.0871V253.387H75.0871ZM68.3561 233.485V237.36H84.3561V233.485H68.3561ZM76.3561 229.36H63.2741V245.36H76.3561V229.36ZM71.2741 237.36V233.485H55.2741V237.36H71.2741ZM63.2741 241.485H76.3561V225.485H63.2741V241.485Z" fill="black" mask="url(#path-4-outside-1_145_1328)"/>
<mask id="path-6-outside-2_145_1328" maskUnits="userSpaceOnUse" x="102.145" y="225.387" width="153" height="36" fill="black">
<rect fill="white" x="102.145" y="225.387" width="153" height="36"/>
<path d="M124.057 237.329V249.543C124.057 250.7 123.706 251.63 123.003 252.333C122.321 253.036 121.153 253.387 119.5 253.387H115.377C113.724 253.387 112.546 253.036 111.843 252.333C111.161 251.63 110.82 250.7 110.82 249.543V237.329C110.82 236.172 111.161 235.242 111.843 234.539C112.546 233.836 113.724 233.485 115.377 233.485H119.5C121.153 233.485 122.321 233.836 123.003 234.539C123.706 235.242 124.057 236.172 124.057 237.329ZM118.632 248.83V238.042C118.632 237.815 118.57 237.649 118.446 237.546C118.322 237.422 118.126 237.36 117.857 237.36H117.02C116.751 237.36 116.555 237.422 116.431 237.546C116.307 237.649 116.245 237.815 116.245 238.042V248.83C116.245 249.057 116.307 249.233 116.431 249.357C116.555 249.46 116.751 249.512 117.02 249.512H117.857C118.126 249.512 118.322 249.46 118.446 249.357C118.57 249.233 118.632 249.057 118.632 248.83ZM131.868 246.412V248.83C131.868 249.057 131.93 249.233 132.054 249.357C132.178 249.46 132.374 249.512 132.643 249.512H133.604C133.873 249.512 134.069 249.46 134.193 249.357C134.317 249.233 134.379 249.057 134.379 248.83V244.831C134.379 244.604 134.317 244.438 134.193 244.335C134.069 244.211 133.873 244.149 133.604 244.149H129.884V240.274H135.154C136.807 240.274 137.975 240.625 138.657 241.328C139.36 242.031 139.711 242.961 139.711 244.118V249.543C139.711 250.7 139.36 251.63 138.657 252.333C137.975 253.036 136.807 253.387 135.154 253.387H131C129.347 253.387 128.169 253.036 127.466 252.333C126.784 251.63 126.443 250.7 126.443 249.543V246.412H131.868ZM132.023 244.149H126.691V233.485H139.401V237.36H132.023V244.149ZM141.883 253.387V248.303H147.215V253.387H141.883ZM162.837 237.329V249.543C162.837 250.7 162.486 251.63 161.783 252.333C161.101 253.036 159.933 253.387 158.28 253.387H154.157C152.504 253.387 151.326 253.036 150.623 252.333C149.941 251.63 149.6 250.7 149.6 249.543V237.329C149.6 236.172 149.941 235.242 150.623 234.539C151.326 233.836 152.504 233.485 154.157 233.485H158.28C159.933 233.485 161.101 233.836 161.783 234.539C162.486 235.242 162.837 236.172 162.837 237.329ZM157.412 248.83V238.042C157.412 237.815 157.35 237.649 157.226 237.546C157.102 237.422 156.906 237.36 156.637 237.36H155.8C155.531 237.36 155.335 237.422 155.211 237.546C155.087 237.649 155.025 237.815 155.025 238.042V248.83C155.025 249.057 155.087 249.233 155.211 249.357C155.335 249.46 155.531 249.512 155.8 249.512H156.637C156.906 249.512 157.102 249.46 157.226 249.357C157.35 249.233 157.412 249.057 157.412 248.83ZM173.097 248.83V245.854C173.097 245.627 173.035 245.461 172.911 245.358C172.787 245.234 172.591 245.172 172.322 245.172H169.067V241.452H173.81C175.464 241.452 176.631 241.803 177.313 242.506C178.016 243.209 178.367 244.139 178.367 245.296V249.543C178.367 250.7 178.016 251.63 177.313 252.333C176.631 253.036 175.464 253.387 173.81 253.387H171.609V249.512H172.322C172.591 249.512 172.787 249.46 172.911 249.357C173.035 249.233 173.097 249.057 173.097 248.83ZM170.4 238.042V248.83C170.4 249.057 170.462 249.233 170.586 249.357C170.71 249.46 170.907 249.512 171.175 249.512H171.888V253.387H169.687C168.034 253.387 166.856 253.036 166.153 252.333C165.471 251.63 165.13 250.7 165.13 249.543V237.329C165.13 236.172 165.471 235.242 166.153 234.539C166.856 233.836 168.034 233.485 169.687 233.485H171.888V237.36H171.175C170.907 237.36 170.71 237.422 170.586 237.546C170.462 237.649 170.4 237.815 170.4 238.042ZM172.787 239.561V238.042C172.787 237.815 172.725 237.649 172.601 237.546C172.477 237.422 172.281 237.36 172.012 237.36H171.423V233.485H173.5C175.154 233.485 176.321 233.836 177.003 234.539C177.706 235.242 178.057 236.172 178.057 237.329V239.561H172.787ZM180.542 253.387V248.303H185.874V253.387H180.542ZM193.25 238.042V240.305H187.825V237.329C187.825 236.172 188.166 235.242 188.848 234.539C189.551 233.836 190.729 233.485 192.382 233.485H196.133C197.787 233.485 198.965 233.836 199.667 234.539C200.391 235.242 200.752 236.172 200.752 237.329V240.181C200.752 241.256 200.566 242.165 200.194 242.909C199.843 243.653 199.306 244.418 198.582 245.203L194.738 249.512H200.752V253.387H187.98V249.853L193.87 243.529C194.49 242.868 194.904 242.31 195.11 241.855C195.317 241.4 195.42 240.832 195.42 240.15V238.042C195.42 237.815 195.358 237.649 195.234 237.546C195.11 237.422 194.914 237.36 194.645 237.36H194.025C193.757 237.36 193.56 237.422 193.436 237.546C193.312 237.649 193.25 237.815 193.25 238.042ZM216.028 237.329V249.543C216.028 250.7 215.676 251.63 214.974 252.333C214.292 253.036 213.124 253.387 211.471 253.387H207.348C205.694 253.387 204.516 253.036 203.814 252.333C203.132 251.63 202.791 250.7 202.791 249.543V237.329C202.791 236.172 203.132 235.242 203.814 234.539C204.516 233.836 205.694 233.485 207.348 233.485H211.471C213.124 233.485 214.292 233.836 214.974 234.539C215.676 235.242 216.028 236.172 216.028 237.329ZM210.603 248.83V238.042C210.603 237.815 210.541 237.649 210.417 237.546C210.293 237.422 210.096 237.36 209.828 237.36H208.991C208.722 237.36 208.526 237.422 208.402 237.546C208.278 237.649 208.216 237.815 208.216 238.042V248.83C208.216 249.057 208.278 249.233 208.402 249.357C208.526 249.46 208.722 249.512 208.991 249.512H209.828C210.096 249.512 210.293 249.46 210.417 249.357C210.541 249.233 210.603 249.057 210.603 248.83ZM223.312 238.042V240.305H217.887V237.329C217.887 236.172 218.228 235.242 218.91 234.539C219.612 233.836 220.79 233.485 222.444 233.485H226.195C227.848 233.485 229.026 233.836 229.729 234.539C230.452 235.242 230.814 236.172 230.814 237.329V240.181C230.814 241.256 230.628 242.165 230.256 242.909C229.904 243.653 229.367 244.418 228.644 245.203L224.8 249.512H230.814V253.387H218.042V249.853L223.932 243.529C224.552 242.868 224.965 242.31 225.172 241.855C225.378 241.4 225.482 240.832 225.482 240.15V238.042C225.482 237.815 225.42 237.649 225.296 237.546C225.172 237.422 224.975 237.36 224.707 237.36H224.087C223.818 237.36 223.622 237.422 223.498 237.546C223.374 237.649 223.312 237.815 223.312 238.042ZM238.37 246.412V248.83C238.37 249.057 238.432 249.233 238.556 249.357C238.68 249.46 238.876 249.512 239.145 249.512H240.106C240.375 249.512 240.571 249.46 240.695 249.357C240.819 249.233 240.881 249.057 240.881 248.83V244.831C240.881 244.604 240.819 244.438 240.695 244.335C240.571 244.211 240.375 244.149 240.106 244.149H236.386V240.274H241.656C243.309 240.274 244.477 240.625 245.159 241.328C245.862 242.031 246.213 242.961 246.213 244.118V249.543C246.213 250.7 245.862 251.63 245.159 252.333C244.477 253.036 243.309 253.387 241.656 253.387H237.502C235.849 253.387 234.671 253.036 233.968 252.333C233.286 251.63 232.945 250.7 232.945 249.543V246.412H238.37ZM238.525 244.149H233.193V233.485H245.903V237.36H238.525V244.149Z"/>
</mask>
<path d="M124.057 237.329V249.543C124.057 250.7 123.706 251.63 123.003 252.333C122.321 253.036 121.153 253.387 119.5 253.387H115.377C113.724 253.387 112.546 253.036 111.843 252.333C111.161 251.63 110.82 250.7 110.82 249.543V237.329C110.82 236.172 111.161 235.242 111.843 234.539C112.546 233.836 113.724 233.485 115.377 233.485H119.5C121.153 233.485 122.321 233.836 123.003 234.539C123.706 235.242 124.057 236.172 124.057 237.329ZM118.632 248.83V238.042C118.632 237.815 118.57 237.649 118.446 237.546C118.322 237.422 118.126 237.36 117.857 237.36H117.02C116.751 237.36 116.555 237.422 116.431 237.546C116.307 237.649 116.245 237.815 116.245 238.042V248.83C116.245 249.057 116.307 249.233 116.431 249.357C116.555 249.46 116.751 249.512 117.02 249.512H117.857C118.126 249.512 118.322 249.46 118.446 249.357C118.57 249.233 118.632 249.057 118.632 248.83ZM131.868 246.412V248.83C131.868 249.057 131.93 249.233 132.054 249.357C132.178 249.46 132.374 249.512 132.643 249.512H133.604C133.873 249.512 134.069 249.46 134.193 249.357C134.317 249.233 134.379 249.057 134.379 248.83V244.831C134.379 244.604 134.317 244.438 134.193 244.335C134.069 244.211 133.873 244.149 133.604 244.149H129.884V240.274H135.154C136.807 240.274 137.975 240.625 138.657 241.328C139.36 242.031 139.711 242.961 139.711 244.118V249.543C139.711 250.7 139.36 251.63 138.657 252.333C137.975 253.036 136.807 253.387 135.154 253.387H131C129.347 253.387 128.169 253.036 127.466 252.333C126.784 251.63 126.443 250.7 126.443 249.543V246.412H131.868ZM132.023 244.149H126.691V233.485H139.401V237.36H132.023V244.149ZM141.883 253.387V248.303H147.215V253.387H141.883ZM162.837 237.329V249.543C162.837 250.7 162.486 251.63 161.783 252.333C161.101 253.036 159.933 253.387 158.28 253.387H154.157C152.504 253.387 151.326 253.036 150.623 252.333C149.941 251.63 149.6 250.7 149.6 249.543V237.329C149.6 236.172 149.941 235.242 150.623 234.539C151.326 233.836 152.504 233.485 154.157 233.485H158.28C159.933 233.485 161.101 233.836 161.783 234.539C162.486 235.242 162.837 236.172 162.837 237.329ZM157.412 248.83V238.042C157.412 237.815 157.35 237.649 157.226 237.546C157.102 237.422 156.906 237.36 156.637 237.36H155.8C155.531 237.36 155.335 237.422 155.211 237.546C155.087 237.649 155.025 237.815 155.025 238.042V248.83C155.025 249.057 155.087 249.233 155.211 249.357C155.335 249.46 155.531 249.512 155.8 249.512H156.637C156.906 249.512 157.102 249.46 157.226 249.357C157.35 249.233 157.412 249.057 157.412 248.83ZM173.097 248.83V245.854C173.097 245.627 173.035 245.461 172.911 245.358C172.787 245.234 172.591 245.172 172.322 245.172H169.067V241.452H173.81C175.464 241.452 176.631 241.803 177.313 242.506C178.016 243.209 178.367 244.139 178.367 245.296V249.543C178.367 250.7 178.016 251.63 177.313 252.333C176.631 253.036 175.464 253.387 173.81 253.387H171.609V249.512H172.322C172.591 249.512 172.787 249.46 172.911 249.357C173.035 249.233 173.097 249.057 173.097 248.83ZM170.4 238.042V248.83C170.4 249.057 170.462 249.233 170.586 249.357C170.71 249.46 170.907 249.512 171.175 249.512H171.888V253.387H169.687C168.034 253.387 166.856 253.036 166.153 252.333C165.471 251.63 165.13 250.7 165.13 249.543V237.329C165.13 236.172 165.471 235.242 166.153 234.539C166.856 233.836 168.034 233.485 169.687 233.485H171.888V237.36H171.175C170.907 237.36 170.71 237.422 170.586 237.546C170.462 237.649 170.4 237.815 170.4 238.042ZM172.787 239.561V238.042C172.787 237.815 172.725 237.649 172.601 237.546C172.477 237.422 172.281 237.36 172.012 237.36H171.423V233.485H173.5C175.154 233.485 176.321 233.836 177.003 234.539C177.706 235.242 178.057 236.172 178.057 237.329V239.561H172.787ZM180.542 253.387V248.303H185.874V253.387H180.542ZM193.25 238.042V240.305H187.825V237.329C187.825 236.172 188.166 235.242 188.848 234.539C189.551 233.836 190.729 233.485 192.382 233.485H196.133C197.787 233.485 198.965 233.836 199.667 234.539C200.391 235.242 200.752 236.172 200.752 237.329V240.181C200.752 241.256 200.566 242.165 200.194 242.909C199.843 243.653 199.306 244.418 198.582 245.203L194.738 249.512H200.752V253.387H187.98V249.853L193.87 243.529C194.49 242.868 194.904 242.31 195.11 241.855C195.317 241.4 195.42 240.832 195.42 240.15V238.042C195.42 237.815 195.358 237.649 195.234 237.546C195.11 237.422 194.914 237.36 194.645 237.36H194.025C193.757 237.36 193.56 237.422 193.436 237.546C193.312 237.649 193.25 237.815 193.25 238.042ZM216.028 237.329V249.543C216.028 250.7 215.676 251.63 214.974 252.333C214.292 253.036 213.124 253.387 211.471 253.387H207.348C205.694 253.387 204.516 253.036 203.814 252.333C203.132 251.63 202.791 250.7 202.791 249.543V237.329C202.791 236.172 203.132 235.242 203.814 234.539C204.516 233.836 205.694 233.485 207.348 233.485H211.471C213.124 233.485 214.292 233.836 214.974 234.539C215.676 235.242 216.028 236.172 216.028 237.329ZM210.603 248.83V238.042C210.603 237.815 210.541 237.649 210.417 237.546C210.293 237.422 210.096 237.36 209.828 237.36H208.991C208.722 237.36 208.526 237.422 208.402 237.546C208.278 237.649 208.216 237.815 208.216 238.042V248.83C208.216 249.057 208.278 249.233 208.402 249.357C208.526 249.46 208.722 249.512 208.991 249.512H209.828C210.096 249.512 210.293 249.46 210.417 249.357C210.541 249.233 210.603 249.057 210.603 248.83ZM223.312 238.042V240.305H217.887V237.329C217.887 236.172 218.228 235.242 218.91 234.539C219.612 233.836 220.79 233.485 222.444 233.485H226.195C227.848 233.485 229.026 233.836 229.729 234.539C230.452 235.242 230.814 236.172 230.814 237.329V240.181C230.814 241.256 230.628 242.165 230.256 242.909C229.904 243.653 229.367 244.418 228.644 245.203L224.8 249.512H230.814V253.387H218.042V249.853L223.932 243.529C224.552 242.868 224.965 242.31 225.172 241.855C225.378 241.4 225.482 240.832 225.482 240.15V238.042C225.482 237.815 225.42 237.649 225.296 237.546C225.172 237.422 224.975 237.36 224.707 237.36H224.087C223.818 237.36 223.622 237.422 223.498 237.546C223.374 237.649 223.312 237.815 223.312 238.042ZM238.37 246.412V248.83C238.37 249.057 238.432 249.233 238.556 249.357C238.68 249.46 238.876 249.512 239.145 249.512H240.106C240.375 249.512 240.571 249.46 240.695 249.357C240.819 249.233 240.881 249.057 240.881 248.83V244.831C240.881 244.604 240.819 244.438 240.695 244.335C240.571 244.211 240.375 244.149 240.106 244.149H236.386V240.274H241.656C243.309 240.274 244.477 240.625 245.159 241.328C245.862 242.031 246.213 242.961 246.213 244.118V249.543C246.213 250.7 245.862 251.63 245.159 252.333C244.477 253.036 243.309 253.387 241.656 253.387H237.502C235.849 253.387 234.671 253.036 233.968 252.333C233.286 251.63 232.945 250.7 232.945 249.543V246.412H238.37ZM238.525 244.149H233.193V233.485H245.903V237.36H238.525V244.149Z" fill="white"/>
<path d="M123.003 252.333L117.346 246.676L117.304 246.718L117.262 246.761L123.003 252.333ZM111.843 252.333L106.102 257.905L106.144 257.948L106.186 257.99L111.843 252.333ZM111.843 234.539L106.186 228.882L106.144 228.924L106.102 228.967L111.843 234.539ZM123.003 234.539L117.262 240.111L117.304 240.154L117.346 240.196L123.003 234.539ZM118.446 237.546L112.789 243.203L113.046 243.46L113.324 243.692L118.446 237.546ZM116.431 237.546L121.552 243.692L121.831 243.46L122.088 243.203L116.431 237.546ZM116.431 249.357L110.774 255.014L111.031 255.271L111.309 255.503L116.431 249.357ZM118.446 249.357L123.567 255.503L123.846 255.271L124.103 255.014L118.446 249.357ZM116.057 237.329V249.543H132.057V237.329H116.057ZM116.057 249.543C116.057 249.312 116.093 248.855 116.31 248.281C116.535 247.685 116.894 247.128 117.346 246.676L128.66 257.99C131.11 255.54 132.057 252.445 132.057 249.543H116.057ZM117.262 246.761C118.076 245.923 118.906 245.585 119.311 245.463C119.687 245.35 119.804 245.387 119.5 245.387V261.387C121.91 261.387 125.797 260.94 128.743 257.905L117.262 246.761ZM119.5 245.387H115.377V261.387H119.5V245.387ZM115.377 245.387C115.076 245.387 115.181 245.35 115.54 245.457C115.926 245.573 116.714 245.891 117.5 246.676L106.186 257.99C109.123 260.927 112.934 261.387 115.377 261.387V245.387ZM117.583 246.761C118.033 247.224 118.376 247.779 118.587 248.355C118.789 248.906 118.82 249.337 118.82 249.543H102.82C102.82 252.376 103.712 255.442 106.102 257.905L117.583 246.761ZM118.82 249.543V237.329H102.82V249.543H118.82ZM118.82 237.329C118.82 237.535 118.789 237.966 118.587 238.518C118.376 239.093 118.033 239.648 117.584 240.111L106.102 228.967C103.712 231.43 102.82 234.496 102.82 237.329H118.82ZM117.5 240.196C116.714 240.981 115.926 241.3 115.54 241.415C115.181 241.522 115.076 241.485 115.377 241.485V225.485C112.934 225.485 109.123 225.945 106.186 228.882L117.5 240.196ZM115.377 241.485H119.5V225.485H115.377V241.485ZM119.5 241.485C119.804 241.485 119.687 241.522 119.311 241.409C118.906 241.287 118.076 240.949 117.262 240.111L128.743 228.967C125.797 225.932 121.91 225.485 119.5 225.485V241.485ZM117.346 240.196C116.894 239.744 116.535 239.187 116.31 238.591C116.093 238.017 116.057 237.56 116.057 237.329H132.057C132.057 234.427 131.11 231.332 128.66 228.882L117.346 240.196ZM126.632 248.83V238.042H110.632V248.83H126.632ZM126.632 238.042C126.632 236.452 126.171 233.57 123.567 231.4L113.324 243.692C110.969 241.729 110.632 239.177 110.632 238.042H126.632ZM124.103 231.889C121.845 229.631 119.141 229.36 117.857 229.36V245.36C117.11 245.36 114.799 245.213 112.789 243.203L124.103 231.889ZM117.857 229.36H117.02V245.36H117.857V229.36ZM117.02 229.36C115.736 229.36 113.032 229.631 110.774 231.889L122.088 243.203C120.078 245.213 117.767 245.36 117.02 245.36V229.36ZM111.309 231.4C108.706 233.57 108.245 236.452 108.245 238.042H124.245C124.245 239.177 123.908 241.729 121.552 243.692L111.309 231.4ZM108.245 238.042V248.83H124.245V238.042H108.245ZM108.245 248.83C108.245 250.523 108.742 252.982 110.774 255.014L122.088 243.7C123.872 245.484 124.245 247.592 124.245 248.83H108.245ZM111.309 255.503C113.557 257.376 116.027 257.512 117.02 257.512V241.512C117.366 241.512 117.966 241.542 118.707 241.737C119.458 241.934 120.514 242.346 121.552 243.211L111.309 255.503ZM117.02 257.512H117.857V241.512H117.02V257.512ZM117.857 257.512C118.85 257.512 121.319 257.376 123.567 255.503L113.324 243.211C114.363 242.346 115.419 241.934 116.17 241.737C116.91 241.542 117.511 241.512 117.857 241.512V257.512ZM124.103 255.014C126.135 252.982 126.632 250.523 126.632 248.83H110.632C110.632 247.592 111.005 245.484 112.789 243.7L124.103 255.014ZM131.868 246.412H139.868V238.412H131.868V246.412ZM132.054 249.357L126.397 255.014L126.654 255.271L126.933 255.503L132.054 249.357ZM134.193 249.357L139.315 255.503L139.593 255.271L139.85 255.014L134.193 249.357ZM134.193 244.335L128.536 249.992L128.793 250.249L129.072 250.481L134.193 244.335ZM129.884 244.149H121.884V252.149H129.884V244.149ZM129.884 240.274V232.274H121.884V240.274H129.884ZM138.657 241.328L132.916 246.9L132.958 246.943L133 246.985L138.657 241.328ZM138.657 252.333L133 246.676L132.958 246.718L132.916 246.761L138.657 252.333ZM127.466 252.333L121.725 257.905L121.767 257.948L121.809 257.99L127.466 252.333ZM126.443 246.412V238.412H118.443V246.412H126.443ZM132.023 244.149V252.149H140.023V244.149H132.023ZM126.691 244.149H118.691V252.149H126.691V244.149ZM126.691 233.485V225.485H118.691V233.485H126.691ZM139.401 233.485H147.401V225.485H139.401V233.485ZM139.401 237.36V245.36H147.401V237.36H139.401ZM132.023 237.36V229.36H124.023V237.36H132.023ZM123.868 246.412V248.83H139.868V246.412H123.868ZM123.868 248.83C123.868 250.523 124.365 252.982 126.397 255.014L137.711 243.7C139.495 245.484 139.868 247.592 139.868 248.83H123.868ZM126.933 255.503C129.181 257.376 131.65 257.512 132.643 257.512V241.512C132.989 241.512 133.59 241.542 134.33 241.737C135.081 241.934 136.137 242.346 137.176 243.211L126.933 255.503ZM132.643 257.512H133.604V241.512H132.643V257.512ZM133.604 257.512C134.597 257.512 137.067 257.376 139.315 255.503L129.072 243.211C130.11 242.346 131.166 241.934 131.917 241.737C132.658 241.542 133.258 241.512 133.604 241.512V257.512ZM139.85 255.014C141.882 252.982 142.379 250.523 142.379 248.83H126.379C126.379 247.592 126.752 245.484 128.536 243.7L139.85 255.014ZM142.379 248.83V244.831H126.379V248.83H142.379ZM142.379 244.831C142.379 243.241 141.918 240.359 139.315 238.189L129.072 250.481C126.716 248.518 126.379 245.966 126.379 244.831H142.379ZM139.85 238.678C137.592 236.42 134.888 236.149 133.604 236.149V252.149C132.857 252.149 130.546 252.002 128.536 249.992L139.85 238.678ZM133.604 236.149H129.884V252.149H133.604V236.149ZM137.884 244.149V240.274H121.884V244.149H137.884ZM129.884 248.274H135.154V232.274H129.884V248.274ZM135.154 248.274C135.458 248.274 135.341 248.311 134.965 248.198C134.56 248.076 133.73 247.738 132.916 246.9L144.398 235.756C141.451 232.721 137.564 232.274 135.154 232.274V248.274ZM133 246.985C132.548 246.533 132.189 245.976 131.964 245.38C131.747 244.806 131.711 244.349 131.711 244.118H147.711C147.711 241.216 146.764 238.121 144.314 235.671L133 246.985ZM131.711 244.118V249.543H147.711V244.118H131.711ZM131.711 249.543C131.711 249.312 131.747 248.855 131.964 248.281C132.189 247.685 132.548 247.128 133 246.676L144.314 257.99C146.764 255.54 147.711 252.445 147.711 249.543H131.711ZM132.916 246.761C133.73 245.923 134.56 245.585 134.965 245.463C135.341 245.35 135.458 245.387 135.154 245.387V261.387C137.564 261.387 141.451 260.94 144.398 257.905L132.916 246.761ZM135.154 245.387H131V261.387H135.154V245.387ZM131 245.387C130.699 245.387 130.805 245.35 131.163 245.457C131.549 245.573 132.338 245.891 133.123 246.676L121.809 257.99C124.746 260.927 128.558 261.387 131 261.387V245.387ZM133.207 246.761C133.656 247.224 133.999 247.779 134.21 248.355C134.412 248.906 134.443 249.337 134.443 249.543H118.443C118.443 252.376 119.335 255.442 121.725 257.905L133.207 246.761ZM134.443 249.543V246.412H118.443V249.543H134.443ZM126.443 254.412H131.868V238.412H126.443V254.412ZM132.023 236.149H126.691V252.149H132.023V236.149ZM134.691 244.149V233.485H118.691V244.149H134.691ZM126.691 241.485H139.401V225.485H126.691V241.485ZM131.401 233.485V237.36H147.401V233.485H131.401ZM139.401 229.36H132.023V245.36H139.401V229.36ZM124.023 237.36V244.149H140.023V237.36H124.023ZM141.883 253.387H133.883V261.387H141.883V253.387ZM141.883 248.303V240.303H133.883V248.303H141.883ZM147.215 248.303H155.215V240.303H147.215V248.303ZM147.215 253.387V261.387H155.215V253.387H147.215ZM149.883 253.387V248.303H133.883V253.387H149.883ZM141.883 256.303H147.215V240.303H141.883V256.303ZM139.215 248.303V253.387H155.215V248.303H139.215ZM147.215 245.387H141.883V261.387H147.215V245.387ZM161.783 252.333L156.126 246.676L156.084 246.718L156.042 246.761L161.783 252.333ZM150.623 252.333L144.882 257.905L144.924 257.948L144.966 257.99L150.623 252.333ZM150.623 234.539L144.966 228.882L144.924 228.924L144.882 228.967L150.623 234.539ZM161.783 234.539L156.042 240.111L156.084 240.154L156.126 240.196L161.783 234.539ZM157.226 237.546L151.569 243.203L151.826 243.46L152.105 243.692L157.226 237.546ZM155.211 237.546L160.333 243.692L160.611 243.46L160.868 243.203L155.211 237.546ZM155.211 249.357L149.554 255.014L149.811 255.271L150.09 255.503L155.211 249.357ZM157.226 249.357L162.348 255.503L162.626 255.271L162.883 255.014L157.226 249.357ZM154.837 237.329V249.543H170.837V237.329H154.837ZM154.837 249.543C154.837 249.312 154.873 248.855 155.09 248.281C155.315 247.685 155.674 247.128 156.126 246.676L167.44 257.99C169.89 255.54 170.837 252.445 170.837 249.543H154.837ZM156.042 246.761C156.856 245.923 157.686 245.585 158.091 245.463C158.467 245.35 158.584 245.387 158.28 245.387V261.387C160.69 261.387 164.577 260.94 167.524 257.905L156.042 246.761ZM158.28 245.387H154.157V261.387H158.28V245.387ZM154.157 245.387C153.856 245.387 153.962 245.35 154.32 245.457C154.706 245.573 155.495 245.891 156.28 246.676L144.966 257.99C147.903 260.927 151.715 261.387 154.157 261.387V245.387ZM156.364 246.761C156.813 247.224 157.156 247.779 157.367 248.355C157.569 248.906 157.6 249.337 157.6 249.543H141.6C141.6 252.376 142.492 255.442 144.882 257.905L156.364 246.761ZM157.6 249.543V237.329H141.6V249.543H157.6ZM157.6 237.329C157.6 237.535 157.569 237.966 157.367 238.518C157.156 239.093 156.813 239.648 156.364 240.111L144.882 228.967C142.492 231.43 141.6 234.496 141.6 237.329H157.6ZM156.28 240.196C155.495 240.981 154.706 241.3 154.32 241.415C153.962 241.522 153.856 241.485 154.157 241.485V225.485C151.715 225.485 147.903 225.945 144.966 228.882L156.28 240.196ZM154.157 241.485H158.28V225.485H154.157V241.485ZM158.28 241.485C158.584 241.485 158.467 241.522 158.091 241.409C157.686 241.287 156.856 240.949 156.042 240.111L167.524 228.967C164.577 225.932 160.69 225.485 158.28 225.485V241.485ZM156.126 240.196C155.674 239.744 155.315 239.187 155.09 238.591C154.873 238.017 154.837 237.56 154.837 237.329H170.837C170.837 234.427 169.89 231.332 167.44 228.882L156.126 240.196ZM165.412 248.83V238.042H149.412V248.83H165.412ZM165.412 238.042C165.412 236.452 164.951 233.57 162.348 231.4L152.105 243.692C149.749 241.729 149.412 239.177 149.412 238.042H165.412ZM162.883 231.889C160.625 229.631 157.921 229.36 156.637 229.36V245.36C155.89 245.36 153.579 245.213 151.569 243.203L162.883 231.889ZM156.637 229.36H155.8V245.36H156.637V229.36ZM155.8 229.36C154.516 229.36 151.812 229.631 149.554 231.889L160.868 243.203C158.858 245.213 156.547 245.36 155.8 245.36V229.36ZM150.09 231.4C147.486 233.57 147.025 236.452 147.025 238.042H163.025C163.025 239.177 162.688 241.729 160.333 243.692L150.09 231.4ZM147.025 238.042V248.83H163.025V238.042H147.025ZM147.025 248.83C147.025 250.523 147.522 252.982 149.554 255.014L160.868 243.7C162.652 245.484 163.025 247.592 163.025 248.83H147.025ZM150.09 255.503C152.338 257.376 154.807 257.512 155.8 257.512V241.512C156.146 241.512 156.747 241.542 157.487 241.737C158.238 241.934 159.294 242.346 160.333 243.211L150.09 255.503ZM155.8 257.512H156.637V241.512H155.8V257.512ZM156.637 257.512C157.63 257.512 160.1 257.376 162.348 255.503L152.105 243.211C153.143 242.346 154.199 241.934 154.95 241.737C155.691 241.542 156.291 241.512 156.637 241.512V257.512ZM162.883 255.014C164.915 252.982 165.412 250.523 165.412 248.83H149.412C149.412 247.592 149.785 245.484 151.569 243.7L162.883 255.014ZM172.911 245.358L167.255 251.015L167.511 251.272L167.79 251.504L172.911 245.358ZM169.067 245.172H161.067V253.172H169.067V245.172ZM169.067 241.452V233.452H161.067V241.452H169.067ZM177.313 242.506L171.573 248.078L171.614 248.121L171.657 248.163L177.313 242.506ZM177.313 252.333L171.657 246.676L171.614 246.718L171.573 246.761L177.313 252.333ZM171.609 253.387H163.609V261.387H171.609V253.387ZM171.609 249.512V241.512H163.609V249.512H171.609ZM172.911 249.357L178.033 255.503L178.312 255.271L178.568 255.014L172.911 249.357ZM170.586 249.357L164.93 255.014L165.186 255.271L165.465 255.503L170.586 249.357ZM171.888 249.512H179.888V241.512H171.888V249.512ZM171.888 253.387V261.387H179.888V253.387H171.888ZM166.153 252.333L160.413 257.905L160.454 257.948L160.497 257.99L166.153 252.333ZM166.153 234.539L160.497 228.882L160.454 228.924L160.413 228.967L166.153 234.539ZM171.888 233.485H179.888V225.485H171.888V233.485ZM171.888 237.36V245.36H179.888V237.36H171.888ZM170.586 237.546L175.708 243.692L175.987 243.46L176.243 243.203L170.586 237.546ZM172.787 239.561H164.787V247.561H172.787V239.561ZM172.601 237.546L166.945 243.203L167.201 243.46L167.48 243.692L172.601 237.546ZM171.423 237.36H163.423V245.36H171.423V237.36ZM171.423 233.485V225.485H163.423V233.485H171.423ZM177.003 234.539L171.263 240.111L171.304 240.154L171.347 240.196L177.003 234.539ZM178.057 239.561V247.561H186.057V239.561H178.057ZM181.097 248.83V245.854H165.097V248.83H181.097ZM181.097 245.854C181.097 244.264 180.637 241.382 178.033 239.212L167.79 251.504C165.434 249.541 165.097 246.989 165.097 245.854H181.097ZM178.568 239.701C176.31 237.443 173.607 237.172 172.322 237.172V253.172C171.575 253.172 169.264 253.025 167.255 251.015L178.568 239.701ZM172.322 237.172H169.067V253.172H172.322V237.172ZM177.067 245.172V241.452H161.067V245.172H177.067ZM169.067 249.452H173.81V233.452H169.067V249.452ZM173.81 249.452C174.114 249.452 173.997 249.489 173.621 249.376C173.216 249.254 172.386 248.916 171.573 248.078L183.054 236.934C180.108 233.899 176.221 233.452 173.81 233.452V249.452ZM171.657 248.163C171.205 247.711 170.846 247.154 170.62 246.558C170.403 245.984 170.367 245.527 170.367 245.296H186.367C186.367 242.394 185.421 239.299 182.97 236.849L171.657 248.163ZM170.367 245.296V249.543H186.367V245.296H170.367ZM170.367 249.543C170.367 249.312 170.403 248.855 170.62 248.281C170.846 247.685 171.205 247.128 171.657 246.676L182.97 257.99C185.421 255.54 186.367 252.445 186.367 249.543H170.367ZM171.573 246.761C172.386 245.923 173.216 245.585 173.621 245.463C173.997 245.35 174.114 245.387 173.81 245.387V261.387C176.221 261.387 180.108 260.94 183.054 257.905L171.573 246.761ZM173.81 245.387H171.609V261.387H173.81V245.387ZM179.609 253.387V249.512H163.609V253.387H179.609ZM171.609 257.512H172.322V241.512H171.609V257.512ZM172.322 257.512C173.316 257.512 175.785 257.376 178.033 255.503L167.79 243.211C168.828 242.346 169.884 241.934 170.635 241.737C171.376 241.542 171.977 241.512 172.322 241.512V257.512ZM178.568 255.014C180.6 252.982 181.097 250.523 181.097 248.83H165.097C165.097 247.592 165.471 245.484 167.255 243.7L178.568 255.014ZM162.4 238.042V248.83H178.4V238.042H162.4ZM162.4 248.83C162.4 250.523 162.898 252.982 164.93 255.014L176.243 243.7C178.027 245.484 178.4 247.592 178.4 248.83H162.4ZM165.465 255.503C167.713 257.376 170.182 257.512 171.175 257.512V241.512C171.521 241.512 172.122 241.542 172.863 241.737C173.614 241.934 174.669 242.346 175.708 243.211L165.465 255.503ZM171.175 257.512H171.888V241.512H171.175V257.512ZM163.888 249.512V253.387H179.888V249.512H163.888ZM171.888 245.387H169.687V261.387H171.888V245.387ZM169.687 245.387C169.387 245.387 169.492 245.35 169.85 245.457C170.237 245.573 171.025 245.891 171.81 246.676L160.497 257.99C163.434 260.927 167.245 261.387 169.687 261.387V245.387ZM171.894 246.761C172.343 247.224 172.686 247.779 172.897 248.355C173.1 248.906 173.13 249.337 173.13 249.543H157.13C157.13 252.376 158.022 255.442 160.413 257.905L171.894 246.761ZM173.13 249.543V237.329H157.13V249.543H173.13ZM173.13 237.329C173.13 237.535 173.1 237.966 172.897 238.518C172.686 239.093 172.343 239.648 171.894 240.111L160.413 228.967C158.022 231.43 157.13 234.496 157.13 237.329H173.13ZM171.81 240.196C171.025 240.981 170.237 241.3 169.85 241.415C169.492 241.522 169.387 241.485 169.687 241.485V225.485C167.245 225.485 163.434 225.945 160.497 228.882L171.81 240.196ZM169.687 241.485H171.888V225.485H169.687V241.485ZM163.888 233.485V237.36H179.888V233.485H163.888ZM171.888 229.36H171.175V245.36H171.888V229.36ZM171.175 229.36C169.891 229.36 167.188 229.631 164.93 231.889L176.243 243.203C174.233 245.213 171.922 245.36 171.175 245.36V229.36ZM165.465 231.4C162.861 233.57 162.4 236.452 162.4 238.042H178.4C178.4 239.177 178.064 241.729 175.708 243.692L165.465 231.4ZM180.787 239.561V238.042H164.787V239.561H180.787ZM180.787 238.042C180.787 236.452 180.327 233.57 177.723 231.4L167.48 243.692C165.124 241.729 164.787 239.177 164.787 238.042H180.787ZM178.258 231.889C176 229.631 173.297 229.36 172.012 229.36V245.36C171.265 245.36 168.955 245.213 166.945 243.203L178.258 231.889ZM172.012 229.36H171.423V245.36H172.012V229.36ZM179.423 237.36V233.485H163.423V237.36H179.423ZM171.423 241.485H173.5V225.485H171.423V241.485ZM173.5 241.485C173.804 241.485 173.687 241.522 173.311 241.409C172.906 241.287 172.076 240.949 171.263 240.111L182.744 228.967C179.798 225.932 175.911 225.485 173.5 225.485V241.485ZM171.347 240.196C170.895 239.744 170.536 239.187 170.31 238.591C170.093 238.017 170.057 237.56 170.057 237.329H186.057C186.057 234.427 185.111 231.332 182.66 228.882L171.347 240.196ZM170.057 237.329V239.561H186.057V237.329H170.057ZM178.057 231.561H172.787V247.561H178.057V231.561ZM180.542 253.387H172.542V261.387H180.542V253.387ZM180.542 248.303V240.303H172.542V248.303H180.542ZM185.874 248.303H193.874V240.303H185.874V248.303ZM185.874 253.387V261.387H193.874V253.387H185.874ZM188.542 253.387V248.303H172.542V253.387H188.542ZM180.542 256.303H185.874V240.303H180.542V256.303ZM177.874 248.303V253.387H193.874V248.303H177.874ZM185.874 245.387H180.542V261.387H185.874V245.387ZM193.25 240.305V248.305H201.25V240.305H193.25ZM187.825 240.305H179.825V248.305H187.825V240.305ZM188.848 234.539L183.191 228.882L183.149 228.924L183.108 228.967L188.848 234.539ZM199.667 234.539L194.01 240.196L194.051 240.237L194.093 240.277L199.667 234.539ZM200.194 242.909L193.039 239.331L192.999 239.412L192.96 239.493L200.194 242.909ZM198.582 245.203L192.698 239.783L192.655 239.83L192.613 239.878L198.582 245.203ZM194.738 249.512L188.769 244.187L176.881 257.512H194.738V249.512ZM200.752 249.512H208.752V241.512H200.752V249.512ZM200.752 253.387V261.387H208.752V253.387H200.752ZM187.98 253.387H179.98V261.387H187.98V253.387ZM187.98 249.853L182.126 244.401L179.98 246.705V249.853H187.98ZM193.87 243.529L188.034 238.058L188.025 238.067L188.016 238.077L193.87 243.529ZM195.11 241.855L202.393 245.166L202.393 245.166L195.11 241.855ZM195.234 237.546L189.577 243.203L189.834 243.46L190.113 243.692L195.234 237.546ZM193.436 237.546L198.558 243.692L198.837 243.46L199.093 243.203L193.436 237.546ZM185.25 238.042V240.305H201.25V238.042H185.25ZM193.25 232.305H187.825V248.305H193.25V232.305ZM195.825 240.305V237.329H179.825V240.305H195.825ZM195.825 237.329C195.825 237.535 195.794 237.966 195.592 238.518C195.381 239.093 195.038 239.648 194.589 240.111L183.108 228.967C180.717 231.43 179.825 234.496 179.825 237.329H195.825ZM194.505 240.196C193.72 240.981 192.932 241.3 192.545 241.415C192.187 241.522 192.082 241.485 192.382 241.485V225.485C189.94 225.485 186.128 225.945 183.191 228.882L194.505 240.196ZM192.382 241.485H196.133V225.485H192.382V241.485ZM196.133 241.485C196.434 241.485 196.329 241.522 195.97 241.415C195.584 241.3 194.796 240.981 194.01 240.196L205.324 228.882C202.387 225.945 198.576 225.485 196.133 225.485V241.485ZM194.093 240.277C193.64 239.837 193.265 239.28 193.025 238.663C192.794 238.068 192.752 237.586 192.752 237.329H208.752C208.752 234.358 207.749 231.236 205.242 228.801L194.093 240.277ZM192.752 237.329V240.181H208.752V237.329H192.752ZM192.752 240.181C192.752 240.364 192.718 239.974 193.039 239.331L207.35 246.487C208.415 244.356 208.752 242.147 208.752 240.181H192.752ZM192.96 239.493C193.004 239.4 193.023 239.383 192.982 239.441C192.942 239.499 192.854 239.614 192.698 239.783L204.467 250.623C205.585 249.409 206.646 247.982 207.428 246.325L192.96 239.493ZM192.613 239.878L188.769 244.187L200.708 254.838L204.552 250.529L192.613 239.878ZM194.738 257.512H200.752V241.512H194.738V257.512ZM192.752 249.512V253.387H208.752V249.512H192.752ZM200.752 245.387H187.98V261.387H200.752V245.387ZM195.98 253.387V249.853H179.98V253.387H195.98ZM193.834 255.305L199.724 248.981L188.016 238.077L182.126 244.401L193.834 255.305ZM199.707 249.001C200.52 248.133 201.643 246.816 202.393 245.166L187.827 238.545C187.934 238.311 188.031 238.141 188.094 238.038C188.158 237.934 188.203 237.871 188.217 237.853C188.239 237.823 188.193 237.888 188.034 238.058L199.707 249.001ZM202.393 245.166C203.212 243.364 203.42 241.581 203.42 240.15H187.42C187.42 240.083 187.422 239.436 187.827 238.545L202.393 245.166ZM203.42 240.15V238.042H187.42V240.15H203.42ZM203.42 238.042C203.42 236.452 202.96 233.57 200.356 231.4L190.113 243.692C187.757 241.729 187.42 239.177 187.42 238.042H203.42ZM200.891 231.889C198.633 229.631 195.93 229.36 194.645 229.36V245.36C193.898 245.36 191.587 245.213 189.577 243.203L200.891 231.889ZM194.645 229.36H194.025V245.36H194.645V229.36ZM194.025 229.36C192.741 229.36 190.037 229.631 187.779 231.889L199.093 243.203C197.083 245.213 194.772 245.36 194.025 245.36V229.36ZM188.315 231.4C185.711 233.57 185.25 236.452 185.25 238.042H201.25C201.25 239.177 200.914 241.729 198.558 243.692L188.315 231.4ZM214.974 252.333L209.317 246.676L209.274 246.718L209.233 246.761L214.974 252.333ZM203.814 252.333L198.073 257.905L198.114 257.948L198.157 257.99L203.814 252.333ZM203.814 234.539L198.157 228.882L198.114 228.924L198.073 228.967L203.814 234.539ZM214.974 234.539L209.233 240.111L209.274 240.154L209.317 240.196L214.974 234.539ZM210.417 237.546L204.76 243.203L205.016 243.46L205.295 243.692L210.417 237.546ZM208.402 237.546L213.523 243.692L213.802 243.46L214.058 243.203L208.402 237.546ZM208.402 249.357L202.745 255.014L203.001 255.271L203.28 255.503L208.402 249.357ZM210.417 249.357L215.538 255.503L215.817 255.271L216.073 255.014L210.417 249.357ZM208.028 237.329V249.543H224.028V237.329H208.028ZM208.028 249.543C208.028 249.312 208.064 248.855 208.28 248.281C208.506 247.685 208.865 247.128 209.317 246.676L220.63 257.99C223.081 255.54 224.028 252.445 224.028 249.543H208.028ZM209.233 246.761C210.046 245.923 210.876 245.585 211.281 245.463C211.657 245.35 211.774 245.387 211.471 245.387V261.387C213.881 261.387 217.768 260.94 220.714 257.905L209.233 246.761ZM211.471 245.387H207.348V261.387H211.471V245.387ZM207.348 245.387C207.047 245.387 207.152 245.35 207.51 245.457C207.897 245.573 208.685 245.891 209.47 246.676L198.157 257.99C201.094 260.927 204.905 261.387 207.348 261.387V245.387ZM209.554 246.761C210.004 247.224 210.346 247.779 210.557 248.355C210.76 248.906 210.791 249.337 210.791 249.543H194.791C194.791 252.376 195.682 255.442 198.073 257.905L209.554 246.761ZM210.791 249.543V237.329H194.791V249.543H210.791ZM210.791 237.329C210.791 237.535 210.76 237.966 210.557 238.518C210.346 239.093 210.004 239.648 209.554 240.111L198.073 228.967C195.682 231.43 194.791 234.496 194.791 237.329H210.791ZM209.47 240.196C208.685 240.981 207.897 241.3 207.51 241.415C207.152 241.522 207.047 241.485 207.348 241.485V225.485C204.905 225.485 201.094 225.945 198.157 228.882L209.47 240.196ZM207.348 241.485H211.471V225.485H207.348V241.485ZM211.471 241.485C211.774 241.485 211.657 241.522 211.281 241.409C210.876 241.287 210.046 240.949 209.233 240.111L220.714 228.967C217.768 225.932 213.881 225.485 211.471 225.485V241.485ZM209.317 240.196C208.865 239.744 208.506 239.187 208.28 238.591C208.064 238.017 208.028 237.56 208.028 237.329H224.028C224.028 234.427 223.081 231.332 220.63 228.882L209.317 240.196ZM218.603 248.83V238.042H202.603V248.83H218.603ZM218.603 238.042C218.603 236.452 218.142 233.57 215.538 231.4L205.295 243.692C202.939 241.729 202.603 239.177 202.603 238.042H218.603ZM216.073 231.889C213.815 229.631 211.112 229.36 209.828 229.36V245.36C209.081 245.36 206.77 245.213 204.76 243.203L216.073 231.889ZM209.828 229.36H208.991V245.36H209.828V229.36ZM208.991 229.36C207.706 229.36 205.003 229.631 202.745 231.889L214.058 243.203C212.048 245.213 209.738 245.36 208.991 245.36V229.36ZM203.28 231.4C200.676 233.57 200.216 236.452 200.216 238.042H216.216C216.216 239.177 215.879 241.729 213.523 243.692L203.28 231.4ZM200.216 238.042V248.83H216.216V238.042H200.216ZM200.216 248.83C200.216 250.523 200.713 252.982 202.745 255.014L214.058 243.7C215.842 245.484 216.216 247.592 216.216 248.83H200.216ZM203.28 255.503C205.528 257.376 207.997 257.512 208.991 257.512V241.512C209.336 241.512 209.937 241.542 210.678 241.737C211.429 241.934 212.485 242.346 213.523 243.211L203.28 255.503ZM208.991 257.512H209.828V241.512H208.991V257.512ZM209.828 257.512C210.821 257.512 213.29 257.376 215.538 255.503L205.295 243.211C206.334 242.346 207.389 241.934 208.14 241.737C208.881 241.542 209.482 241.512 209.828 241.512V257.512ZM216.073 255.014C218.105 252.982 218.603 250.523 218.603 248.83H202.603C202.603 247.592 202.976 245.484 204.76 243.7L216.073 255.014ZM223.312 240.305V248.305H231.312V240.305H223.312ZM217.887 240.305H209.887V248.305H217.887V240.305ZM218.91 234.539L213.253 228.882L213.211 228.924L213.169 228.967L218.91 234.539ZM229.729 234.539L224.072 240.196L224.113 240.237L224.155 240.277L229.729 234.539ZM230.256 242.909L223.1 239.331L223.06 239.412L223.022 239.493L230.256 242.909ZM228.644 245.203L222.759 239.783L222.716 239.83L222.674 239.878L228.644 245.203ZM224.8 249.512L218.83 244.187L206.942 257.512H224.8V249.512ZM230.814 249.512H238.814V241.512H230.814V249.512ZM230.814 253.387V261.387H238.814V253.387H230.814ZM218.042 253.387H210.042V261.387H218.042V253.387ZM218.042 249.853L212.188 244.401L210.042 246.705V249.853H218.042ZM223.932 243.529L218.096 238.058L218.087 238.067L218.078 238.077L223.932 243.529ZM225.172 241.855L232.455 245.166L232.455 245.166L225.172 241.855ZM225.296 237.546L219.639 243.203L219.896 243.46L220.174 243.692L225.296 237.546ZM223.498 237.546L228.619 243.692L228.898 243.46L229.155 243.203L223.498 237.546ZM215.312 238.042V240.305H231.312V238.042H215.312ZM223.312 232.305H217.887V248.305H223.312V232.305ZM225.887 240.305V237.329H209.887V240.305H225.887ZM225.887 237.329C225.887 237.535 225.856 237.966 225.654 238.518C225.443 239.093 225.1 239.648 224.65 240.111L213.169 228.967C210.779 231.43 209.887 234.496 209.887 237.329H225.887ZM224.567 240.196C223.781 240.981 222.993 241.3 222.607 241.415C222.248 241.522 222.143 241.485 222.444 241.485V225.485C220.001 225.485 216.19 225.945 213.253 228.882L224.567 240.196ZM222.444 241.485H226.195V225.485H222.444V241.485ZM226.195 241.485C226.496 241.485 226.39 241.522 226.032 241.415C225.646 241.3 224.857 240.981 224.072 240.196L235.386 228.882C232.449 225.945 228.637 225.485 226.195 225.485V241.485ZM224.155 240.277C223.702 239.837 223.326 239.28 223.087 238.663C222.855 238.068 222.814 237.586 222.814 237.329H238.814C238.814 234.358 237.81 231.236 235.303 228.801L224.155 240.277ZM222.814 237.329V240.181H238.814V237.329H222.814ZM222.814 240.181C222.814 240.364 222.779 239.974 223.1 239.331L237.411 246.487C238.477 244.356 238.814 242.147 238.814 240.181H222.814ZM223.022 239.493C223.066 239.4 223.084 239.383 223.044 239.441C223.003 239.499 222.916 239.614 222.759 239.783L234.528 250.623C235.646 249.409 236.707 247.982 237.49 246.325L223.022 239.493ZM222.674 239.878L218.83 244.187L230.77 254.838L234.614 250.529L222.674 239.878ZM224.8 257.512H230.814V241.512H224.8V257.512ZM222.814 249.512V253.387H238.814V249.512H222.814ZM230.814 245.387H218.042V261.387H230.814V245.387ZM226.042 253.387V249.853H210.042V253.387H226.042ZM223.896 255.305L229.786 248.981L218.078 238.077L212.188 244.401L223.896 255.305ZM229.768 249.001C230.582 248.133 231.705 246.816 232.455 245.166L217.889 238.545C217.995 238.311 218.093 238.141 218.155 238.038C218.219 237.934 218.265 237.871 218.278 237.853C218.301 237.823 218.254 237.888 218.096 238.058L229.768 249.001ZM232.455 245.166C233.273 243.364 233.482 241.581 233.482 240.15H217.482C217.482 240.083 217.484 239.436 217.889 238.545L232.455 245.166ZM233.482 240.15V238.042H217.482V240.15H233.482ZM233.482 238.042C233.482 236.452 233.021 233.57 230.417 231.4L220.174 243.692C217.819 241.729 217.482 239.177 217.482 238.042H233.482ZM230.953 231.889C228.695 229.631 225.991 229.36 224.707 229.36V245.36C223.96 245.36 221.649 245.213 219.639 243.203L230.953 231.889ZM224.707 229.36H224.087V245.36H224.707V229.36ZM224.087 229.36C222.803 229.36 220.099 229.631 217.841 231.889L229.155 243.203C227.145 245.213 224.834 245.36 224.087 245.36V229.36ZM218.376 231.4C215.773 233.57 215.312 236.452 215.312 238.042H231.312C231.312 239.177 230.975 241.729 228.619 243.692L218.376 231.4ZM238.37 246.412H246.37V238.412H238.37V246.412ZM238.556 249.357L232.899 255.014L233.156 255.271L233.435 255.503L238.556 249.357ZM240.695 249.357L245.817 255.503L246.095 255.271L246.352 255.014L240.695 249.357ZM240.695 244.335L235.038 249.992L235.295 250.249L235.574 250.481L240.695 244.335ZM236.386 244.149H228.386V252.149H236.386V244.149ZM236.386 240.274V232.274H228.386V240.274H236.386ZM245.159 241.328L239.418 246.9L239.46 246.943L239.502 246.985L245.159 241.328ZM245.159 252.333L239.502 246.676L239.46 246.718L239.418 246.761L245.159 252.333ZM233.968 252.333L228.227 257.905L228.269 257.948L228.311 257.99L233.968 252.333ZM232.945 246.412V238.412H224.945V246.412H232.945ZM238.525 244.149V252.149H246.525V244.149H238.525ZM233.193 244.149H225.193V252.149H233.193V244.149ZM233.193 233.485V225.485H225.193V233.485H233.193ZM245.903 233.485H253.903V225.485H245.903V233.485ZM245.903 237.36V245.36H253.903V237.36H245.903ZM238.525 237.36V229.36H230.525V237.36H238.525ZM230.37 246.412V248.83H246.37V246.412H230.37ZM230.37 248.83C230.37 250.523 230.867 252.982 232.899 255.014L244.213 243.7C245.997 245.484 246.37 247.592 246.37 248.83H230.37ZM233.435 255.503C235.682 257.376 238.152 257.512 239.145 257.512V241.512C239.491 241.512 240.092 241.542 240.832 241.737C241.583 241.934 242.639 242.346 243.678 243.211L233.435 255.503ZM239.145 257.512H240.106V241.512H239.145V257.512ZM240.106 257.512C241.099 257.512 243.569 257.376 245.817 255.503L235.574 243.211C236.612 242.346 237.668 241.934 238.419 241.737C239.159 241.542 239.76 241.512 240.106 241.512V257.512ZM246.352 255.014C248.384 252.982 248.881 250.523 248.881 248.83H232.881C232.881 247.592 233.254 245.484 235.038 243.7L246.352 255.014ZM248.881 248.83V244.831H232.881V248.83H248.881ZM248.881 244.831C248.881 243.241 248.42 240.359 245.817 238.189L235.574 250.481C233.218 248.518 232.881 245.966 232.881 244.831H248.881ZM246.352 238.678C244.094 236.42 241.39 236.149 240.106 236.149V252.149C239.359 252.149 237.048 252.002 235.038 249.992L246.352 238.678ZM240.106 236.149H236.386V252.149H240.106V236.149ZM244.386 244.149V240.274H228.386V244.149H244.386ZM236.386 248.274H241.656V232.274H236.386V248.274ZM241.656 248.274C241.96 248.274 241.843 248.311 241.467 248.198C241.062 248.076 240.232 247.738 239.418 246.9L250.9 235.756C247.953 232.721 244.066 232.274 241.656 232.274V248.274ZM239.502 246.985C239.05 246.533 238.691 245.976 238.466 245.38C238.249 244.806 238.213 244.349 238.213 244.118H254.213C254.213 241.216 253.266 238.121 250.816 235.671L239.502 246.985ZM238.213 244.118V249.543H254.213V244.118H238.213ZM238.213 249.543C238.213 249.312 238.249 248.855 238.466 248.281C238.691 247.685 239.05 247.128 239.502 246.676L250.816 257.99C253.266 255.54 254.213 252.445 254.213 249.543H238.213ZM239.418 246.761C240.232 245.923 241.062 245.585 241.467 245.463C241.843 245.35 241.96 245.387 241.656 245.387V261.387C244.066 261.387 247.953 260.94 250.9 257.905L239.418 246.761ZM241.656 245.387H237.502V261.387H241.656V245.387ZM237.502 245.387C237.201 245.387 237.307 245.35 237.665 245.457C238.051 245.573 238.84 245.891 239.625 246.676L228.311 257.99C231.248 260.927 235.06 261.387 237.502 261.387V245.387ZM239.709 246.761C240.158 247.224 240.501 247.779 240.712 248.355C240.914 248.906 240.945 249.337 240.945 249.543H224.945C224.945 252.376 225.837 255.442 228.227 257.905L239.709 246.761ZM240.945 249.543V246.412H224.945V249.543H240.945ZM232.945 254.412H238.37V238.412H232.945V254.412ZM238.525 236.149H233.193V252.149H238.525V236.149ZM241.193 244.149V233.485H225.193V244.149H241.193ZM233.193 241.485H245.903V225.485H233.193V241.485ZM237.903 233.485V237.36H253.903V233.485H237.903ZM245.903 229.36H238.525V245.36H245.903V229.36ZM230.525 237.36V244.149H246.525V237.36H230.525Z" fill="black" mask="url(#path-6-outside-2_145_1328)"/>
</svg>
