<svg xmlns="http://www.w3.org/2000/svg" width="1024" zoomAndPan="magnify"
     viewBox="0 0 768 767.999994" height="1024" preserveAspectRatio="xMidYMid meet" version="1.0">
    <defs>
        <g/>
        <clipPath id="a48565208d">
            <path d="M 102 73.644531 L 666 73.644531 L 666 619 L 102 619 Z M 102 73.644531 " clip-rule="nonzero"/>
        </clipPath>
    </defs>
    <path fill="#f1ddb6"
          d="M 126.714844 432.351562 L 177.957031 409.148438 L 237.898438 415.917969 L 242.730469 269.910156 L 341.347656 269.910156 L 383.886719 297.949219 L 520.207031 297.949219 L 596.585938 301.816406 L 580.152344 423.652344 L 641.0625 423.652344 L 646.859375 588.996094 L 390.652344 576.425781 L 187.625 601.566406 L 126.714844 579.328125 Z M 126.714844 432.351562 "
          fill-opacity="1" fill-rule="nonzero"/>
    <path fill="#800016"
          d="M 317.9375 312.039062 L 317.9375 397.132812 C 317.9375 400.519531 316.007812 402.214844 312.15625 402.214844 L 296.667969 402.214844 L 296.667969 306.957031 L 312.15625 306.957031 C 316.007812 306.957031 317.9375 308.648438 317.9375 312.039062 Z M 317.9375 312.039062 "
          fill-opacity="1" fill-rule="nonzero"/>
    <path fill="#800016"
          d="M 432.910156 360.136719 L 411.175781 360.136719 L 411.175781 345.566406 C 411.175781 342.179688 413.105469 340.484375 416.957031 340.484375 L 427.132812 340.484375 C 430.980469 340.484375 432.910156 342.171875 432.910156 345.566406 Z M 432.910156 360.136719 "
          fill-opacity="1" fill-rule="nonzero"/>
    <path fill="#800016"
          d="M 173.3125 538.832031 L 173.3125 458.363281 C 173.3125 454.976562 175.238281 453.28125 179.09375 453.28125 L 188.800781 453.28125 C 192.652344 453.28125 194.578125 454.96875 194.578125 458.363281 L 194.578125 538.832031 C 194.578125 542.21875 192.652344 543.914062 188.800781 543.914062 L 179.09375 543.914062 C 175.238281 543.914062 173.3125 542.226562 173.3125 538.832031 Z M 173.3125 538.832031 "
          fill-opacity="1" fill-rule="nonzero"/>
    <path fill="#800016"
          d="M 421.382812 504.140625 L 399.652344 504.140625 L 399.652344 489.570312 C 399.652344 486.183594 401.578125 484.488281 405.429688 484.488281 L 415.605469 484.488281 C 419.457031 484.488281 421.382812 486.179688 421.382812 489.570312 Z M 421.382812 504.140625 "
          fill-opacity="1" fill-rule="nonzero"/>
    <g clip-path="url(#a48565208d)">
        <path fill="#800016"
              d="M 511.347656 233.453125 L 563.953125 246.574219 L 580.386719 236.699219 L 570.511719 220.261719 L 498.171875 202.226562 L 516.210938 129.882812 L 540.859375 115.070312 L 516.171875 73.984375 L 475.097656 98.667969 L 489.90625 123.320312 L 471.867188 195.667969 L 399.53125 177.628906 L 383.101562 187.507812 L 392.972656 203.933594 L 445.585938 217.058594 L 429.136719 283.007812 L 408.066406 283.007812 C 400.617188 283.007812 392.683594 283.765625 384.929688 285.949219 C 381.921875 278.011719 377.03125 270.523438 369.644531 264.28125 C 356.238281 252.972656 339.414062 249.941406 324.542969 249.941406 L 225.921875 249.941406 L 225.921875 397.363281 C 217.667969 394.820312 209.140625 393.953125 201.179688 393.953125 L 166.960938 393.953125 C 130.886719 393.027344 102.0625 415.710938 102.550781 453.042969 L 102.550781 544.144531 C 102.058594 581.511719 130.921875 604.164062 166.953125 603.242188 L 174.242188 603.242188 L 188.808594 618.96875 L 318.417969 618.96875 L 303.644531 603.242188 L 424.730469 603.242188 C 437.796875 603.242188 452.375 600.902344 464.8125 592.667969 C 477.25 600.902344 491.824219 603.242188 504.890625 603.242188 L 527.550781 603.242188 C 541.964844 603.242188 558.207031 600.394531 571.394531 589.929688 C 584.585938 600.394531 600.828125 603.242188 615.238281 603.242188 L 665.3125 603.242188 L 665.542969 427.015625 L 650.980469 427.015625 L 650.980469 404.351562 L 590.167969 404.351562 L 621.289062 283.007812 L 498.988281 283.007812 Z M 324.414062 280.367188 L 256.210938 280.367188 L 256.210938 428.8125 L 324.414062 428.8125 C 347.066406 428.8125 358.394531 419.253906 358.394531 400.140625 L 358.394531 309.039062 C 358.394531 289.925781 347.070312 280.367188 324.414062 280.367188 Z M 436.140625 313.433594 L 407.9375 313.433594 L 407.9375 313.425781 C 385.285156 313.425781 373.957031 322.984375 373.957031 342.097656 L 373.957031 400.136719 C 373.957031 419.246094 385.28125 428.804688 407.9375 428.804688 L 436.140625 428.804688 C 458.792969 428.804688 470.125 419.246094 470.125 400.136719 L 470.125 389.730469 L 432.902344 389.730469 L 432.902344 396.207031 C 432.902344 399.90625 430.976562 401.757812 427.125 401.757812 L 416.949219 401.757812 C 413.097656 401.757812 411.167969 400.066406 411.167969 396.671875 L 411.167969 381.414062 L 470.125 381.414062 L 470.125 342.105469 C 470.125 322.992188 458.800781 313.433594 436.140625 313.433594 Z M 529.015625 387.421875 L 514.917969 313.433594 L 475.835938 313.433594 L 505.429688 428.8125 L 552.363281 428.8125 L 581.960938 313.433594 L 542.890625 313.433594 Z M 132.855469 544.144531 C 132.855469 563.257812 144.175781 572.816406 166.835938 572.816406 L 187.414062 572.816406 L 201.980469 588.542969 L 247.992188 588.542969 L 226.488281 565.652344 C 232.1875 560.871094 235.039062 553.707031 235.039062 544.144531 L 235.039062 453.042969 C 235.039062 433.929688 223.714844 424.371094 201.054688 424.371094 L 166.835938 424.371094 C 144.183594 424.371094 132.855469 433.929688 132.855469 453.042969 Z M 346.160156 457.4375 L 306.855469 457.4375 L 306.851562 457.429688 L 306.851562 536.972656 C 306.851562 541.597656 304.773438 543.910156 300.609375 543.910156 L 296.683594 543.910156 C 292.828125 543.910156 290.902344 542.21875 290.902344 538.824219 L 290.902344 457.4375 L 251.601562 457.4375 L 251.601562 544.144531 C 251.601562 563.257812 261.855469 572.816406 282.351562 572.816406 L 286.515625 572.816406 C 298.378906 572.816406 305.398438 567.882812 307.554688 558.019531 L 307.554688 572.816406 L 346.160156 572.816406 Z M 424.617188 457.4375 L 396.410156 457.4375 L 396.410156 457.429688 C 373.757812 457.429688 362.433594 466.992188 362.433594 486.105469 L 362.433594 544.140625 C 362.433594 563.25 373.753906 572.8125 396.410156 572.8125 L 424.617188 572.8125 C 447.269531 572.8125 458.597656 563.25 458.597656 544.140625 L 458.597656 533.734375 L 421.375 533.734375 L 421.375 540.210938 C 421.375 543.910156 419.453125 545.761719 415.597656 545.761719 L 405.425781 545.761719 C 401.570312 545.761719 399.644531 544.070312 399.644531 540.675781 L 399.644531 525.417969 L 458.597656 525.417969 L 458.597656 486.113281 C 458.597656 466.996094 447.273438 457.4375 424.617188 457.4375 Z M 523.269531 533.046875 L 523.269531 542.285156 C 523.269531 545.671875 521.34375 547.371094 517.492188 547.371094 L 514.71875 547.371094 C 510.867188 547.371094 508.9375 545.679688 508.9375 542.285156 L 508.9375 534.652344 L 470.792969 534.652344 L 470.792969 544.132812 C 470.792969 563.242188 482.113281 572.804688 504.773438 572.804688 L 527.433594 572.804688 C 550.085938 572.804688 561.417969 563.242188 561.417969 544.132812 L 561.417969 531.417969 C 561.417969 522.324219 558.796875 515.382812 553.554688 510.605469 C 548.472656 505.679688 539.992188 503.210938 528.125 503.210938 L 514.023438 503.210938 C 510.167969 503.210938 508.242188 501.519531 508.242188 498.125 L 508.242188 487.949219 C 508.242188 484.5625 510.167969 482.867188 514.023438 482.867188 L 516.335938 482.867188 C 520.1875 482.867188 522.117188 484.554688 522.117188 487.949219 L 522.117188 495.8125 L 559.566406 495.8125 L 559.566406 486.105469 C 559.566406 466.992188 548.242188 457.429688 525.582031 457.429688 L 504.078125 457.429688 C 481.425781 457.429688 470.097656 466.992188 470.097656 486.105469 L 470.097656 499.519531 C 470.097656 518.480469 481.195312 527.960938 503.390625 527.960938 L 517.492188 527.960938 C 521.34375 527.960938 523.269531 529.652344 523.269531 533.046875 Z M 620.441406 486.339844 L 635.003906 486.339844 L 635.003906 457.429688 L 620.441406 457.429688 L 620.441406 434.769531 L 581.136719 434.769531 L 581.136719 457.429688 L 568.421875 457.429688 L 568.421875 486.335938 L 581.136719 486.335938 L 581.136719 544.140625 C 581.136719 563.25 592.460938 572.8125 615.117188 572.8125 L 634.769531 572.8125 L 634.769531 543.910156 L 626.21875 543.910156 C 622.363281 543.910156 620.441406 542.21875 620.441406 538.824219 Z M 620.441406 486.339844 "
              fill-opacity="1" fill-rule="evenodd"/>
    </g>
    <path fill="#800016"
          d="M 345.402344 618.90625 L 415.253906 618.90625 L 403.132812 667.53125 L 362.050781 692.21875 L 337.371094 651.136719 Z M 345.402344 618.90625 "
          fill-opacity="1" fill-rule="nonzero"/>
  

</svg>