<svg width="254" height="269" viewBox="0 0 254 269" fill="none" xmlns="http://www.w3.org/2000/svg">
<path d="M31.6592 143.177L52.1376 133.905L76.0934 136.609L78.0253 78.276H117.437L134.437 89.4791H188.918L219.442 91.0244L212.874 139.7H237.216L239.534 205.76L137.142 200.737L56.0014 210.782L31.6592 201.896V143.177Z" fill="#F1DDB6"/>
<path d="M108.081 95.1087V129.105C108.081 130.458 107.311 131.136 105.771 131.136H99.5813V93.0774H105.771C107.311 93.0774 108.081 93.7527 108.081 95.1087Z" fill="#290056"/>
<path d="M154.029 114.324H145.344V108.503C145.344 107.15 146.114 106.472 147.654 106.472H151.72C153.259 106.472 154.029 107.147 154.029 108.503V114.324Z" fill="#290056"/>
<path d="M50.2825 185.717V153.569C50.2825 152.215 51.0525 151.537 52.5924 151.537H56.4719C58.0118 151.537 58.7817 152.213 58.7817 153.569V185.717C58.7817 187.071 58.0118 187.749 56.4719 187.749H52.5924C51.0525 187.749 50.2825 187.073 50.2825 185.717Z" fill="#290056"/>
<path d="M149.423 171.858H140.738V166.037C140.738 164.684 141.507 164.006 143.047 164.006H147.113C148.653 164.006 149.423 164.681 149.423 166.037V171.858Z" fill="#290056"/>
<path fill-rule="evenodd" clip-rule="evenodd" d="M185.376 63.711L206.4 68.9539L212.968 65.0075L209.021 58.4411L180.111 51.2346L187.321 22.3327L197.171 16.4146L187.305 0L170.89 9.86174L176.807 19.71L169.599 48.6145L140.689 41.408L134.124 45.3543L138.068 51.918L159.095 57.1608L152.522 83.5101H144.101C141.124 83.5101 137.953 83.8126 134.854 84.6851C133.652 81.514 131.698 78.5212 128.745 76.028C123.388 71.5091 116.664 70.299 110.72 70.299H71.3067V129.197C68.0081 128.181 64.6013 127.835 61.4189 127.835H47.7434C33.3276 127.465 21.808 136.527 22.0025 151.443V187.84C21.8053 202.769 33.3411 211.818 47.7407 211.451H50.653L56.4749 217.734H108.273L102.37 211.451H150.761C155.983 211.451 161.808 210.516 166.779 207.226C171.75 210.516 177.574 211.451 182.796 211.451H191.852C197.612 211.451 204.104 210.314 209.375 206.132C214.646 210.314 221.138 211.451 226.897 211.451H246.908L247 141.044H241.181V131.99H216.877L229.315 83.5101H180.438L185.376 63.711ZM110.669 82.454H83.4122V141.762H110.669C119.722 141.762 124.25 137.943 124.25 130.307V93.9094C124.25 86.2733 119.724 82.454 110.669 82.454ZM155.321 95.6651H144.05V95.6624C134.997 95.6624 130.469 99.4818 130.469 107.118V130.304C130.469 137.94 134.994 141.759 144.05 141.759H155.321C164.374 141.759 168.902 137.94 168.902 130.304V126.147H154.027V128.735C154.027 130.212 153.257 130.952 151.717 130.952H147.651C146.111 130.952 145.341 130.277 145.341 128.921V122.825H168.902V107.12C168.902 99.4845 164.377 95.6651 155.321 95.6651ZM192.438 125.226L186.803 95.6651H171.185L183.012 141.762H201.769L213.597 95.6651H197.982L192.438 125.226ZM34.1134 187.84C34.1134 195.476 38.6386 199.296 47.6944 199.296H55.918L61.74 205.579H80.1271L71.5333 196.433C73.8108 194.523 74.9508 191.66 74.9508 187.84V151.443C74.9508 143.807 70.4256 139.988 61.3699 139.988H47.6944C38.6413 139.988 34.1134 143.807 34.1134 151.443V187.84ZM119.36 153.199H103.653L103.65 153.196V184.974C103.65 186.822 102.821 187.746 101.156 187.746H99.5867C98.0468 187.746 97.2769 187.071 97.2769 185.715V153.199H81.5698V187.84C81.5698 195.476 85.6681 199.296 93.8593 199.296H95.5235C100.265 199.296 103.069 197.324 103.931 193.383V199.296H119.36V153.199ZM150.715 153.199H139.443V153.196C130.39 153.196 125.863 157.015 125.863 164.651V187.838C125.863 195.474 130.388 199.293 139.443 199.293H150.715C159.768 199.293 164.295 195.474 164.295 187.838V183.681H149.42V186.268C149.42 187.746 148.651 188.486 147.111 188.486H143.045C141.505 188.486 140.735 187.811 140.735 186.455V180.358H164.295V164.654C164.295 157.018 159.77 153.199 150.715 153.199ZM190.142 183.405V187.098C190.142 188.451 189.372 189.129 187.832 189.129H186.724C185.184 189.129 184.414 188.454 184.414 187.098V184.048H169.169V187.835C169.169 195.471 173.694 199.29 182.75 199.29H191.806C200.859 199.29 205.387 195.471 205.387 187.835V182.754C205.387 179.121 204.339 176.35 202.245 174.44C200.213 172.471 196.825 171.485 192.081 171.485H186.446C184.906 171.485 184.136 170.81 184.136 169.454V165.389C184.136 164.035 184.906 163.358 186.446 163.358H187.37C188.91 163.358 189.68 164.033 189.68 165.389V168.53H204.647V164.651C204.647 157.015 200.121 153.196 191.066 153.196H182.472C173.419 153.196 168.891 157.015 168.891 164.651V170.01C168.891 177.587 173.327 181.374 182.196 181.374H187.832C189.372 181.374 190.142 182.049 190.142 183.405ZM228.975 164.746H234.796V153.196H228.975V144.142H213.267V153.196H208.186V164.743H213.267V187.838C213.267 195.474 217.793 199.293 226.848 199.293H234.702V187.746H231.284C229.744 187.746 228.975 187.071 228.975 185.715V164.746Z" fill="#290056"/>
<mask id="path-3-outside-1_203_905" maskUnits="userSpaceOnUse" x="-1" y="225.303" width="85" height="36" fill="black">
<rect fill="white" x="-1" y="225.303" width="85" height="36"/>
<path d="M16.6033 233.401H21.5633V253.303H16.9133L12.4803 242.856V253.303H7.52027V233.401H12.1703L16.6033 244.034V233.401ZM24.0496 233.401H29.4746V253.303H24.0496V233.401ZM40.1349 241.709V237.958C40.1349 237.73 40.0729 237.565 39.9489 237.462C39.8249 237.338 39.6286 237.276 39.3599 237.276H38.3369V233.401H41.0029C42.6563 233.401 43.8239 233.752 44.5059 234.455C45.2086 235.157 45.5599 236.087 45.5599 237.245V241.709H40.1349ZM40.1349 248.746V241.306H45.5599V249.459C45.5599 250.616 45.2086 251.546 44.5059 252.249C43.8239 252.951 42.6563 253.303 41.0029 253.303H38.3369V249.428H39.3599C39.6286 249.428 39.8249 249.376 39.9489 249.273C40.0729 249.149 40.1349 248.973 40.1349 248.746ZM37.2829 237.958V241.709H31.8579V237.245C31.8579 236.087 32.1989 235.157 32.8809 234.455C33.5836 233.752 34.7616 233.401 36.4149 233.401H39.0809V237.276H38.0579C37.7893 237.276 37.5929 237.338 37.4689 237.462C37.3449 237.565 37.2829 237.73 37.2829 237.958ZM37.2829 241.306V248.746C37.2829 248.973 37.3449 249.149 37.4689 249.273C37.5929 249.376 37.7893 249.428 38.0579 249.428H39.0809V253.303H36.4149C34.7616 253.303 33.5836 252.951 32.8809 252.249C32.1989 251.546 31.8579 250.616 31.8579 249.459V241.306H37.2829ZM56.2743 241.864V237.958C56.2743 237.73 56.2123 237.565 56.0883 237.462C55.9643 237.338 55.768 237.276 55.4993 237.276H49.7333V233.401H57.1423C58.7956 233.401 59.9633 233.752 60.6453 234.455C61.348 235.157 61.6993 236.087 61.6993 237.245V242.391C61.6993 243.548 61.348 244.478 60.6453 245.181C59.9633 245.883 58.7956 246.235 57.1423 246.235H49.7333V242.546H55.4993C55.768 242.546 55.9643 242.494 56.0883 242.391C56.2123 242.267 56.2743 242.091 56.2743 241.864ZM47.9353 233.401H53.3603V253.303H47.9353V233.401ZM52.7403 244.065H58.0413L62.6913 253.303H56.8633L52.7403 244.065ZM66.5871 235.261H72.0121V253.303H66.5871V235.261ZM75.8561 233.401V237.276H62.7741V233.401H75.8561Z"/>
</mask>
<path d="M16.6033 233.401H21.5633V253.303H16.9133L12.4803 242.856V253.303H7.52027V233.401H12.1703L16.6033 244.034V233.401ZM24.0496 233.401H29.4746V253.303H24.0496V233.401ZM40.1349 241.709V237.958C40.1349 237.73 40.0729 237.565 39.9489 237.462C39.8249 237.338 39.6286 237.276 39.3599 237.276H38.3369V233.401H41.0029C42.6563 233.401 43.8239 233.752 44.5059 234.455C45.2086 235.157 45.5599 236.087 45.5599 237.245V241.709H40.1349ZM40.1349 248.746V241.306H45.5599V249.459C45.5599 250.616 45.2086 251.546 44.5059 252.249C43.8239 252.951 42.6563 253.303 41.0029 253.303H38.3369V249.428H39.3599C39.6286 249.428 39.8249 249.376 39.9489 249.273C40.0729 249.149 40.1349 248.973 40.1349 248.746ZM37.2829 237.958V241.709H31.8579V237.245C31.8579 236.087 32.1989 235.157 32.8809 234.455C33.5836 233.752 34.7616 233.401 36.4149 233.401H39.0809V237.276H38.0579C37.7893 237.276 37.5929 237.338 37.4689 237.462C37.3449 237.565 37.2829 237.73 37.2829 237.958ZM37.2829 241.306V248.746C37.2829 248.973 37.3449 249.149 37.4689 249.273C37.5929 249.376 37.7893 249.428 38.0579 249.428H39.0809V253.303H36.4149C34.7616 253.303 33.5836 252.951 32.8809 252.249C32.1989 251.546 31.8579 250.616 31.8579 249.459V241.306H37.2829ZM56.2743 241.864V237.958C56.2743 237.73 56.2123 237.565 56.0883 237.462C55.9643 237.338 55.768 237.276 55.4993 237.276H49.7333V233.401H57.1423C58.7956 233.401 59.9633 233.752 60.6453 234.455C61.348 235.157 61.6993 236.087 61.6993 237.245V242.391C61.6993 243.548 61.348 244.478 60.6453 245.181C59.9633 245.883 58.7956 246.235 57.1423 246.235H49.7333V242.546H55.4993C55.768 242.546 55.9643 242.494 56.0883 242.391C56.2123 242.267 56.2743 242.091 56.2743 241.864ZM47.9353 233.401H53.3603V253.303H47.9353V233.401ZM52.7403 244.065H58.0413L62.6913 253.303H56.8633L52.7403 244.065ZM66.5871 235.261H72.0121V253.303H66.5871V235.261ZM75.8561 233.401V237.276H62.7741V233.401H75.8561Z" fill="white"/>
<path d="M16.6033 233.401V225.401H8.60327V233.401H16.6033ZM21.5633 233.401H29.5633V225.401H21.5633V233.401ZM21.5633 253.303V261.303H29.5633V253.303H21.5633ZM16.9133 253.303L9.54886 256.428L11.6175 261.303H16.9133V253.303ZM12.4803 242.856L19.8447 239.731L4.48027 242.856H12.4803ZM12.4803 253.303V261.303H20.4803V253.303H12.4803ZM7.52027 253.303H-0.479726V261.303H7.52027V253.303ZM7.52027 233.401V225.401H-0.479726V233.401H7.52027ZM12.1703 233.401L19.5543 230.322L17.5024 225.401H12.1703V233.401ZM16.6033 244.034L9.2193 247.112L24.6033 244.034H16.6033ZM16.6033 241.401H21.5633V225.401H16.6033V241.401ZM13.5633 233.401V253.303H29.5633V233.401H13.5633ZM21.5633 245.303H16.9133V261.303H21.5633V245.303ZM24.2777 250.178L19.8447 239.731L5.11586 245.981L9.54886 256.428L24.2777 250.178ZM4.48027 242.856V253.303H20.4803V242.856H4.48027ZM12.4803 245.303H7.52027V261.303H12.4803V245.303ZM15.5203 253.303V233.401H-0.479726V253.303H15.5203ZM7.52027 241.401H12.1703V225.401H7.52027V241.401ZM4.7863 236.479L9.2193 247.112L23.9873 240.955L19.5543 230.322L4.7863 236.479ZM24.6033 244.034V233.401H8.60327V244.034H24.6033ZM24.0496 233.401V225.401H16.0496V233.401H24.0496ZM29.4746 233.401H37.4746V225.401H29.4746V233.401ZM29.4746 253.303V261.303H37.4746V253.303H29.4746ZM24.0496 253.303H16.0496V261.303H24.0496V253.303ZM24.0496 241.401H29.4746V225.401H24.0496V241.401ZM21.4746 233.401V253.303H37.4746V233.401H21.4746ZM29.4746 245.303H24.0496V261.303H29.4746V245.303ZM32.0496 253.303V233.401H16.0496V253.303H32.0496ZM40.1349 241.709H32.1349V249.709H40.1349V241.709ZM39.9489 237.462L34.2921 243.118L34.5487 243.375L34.8275 243.607L39.9489 237.462ZM38.3369 237.276H30.3369V245.276H38.3369V237.276ZM38.3369 233.401V225.401H30.3369V233.401H38.3369ZM44.5059 234.455L38.7653 240.026L38.8069 240.069L38.8491 240.111L44.5059 234.455ZM45.5599 241.709V249.709H53.5599V241.709H45.5599ZM40.1349 241.306V233.306H32.1349V241.306H40.1349ZM45.5599 241.306H53.5599V233.306H45.5599V241.306ZM44.5059 252.249L38.8491 246.592L38.8069 246.634L38.7653 246.677L44.5059 252.249ZM38.3369 253.303H30.3369V261.303H38.3369V253.303ZM38.3369 249.428V241.428H30.3369V249.428H38.3369ZM39.9489 249.273L45.0704 255.418L45.3492 255.186L45.6058 254.929L39.9489 249.273ZM37.2829 241.709V249.709H45.2829V241.709H37.2829ZM31.8579 241.709H23.8579V249.709H31.8579V241.709ZM32.8809 234.455L27.2241 228.798L27.1819 228.84L27.1403 228.883L32.8809 234.455ZM39.0809 233.401H47.0809V225.401H39.0809V233.401ZM39.0809 237.276V245.276H47.0809V237.276H39.0809ZM37.4689 237.462L42.5904 243.607L42.8692 243.375L43.1258 243.118L37.4689 237.462ZM37.2829 241.306H45.2829V233.306H37.2829V241.306ZM37.4689 249.273L31.8121 254.929L32.0687 255.186L32.3475 255.418L37.4689 249.273ZM39.0809 249.428H47.0809V241.428H39.0809V249.428ZM39.0809 253.303V261.303H47.0809V253.303H39.0809ZM32.8809 252.249L27.1403 257.82L27.1819 257.863L27.2241 257.905L32.8809 252.249ZM31.8579 241.306V233.306H23.8579V241.306H31.8579ZM48.1349 241.709V237.958H32.1349V241.709H48.1349ZM48.1349 237.958C48.1349 236.368 47.6741 233.486 45.0704 231.316L34.8275 243.607C32.4717 241.644 32.1349 239.093 32.1349 237.958H48.1349ZM45.6058 231.805C43.3478 229.547 40.6442 229.276 39.3599 229.276V245.276C38.613 245.276 36.302 245.128 34.2921 243.118L45.6058 231.805ZM39.3599 229.276H38.3369V245.276H39.3599V229.276ZM46.3369 237.276V233.401H30.3369V237.276H46.3369ZM38.3369 241.401H41.0029V225.401H38.3369V241.401ZM41.0029 241.401C41.3066 241.401 41.1897 241.438 40.8137 241.325C40.4087 241.203 39.5787 240.864 38.7653 240.026L50.2466 228.883C47.3003 225.847 43.413 225.401 41.0029 225.401V241.401ZM38.8491 240.111C38.3972 239.66 38.0381 239.103 37.8127 238.506C37.596 237.933 37.5599 237.476 37.5599 237.245H53.5599C53.5599 234.343 52.6131 231.248 50.1628 228.798L38.8491 240.111ZM37.5599 237.245V241.709H53.5599V237.245H37.5599ZM45.5599 233.709H40.1349V249.709H45.5599V233.709ZM48.1349 248.746V241.306H32.1349V248.746H48.1349ZM40.1349 249.306H45.5599V233.306H40.1349V249.306ZM37.5599 241.306V249.459H53.5599V241.306H37.5599ZM37.5599 249.459C37.5599 249.227 37.596 248.771 37.8127 248.197C38.0381 247.6 38.3972 247.044 38.8491 246.592L50.1628 257.905C52.6131 255.455 53.5599 252.36 53.5599 249.459H37.5599ZM38.7653 246.677C39.5787 245.839 40.4087 245.5 40.8137 245.378C41.1897 245.265 41.3066 245.303 41.0029 245.303V261.303C43.413 261.303 47.3003 260.856 50.2466 257.82L38.7653 246.677ZM41.0029 245.303H38.3369V261.303H41.0029V245.303ZM46.3369 253.303V249.428H30.3369V253.303H46.3369ZM38.3369 257.428H39.3599V241.428H38.3369V257.428ZM39.3599 257.428C40.353 257.428 42.8225 257.292 45.0704 255.418L34.8274 243.127C35.8659 242.261 36.9217 241.85 37.6727 241.652C38.4133 241.457 39.0142 241.428 39.3599 241.428V257.428ZM45.6058 254.929C47.6378 252.897 48.1349 250.439 48.1349 248.746H32.1349C32.1349 247.507 32.5081 245.4 34.2921 243.616L45.6058 254.929ZM29.2829 237.958V241.709H45.2829V237.958H29.2829ZM37.2829 233.709H31.8579V249.709H37.2829V233.709ZM39.8579 241.709V237.245H23.8579V241.709H39.8579ZM39.8579 237.245C39.8579 237.45 39.8271 237.881 39.6247 238.433C39.4137 239.009 39.071 239.563 38.6216 240.026L27.1403 228.883C24.7498 231.346 23.8579 234.412 23.8579 237.245H39.8579ZM38.5378 240.111C37.7525 240.897 36.9642 241.215 36.5779 241.33C36.2195 241.437 36.1141 241.401 36.4149 241.401V225.401C33.9726 225.401 30.1611 225.861 27.2241 228.798L38.5378 240.111ZM36.4149 241.401H39.0809V225.401H36.4149V241.401ZM31.0809 233.401V237.276H47.0809V233.401H31.0809ZM39.0809 229.276H38.0579V245.276H39.0809V229.276ZM38.0579 229.276C36.7737 229.276 34.0701 229.547 31.8121 231.805L43.1258 243.118C41.1158 245.128 38.8049 245.276 38.0579 245.276V229.276ZM32.3475 231.316C29.7437 233.486 29.2829 236.368 29.2829 237.958H45.2829C45.2829 239.093 44.9461 241.644 42.5904 243.607L32.3475 231.316ZM29.2829 241.306V248.746H45.2829V241.306H29.2829ZM29.2829 248.746C29.2829 250.439 29.7801 252.897 31.8121 254.929L43.1258 243.616C44.9098 245.4 45.2829 247.507 45.2829 248.746H29.2829ZM32.3475 255.418C34.5953 257.292 37.0648 257.428 38.0579 257.428V241.428C38.4036 241.428 39.0045 241.457 39.7451 241.652C40.4962 241.85 41.552 242.261 42.5904 243.127L32.3475 255.418ZM38.0579 257.428H39.0809V241.428H38.0579V257.428ZM31.0809 249.428V253.303H47.0809V249.428H31.0809ZM39.0809 245.303H36.4149V261.303H39.0809V245.303ZM36.4149 245.303C36.1141 245.303 36.2195 245.266 36.5779 245.373C36.9642 245.488 37.7525 245.806 38.5378 246.592L27.2241 257.905C30.1611 260.842 33.9726 261.303 36.4149 261.303V245.303ZM38.6216 246.677C39.071 247.14 39.4137 247.695 39.6247 248.27C39.8271 248.822 39.8579 249.253 39.8579 249.459H23.8579C23.8579 252.291 24.7498 255.357 27.1403 257.82L38.6216 246.677ZM39.8579 249.459V241.306H23.8579V249.459H39.8579ZM31.8579 249.306H37.2829V233.306H31.8579V249.306ZM56.0883 237.462L50.4315 243.118L50.6881 243.375L50.9668 243.607L56.0883 237.462ZM49.7333 237.276H41.7333V245.276H49.7333V237.276ZM49.7333 233.401V225.401H41.7333V233.401H49.7333ZM60.6453 234.455L54.9047 240.026L54.9462 240.069L54.9885 240.111L60.6453 234.455ZM60.6453 245.181L54.9885 239.524L54.9462 239.566L54.9047 239.609L60.6453 245.181ZM49.7333 246.235H41.7333V254.235H49.7333V246.235ZM49.7333 242.546V234.546H41.7333V242.546H49.7333ZM56.0883 242.391L61.2098 248.536L61.4886 248.304L61.7452 248.047L56.0883 242.391ZM47.9353 233.401V225.401H39.9353V233.401H47.9353ZM53.3603 233.401H61.3603V225.401H53.3603V233.401ZM53.3603 253.303V261.303H61.3603V253.303H53.3603ZM47.9353 253.303H39.9353V261.303H47.9353V253.303ZM52.7403 244.065V236.065H40.4092L45.4349 247.325L52.7403 244.065ZM58.0413 244.065L65.1871 240.468L62.9708 236.065H58.0413V244.065ZM62.6913 253.303V261.303H75.6745L69.8371 249.706L62.6913 253.303ZM56.8633 253.303L49.5579 256.563L51.6732 261.303H56.8633V253.303ZM64.2743 241.864V237.958H48.2743V241.864H64.2743ZM64.2743 237.958C64.2743 236.368 63.8135 233.486 61.2098 231.316L50.9668 243.607C48.6111 241.644 48.2743 239.093 48.2743 237.958H64.2743ZM61.7452 231.805C59.4872 229.547 56.7836 229.276 55.4993 229.276V245.276C54.7524 245.276 52.4414 245.128 50.4315 243.118L61.7452 231.805ZM55.4993 229.276H49.7333V245.276H55.4993V229.276ZM57.7333 237.276V233.401H41.7333V237.276H57.7333ZM49.7333 241.401H57.1423V225.401H49.7333V241.401ZM57.1423 241.401C57.446 241.401 57.3291 241.438 56.9531 241.325C56.548 241.203 55.7181 240.864 54.9047 240.026L66.386 228.883C63.4397 225.847 59.5524 225.401 57.1423 225.401V241.401ZM54.9885 240.111C54.5366 239.66 54.1775 239.103 53.952 238.506C53.7353 237.933 53.6993 237.476 53.6993 237.245H69.6993C69.6993 234.343 68.7524 231.248 66.3022 228.798L54.9885 240.111ZM53.6993 237.245V242.391H69.6993V237.245H53.6993ZM53.6993 242.391C53.6993 242.159 53.7353 241.703 53.952 241.129C54.1775 240.532 54.5366 239.976 54.9885 239.524L66.3022 250.837C68.7524 248.387 69.6993 245.292 69.6993 242.391H53.6993ZM54.9047 239.609C55.7181 238.771 56.548 238.432 56.9531 238.31C57.3291 238.197 57.446 238.235 57.1423 238.235V254.235C59.5524 254.235 63.4397 253.788 66.386 250.752L54.9047 239.609ZM57.1423 238.235H49.7333V254.235H57.1423V238.235ZM57.7333 246.235V242.546H41.7333V246.235H57.7333ZM49.7333 250.546H55.4993V234.546H49.7333V250.546ZM55.4993 250.546C56.4924 250.546 58.9619 250.41 61.2098 248.536L50.9668 236.245C52.0053 235.379 53.0611 234.968 53.8121 234.77C54.5527 234.575 55.1536 234.546 55.4993 234.546V250.546ZM61.7452 248.047C63.7772 246.015 64.2743 243.557 64.2743 241.864H48.2743C48.2743 240.625 48.6475 238.518 50.4315 236.734L61.7452 248.047ZM47.9353 241.401H53.3603V225.401H47.9353V241.401ZM45.3603 233.401V253.303H61.3603V233.401H45.3603ZM53.3603 245.303H47.9353V261.303H53.3603V245.303ZM55.9353 253.303V233.401H39.9353V253.303H55.9353ZM52.7403 252.065H58.0413V236.065H52.7403V252.065ZM50.8955 247.661L55.5455 256.899L69.8371 249.706L65.1871 240.468L50.8955 247.661ZM62.6913 245.303H56.8633V261.303H62.6913V245.303ZM64.1687 250.042L60.0457 240.804L45.4349 247.325L49.5579 256.563L64.1687 250.042ZM66.5871 235.261V227.261H58.5871V235.261H66.5871ZM72.0121 235.261H80.0121V227.261H72.0121V235.261ZM72.0121 253.303V261.303H80.0121V253.303H72.0121ZM66.5871 253.303H58.5871V261.303H66.5871V253.303ZM75.8561 233.401H83.8561V225.401H75.8561V233.401ZM75.8561 237.276V245.276H83.8561V237.276H75.8561ZM62.7741 237.276H54.7741V245.276H62.7741V237.276ZM62.7741 233.401V225.401H54.7741V233.401H62.7741ZM66.5871 243.261H72.0121V227.261H66.5871V243.261ZM64.0121 235.261V253.303H80.0121V235.261H64.0121ZM72.0121 245.303H66.5871V261.303H72.0121V245.303ZM74.5871 253.303V235.261H58.5871V253.303H74.5871ZM67.8561 233.401V237.276H83.8561V233.401H67.8561ZM75.8561 229.276H62.7741V245.276H75.8561V229.276ZM70.7741 237.276V233.401H54.7741V237.276H70.7741ZM62.7741 241.401H75.8561V225.401H62.7741V241.401Z" fill="black" mask="url(#path-3-outside-1_203_905)"/>
<mask id="path-5-outside-2_203_905" maskUnits="userSpaceOnUse" x="101.645" y="225.303" width="153" height="36" fill="black">
<rect fill="white" x="101.645" y="225.303" width="153" height="36"/>
<path d="M123.557 237.245V249.459C123.557 250.616 123.206 251.546 122.503 252.249C121.821 252.951 120.653 253.303 119 253.303H114.877C113.224 253.303 112.046 252.951 111.343 252.249C110.661 251.546 110.32 250.616 110.32 249.459V237.245C110.32 236.087 110.661 235.157 111.343 234.455C112.046 233.752 113.224 233.401 114.877 233.401H119C120.653 233.401 121.821 233.752 122.503 234.455C123.206 235.157 123.557 236.087 123.557 237.245ZM118.132 248.746V237.958C118.132 237.73 118.07 237.565 117.946 237.462C117.822 237.338 117.626 237.276 117.357 237.276H116.52C116.251 237.276 116.055 237.338 115.931 237.462C115.807 237.565 115.745 237.73 115.745 237.958V248.746C115.745 248.973 115.807 249.149 115.931 249.273C116.055 249.376 116.251 249.428 116.52 249.428H117.357C117.626 249.428 117.822 249.376 117.946 249.273C118.07 249.149 118.132 248.973 118.132 248.746ZM131.368 246.328V248.746C131.368 248.973 131.43 249.149 131.554 249.273C131.678 249.376 131.874 249.428 132.143 249.428H133.104C133.373 249.428 133.569 249.376 133.693 249.273C133.817 249.149 133.879 248.973 133.879 248.746V244.747C133.879 244.519 133.817 244.354 133.693 244.251C133.569 244.127 133.373 244.065 133.104 244.065H129.384V240.19H134.654C136.307 240.19 137.475 240.541 138.157 241.244C138.86 241.946 139.211 242.876 139.211 244.034V249.459C139.211 250.616 138.86 251.546 138.157 252.249C137.475 252.951 136.307 253.303 134.654 253.303H130.5C128.847 253.303 127.669 252.951 126.966 252.249C126.284 251.546 125.943 250.616 125.943 249.459V246.328H131.368ZM131.523 244.065H126.191V233.401H138.901V237.276H131.523V244.065ZM141.383 253.303V248.219H146.715V253.303H141.383ZM162.337 237.245V249.459C162.337 250.616 161.986 251.546 161.283 252.249C160.601 252.951 159.433 253.303 157.78 253.303H153.657C152.004 253.303 150.826 252.951 150.123 252.249C149.441 251.546 149.1 250.616 149.1 249.459V237.245C149.1 236.087 149.441 235.157 150.123 234.455C150.826 233.752 152.004 233.401 153.657 233.401H157.78C159.433 233.401 160.601 233.752 161.283 234.455C161.986 235.157 162.337 236.087 162.337 237.245ZM156.912 248.746V237.958C156.912 237.73 156.85 237.565 156.726 237.462C156.602 237.338 156.406 237.276 156.137 237.276H155.3C155.031 237.276 154.835 237.338 154.711 237.462C154.587 237.565 154.525 237.73 154.525 237.958V248.746C154.525 248.973 154.587 249.149 154.711 249.273C154.835 249.376 155.031 249.428 155.3 249.428H156.137C156.406 249.428 156.602 249.376 156.726 249.273C156.85 249.149 156.912 248.973 156.912 248.746ZM172.597 248.746V245.77C172.597 245.542 172.535 245.377 172.411 245.274C172.287 245.15 172.091 245.088 171.822 245.088H168.567V241.368H173.31C174.964 241.368 176.131 241.719 176.813 242.422C177.516 243.124 177.867 244.054 177.867 245.212V249.459C177.867 250.616 177.516 251.546 176.813 252.249C176.131 252.951 174.964 253.303 173.31 253.303H171.109V249.428H171.822C172.091 249.428 172.287 249.376 172.411 249.273C172.535 249.149 172.597 248.973 172.597 248.746ZM169.9 237.958V248.746C169.9 248.973 169.962 249.149 170.086 249.273C170.21 249.376 170.407 249.428 170.675 249.428H171.388V253.303H169.187C167.534 253.303 166.356 252.951 165.653 252.249C164.971 251.546 164.63 250.616 164.63 249.459V237.245C164.63 236.087 164.971 235.157 165.653 234.455C166.356 233.752 167.534 233.401 169.187 233.401H171.388V237.276H170.675C170.407 237.276 170.21 237.338 170.086 237.462C169.962 237.565 169.9 237.73 169.9 237.958ZM172.287 239.477V237.958C172.287 237.73 172.225 237.565 172.101 237.462C171.977 237.338 171.781 237.276 171.512 237.276H170.923V233.401H173C174.654 233.401 175.821 233.752 176.503 234.455C177.206 235.157 177.557 236.087 177.557 237.245V239.477H172.287ZM180.042 253.303V248.219H185.374V253.303H180.042ZM192.75 237.958V240.221H187.325V237.245C187.325 236.087 187.666 235.157 188.348 234.455C189.051 233.752 190.229 233.401 191.882 233.401H195.633C197.287 233.401 198.465 233.752 199.167 234.455C199.891 235.157 200.252 236.087 200.252 237.245V240.097C200.252 241.171 200.066 242.081 199.694 242.825C199.343 243.569 198.806 244.333 198.082 245.119L194.238 249.428H200.252V253.303H187.48V249.769L193.37 243.445C193.99 242.783 194.404 242.225 194.61 241.771C194.817 241.316 194.92 240.748 194.92 240.066V237.958C194.92 237.73 194.858 237.565 194.734 237.462C194.61 237.338 194.414 237.276 194.145 237.276H193.525C193.257 237.276 193.06 237.338 192.936 237.462C192.812 237.565 192.75 237.73 192.75 237.958ZM215.528 237.245V249.459C215.528 250.616 215.176 251.546 214.474 252.249C213.792 252.951 212.624 253.303 210.971 253.303H206.848C205.194 253.303 204.016 252.951 203.314 252.249C202.632 251.546 202.291 250.616 202.291 249.459V237.245C202.291 236.087 202.632 235.157 203.314 234.455C204.016 233.752 205.194 233.401 206.848 233.401H210.971C212.624 233.401 213.792 233.752 214.474 234.455C215.176 235.157 215.528 236.087 215.528 237.245ZM210.103 248.746V237.958C210.103 237.73 210.041 237.565 209.917 237.462C209.793 237.338 209.596 237.276 209.328 237.276H208.491C208.222 237.276 208.026 237.338 207.902 237.462C207.778 237.565 207.716 237.73 207.716 237.958V248.746C207.716 248.973 207.778 249.149 207.902 249.273C208.026 249.376 208.222 249.428 208.491 249.428H209.328C209.596 249.428 209.793 249.376 209.917 249.273C210.041 249.149 210.103 248.973 210.103 248.746ZM222.812 237.958V240.221H217.387V237.245C217.387 236.087 217.728 235.157 218.41 234.455C219.112 233.752 220.29 233.401 221.944 233.401H225.695C227.348 233.401 228.526 233.752 229.229 234.455C229.952 235.157 230.314 236.087 230.314 237.245V240.097C230.314 241.171 230.128 242.081 229.756 242.825C229.404 243.569 228.867 244.333 228.144 245.119L224.3 249.428H230.314V253.303H217.542V249.769L223.432 243.445C224.052 242.783 224.465 242.225 224.672 241.771C224.878 241.316 224.982 240.748 224.982 240.066V237.958C224.982 237.73 224.92 237.565 224.796 237.462C224.672 237.338 224.475 237.276 224.207 237.276H223.587C223.318 237.276 223.122 237.338 222.998 237.462C222.874 237.565 222.812 237.73 222.812 237.958ZM237.87 246.328V248.746C237.87 248.973 237.932 249.149 238.056 249.273C238.18 249.376 238.376 249.428 238.645 249.428H239.606C239.875 249.428 240.071 249.376 240.195 249.273C240.319 249.149 240.381 248.973 240.381 248.746V244.747C240.381 244.519 240.319 244.354 240.195 244.251C240.071 244.127 239.875 244.065 239.606 244.065H235.886V240.19H241.156C242.809 240.19 243.977 240.541 244.659 241.244C245.362 241.946 245.713 242.876 245.713 244.034V249.459C245.713 250.616 245.362 251.546 244.659 252.249C243.977 252.951 242.809 253.303 241.156 253.303H237.002C235.349 253.303 234.171 252.951 233.468 252.249C232.786 251.546 232.445 250.616 232.445 249.459V246.328H237.87ZM238.025 244.065H232.693V233.401H245.403V237.276H238.025V244.065Z"/>
</mask>
<path d="M123.557 237.245V249.459C123.557 250.616 123.206 251.546 122.503 252.249C121.821 252.951 120.653 253.303 119 253.303H114.877C113.224 253.303 112.046 252.951 111.343 252.249C110.661 251.546 110.32 250.616 110.32 249.459V237.245C110.32 236.087 110.661 235.157 111.343 234.455C112.046 233.752 113.224 233.401 114.877 233.401H119C120.653 233.401 121.821 233.752 122.503 234.455C123.206 235.157 123.557 236.087 123.557 237.245ZM118.132 248.746V237.958C118.132 237.73 118.07 237.565 117.946 237.462C117.822 237.338 117.626 237.276 117.357 237.276H116.52C116.251 237.276 116.055 237.338 115.931 237.462C115.807 237.565 115.745 237.73 115.745 237.958V248.746C115.745 248.973 115.807 249.149 115.931 249.273C116.055 249.376 116.251 249.428 116.52 249.428H117.357C117.626 249.428 117.822 249.376 117.946 249.273C118.07 249.149 118.132 248.973 118.132 248.746ZM131.368 246.328V248.746C131.368 248.973 131.43 249.149 131.554 249.273C131.678 249.376 131.874 249.428 132.143 249.428H133.104C133.373 249.428 133.569 249.376 133.693 249.273C133.817 249.149 133.879 248.973 133.879 248.746V244.747C133.879 244.519 133.817 244.354 133.693 244.251C133.569 244.127 133.373 244.065 133.104 244.065H129.384V240.19H134.654C136.307 240.19 137.475 240.541 138.157 241.244C138.86 241.946 139.211 242.876 139.211 244.034V249.459C139.211 250.616 138.86 251.546 138.157 252.249C137.475 252.951 136.307 253.303 134.654 253.303H130.5C128.847 253.303 127.669 252.951 126.966 252.249C126.284 251.546 125.943 250.616 125.943 249.459V246.328H131.368ZM131.523 244.065H126.191V233.401H138.901V237.276H131.523V244.065ZM141.383 253.303V248.219H146.715V253.303H141.383ZM162.337 237.245V249.459C162.337 250.616 161.986 251.546 161.283 252.249C160.601 252.951 159.433 253.303 157.78 253.303H153.657C152.004 253.303 150.826 252.951 150.123 252.249C149.441 251.546 149.1 250.616 149.1 249.459V237.245C149.1 236.087 149.441 235.157 150.123 234.455C150.826 233.752 152.004 233.401 153.657 233.401H157.78C159.433 233.401 160.601 233.752 161.283 234.455C161.986 235.157 162.337 236.087 162.337 237.245ZM156.912 248.746V237.958C156.912 237.73 156.85 237.565 156.726 237.462C156.602 237.338 156.406 237.276 156.137 237.276H155.3C155.031 237.276 154.835 237.338 154.711 237.462C154.587 237.565 154.525 237.73 154.525 237.958V248.746C154.525 248.973 154.587 249.149 154.711 249.273C154.835 249.376 155.031 249.428 155.3 249.428H156.137C156.406 249.428 156.602 249.376 156.726 249.273C156.85 249.149 156.912 248.973 156.912 248.746ZM172.597 248.746V245.77C172.597 245.542 172.535 245.377 172.411 245.274C172.287 245.15 172.091 245.088 171.822 245.088H168.567V241.368H173.31C174.964 241.368 176.131 241.719 176.813 242.422C177.516 243.124 177.867 244.054 177.867 245.212V249.459C177.867 250.616 177.516 251.546 176.813 252.249C176.131 252.951 174.964 253.303 173.31 253.303H171.109V249.428H171.822C172.091 249.428 172.287 249.376 172.411 249.273C172.535 249.149 172.597 248.973 172.597 248.746ZM169.9 237.958V248.746C169.9 248.973 169.962 249.149 170.086 249.273C170.21 249.376 170.407 249.428 170.675 249.428H171.388V253.303H169.187C167.534 253.303 166.356 252.951 165.653 252.249C164.971 251.546 164.63 250.616 164.63 249.459V237.245C164.63 236.087 164.971 235.157 165.653 234.455C166.356 233.752 167.534 233.401 169.187 233.401H171.388V237.276H170.675C170.407 237.276 170.21 237.338 170.086 237.462C169.962 237.565 169.9 237.73 169.9 237.958ZM172.287 239.477V237.958C172.287 237.73 172.225 237.565 172.101 237.462C171.977 237.338 171.781 237.276 171.512 237.276H170.923V233.401H173C174.654 233.401 175.821 233.752 176.503 234.455C177.206 235.157 177.557 236.087 177.557 237.245V239.477H172.287ZM180.042 253.303V248.219H185.374V253.303H180.042ZM192.75 237.958V240.221H187.325V237.245C187.325 236.087 187.666 235.157 188.348 234.455C189.051 233.752 190.229 233.401 191.882 233.401H195.633C197.287 233.401 198.465 233.752 199.167 234.455C199.891 235.157 200.252 236.087 200.252 237.245V240.097C200.252 241.171 200.066 242.081 199.694 242.825C199.343 243.569 198.806 244.333 198.082 245.119L194.238 249.428H200.252V253.303H187.48V249.769L193.37 243.445C193.99 242.783 194.404 242.225 194.61 241.771C194.817 241.316 194.92 240.748 194.92 240.066V237.958C194.92 237.73 194.858 237.565 194.734 237.462C194.61 237.338 194.414 237.276 194.145 237.276H193.525C193.257 237.276 193.06 237.338 192.936 237.462C192.812 237.565 192.75 237.73 192.75 237.958ZM215.528 237.245V249.459C215.528 250.616 215.176 251.546 214.474 252.249C213.792 252.951 212.624 253.303 210.971 253.303H206.848C205.194 253.303 204.016 252.951 203.314 252.249C202.632 251.546 202.291 250.616 202.291 249.459V237.245C202.291 236.087 202.632 235.157 203.314 234.455C204.016 233.752 205.194 233.401 206.848 233.401H210.971C212.624 233.401 213.792 233.752 214.474 234.455C215.176 235.157 215.528 236.087 215.528 237.245ZM210.103 248.746V237.958C210.103 237.73 210.041 237.565 209.917 237.462C209.793 237.338 209.596 237.276 209.328 237.276H208.491C208.222 237.276 208.026 237.338 207.902 237.462C207.778 237.565 207.716 237.73 207.716 237.958V248.746C207.716 248.973 207.778 249.149 207.902 249.273C208.026 249.376 208.222 249.428 208.491 249.428H209.328C209.596 249.428 209.793 249.376 209.917 249.273C210.041 249.149 210.103 248.973 210.103 248.746ZM222.812 237.958V240.221H217.387V237.245C217.387 236.087 217.728 235.157 218.41 234.455C219.112 233.752 220.29 233.401 221.944 233.401H225.695C227.348 233.401 228.526 233.752 229.229 234.455C229.952 235.157 230.314 236.087 230.314 237.245V240.097C230.314 241.171 230.128 242.081 229.756 242.825C229.404 243.569 228.867 244.333 228.144 245.119L224.3 249.428H230.314V253.303H217.542V249.769L223.432 243.445C224.052 242.783 224.465 242.225 224.672 241.771C224.878 241.316 224.982 240.748 224.982 240.066V237.958C224.982 237.73 224.92 237.565 224.796 237.462C224.672 237.338 224.475 237.276 224.207 237.276H223.587C223.318 237.276 223.122 237.338 222.998 237.462C222.874 237.565 222.812 237.73 222.812 237.958ZM237.87 246.328V248.746C237.87 248.973 237.932 249.149 238.056 249.273C238.18 249.376 238.376 249.428 238.645 249.428H239.606C239.875 249.428 240.071 249.376 240.195 249.273C240.319 249.149 240.381 248.973 240.381 248.746V244.747C240.381 244.519 240.319 244.354 240.195 244.251C240.071 244.127 239.875 244.065 239.606 244.065H235.886V240.19H241.156C242.809 240.19 243.977 240.541 244.659 241.244C245.362 241.946 245.713 242.876 245.713 244.034V249.459C245.713 250.616 245.362 251.546 244.659 252.249C243.977 252.951 242.809 253.303 241.156 253.303H237.002C235.349 253.303 234.171 252.951 233.468 252.249C232.786 251.546 232.445 250.616 232.445 249.459V246.328H237.87ZM238.025 244.065H232.693V233.401H245.403V237.276H238.025V244.065Z" fill="white"/>
<path d="M122.503 252.249L116.846 246.592L116.804 246.634L116.762 246.677L122.503 252.249ZM111.343 252.249L105.602 257.82L105.644 257.863L105.686 257.905L111.343 252.249ZM111.343 234.455L105.686 228.798L105.644 228.84L105.602 228.883L111.343 234.455ZM122.503 234.455L116.762 240.026L116.804 240.069L116.846 240.111L122.503 234.455ZM117.946 237.462L112.289 243.118L112.546 243.375L112.824 243.607L117.946 237.462ZM115.931 237.462L121.052 243.607L121.331 243.375L121.588 243.118L115.931 237.462ZM115.931 249.273L110.274 254.929L110.531 255.186L110.809 255.418L115.931 249.273ZM117.946 249.273L123.067 255.418L123.346 255.186L123.603 254.929L117.946 249.273ZM115.557 237.245V249.459H131.557V237.245H115.557ZM115.557 249.459C115.557 249.227 115.593 248.771 115.81 248.197C116.035 247.6 116.394 247.044 116.846 246.592L128.16 257.905C130.61 255.455 131.557 252.36 131.557 249.459H115.557ZM116.762 246.677C117.576 245.839 118.406 245.5 118.811 245.378C119.187 245.265 119.304 245.303 119 245.303V261.303C121.41 261.303 125.297 260.856 128.243 257.82L116.762 246.677ZM119 245.303H114.877V261.303H119V245.303ZM114.877 245.303C114.576 245.303 114.681 245.266 115.04 245.373C115.426 245.488 116.214 245.806 117 246.592L105.686 257.905C108.623 260.842 112.434 261.303 114.877 261.303V245.303ZM117.083 246.677C117.533 247.14 117.876 247.695 118.087 248.27C118.289 248.822 118.32 249.253 118.32 249.459H102.32C102.32 252.291 103.212 255.357 105.602 257.82L117.083 246.677ZM118.32 249.459V237.245H102.32V249.459H118.32ZM118.32 237.245C118.32 237.45 118.289 237.881 118.087 238.433C117.876 239.009 117.533 239.563 117.084 240.026L105.602 228.883C103.212 231.346 102.32 234.412 102.32 237.245H118.32ZM117 240.111C116.214 240.897 115.426 241.215 115.04 241.33C114.681 241.437 114.576 241.401 114.877 241.401V225.401C112.434 225.401 108.623 225.861 105.686 228.798L117 240.111ZM114.877 241.401H119V225.401H114.877V241.401ZM119 241.401C119.304 241.401 119.187 241.438 118.811 241.325C118.406 241.203 117.576 240.864 116.762 240.026L128.243 228.883C125.297 225.847 121.41 225.401 119 225.401V241.401ZM116.846 240.111C116.394 239.66 116.035 239.103 115.81 238.506C115.593 237.933 115.557 237.476 115.557 237.245H131.557C131.557 234.343 130.61 231.248 128.16 228.798L116.846 240.111ZM126.132 248.746V237.958H110.132V248.746H126.132ZM126.132 237.958C126.132 236.368 125.671 233.486 123.067 231.316L112.824 243.607C110.469 241.644 110.132 239.093 110.132 237.958H126.132ZM123.603 231.805C121.345 229.547 118.641 229.276 117.357 229.276V245.276C116.61 245.276 114.299 245.128 112.289 243.118L123.603 231.805ZM117.357 229.276H116.52V245.276H117.357V229.276ZM116.52 229.276C115.236 229.276 112.532 229.547 110.274 231.805L121.588 243.118C119.578 245.128 117.267 245.276 116.52 245.276V229.276ZM110.809 231.316C108.206 233.486 107.745 236.368 107.745 237.958H123.745C123.745 239.093 123.408 241.644 121.052 243.607L110.809 231.316ZM107.745 237.958V248.746H123.745V237.958H107.745ZM107.745 248.746C107.745 250.439 108.242 252.897 110.274 254.929L121.588 243.616C123.372 245.4 123.745 247.507 123.745 248.746H107.745ZM110.809 255.418C113.057 257.292 115.527 257.428 116.52 257.428V241.428C116.866 241.428 117.466 241.457 118.207 241.652C118.958 241.85 120.014 242.261 121.052 243.127L110.809 255.418ZM116.52 257.428H117.357V241.428H116.52V257.428ZM117.357 257.428C118.35 257.428 120.819 257.292 123.067 255.418L112.824 243.127C113.863 242.261 114.919 241.85 115.67 241.652C116.41 241.457 117.011 241.428 117.357 241.428V257.428ZM123.603 254.929C125.635 252.897 126.132 250.439 126.132 248.746H110.132C110.132 247.507 110.505 245.4 112.289 243.616L123.603 254.929ZM131.368 246.328H139.368V238.328H131.368V246.328ZM131.554 249.273L125.897 254.929L126.154 255.186L126.433 255.418L131.554 249.273ZM133.693 249.273L138.815 255.418L139.093 255.186L139.35 254.929L133.693 249.273ZM133.693 244.251L128.036 249.907L128.293 250.164L128.572 250.396L133.693 244.251ZM129.384 244.065H121.384V252.065H129.384V244.065ZM129.384 240.19V232.19H121.384V240.19H129.384ZM138.157 241.244L132.416 246.815L132.458 246.858L132.5 246.9L138.157 241.244ZM138.157 252.249L132.5 246.592L132.458 246.634L132.416 246.677L138.157 252.249ZM126.966 252.249L121.225 257.82L121.267 257.863L121.309 257.905L126.966 252.249ZM125.943 246.328V238.328H117.943V246.328H125.943ZM131.523 244.065V252.065H139.523V244.065H131.523ZM126.191 244.065H118.191V252.065H126.191V244.065ZM126.191 233.401V225.401H118.191V233.401H126.191ZM138.901 233.401H146.901V225.401H138.901V233.401ZM138.901 237.276V245.276H146.901V237.276H138.901ZM131.523 237.276V229.276H123.523V237.276H131.523ZM123.368 246.328V248.746H139.368V246.328H123.368ZM123.368 248.746C123.368 250.439 123.865 252.897 125.897 254.929L137.211 243.616C138.995 245.4 139.368 247.507 139.368 248.746H123.368ZM126.433 255.418C128.681 257.292 131.15 257.428 132.143 257.428V241.428C132.489 241.428 133.09 241.457 133.83 241.652C134.581 241.85 135.637 242.261 136.676 243.127L126.433 255.418ZM132.143 257.428H133.104V241.428H132.143V257.428ZM133.104 257.428C134.097 257.428 136.567 257.292 138.815 255.418L128.572 243.127C129.61 242.261 130.666 241.85 131.417 241.652C132.158 241.457 132.758 241.428 133.104 241.428V257.428ZM139.35 254.929C141.382 252.897 141.879 250.439 141.879 248.746H125.879C125.879 247.507 126.252 245.4 128.036 243.616L139.35 254.929ZM141.879 248.746V244.747H125.879V248.746H141.879ZM141.879 244.747C141.879 243.157 141.418 240.275 138.815 238.105L128.572 250.396C126.216 248.433 125.879 245.882 125.879 244.747H141.879ZM139.35 238.594C137.092 236.336 134.388 236.065 133.104 236.065V252.065C132.357 252.065 130.046 251.917 128.036 249.907L139.35 238.594ZM133.104 236.065H129.384V252.065H133.104V236.065ZM137.384 244.065V240.19H121.384V244.065H137.384ZM129.384 248.19H134.654V232.19H129.384V248.19ZM134.654 248.19C134.958 248.19 134.841 248.227 134.465 248.114C134.06 247.992 133.23 247.653 132.416 246.815L143.898 235.672C140.951 232.636 137.064 232.19 134.654 232.19V248.19ZM132.5 246.9C132.048 246.449 131.689 245.892 131.464 245.295C131.247 244.722 131.211 244.265 131.211 244.034H147.211C147.211 241.132 146.264 238.037 143.814 235.587L132.5 246.9ZM131.211 244.034V249.459H147.211V244.034H131.211ZM131.211 249.459C131.211 249.227 131.247 248.771 131.464 248.197C131.689 247.6 132.048 247.044 132.5 246.592L143.814 257.905C146.264 255.455 147.211 252.36 147.211 249.459H131.211ZM132.416 246.677C133.23 245.839 134.06 245.5 134.465 245.378C134.841 245.265 134.958 245.303 134.654 245.303V261.303C137.064 261.303 140.951 260.856 143.898 257.82L132.416 246.677ZM134.654 245.303H130.5V261.303H134.654V245.303ZM130.5 245.303C130.199 245.303 130.305 245.266 130.663 245.373C131.049 245.488 131.838 245.806 132.623 246.592L121.309 257.905C124.246 260.842 128.058 261.303 130.5 261.303V245.303ZM132.707 246.677C133.156 247.14 133.499 247.695 133.71 248.27C133.912 248.822 133.943 249.253 133.943 249.459H117.943C117.943 252.291 118.835 255.357 121.225 257.82L132.707 246.677ZM133.943 249.459V246.328H117.943V249.459H133.943ZM125.943 254.328H131.368V238.328H125.943V254.328ZM131.523 236.065H126.191V252.065H131.523V236.065ZM134.191 244.065V233.401H118.191V244.065H134.191ZM126.191 241.401H138.901V225.401H126.191V241.401ZM130.901 233.401V237.276H146.901V233.401H130.901ZM138.901 229.276H131.523V245.276H138.901V229.276ZM123.523 237.276V244.065H139.523V237.276H123.523ZM141.383 253.303H133.383V261.303H141.383V253.303ZM141.383 248.219V240.219H133.383V248.219H141.383ZM146.715 248.219H154.715V240.219H146.715V248.219ZM146.715 253.303V261.303H154.715V253.303H146.715ZM149.383 253.303V248.219H133.383V253.303H149.383ZM141.383 256.219H146.715V240.219H141.383V256.219ZM138.715 248.219V253.303H154.715V248.219H138.715ZM146.715 245.303H141.383V261.303H146.715V245.303ZM161.283 252.249L155.626 246.592L155.584 246.634L155.542 246.677L161.283 252.249ZM150.123 252.249L144.382 257.82L144.424 257.863L144.466 257.905L150.123 252.249ZM150.123 234.455L144.466 228.798L144.424 228.84L144.382 228.883L150.123 234.455ZM161.283 234.455L155.542 240.026L155.584 240.069L155.626 240.111L161.283 234.455ZM156.726 237.462L151.069 243.118L151.326 243.375L151.605 243.607L156.726 237.462ZM154.711 237.462L159.833 243.607L160.111 243.375L160.368 243.118L154.711 237.462ZM154.711 249.273L149.054 254.929L149.311 255.186L149.59 255.418L154.711 249.273ZM156.726 249.273L161.848 255.418L162.126 255.186L162.383 254.929L156.726 249.273ZM154.337 237.245V249.459H170.337V237.245H154.337ZM154.337 249.459C154.337 249.227 154.373 248.771 154.59 248.197C154.815 247.6 155.174 247.044 155.626 246.592L166.94 257.905C169.39 255.455 170.337 252.36 170.337 249.459H154.337ZM155.542 246.677C156.356 245.839 157.186 245.5 157.591 245.378C157.967 245.265 158.084 245.303 157.78 245.303V261.303C160.19 261.303 164.077 260.856 167.024 257.82L155.542 246.677ZM157.78 245.303H153.657V261.303H157.78V245.303ZM153.657 245.303C153.356 245.303 153.462 245.266 153.82 245.373C154.206 245.488 154.995 245.806 155.78 246.592L144.466 257.905C147.403 260.842 151.215 261.303 153.657 261.303V245.303ZM155.864 246.677C156.313 247.14 156.656 247.695 156.867 248.27C157.069 248.822 157.1 249.253 157.1 249.459H141.1C141.1 252.291 141.992 255.357 144.382 257.82L155.864 246.677ZM157.1 249.459V237.245H141.1V249.459H157.1ZM157.1 237.245C157.1 237.45 157.069 237.881 156.867 238.433C156.656 239.009 156.313 239.563 155.864 240.026L144.382 228.883C141.992 231.346 141.1 234.412 141.1 237.245H157.1ZM155.78 240.111C154.995 240.897 154.206 241.215 153.82 241.33C153.462 241.437 153.356 241.401 153.657 241.401V225.401C151.215 225.401 147.403 225.861 144.466 228.798L155.78 240.111ZM153.657 241.401H157.78V225.401H153.657V241.401ZM157.78 241.401C158.084 241.401 157.967 241.438 157.591 241.325C157.186 241.203 156.356 240.864 155.542 240.026L167.024 228.883C164.077 225.847 160.19 225.401 157.78 225.401V241.401ZM155.626 240.111C155.174 239.66 154.815 239.103 154.59 238.506C154.373 237.933 154.337 237.476 154.337 237.245H170.337C170.337 234.343 169.39 231.248 166.94 228.798L155.626 240.111ZM164.912 248.746V237.958H148.912V248.746H164.912ZM164.912 237.958C164.912 236.368 164.451 233.486 161.848 231.316L151.605 243.607C149.249 241.644 148.912 239.093 148.912 237.958H164.912ZM162.383 231.805C160.125 229.547 157.421 229.276 156.137 229.276V245.276C155.39 245.276 153.079 245.128 151.069 243.118L162.383 231.805ZM156.137 229.276H155.3V245.276H156.137V229.276ZM155.3 229.276C154.016 229.276 151.312 229.547 149.054 231.805L160.368 243.118C158.358 245.128 156.047 245.276 155.3 245.276V229.276ZM149.59 231.316C146.986 233.486 146.525 236.368 146.525 237.958H162.525C162.525 239.093 162.188 241.644 159.833 243.607L149.59 231.316ZM146.525 237.958V248.746H162.525V237.958H146.525ZM146.525 248.746C146.525 250.439 147.022 252.897 149.054 254.929L160.368 243.616C162.152 245.4 162.525 247.507 162.525 248.746H146.525ZM149.59 255.418C151.838 257.292 154.307 257.428 155.3 257.428V241.428C155.646 241.428 156.247 241.457 156.987 241.652C157.738 241.85 158.794 242.261 159.833 243.127L149.59 255.418ZM155.3 257.428H156.137V241.428H155.3V257.428ZM156.137 257.428C157.13 257.428 159.6 257.292 161.848 255.418L151.605 243.127C152.643 242.261 153.699 241.85 154.45 241.652C155.191 241.457 155.791 241.428 156.137 241.428V257.428ZM162.383 254.929C164.415 252.897 164.912 250.439 164.912 248.746H148.912C148.912 247.507 149.285 245.4 151.069 243.616L162.383 254.929ZM172.411 245.274L166.755 250.93L167.011 251.187L167.29 251.419L172.411 245.274ZM168.567 245.088H160.567V253.088H168.567V245.088ZM168.567 241.368V233.368H160.567V241.368H168.567ZM176.813 242.422L171.073 247.993L171.114 248.036L171.157 248.078L176.813 242.422ZM176.813 252.249L171.157 246.592L171.114 246.634L171.073 246.677L176.813 252.249ZM171.109 253.303H163.109V261.303H171.109V253.303ZM171.109 249.428V241.428H163.109V249.428H171.109ZM172.411 249.273L177.533 255.418L177.812 255.186L178.068 254.929L172.411 249.273ZM170.086 249.273L164.43 254.929L164.686 255.186L164.965 255.418L170.086 249.273ZM171.388 249.428H179.388V241.428H171.388V249.428ZM171.388 253.303V261.303H179.388V253.303H171.388ZM165.653 252.249L159.913 257.82L159.954 257.863L159.997 257.905L165.653 252.249ZM165.653 234.455L159.997 228.798L159.954 228.84L159.913 228.883L165.653 234.455ZM171.388 233.401H179.388V225.401H171.388V233.401ZM171.388 237.276V245.276H179.388V237.276H171.388ZM170.086 237.462L175.208 243.607L175.487 243.375L175.743 243.118L170.086 237.462ZM172.287 239.477H164.287V247.477H172.287V239.477ZM172.101 237.462L166.445 243.118L166.701 243.375L166.98 243.607L172.101 237.462ZM170.923 237.276H162.923V245.276H170.923V237.276ZM170.923 233.401V225.401H162.923V233.401H170.923ZM176.503 234.455L170.763 240.026L170.804 240.069L170.847 240.111L176.503 234.455ZM177.557 239.477V247.477H185.557V239.477H177.557ZM180.597 248.746V245.77H164.597V248.746H180.597ZM180.597 245.77C180.597 244.18 180.137 241.298 177.533 239.128L167.29 251.419C164.934 249.456 164.597 246.905 164.597 245.77H180.597ZM178.068 239.617C175.81 237.359 173.107 237.088 171.822 237.088V253.088C171.075 253.088 168.764 252.94 166.755 250.93L178.068 239.617ZM171.822 237.088H168.567V253.088H171.822V237.088ZM176.567 245.088V241.368H160.567V245.088H176.567ZM168.567 249.368H173.31V233.368H168.567V249.368ZM173.31 249.368C173.614 249.368 173.497 249.405 173.121 249.292C172.716 249.17 171.886 248.831 171.073 247.993L182.554 236.85C179.608 233.814 175.721 233.368 173.31 233.368V249.368ZM171.157 248.078C170.705 247.627 170.346 247.07 170.12 246.473C169.903 245.9 169.867 245.443 169.867 245.212H185.867C185.867 242.31 184.921 239.215 182.47 236.765L171.157 248.078ZM169.867 245.212V249.459H185.867V245.212H169.867ZM169.867 249.459C169.867 249.227 169.903 248.771 170.12 248.197C170.346 247.6 170.705 247.044 171.157 246.592L182.47 257.905C184.921 255.455 185.867 252.36 185.867 249.459H169.867ZM171.073 246.677C171.886 245.839 172.716 245.5 173.121 245.378C173.497 245.265 173.614 245.303 173.31 245.303V261.303C175.721 261.303 179.608 260.856 182.554 257.82L171.073 246.677ZM173.31 245.303H171.109V261.303H173.31V245.303ZM179.109 253.303V249.428H163.109V253.303H179.109ZM171.109 257.428H171.822V241.428H171.109V257.428ZM171.822 257.428C172.816 257.428 175.285 257.292 177.533 255.418L167.29 243.127C168.328 242.261 169.384 241.85 170.135 241.652C170.876 241.457 171.477 241.428 171.822 241.428V257.428ZM178.068 254.929C180.1 252.897 180.597 250.439 180.597 248.746H164.597C164.597 247.507 164.971 245.4 166.755 243.616L178.068 254.929ZM161.9 237.958V248.746H177.9V237.958H161.9ZM161.9 248.746C161.9 250.439 162.398 252.897 164.43 254.929L175.743 243.616C177.527 245.4 177.9 247.507 177.9 248.746H161.9ZM164.965 255.418C167.213 257.292 169.682 257.428 170.675 257.428V241.428C171.021 241.428 171.622 241.457 172.363 241.652C173.114 241.85 174.169 242.261 175.208 243.127L164.965 255.418ZM170.675 257.428H171.388V241.428H170.675V257.428ZM163.388 249.428V253.303H179.388V249.428H163.388ZM171.388 245.303H169.187V261.303H171.388V245.303ZM169.187 245.303C168.887 245.303 168.992 245.266 169.35 245.373C169.737 245.488 170.525 245.806 171.31 246.592L159.997 257.905C162.934 260.842 166.745 261.303 169.187 261.303V245.303ZM171.394 246.677C171.843 247.14 172.186 247.695 172.397 248.27C172.6 248.822 172.63 249.253 172.63 249.459H156.63C156.63 252.291 157.522 255.357 159.913 257.82L171.394 246.677ZM172.63 249.459V237.245H156.63V249.459H172.63ZM172.63 237.245C172.63 237.45 172.6 237.881 172.397 238.433C172.186 239.009 171.843 239.563 171.394 240.026L159.913 228.883C157.522 231.346 156.63 234.412 156.63 237.245H172.63ZM171.31 240.111C170.525 240.897 169.737 241.215 169.35 241.33C168.992 241.437 168.887 241.401 169.187 241.401V225.401C166.745 225.401 162.934 225.861 159.997 228.798L171.31 240.111ZM169.187 241.401H171.388V225.401H169.187V241.401ZM163.388 233.401V237.276H179.388V233.401H163.388ZM171.388 229.276H170.675V245.276H171.388V229.276ZM170.675 229.276C169.391 229.276 166.688 229.547 164.43 231.805L175.743 243.118C173.733 245.128 171.422 245.276 170.675 245.276V229.276ZM164.965 231.316C162.361 233.486 161.9 236.368 161.9 237.958H177.9C177.9 239.093 177.564 241.644 175.208 243.607L164.965 231.316ZM180.287 239.477V237.958H164.287V239.477H180.287ZM180.287 237.958C180.287 236.368 179.827 233.486 177.223 231.316L166.98 243.607C164.624 241.644 164.287 239.093 164.287 237.958H180.287ZM177.758 231.805C175.5 229.547 172.797 229.276 171.512 229.276V245.276C170.765 245.276 168.455 245.128 166.445 243.118L177.758 231.805ZM171.512 229.276H170.923V245.276H171.512V229.276ZM178.923 237.276V233.401H162.923V237.276H178.923ZM170.923 241.401H173V225.401H170.923V241.401ZM173 241.401C173.304 241.401 173.187 241.438 172.811 241.325C172.406 241.203 171.576 240.864 170.763 240.026L182.244 228.883C179.298 225.847 175.411 225.401 173 225.401V241.401ZM170.847 240.111C170.395 239.66 170.036 239.103 169.81 238.506C169.593 237.933 169.557 237.476 169.557 237.245H185.557C185.557 234.343 184.611 231.248 182.16 228.798L170.847 240.111ZM169.557 237.245V239.477H185.557V237.245H169.557ZM177.557 231.477H172.287V247.477H177.557V231.477ZM180.042 253.303H172.042V261.303H180.042V253.303ZM180.042 248.219V240.219H172.042V248.219H180.042ZM185.374 248.219H193.374V240.219H185.374V248.219ZM185.374 253.303V261.303H193.374V253.303H185.374ZM188.042 253.303V248.219H172.042V253.303H188.042ZM180.042 256.219H185.374V240.219H180.042V256.219ZM177.374 248.219V253.303H193.374V248.219H177.374ZM185.374 245.303H180.042V261.303H185.374V245.303ZM192.75 240.221V248.221H200.75V240.221H192.75ZM187.325 240.221H179.325V248.221H187.325V240.221ZM188.348 234.455L182.691 228.798L182.649 228.84L182.608 228.883L188.348 234.455ZM199.167 234.455L193.51 240.111L193.551 240.152L193.593 240.193L199.167 234.455ZM199.694 242.825L192.539 239.247L192.499 239.327L192.46 239.409L199.694 242.825ZM198.082 245.119L192.198 239.699L192.155 239.746L192.113 239.793L198.082 245.119ZM194.238 249.428L188.269 244.102L176.381 257.428H194.238V249.428ZM200.252 249.428H208.252V241.428H200.252V249.428ZM200.252 253.303V261.303H208.252V253.303H200.252ZM187.48 253.303H179.48V261.303H187.48V253.303ZM187.48 249.769L181.626 244.316L179.48 246.62V249.769H187.48ZM193.37 243.445L187.534 237.973L187.525 237.983L187.516 237.992L193.37 243.445ZM194.61 241.771L201.893 245.081L201.893 245.081L194.61 241.771ZM194.734 237.462L189.077 243.118L189.334 243.375L189.613 243.607L194.734 237.462ZM192.936 237.462L198.058 243.607L198.337 243.375L198.593 243.118L192.936 237.462ZM184.75 237.958V240.221H200.75V237.958H184.75ZM192.75 232.221H187.325V248.221H192.75V232.221ZM195.325 240.221V237.245H179.325V240.221H195.325ZM195.325 237.245C195.325 237.45 195.294 237.881 195.092 238.433C194.881 239.009 194.538 239.563 194.089 240.026L182.608 228.883C180.217 231.346 179.325 234.412 179.325 237.245H195.325ZM194.005 240.111C193.22 240.897 192.432 241.215 192.045 241.33C191.687 241.437 191.582 241.401 191.882 241.401V225.401C189.44 225.401 185.628 225.861 182.691 228.798L194.005 240.111ZM191.882 241.401H195.633V225.401H191.882V241.401ZM195.633 241.401C195.934 241.401 195.829 241.437 195.47 241.33C195.084 241.215 194.296 240.897 193.51 240.111L204.824 228.798C201.887 225.861 198.076 225.401 195.633 225.401V241.401ZM193.593 240.193C193.14 239.753 192.765 239.196 192.525 238.579C192.294 237.984 192.252 237.502 192.252 237.245H208.252C208.252 234.273 207.249 231.152 204.742 228.716L193.593 240.193ZM192.252 237.245V240.097H208.252V237.245H192.252ZM192.252 240.097C192.252 240.28 192.218 239.89 192.539 239.247L206.85 246.402C207.915 244.272 208.252 242.063 208.252 240.097H192.252ZM192.46 239.409C192.504 239.316 192.523 239.299 192.482 239.357C192.442 239.414 192.354 239.529 192.198 239.699L203.967 250.538C205.085 249.325 206.146 247.898 206.928 246.241L192.46 239.409ZM192.113 239.793L188.269 244.102L200.208 254.753L204.052 250.444L192.113 239.793ZM194.238 257.428H200.252V241.428H194.238V257.428ZM192.252 249.428V253.303H208.252V249.428H192.252ZM200.252 245.303H187.48V261.303H200.252V245.303ZM195.48 253.303V249.769H179.48V253.303H195.48ZM193.334 255.221L199.224 248.897L187.516 237.992L181.626 244.316L193.334 255.221ZM199.207 248.916C200.02 248.048 201.143 246.731 201.893 245.081L187.327 238.46C187.434 238.226 187.531 238.056 187.594 237.954C187.658 237.85 187.703 237.787 187.717 237.768C187.739 237.738 187.693 237.804 187.534 237.973L199.207 248.916ZM201.893 245.081C202.712 243.28 202.92 241.496 202.92 240.066H186.92C186.92 239.999 186.922 239.352 187.327 238.46L201.893 245.081ZM202.92 240.066V237.958H186.92V240.066H202.92ZM202.92 237.958C202.92 236.368 202.46 233.486 199.856 231.316L189.613 243.607C187.257 241.644 186.92 239.093 186.92 237.958H202.92ZM200.391 231.805C198.133 229.547 195.43 229.276 194.145 229.276V245.276C193.398 245.276 191.087 245.128 189.077 243.118L200.391 231.805ZM194.145 229.276H193.525V245.276H194.145V229.276ZM193.525 229.276C192.241 229.276 189.537 229.547 187.279 231.805L198.593 243.118C196.583 245.128 194.272 245.276 193.525 245.276V229.276ZM187.815 231.316C185.211 233.486 184.75 236.368 184.75 237.958H200.75C200.75 239.093 200.414 241.644 198.058 243.607L187.815 231.316ZM214.474 252.249L208.817 246.592L208.774 246.634L208.733 246.677L214.474 252.249ZM203.314 252.249L197.573 257.82L197.614 257.863L197.657 257.905L203.314 252.249ZM203.314 234.455L197.657 228.798L197.614 228.84L197.573 228.883L203.314 234.455ZM214.474 234.455L208.733 240.026L208.774 240.069L208.817 240.111L214.474 234.455ZM209.917 237.462L204.26 243.118L204.516 243.375L204.795 243.607L209.917 237.462ZM207.902 237.462L213.023 243.607L213.302 243.375L213.558 243.118L207.902 237.462ZM207.902 249.273L202.245 254.929L202.501 255.186L202.78 255.418L207.902 249.273ZM209.917 249.273L215.038 255.418L215.317 255.186L215.573 254.929L209.917 249.273ZM207.528 237.245V249.459H223.528V237.245H207.528ZM207.528 249.459C207.528 249.227 207.564 248.771 207.78 248.197C208.006 247.6 208.365 247.044 208.817 246.592L220.13 257.905C222.581 255.455 223.528 252.36 223.528 249.459H207.528ZM208.733 246.677C209.546 245.839 210.376 245.5 210.781 245.378C211.157 245.265 211.274 245.303 210.971 245.303V261.303C213.381 261.303 217.268 260.856 220.214 257.82L208.733 246.677ZM210.971 245.303H206.848V261.303H210.971V245.303ZM206.848 245.303C206.547 245.303 206.652 245.266 207.01 245.373C207.397 245.488 208.185 245.806 208.97 246.592L197.657 257.905C200.594 260.842 204.405 261.303 206.848 261.303V245.303ZM209.054 246.677C209.504 247.14 209.846 247.695 210.057 248.27C210.26 248.822 210.291 249.253 210.291 249.459H194.291C194.291 252.291 195.182 255.357 197.573 257.82L209.054 246.677ZM210.291 249.459V237.245H194.291V249.459H210.291ZM210.291 237.245C210.291 237.45 210.26 237.881 210.057 238.433C209.846 239.009 209.504 239.563 209.054 240.026L197.573 228.883C195.182 231.346 194.291 234.412 194.291 237.245H210.291ZM208.97 240.111C208.185 240.897 207.397 241.215 207.01 241.33C206.652 241.437 206.547 241.401 206.848 241.401V225.401C204.405 225.401 200.594 225.861 197.657 228.798L208.97 240.111ZM206.848 241.401H210.971V225.401H206.848V241.401ZM210.971 241.401C211.274 241.401 211.157 241.438 210.781 241.325C210.376 241.203 209.546 240.864 208.733 240.026L220.214 228.883C217.268 225.847 213.381 225.401 210.971 225.401V241.401ZM208.817 240.111C208.365 239.66 208.006 239.103 207.78 238.506C207.564 237.933 207.528 237.476 207.528 237.245H223.528C223.528 234.343 222.581 231.248 220.13 228.798L208.817 240.111ZM218.103 248.746V237.958H202.103V248.746H218.103ZM218.103 237.958C218.103 236.368 217.642 233.486 215.038 231.316L204.795 243.607C202.439 241.644 202.103 239.093 202.103 237.958H218.103ZM215.573 231.805C213.315 229.547 210.612 229.276 209.328 229.276V245.276C208.581 245.276 206.27 245.128 204.26 243.118L215.573 231.805ZM209.328 229.276H208.491V245.276H209.328V229.276ZM208.491 229.276C207.206 229.276 204.503 229.547 202.245 231.805L213.558 243.118C211.548 245.128 209.238 245.276 208.491 245.276V229.276ZM202.78 231.316C200.176 233.486 199.716 236.368 199.716 237.958H215.716C215.716 239.093 215.379 241.644 213.023 243.607L202.78 231.316ZM199.716 237.958V248.746H215.716V237.958H199.716ZM199.716 248.746C199.716 250.439 200.213 252.897 202.245 254.929L213.558 243.616C215.342 245.4 215.716 247.507 215.716 248.746H199.716ZM202.78 255.418C205.028 257.292 207.497 257.428 208.491 257.428V241.428C208.836 241.428 209.437 241.457 210.178 241.652C210.929 241.85 211.985 242.261 213.023 243.127L202.78 255.418ZM208.491 257.428H209.328V241.428H208.491V257.428ZM209.328 257.428C210.321 257.428 212.79 257.292 215.038 255.418L204.795 243.127C205.834 242.261 206.889 241.85 207.64 241.652C208.381 241.457 208.982 241.428 209.328 241.428V257.428ZM215.573 254.929C217.605 252.897 218.103 250.439 218.103 248.746H202.103C202.103 247.507 202.476 245.4 204.26 243.616L215.573 254.929ZM222.812 240.221V248.221H230.812V240.221H222.812ZM217.387 240.221H209.387V248.221H217.387V240.221ZM218.41 234.455L212.753 228.798L212.711 228.84L212.669 228.883L218.41 234.455ZM229.229 234.455L223.572 240.111L223.613 240.152L223.655 240.193L229.229 234.455ZM229.756 242.825L222.6 239.247L222.56 239.327L222.522 239.409L229.756 242.825ZM228.144 245.119L222.259 239.699L222.216 239.746L222.174 239.793L228.144 245.119ZM224.3 249.428L218.33 244.102L206.442 257.428H224.3V249.428ZM230.314 249.428H238.314V241.428H230.314V249.428ZM230.314 253.303V261.303H238.314V253.303H230.314ZM217.542 253.303H209.542V261.303H217.542V253.303ZM217.542 249.769L211.688 244.316L209.542 246.62V249.769H217.542ZM223.432 243.445L217.596 237.973L217.587 237.983L217.578 237.992L223.432 243.445ZM224.672 241.771L231.955 245.081L231.955 245.081L224.672 241.771ZM224.796 237.462L219.139 243.118L219.396 243.375L219.674 243.607L224.796 237.462ZM222.998 237.462L228.119 243.607L228.398 243.375L228.655 243.118L222.998 237.462ZM214.812 237.958V240.221H230.812V237.958H214.812ZM222.812 232.221H217.387V248.221H222.812V232.221ZM225.387 240.221V237.245H209.387V240.221H225.387ZM225.387 237.245C225.387 237.45 225.356 237.881 225.154 238.433C224.943 239.009 224.6 239.563 224.15 240.026L212.669 228.883C210.279 231.346 209.387 234.412 209.387 237.245H225.387ZM224.067 240.111C223.281 240.897 222.493 241.215 222.107 241.33C221.748 241.437 221.643 241.401 221.944 241.401V225.401C219.501 225.401 215.69 225.861 212.753 228.798L224.067 240.111ZM221.944 241.401H225.695V225.401H221.944V241.401ZM225.695 241.401C225.996 241.401 225.89 241.437 225.532 241.33C225.146 241.215 224.357 240.897 223.572 240.111L234.886 228.798C231.949 225.861 228.137 225.401 225.695 225.401V241.401ZM223.655 240.193C223.202 239.753 222.826 239.196 222.587 238.579C222.355 237.984 222.314 237.502 222.314 237.245H238.314C238.314 234.273 237.31 231.152 234.803 228.716L223.655 240.193ZM222.314 237.245V240.097H238.314V237.245H222.314ZM222.314 240.097C222.314 240.28 222.279 239.89 222.6 239.247L236.911 246.402C237.977 244.272 238.314 242.063 238.314 240.097H222.314ZM222.522 239.409C222.566 239.316 222.584 239.299 222.544 239.357C222.503 239.414 222.416 239.529 222.259 239.699L234.028 250.538C235.146 249.325 236.207 247.898 236.99 246.241L222.522 239.409ZM222.174 239.793L218.33 244.102L230.27 254.753L234.114 250.444L222.174 239.793ZM224.3 257.428H230.314V241.428H224.3V257.428ZM222.314 249.428V253.303H238.314V249.428H222.314ZM230.314 245.303H217.542V261.303H230.314V245.303ZM225.542 253.303V249.769H209.542V253.303H225.542ZM223.396 255.221L229.286 248.897L217.578 237.992L211.688 244.316L223.396 255.221ZM229.268 248.916C230.082 248.048 231.205 246.731 231.955 245.081L217.389 238.46C217.495 238.226 217.593 238.056 217.655 237.954C217.719 237.85 217.765 237.787 217.778 237.768C217.801 237.738 217.754 237.804 217.596 237.973L229.268 248.916ZM231.955 245.081C232.773 243.28 232.982 241.496 232.982 240.066H216.982C216.982 239.999 216.984 239.352 217.389 238.46L231.955 245.081ZM232.982 240.066V237.958H216.982V240.066H232.982ZM232.982 237.958C232.982 236.368 232.521 233.486 229.917 231.316L219.674 243.607C217.319 241.644 216.982 239.093 216.982 237.958H232.982ZM230.453 231.805C228.195 229.547 225.491 229.276 224.207 229.276V245.276C223.46 245.276 221.149 245.128 219.139 243.118L230.453 231.805ZM224.207 229.276H223.587V245.276H224.207V229.276ZM223.587 229.276C222.303 229.276 219.599 229.547 217.341 231.805L228.655 243.118C226.645 245.128 224.334 245.276 223.587 245.276V229.276ZM217.876 231.316C215.273 233.486 214.812 236.368 214.812 237.958H230.812C230.812 239.093 230.475 241.644 228.119 243.607L217.876 231.316ZM237.87 246.328H245.87V238.328H237.87V246.328ZM238.056 249.273L232.399 254.929L232.656 255.186L232.935 255.418L238.056 249.273ZM240.195 249.273L245.317 255.418L245.595 255.186L245.852 254.929L240.195 249.273ZM240.195 244.251L234.538 249.907L234.795 250.164L235.074 250.396L240.195 244.251ZM235.886 244.065H227.886V252.065H235.886V244.065ZM235.886 240.19V232.19H227.886V240.19H235.886ZM244.659 241.244L238.918 246.815L238.96 246.858L239.002 246.9L244.659 241.244ZM244.659 252.249L239.002 246.592L238.96 246.634L238.918 246.677L244.659 252.249ZM233.468 252.249L227.727 257.82L227.769 257.863L227.811 257.905L233.468 252.249ZM232.445 246.328V238.328H224.445V246.328H232.445ZM238.025 244.065V252.065H246.025V244.065H238.025ZM232.693 244.065H224.693V252.065H232.693V244.065ZM232.693 233.401V225.401H224.693V233.401H232.693ZM245.403 233.401H253.403V225.401H245.403V233.401ZM245.403 237.276V245.276H253.403V237.276H245.403ZM238.025 237.276V229.276H230.025V237.276H238.025ZM229.87 246.328V248.746H245.87V246.328H229.87ZM229.87 248.746C229.87 250.439 230.367 252.897 232.399 254.929L243.713 243.616C245.497 245.4 245.87 247.507 245.87 248.746H229.87ZM232.935 255.418C235.182 257.292 237.652 257.428 238.645 257.428V241.428C238.991 241.428 239.592 241.457 240.332 241.652C241.083 241.85 242.139 242.261 243.178 243.127L232.935 255.418ZM238.645 257.428H239.606V241.428H238.645V257.428ZM239.606 257.428C240.599 257.428 243.069 257.292 245.317 255.418L235.074 243.127C236.112 242.261 237.168 241.85 237.919 241.652C238.659 241.457 239.26 241.428 239.606 241.428V257.428ZM245.852 254.929C247.884 252.897 248.381 250.439 248.381 248.746H232.381C232.381 247.507 232.754 245.4 234.538 243.616L245.852 254.929ZM248.381 248.746V244.747H232.381V248.746H248.381ZM248.381 244.747C248.381 243.157 247.92 240.275 245.317 238.105L235.074 250.396C232.718 248.433 232.381 245.882 232.381 244.747H248.381ZM245.852 238.594C243.594 236.336 240.89 236.065 239.606 236.065V252.065C238.859 252.065 236.548 251.917 234.538 249.907L245.852 238.594ZM239.606 236.065H235.886V252.065H239.606V236.065ZM243.886 244.065V240.19H227.886V244.065H243.886ZM235.886 248.19H241.156V232.19H235.886V248.19ZM241.156 248.19C241.46 248.19 241.343 248.227 240.967 248.114C240.562 247.992 239.732 247.653 238.918 246.815L250.4 235.672C247.453 232.636 243.566 232.19 241.156 232.19V248.19ZM239.002 246.9C238.55 246.449 238.191 245.892 237.966 245.295C237.749 244.722 237.713 244.265 237.713 244.034H253.713C253.713 241.132 252.766 238.037 250.316 235.587L239.002 246.9ZM237.713 244.034V249.459H253.713V244.034H237.713ZM237.713 249.459C237.713 249.227 237.749 248.771 237.966 248.197C238.191 247.6 238.55 247.044 239.002 246.592L250.316 257.905C252.766 255.455 253.713 252.36 253.713 249.459H237.713ZM238.918 246.677C239.732 245.839 240.562 245.5 240.967 245.378C241.343 245.265 241.46 245.303 241.156 245.303V261.303C243.566 261.303 247.453 260.856 250.4 257.82L238.918 246.677ZM241.156 245.303H237.002V261.303H241.156V245.303ZM237.002 245.303C236.701 245.303 236.807 245.266 237.165 245.373C237.551 245.488 238.34 245.806 239.125 246.592L227.811 257.905C230.748 260.842 234.56 261.303 237.002 261.303V245.303ZM239.209 246.677C239.658 247.14 240.001 247.695 240.212 248.27C240.414 248.822 240.445 249.253 240.445 249.459H224.445C224.445 252.291 225.337 255.357 227.727 257.82L239.209 246.677ZM240.445 249.459V246.328H224.445V249.459H240.445ZM232.445 254.328H237.87V238.328H232.445V254.328ZM238.025 236.065H232.693V252.065H238.025V236.065ZM240.693 244.065V233.401H224.693V244.065H240.693ZM232.693 241.401H245.403V225.401H232.693V241.401ZM237.403 233.401V237.276H253.403V233.401H237.403ZM245.403 229.276H238.025V245.276H245.403V229.276ZM230.025 237.276V244.065H246.025V237.276H230.025Z" fill="black" mask="url(#path-5-outside-2_203_905)"/>
</svg>
