<svg width="605" height="345" viewBox="0 0 605 345" fill="none" xmlns="http://www.w3.org/2000/svg">
<path d="M464.182 28.1541L448.224 24.1826L431.74 90.1725L447.698 94.144L464.182 28.1541Z" fill="#800016"/>
<path fill-rule="evenodd" clip-rule="evenodd" d="M492.621 124.659L377.721 96.0649L370.024 83.272L382.839 75.5854L497.739 104.18V104.18L505.44 116.972L492.621 124.659Z" fill="#800016"/>
<path d="M480.621 29.7072L462.738 0L432.976 17.8499L450.859 47.557L480.621 29.7072Z" fill="#800016"/>
<path d="M454.418 115.151L415.662 105.506L361.89 320.775L400.645 330.42L454.418 115.151Z" fill="#800016"/>
<path d="M454.684 115.218L441.006 111.814L387.233 327.083L400.912 330.487L454.684 115.218Z" fill="#680717" fill-opacity="0.91"/>
<path d="M386.249 306.221L361.98 320.776L376.563 345L400.831 330.445L386.249 306.221Z" fill="#800016"/>
<path d="M400.83 330.446L376.622 344.965L381.45 325.623L386.283 306.281L400.83 330.446Z" fill="#800016"/>
<path d="M20.4072 149.842H66.0586C81.2241 149.842 88.8069 156.226 88.8069 168.995V229.853C88.8069 242.622 81.2241 249.007 66.0586 249.007H20.4072V149.842ZM61.7256 227.845V171.003C61.7256 168.738 60.436 167.605 57.8568 167.605H47.4885V231.244H57.8568C60.436 231.244 61.7256 230.111 61.7256 227.845ZM121.97 171.93H140.849C156.015 171.93 163.597 178.314 163.597 191.083V217.342H124.136V227.537C124.136 229.802 125.426 230.935 128.005 230.935H134.814C137.393 230.935 138.683 229.699 138.683 227.228V222.903H163.597V229.853C163.597 242.622 156.015 249.007 140.849 249.007H121.97C106.804 249.007 99.2213 242.622 99.2213 229.853V191.083C99.2213 178.314 106.804 171.93 121.97 171.93ZM124.136 203.131H138.683V193.4C138.683 191.135 137.393 190.002 134.814 190.002H128.005C125.426 190.002 124.136 191.135 124.136 193.4V203.131ZM193.573 171.93L203.013 221.358L212.298 171.93H238.45L218.642 249.007H187.228L167.42 171.93H193.573ZM266.922 249.007C251.757 249.007 244.174 242.622 244.174 229.853V168.995C244.174 156.226 251.757 149.842 266.922 149.842H289.825C304.991 149.842 312.574 156.226 312.574 168.995V229.853C312.574 236.238 310.665 241.026 306.848 244.218L321.24 259.51H290.444L280.695 249.007H266.922ZM271.255 172.548V226.301C271.255 228.566 272.545 229.699 275.124 229.699H281.624C284.203 229.699 285.492 228.566 285.492 226.301V172.548C285.492 170.282 284.203 169.15 281.624 169.15H275.124C272.545 169.15 271.255 170.282 271.255 172.548ZM360.643 171.93H386.948V249.007H361.107V239.121C359.662 245.712 354.968 249.007 347.025 249.007H344.239C330.518 249.007 323.657 242.622 323.657 229.853V171.93H349.965V226.301C349.965 228.566 351.254 229.699 353.834 229.699H356.464C359.25 229.699 360.643 228.154 360.643 225.065V171.93ZM420.591 171.93H439.468C454.636 171.93 462.215 178.314 462.215 191.083V217.342H422.754V227.537C422.754 229.802 424.043 230.935 426.622 230.935H433.432C436.011 230.935 437.301 229.699 437.301 227.228V222.903H462.215V229.853C462.215 242.622 454.636 249.007 439.468 249.007H420.591C405.423 249.007 397.84 242.622 397.84 229.853V191.083C397.84 178.314 405.423 171.93 420.591 171.93ZM422.754 203.131H437.301V193.4C437.301 191.135 436.011 190.002 433.432 190.002H426.622C424.043 190.002 422.754 191.135 422.754 193.4V203.131ZM505.5 228.618V222.439C505.5 220.174 504.21 219.041 501.631 219.041H492.192C477.337 219.041 469.907 212.708 469.907 200.042V191.083C469.907 178.314 477.491 171.93 492.658 171.93H507.047C522.215 171.93 529.798 178.314 529.798 191.083V197.571H504.726V192.319C504.726 190.054 503.436 188.921 500.857 188.921H499.31C496.731 188.921 495.441 190.054 495.441 192.319V199.115C495.441 201.381 496.731 202.514 499.31 202.514H508.753C516.694 202.514 522.368 204.161 525.776 207.456C529.282 210.649 531.034 215.282 531.034 221.358V229.853C531.034 242.622 523.454 249.007 508.287 249.007H493.12C477.957 249.007 470.373 242.622 470.373 229.853V223.52H495.907V228.618C495.907 230.883 497.197 232.016 499.776 232.016H501.631C504.21 232.016 505.5 230.883 505.5 228.618ZM580.296 191.238H570.545V226.301C570.545 228.566 571.834 229.699 574.413 229.699H580.137V249.007H566.984C551.821 249.007 544.237 242.622 544.237 229.853V191.238H535.726V171.93H544.237V156.793H570.545V171.93H580.296V191.238Z" fill="#F1DDB6"/>
<mask id="mask0_735_1240" style="mask-type:luminance" maskUnits="userSpaceOnUse" x="0" y="129" width="601" height="152">
<path d="M600.902 129.321H0V280.17H600.902V129.321Z" fill="white"/>
<path d="M20.4072 149.842H66.0586C81.2241 149.842 88.8069 156.226 88.8069 168.995V229.853C88.8069 242.622 81.2241 249.007 66.0586 249.007H20.4072V149.842ZM61.7256 227.845V171.003C61.7256 168.738 60.436 167.605 57.8568 167.605H47.4885V231.244H57.8568C60.436 231.244 61.7256 230.111 61.7256 227.845ZM121.97 171.93H140.849C156.015 171.93 163.597 178.314 163.597 191.083V217.342H124.136V227.537C124.136 229.802 125.426 230.935 128.005 230.935H134.814C137.393 230.935 138.683 229.699 138.683 227.228V222.903H163.597V229.853C163.597 242.622 156.015 249.007 140.849 249.007H121.97C106.804 249.007 99.2213 242.622 99.2213 229.853V191.083C99.2213 178.314 106.804 171.93 121.97 171.93ZM124.136 203.131H138.683V193.4C138.683 191.135 137.393 190.002 134.814 190.002H128.005C125.426 190.002 124.136 191.135 124.136 193.4V203.131ZM193.573 171.93L203.013 221.358L212.298 171.93H238.45L218.642 249.007H187.228L167.42 171.93H193.573ZM266.922 249.007C251.757 249.007 244.174 242.622 244.174 229.853V168.995C244.174 156.226 251.757 149.842 266.922 149.842H289.825C304.991 149.842 312.574 156.226 312.574 168.995V229.853C312.574 236.238 310.665 241.026 306.848 244.218L321.24 259.51H290.444L280.695 249.007H266.922ZM271.255 172.548V226.301C271.255 228.566 272.545 229.699 275.124 229.699H281.624C284.203 229.699 285.492 228.566 285.492 226.301V172.548C285.492 170.282 284.203 169.15 281.624 169.15H275.124C272.545 169.15 271.255 170.282 271.255 172.548ZM360.643 171.93H386.948V249.007H361.107V239.121C359.662 245.712 354.968 249.007 347.025 249.007H344.239C330.518 249.007 323.657 242.622 323.657 229.853V171.93H349.965V226.301C349.965 228.566 351.254 229.699 353.834 229.699H356.464C359.25 229.699 360.643 228.154 360.643 225.065V171.93ZM420.591 171.93H439.468C454.636 171.93 462.215 178.314 462.215 191.083V217.342H422.754V227.537C422.754 229.802 424.043 230.935 426.622 230.935H433.432C436.011 230.935 437.301 229.699 437.301 227.228V222.903H462.215V229.853C462.215 242.622 454.636 249.007 439.468 249.007H420.591C405.423 249.007 397.84 242.622 397.84 229.853V191.083C397.84 178.314 405.423 171.93 420.591 171.93ZM422.754 203.131H437.301V193.4C437.301 191.135 436.011 190.002 433.432 190.002H426.622C424.043 190.002 422.754 191.135 422.754 193.4V203.131ZM505.5 228.618V222.439C505.5 220.174 504.21 219.041 501.631 219.041H492.192C477.337 219.041 469.907 212.708 469.907 200.042V191.083C469.907 178.314 477.491 171.93 492.658 171.93H507.047C522.215 171.93 529.798 178.314 529.798 191.083V197.571H504.726V192.319C504.726 190.054 503.436 188.921 500.857 188.921H499.31C496.731 188.921 495.441 190.054 495.441 192.319V199.115C495.441 201.381 496.731 202.514 499.31 202.514H508.753C516.694 202.514 522.368 204.161 525.776 207.456C529.282 210.649 531.034 215.282 531.034 221.358V229.853C531.034 242.622 523.454 249.007 508.287 249.007H493.12C477.957 249.007 470.373 242.622 470.373 229.853V223.52H495.907V228.618C495.907 230.883 497.197 232.016 499.776 232.016H501.631C504.21 232.016 505.5 230.883 505.5 228.618ZM580.296 191.238H570.545V226.301C570.545 228.566 571.834 229.699 574.413 229.699H580.137V249.007H566.984C551.821 249.007 544.237 242.622 544.237 229.853V191.238H535.726V171.93H544.237V156.793H570.545V171.93H580.296V191.238Z" fill="black"/>
</mask>
<g mask="url(#mask0_735_1240)">
<path d="M20.4068 149.842V129.518H0.0449219V149.842H20.4068ZM20.4068 249.007H0.0449219V269.331H20.4068V249.007ZM47.4881 167.605V147.281H27.1262V167.605H47.4881ZM47.4881 231.243H27.1262V251.567H47.4881V231.243ZM20.4068 170.166H66.0582V129.518H20.4068V170.166ZM66.0582 170.166C68.4848 170.166 69.8731 170.428 70.4988 170.604C71.0712 170.765 70.7002 170.762 69.9907 170.165C69.645 169.874 69.307 169.513 69.0147 169.103C68.7251 168.697 68.5468 168.335 68.4477 168.084C68.2581 167.605 68.4446 167.766 68.4446 168.995H109.168C109.168 158.485 105.884 147.208 96.248 139.095C87.2761 131.54 76.0142 129.518 66.0582 129.518V170.166ZM68.4446 168.995V229.853H109.168V168.995H68.4446ZM68.4446 229.853C68.4446 231.081 68.2581 231.243 68.4477 230.763C68.5468 230.513 68.7251 230.151 69.0147 229.744C69.307 229.335 69.645 228.974 69.9907 228.683C70.7002 228.086 71.0712 228.083 70.4988 228.244C69.8731 228.42 68.4848 228.683 66.0582 228.683V269.331C76.0142 269.331 87.2761 267.307 96.248 259.753C105.884 251.64 109.168 240.363 109.168 229.853H68.4446ZM66.0582 228.683H20.4068V269.331H66.0582V228.683ZM40.7687 249.007V149.842H0.0449219V249.007H40.7687ZM82.087 227.845V171.003H41.3633V227.845H82.087ZM82.087 171.003C82.087 166.015 80.5472 158.763 74.2097 153.196C68.3686 148.066 61.6903 147.281 57.8564 147.281V187.929C56.6016 187.929 51.8578 187.709 47.3062 183.712C42.2583 179.278 41.3633 173.726 41.3633 171.003H82.087ZM57.8564 147.281H47.4881V187.929H57.8564V147.281ZM27.1262 167.605V231.243H67.85V167.605H27.1262ZM47.4881 251.567H57.8564V210.919H47.4881V251.567ZM57.8564 251.567C61.6903 251.567 68.3686 250.782 74.2097 245.651C80.5472 240.084 82.087 232.833 82.087 227.845H41.3633C41.3633 225.122 42.2583 219.57 47.3062 215.136C51.8578 211.138 56.6016 210.919 57.8564 210.919V251.567ZM163.597 217.342V237.666H183.959V217.342H163.597ZM124.136 217.342V197.018H103.774V217.342H124.136ZM138.682 222.902V202.578H118.32V222.902H138.682ZM163.597 222.902H183.959V202.578H163.597V222.902ZM124.136 203.131H103.774V223.455H124.136V203.131ZM138.682 203.131V223.455H159.044V203.131H138.682ZM121.969 192.254H140.849V151.606H121.969V192.254ZM140.849 192.254C143.275 192.254 144.663 192.516 145.289 192.692C145.861 192.853 145.49 192.85 144.781 192.253C144.435 191.962 144.097 191.602 143.805 191.192C143.515 190.785 143.337 190.423 143.238 190.173C143.048 189.693 143.235 189.855 143.235 191.083H183.959C183.959 180.573 180.674 169.296 171.039 161.183C162.067 153.629 150.804 151.606 140.849 151.606V192.254ZM143.235 191.083V217.342H183.959V191.083H143.235ZM163.597 197.018H124.136V237.666H163.597V197.018ZM103.774 217.342V227.536H144.498V217.342H103.774ZM103.774 227.536C103.774 232.524 105.313 239.775 111.651 245.342C117.492 250.473 124.171 251.259 128.004 251.259V210.61C129.259 210.61 134.003 210.83 138.554 214.827C143.603 219.261 144.498 224.813 144.498 227.536H103.774ZM128.004 251.259H134.813V210.61H128.004V251.259ZM134.813 251.259C139.038 251.259 145.983 250.259 151.816 244.669C157.804 238.931 159.044 231.812 159.044 227.227H118.32C118.32 225.114 118.915 219.848 123.614 215.346C128.157 210.992 133.167 210.61 134.813 210.61V251.259ZM159.044 227.227V222.902H118.32V227.227H159.044ZM138.682 243.226H163.597V202.578H138.682V243.226ZM143.235 222.902V229.853H183.959V222.902H143.235ZM143.235 229.853C143.235 231.081 143.048 231.243 143.238 230.763C143.337 230.513 143.515 230.151 143.805 229.744C144.097 229.335 144.435 228.974 144.781 228.683C145.49 228.086 145.861 228.083 145.289 228.244C144.663 228.42 143.275 228.683 140.849 228.683V269.331C150.804 269.331 162.067 267.307 171.039 259.753C180.674 251.64 183.959 240.363 183.959 229.853H143.235ZM140.849 228.683H121.969V269.331H140.849V228.683ZM121.969 228.683C119.542 228.683 118.154 228.42 117.528 228.244C116.956 228.083 117.327 228.086 118.037 228.683C118.382 228.974 118.72 229.335 119.012 229.744C119.302 230.151 119.48 230.513 119.58 230.763C119.769 231.243 119.583 231.081 119.583 229.853H78.859C78.859 240.363 82.1431 251.64 91.7788 259.753C100.751 267.307 112.013 269.331 121.969 269.331V228.683ZM119.583 229.853V191.083H78.859V229.853H119.583ZM119.583 191.083C119.583 189.855 119.769 189.693 119.58 190.173C119.48 190.423 119.302 190.785 119.012 191.192C118.72 191.602 118.382 191.962 118.037 192.253C117.327 192.85 116.956 192.853 117.528 192.692C118.154 192.516 119.542 192.254 121.969 192.254V151.606C112.013 151.606 100.751 153.629 91.7788 161.183C82.1431 169.296 78.859 180.573 78.859 191.083H119.583ZM124.136 223.455H138.682V182.807H124.136V223.455ZM159.044 203.131V193.4H118.32V203.131H159.044ZM159.044 193.4C159.044 188.412 157.504 181.16 151.166 175.594C145.326 170.463 138.647 169.678 134.813 169.678V210.326C133.559 210.326 128.814 210.106 124.263 206.109C119.215 201.675 118.32 196.123 118.32 193.4H159.044ZM134.813 169.678H128.004V210.326H134.813V169.678ZM128.004 169.678C124.171 169.678 117.492 170.463 111.651 175.594C105.313 181.16 103.774 188.412 103.774 193.4H144.498C144.498 196.123 143.603 201.675 138.554 206.109C134.003 210.106 129.259 210.326 128.004 210.326V169.678ZM103.774 193.4V203.131H144.498V193.4H103.774ZM193.572 171.93L213.574 168.124L210.419 151.606H193.572V171.93ZM203.012 221.358L183.01 225.163L223.025 225.103L203.012 221.358ZM212.297 171.93V151.606H195.398L192.284 168.184L212.297 171.93ZM238.45 171.93L258.173 176.98L264.694 151.606H238.45V171.93ZM218.642 249.007V269.331H234.44L238.365 254.056L218.642 249.007ZM187.228 249.007L167.504 254.056L171.43 269.331H187.228V249.007ZM167.42 171.93V151.606H141.175L147.696 176.98L167.42 171.93ZM173.571 175.735L183.01 225.163L223.014 217.552L213.574 168.124L173.571 175.735ZM223.025 225.103L232.31 175.675L192.284 168.184L182.999 217.612L223.025 225.103ZM212.297 192.254H238.45V151.606H212.297V192.254ZM218.727 166.879L198.919 243.956L238.365 254.056L258.173 176.98L218.727 166.879ZM218.642 228.683H187.228V269.331H218.642V228.683ZM206.951 243.956L187.143 166.879L147.696 176.98L167.504 254.056L206.951 243.956ZM167.42 192.254H193.572V151.606H167.42V192.254ZM306.847 244.218L293.771 228.639L277.25 242.455L292.007 258.133L306.847 244.218ZM321.239 259.51V279.834H368.304L336.08 245.594L321.239 259.51ZM290.444 259.51L275.507 273.323L281.551 279.834H290.444V259.51ZM280.695 249.007L295.631 235.194L289.587 228.683H280.695V249.007ZM266.922 228.683C264.495 228.683 263.107 228.42 262.481 228.244C261.909 228.083 262.28 228.086 262.989 228.683C263.335 228.974 263.673 229.335 263.965 229.744C264.255 230.151 264.433 230.513 264.532 230.763C264.722 231.243 264.535 231.081 264.535 229.853H223.812C223.812 240.363 227.096 251.64 236.731 259.753C245.704 267.307 256.966 269.331 266.922 269.331V228.683ZM264.535 229.853V168.995H223.812V229.853H264.535ZM264.535 168.995C264.535 167.766 264.722 167.605 264.532 168.084C264.433 168.335 264.255 168.697 263.965 169.103C263.673 169.513 263.335 169.874 262.989 170.165C262.28 170.762 261.909 170.765 262.481 170.604C263.107 170.428 264.495 170.166 266.922 170.166V129.518C256.966 129.518 245.704 131.54 236.731 139.095C227.096 147.208 223.812 158.485 223.812 168.995H264.535ZM266.922 170.166H289.825V129.518H266.922V170.166ZM289.825 170.166C292.251 170.166 293.639 170.428 294.266 170.604C294.838 170.765 294.466 170.762 293.757 170.165C293.411 169.874 293.073 169.513 292.781 169.103C292.492 168.697 292.314 168.335 292.214 168.084C292.024 167.605 292.211 167.766 292.211 168.995H332.935C332.935 158.485 329.65 147.208 320.015 139.095C311.043 131.54 299.78 129.518 289.825 129.518V170.166ZM292.211 168.995V229.853H332.935V168.995H292.211ZM292.211 229.853C292.211 231.066 292.026 231.212 292.222 230.72C292.324 230.463 292.506 230.098 292.798 229.692C293.091 229.281 293.429 228.925 293.771 228.639L319.924 259.797C329.608 251.698 332.935 240.407 332.935 229.853H292.211ZM292.007 258.133L306.398 273.425L336.08 245.594L321.688 230.303L292.007 258.133ZM321.239 239.186H290.444V279.834H321.239V239.186ZM305.38 245.697L295.631 235.194L265.758 262.819L275.507 273.323L305.38 245.697ZM280.695 228.683H266.922V269.331H280.695V228.683ZM250.893 172.548V226.301H291.617V172.548H250.893ZM250.893 226.301C250.893 231.289 252.432 238.54 258.77 244.107C264.611 249.237 271.29 250.023 275.124 250.023V209.375C276.378 209.375 281.122 209.594 285.673 213.591C290.722 218.026 291.617 223.578 291.617 226.301H250.893ZM275.124 250.023H281.623V209.375H275.124V250.023ZM281.623 250.023C285.457 250.023 292.135 249.237 297.976 244.107C304.314 238.54 305.854 231.289 305.854 226.301H265.13C265.13 223.578 266.025 218.026 271.073 213.591C275.624 209.594 280.368 209.375 281.623 209.375V250.023ZM305.854 226.301V172.548H265.13V226.301H305.854ZM305.854 172.548C305.854 167.559 304.314 160.308 297.976 154.741C292.135 149.611 285.457 148.825 281.623 148.825V189.473C280.368 189.473 275.624 189.254 271.073 185.256C266.025 180.822 265.13 175.27 265.13 172.548H305.854ZM281.623 148.825H275.124V189.473H281.623V148.825ZM275.124 148.825C271.29 148.825 264.611 149.611 258.77 154.741C252.432 160.308 250.893 167.559 250.893 172.548H291.617C291.617 175.27 290.722 180.822 285.673 185.256C281.122 189.254 276.378 189.473 275.124 189.473V148.825ZM360.642 171.93V151.606H340.28V171.93H360.642ZM386.948 171.93H407.31V151.606H386.948V171.93ZM386.948 249.007V269.331H407.31V249.007H386.948ZM361.106 249.007H340.745V269.331H361.106V249.007ZM361.106 239.121H381.468L341.215 234.778L361.106 239.121ZM323.657 171.93V151.606H303.295V171.93H323.657ZM349.964 171.93H370.328V151.606H349.964V171.93ZM360.642 192.254H386.948V151.606H360.642V192.254ZM366.588 171.93V249.007H407.31V171.93H366.588ZM386.948 228.683H361.106V269.331H386.948V228.683ZM381.468 249.007V239.121H340.745V249.007H381.468ZM341.215 234.778C341.27 234.527 341.48 233.749 342.107 232.739C342.763 231.682 343.683 230.687 344.789 229.911C346.963 228.385 348.37 228.683 347.024 228.683V269.331C353.622 269.331 361.349 267.98 368.216 263.159C375.459 258.075 379.391 250.792 380.998 243.464L341.215 234.778ZM347.024 228.683H344.239V269.331H347.024V228.683ZM344.239 228.683C343.307 228.683 342.605 228.628 342.103 228.561C341.602 228.494 341.343 228.422 341.277 228.401C341.216 228.382 341.359 228.421 341.638 228.576C341.923 228.735 342.295 228.987 342.688 229.353C343.083 229.72 343.416 230.125 343.674 230.526C343.929 230.921 344.06 231.232 344.117 231.39C344.217 231.672 344.019 231.284 344.019 229.853H303.295C303.295 239.749 306.021 250.805 314.917 259.083C323.545 267.112 334.58 269.331 344.239 269.331V228.683ZM344.019 229.853V171.93H303.295V229.853H344.019ZM323.657 192.254H349.964V151.606H323.657V192.254ZM329.603 171.93V226.301H370.328V171.93H329.603ZM329.603 226.301C329.603 231.289 331.142 238.54 337.48 244.107C343.321 249.237 350 250.023 353.833 250.023V209.375C355.088 209.375 359.832 209.594 364.383 213.591C369.432 218.026 370.328 223.578 370.328 226.301H329.603ZM353.833 250.023H356.464V209.375H353.833V250.023ZM356.464 250.023C361.582 250.023 368.99 248.505 374.731 242.136C380.106 236.174 381.002 229.244 381.002 225.065H340.28C340.28 223.974 340.48 219.362 344.463 214.944C348.813 210.12 354.132 209.375 356.464 209.375V250.023ZM381.002 225.065V171.93H340.28V225.065H381.002ZM462.215 217.342V237.666H482.576V217.342H462.215ZM422.753 217.342V197.018H402.391V217.342H422.753ZM437.301 222.902V202.578H416.939V222.902H437.301ZM462.215 222.902H482.576V202.578H462.215V222.902ZM422.753 203.131H402.391V223.455H422.753V203.131ZM437.301 203.131V223.455H457.662V203.131H437.301ZM420.59 192.254H439.468V151.606H420.59V192.254ZM439.468 192.254C441.893 192.254 443.282 192.516 443.907 192.692C444.482 192.853 444.111 192.85 443.4 192.253C443.056 191.962 442.717 191.602 442.427 191.192C442.133 190.785 441.957 190.423 441.857 190.173C441.667 189.693 441.853 189.855 441.853 191.083H482.576C482.576 180.573 479.296 169.296 469.658 161.183C460.685 153.629 449.423 151.606 439.468 151.606V192.254ZM441.853 191.083V217.342H482.576V191.083H441.853ZM462.215 197.018H422.753V237.666H462.215V197.018ZM402.391 217.342V227.536H443.115V217.342H402.391ZM402.391 227.536C402.391 232.524 403.934 239.775 410.269 245.342C416.111 250.473 422.789 251.259 426.622 251.259V210.61C427.88 210.61 432.622 210.83 437.174 214.827C442.224 219.261 443.115 224.813 443.115 227.536H402.391ZM426.622 251.259H433.432V210.61H426.622V251.259ZM433.432 251.259C437.658 251.259 444.604 250.259 450.436 244.669C456.423 238.931 457.662 231.812 457.662 227.227H416.939C416.939 225.114 417.536 219.848 422.233 215.346C426.776 210.992 431.789 210.61 433.432 210.61V251.259ZM457.662 227.227V222.902H416.939V227.227H457.662ZM437.301 243.226H462.215V202.578H437.301V243.226ZM441.853 222.902V229.853H482.576V222.902H441.853ZM441.853 229.853C441.853 231.081 441.667 231.243 441.857 230.763C441.957 230.513 442.133 230.151 442.427 229.744C442.717 229.335 443.056 228.974 443.4 228.683C444.111 228.086 444.482 228.083 443.907 228.244C443.282 228.42 441.893 228.683 439.468 228.683V269.331C449.423 269.331 460.685 267.307 469.658 259.753C479.296 251.64 482.576 240.363 482.576 229.853H441.853ZM439.468 228.683H420.59V269.331H439.468V228.683ZM420.59 228.683C418.16 228.683 416.776 228.42 416.147 228.244C415.577 228.083 415.948 228.086 416.658 228.683C417.002 228.974 417.341 229.335 417.631 229.744C417.921 230.151 418.102 230.513 418.201 230.763C418.391 231.243 418.201 231.081 418.201 229.853H377.477C377.477 240.363 380.762 251.64 390.4 259.753C399.369 267.307 410.631 269.331 420.59 269.331V228.683ZM418.201 229.853V191.083H377.477V229.853H418.201ZM418.201 191.083C418.201 189.855 418.391 189.693 418.201 190.173C418.102 190.423 417.921 190.785 417.631 191.192C417.341 191.602 417.002 191.962 416.658 192.253C415.948 192.85 415.577 192.853 416.147 192.692C416.776 192.516 418.16 192.254 420.59 192.254V151.606C410.631 151.606 399.369 153.629 390.4 161.183C380.762 169.296 377.477 180.573 377.477 191.083H418.201ZM422.753 223.455H437.301V182.807H422.753V223.455ZM457.662 203.131V193.4H416.939V203.131H457.662ZM457.662 193.4C457.662 188.412 456.124 181.16 449.785 175.594C443.943 170.463 437.269 169.678 433.432 169.678V210.326C432.178 210.326 427.436 210.106 422.884 206.109C417.835 201.675 416.939 196.123 416.939 193.4H457.662ZM433.432 169.678H426.622V210.326H433.432V169.678ZM426.622 169.678C422.789 169.678 416.111 170.463 410.269 175.594C403.934 181.16 402.391 188.412 402.391 193.4H443.115C443.115 196.123 442.224 201.675 437.174 206.109C432.622 210.106 427.88 210.326 426.622 210.326V169.678ZM402.391 193.4V203.131H443.115V193.4H402.391ZM529.798 197.571V217.895H550.16V197.571H529.798ZM504.726 197.571H484.364V217.895H504.726V197.571ZM525.775 207.456L511.599 222.047L511.825 222.264L512.056 222.475L525.775 207.456ZM470.373 223.52V203.196H450.011V223.52H470.373ZM495.907 223.52H516.269V203.196H495.907V223.52ZM525.861 228.618V222.439H485.137V228.618H525.861ZM525.861 222.439C525.861 217.451 524.323 210.199 517.983 204.632C512.146 199.502 505.468 198.717 501.631 198.717V239.365C500.377 239.365 495.635 239.145 491.083 235.148C486.033 230.714 485.137 225.162 485.137 222.439H525.861ZM501.631 198.717H492.192V239.365H501.631V198.717ZM492.192 198.717C489.861 198.717 488.563 198.461 488.02 198.306C487.531 198.168 487.961 198.203 488.703 198.837C489.065 199.145 489.409 199.519 489.703 199.937C489.997 200.351 490.174 200.716 490.269 200.965C490.454 201.439 490.269 201.271 490.269 200.042H449.545C449.545 210.419 452.739 221.632 462.255 229.745C471.156 237.333 482.341 239.365 492.192 239.365V198.717ZM490.269 200.042V191.083H449.545V200.042H490.269ZM490.269 191.083C490.269 189.855 490.459 189.693 490.269 190.173C490.169 190.423 489.988 190.785 489.699 191.192C489.409 191.602 489.07 191.962 488.726 192.253C488.015 192.85 487.644 192.853 488.214 192.692C488.843 192.516 490.228 192.254 492.658 192.254V151.606C482.699 151.606 471.441 153.629 462.468 161.183C452.83 169.296 449.545 180.573 449.545 191.083H490.269ZM492.658 192.254H507.047V151.606H492.658V192.254ZM507.047 192.254C509.477 192.254 510.861 192.516 511.49 192.692C512.06 192.853 511.689 192.85 510.979 192.253C510.635 191.962 510.296 191.602 510.006 191.192C509.717 190.785 509.536 190.423 509.436 190.173C509.246 189.693 509.436 189.855 509.436 191.083H550.16C550.16 180.573 546.875 169.296 537.237 161.183C528.268 153.629 517.006 151.606 507.047 151.606V192.254ZM509.436 191.083V197.571H550.16V191.083H509.436ZM529.798 177.247H504.726V217.895H529.798V177.247ZM525.087 197.571V192.319H484.364V197.571H525.087ZM525.087 192.319C525.087 187.33 523.549 180.079 517.21 174.512C511.373 169.382 504.694 168.597 500.857 168.597V209.245C499.603 209.245 494.861 209.025 490.309 205.028C485.26 200.593 484.364 195.041 484.364 192.319H525.087ZM500.857 168.597H499.309V209.245H500.857V168.597ZM499.309 168.597C495.477 168.597 488.798 169.382 482.956 174.512C476.622 180.079 475.079 187.33 475.079 192.319H515.802C515.802 195.041 514.911 200.593 509.861 205.028C505.309 209.025 500.567 209.245 499.309 209.245V168.597ZM475.079 192.319V199.115H515.802V192.319H475.079ZM475.079 199.115C475.079 204.103 476.622 211.354 482.956 216.921C488.798 222.052 495.477 222.837 499.309 222.837V182.189C500.567 182.189 505.309 182.408 509.861 186.406C514.911 190.84 515.802 196.392 515.802 199.115H475.079ZM499.309 222.837H508.753V182.189H499.309V222.837ZM508.753 222.837C511.413 222.837 512.798 223.125 513.278 223.264C513.694 223.386 512.798 223.207 511.599 222.047L539.947 192.865C530.875 184.083 518.63 182.189 508.753 182.189V222.837ZM512.056 222.475C511.73 222.179 511.427 221.829 511.169 221.445C510.911 221.065 510.757 220.733 510.671 220.508C510.508 220.076 510.671 220.236 510.671 221.358H551.395C551.395 211.281 548.354 200.502 539.49 192.438L512.056 222.475ZM510.671 221.358V229.853H551.395V221.358H510.671ZM510.671 229.853C510.671 231.081 510.486 231.243 510.676 230.763C510.775 230.513 510.952 230.151 511.241 229.744C511.536 229.335 511.875 228.974 512.219 228.683C512.929 228.086 513.3 228.083 512.726 228.244C512.101 228.42 510.712 228.683 508.287 228.683V269.331C518.241 269.331 529.504 267.307 538.477 259.753C548.11 251.64 551.395 240.363 551.395 229.853H510.671ZM508.287 228.683H493.119V269.331H508.287V228.683ZM493.119 228.683C490.694 228.683 489.305 228.42 488.68 228.244C488.106 228.083 488.477 228.086 489.187 228.683C489.536 228.974 489.87 229.335 490.165 229.744C490.454 230.151 490.631 230.513 490.73 230.763C490.92 231.243 490.735 231.081 490.735 229.853H450.011C450.011 240.363 453.296 251.64 462.929 259.753C471.902 267.307 483.165 269.331 493.119 269.331V228.683ZM490.735 229.853V223.52H450.011V229.853H490.735ZM470.373 243.844H495.907V203.196H470.373V243.844ZM475.545 223.52V228.618H516.269V223.52H475.545ZM475.545 228.618C475.545 233.606 477.083 240.857 483.423 246.424C489.264 251.554 495.943 252.34 499.775 252.34V211.692C501.029 211.692 505.775 211.911 510.323 215.908C515.373 220.343 516.269 225.895 516.269 228.618H475.545ZM499.775 252.34H501.631V211.692H499.775V252.34ZM501.631 252.34C505.468 252.34 512.146 251.554 517.983 246.424C524.323 240.857 525.861 233.606 525.861 228.618H485.137C485.137 225.895 486.033 220.343 491.083 215.908C495.635 211.911 500.377 211.692 501.631 211.692V252.34ZM580.295 191.238V211.562H600.657V191.238H580.295ZM570.544 191.238V170.914H550.182V191.238H570.544ZM580.137 229.699H600.499V209.375H580.137V229.699ZM580.137 249.007V269.331H600.499V249.007H580.137ZM544.237 191.238H564.599V170.914H544.237V191.238ZM535.725 191.238H515.364V211.562H535.725V191.238ZM535.725 171.93V151.606H515.364V171.93H535.725ZM544.237 171.93V192.254H564.599V171.93H544.237ZM544.237 156.792V136.468H523.875V156.792H544.237ZM570.544 156.792H590.906V136.468H570.544V156.792ZM570.544 171.93H550.182V192.254H570.544V171.93ZM580.295 171.93H600.657V151.606H580.295V171.93ZM580.295 170.914H570.544V211.562H580.295V170.914ZM550.182 191.238V226.301H590.906V191.238H550.182ZM550.182 226.301C550.182 231.289 551.721 238.54 558.06 244.107C563.902 249.237 570.58 250.023 574.413 250.023V209.375C575.666 209.375 580.413 209.594 584.965 213.591C590.01 218.026 590.906 223.578 590.906 226.301H550.182ZM574.413 250.023H580.137V209.375H574.413V250.023ZM559.775 229.699V249.007H600.499V229.699H559.775ZM580.137 228.683H566.983V269.331H580.137V228.683ZM566.983 228.683C564.558 228.683 563.169 228.42 562.544 228.244C561.974 228.083 562.345 228.086 563.051 228.683C563.399 228.974 563.734 229.335 564.028 229.744C564.318 230.151 564.495 230.513 564.594 230.763C564.784 231.243 564.599 231.081 564.599 229.853H523.875C523.875 240.363 527.16 251.64 536.793 259.753C545.766 267.307 557.029 269.331 566.983 269.331V228.683ZM564.599 229.853V191.238H523.875V229.853H564.599ZM544.237 170.914H535.725V211.562H544.237V170.914ZM556.087 191.238V171.93H515.364V191.238H556.087ZM535.725 192.254H544.237V151.606H535.725V192.254ZM564.599 171.93V156.792H523.875V171.93H564.599ZM544.237 177.116H570.544V136.468H544.237V177.116ZM550.182 156.792V171.93H590.906V156.792H550.182ZM570.544 192.254H580.295V151.606H570.544V192.254ZM559.933 171.93V191.238H600.657V171.93H559.933Z" fill="#800016"/>
</g>
<path d="M507.372 295.665H515.481V328.14H507.879L500.63 311.093V328.14H492.521V295.665H500.123L507.372 313.015V295.665ZM519.544 295.665H528.413V328.14H519.544V295.665ZM539.757 295.665H547.259C552.227 295.665 554.707 297.755 554.707 301.937V321.867C554.707 326.049 552.227 328.14 547.259 328.14H539.757C534.793 328.14 532.309 326.049 532.309 321.867V301.937C532.309 297.755 534.793 295.665 539.757 295.665ZM545.838 320.704V303.1C545.838 302.358 545.417 301.988 544.571 301.988H542.444C541.598 301.988 541.177 302.358 541.177 303.1V320.704C541.177 321.446 541.598 321.817 542.444 321.817H544.571C545.417 321.817 545.838 321.446 545.838 320.704ZM567.462 316.606V328.14H558.594V295.665H573.643C578.612 295.665 581.091 297.755 581.091 301.937V310.334C581.091 313.537 579.639 315.51 576.734 316.252L582.716 328.14H573.186L568.019 316.606H567.462ZM570.955 301.988H567.462V310.587H570.955C571.802 310.587 572.222 310.216 572.222 309.474V303.1C572.222 302.358 571.802 301.988 570.955 301.988ZM604.236 295.665V301.988H597.951V328.14H589.082V301.988H582.851V295.665H604.236Z" fill="#800016"/>
</svg>
