<svg width="294" height="323" viewBox="0 0 294 323" fill="none" xmlns="http://www.w3.org/2000/svg">
<path d="M113.432 123.098V167.098C113.432 168.85 112.436 169.727 110.443 169.727H102.434V120.469H110.443C112.436 120.469 113.432 121.343 113.432 123.098Z" fill="#800016"/>
<path d="M172.892 147.968H161.653V140.434C161.653 138.683 162.649 137.805 164.642 137.805H169.903C171.896 137.805 172.892 138.679 172.892 140.434V147.968Z" fill="#800016"/>
<path d="M38.6389 240.371V198.762C38.6389 197.01 39.6353 196.133 41.628 196.133H46.6483C48.641 196.133 49.6374 197.007 49.6374 198.762V240.371C49.6374 242.123 48.641 243 46.6483 243H41.628C39.6353 243 38.6389 242.126 38.6389 240.371Z" fill="#800016"/>
<path d="M166.932 222.433H155.692V214.899C155.692 213.148 156.688 212.27 158.681 212.27H163.943C165.935 212.27 166.932 213.144 166.932 214.899V222.433Z" fill="#800016"/>
<path fill-rule="evenodd" clip-rule="evenodd" d="M213.457 82.4602L240.663 89.2459L249.161 84.1383L244.054 75.6395L206.643 66.3122L215.974 28.9049L228.72 21.2452L215.953 0L194.711 12.7639L202.367 25.5103L193.04 62.921L155.629 53.5937L147.134 58.7014L152.238 67.1967L179.448 73.9824L170.942 108.086H160.045C156.192 108.086 152.088 108.477 148.078 109.607C146.523 105.502 143.995 101.629 140.174 98.402C133.241 92.5532 124.54 90.987 116.848 90.987H65.8453V167.217C61.5767 165.903 57.1682 165.455 53.0499 165.455H35.3532C16.6985 164.976 1.79155 176.705 2.04326 196.01V243.119C1.78806 262.441 16.716 274.153 35.3497 273.678H39.1184L46.6522 281.809H113.681L106.042 273.678H168.663C175.42 273.678 182.958 272.468 189.391 268.21C195.823 272.468 203.361 273.678 210.118 273.678H221.837C229.29 273.678 237.691 272.206 244.512 266.794C251.333 272.206 259.734 273.678 267.187 273.678H293.082L293.201 182.551H285.67V170.832H254.22L270.316 108.086H207.066L213.457 82.4602ZM116.782 106.719H81.5104V183.481H116.782C128.497 183.481 134.356 178.537 134.356 168.654V121.546C134.356 111.662 128.5 106.719 116.782 106.719ZM174.564 123.818H159.978V123.814C148.263 123.814 142.404 128.758 142.404 138.641V168.651C142.404 178.534 148.26 183.477 159.978 183.477H174.564C186.279 183.477 192.138 178.534 192.138 168.651V163.27H172.889V166.619C172.889 168.532 171.893 169.49 169.9 169.49H164.638C162.646 169.49 161.649 168.616 161.649 166.861V158.97H192.138V138.644C192.138 128.761 186.282 123.818 174.564 123.818ZM222.595 162.078L215.302 123.818H195.092L210.398 183.481H234.67L249.976 123.818H229.769L222.595 162.078ZM17.7154 243.119C17.7154 253.002 23.5712 257.946 35.2898 257.946H45.9316L53.4655 266.077H77.2593L66.1385 254.24C69.0856 251.768 70.5609 248.062 70.5609 243.119V196.01C70.5609 186.127 64.7051 181.184 52.9865 181.184H35.2898C23.5747 181.184 17.7154 186.127 17.7154 196.01V243.119ZM128.028 198.283H107.702L107.699 198.279V239.41C107.699 241.801 106.626 242.997 104.472 242.997H102.441C100.448 242.997 99.4519 242.123 99.4519 240.368V198.283H79.1261V243.119C79.1261 253.002 84.4296 257.946 95.0295 257.946H97.183C103.318 257.946 106.947 255.393 108.063 250.293V257.946H128.028V198.283ZM168.603 198.283H154.018V198.279C142.302 198.279 136.443 203.223 136.443 213.106V243.115C136.443 252.999 142.299 257.942 154.018 257.942H168.603C180.318 257.942 186.177 252.999 186.177 243.115V237.735H166.928V241.084C166.928 242.997 165.932 243.955 163.939 243.955H158.678C156.685 243.955 155.689 243.081 155.689 241.326V233.435H186.177V213.109C186.177 203.226 180.321 198.283 168.603 198.283ZM219.623 237.379V242.158C219.623 243.909 218.627 244.787 216.634 244.787H215.201C213.208 244.787 212.212 243.913 212.212 242.158V238.211H192.484V243.112C192.484 252.995 198.34 257.939 210.058 257.939H221.777C233.492 257.939 239.351 252.995 239.351 243.112V236.536C239.351 231.834 237.995 228.247 235.286 225.775C232.657 223.227 228.273 221.951 222.134 221.951H214.841C212.848 221.951 211.852 221.077 211.852 219.322V214.06C211.852 212.309 212.848 211.431 214.841 211.431H216.037C218.029 211.431 219.026 212.305 219.026 214.06V218.126H238.393V213.106C238.393 203.223 232.538 198.279 220.819 198.279H209.698C197.983 198.279 192.124 203.223 192.124 213.106V220.042C192.124 229.848 197.864 234.75 209.342 234.75H216.634C218.627 234.75 219.623 235.624 219.623 237.379ZM269.875 213.228H277.409V198.279H269.875V186.561H249.549V198.279H242.973V213.225H249.549V243.115C249.549 252.999 255.405 257.942 267.124 257.942H277.287V242.997H272.864C270.871 242.997 269.875 242.123 269.875 240.368V213.228Z" fill="#800016"/>
<path d="M127.637 281.778H152.923L152.923 281.778L152.924 281.778H163.761L157.493 306.921L157.492 306.92L157.493 306.921L136.247 319.688L123.483 298.443L127.637 281.778Z" fill="#800016"/>
<mask id="path-3-outside-1_731_769" maskUnits="userSpaceOnUse" x="182.04" y="285" width="110" height="24" fill="black">
<rect fill="white" x="182.04" y="285" width="110" height="24"/>
<path d="M190.416 289.592V292.592H185.472V289.592H190.416ZM187.632 289.592H191.832V305H187.632V289.592ZM198.174 289.592V292.592H193.23V289.592H198.174ZM195.39 289.592H199.59V305H195.39V289.592ZM221.248 305.864H217.072L208.624 297.08C208.016 296.44 207.584 295.928 207.328 295.544C207.072 295.144 206.944 294.696 206.944 294.2V292.568C206.944 291.672 207.208 290.952 207.736 290.408C208.28 289.864 209.192 289.592 210.472 289.592H213.28C214.56 289.592 215.456 289.864 215.968 290.408C216.48 290.952 216.736 291.672 216.736 292.568V294.2C216.736 294.824 216.64 295.336 216.448 295.736C216.256 296.136 215.968 296.488 215.584 296.792C215.216 297.08 214.76 297.392 214.216 297.728L210.592 299.792C210.416 299.904 210.28 300.024 210.184 300.152C210.088 300.28 210.04 300.464 210.04 300.704V301.712C210.04 301.888 210.088 302.024 210.184 302.12C210.28 302.2 210.432 302.24 210.64 302.24H215.776C215.984 302.24 216.136 302.2 216.232 302.12C216.328 302.024 216.376 301.888 216.376 301.712V298.976H219.688V302.024C219.688 302.92 219.384 303.64 218.776 304.184C218.184 304.728 217.248 305 215.968 305H209.608C208.328 305 207.416 304.728 206.872 304.184C206.344 303.64 206.08 302.92 206.08 302.024V300.632C206.08 300.072 206.152 299.616 206.296 299.264C206.44 298.896 206.672 298.576 206.992 298.304C207.328 298.016 207.776 297.72 208.336 297.416L211.432 295.664C211.896 295.392 212.232 295.176 212.44 295.016C212.664 294.84 212.776 294.592 212.776 294.272V292.808C212.776 292.632 212.728 292.504 212.632 292.424C212.536 292.328 212.384 292.28 212.176 292.28H211.624C211.416 292.28 211.264 292.328 211.168 292.424C211.072 292.504 211.024 292.632 211.024 292.808V294.368C211.024 294.64 211.064 294.864 211.144 295.04C211.224 295.2 211.384 295.4 211.624 295.64C211.864 295.864 212.216 296.224 212.68 296.72L221.248 305.864ZM230.541 289.592V292.592H225.597V289.592H230.541ZM227.757 289.592H231.957V305H227.757V289.592ZM237.675 293.12V294.872H233.475V292.568C233.475 291.672 233.739 290.952 234.267 290.408C234.811 289.864 235.723 289.592 237.003 289.592H239.907C241.187 289.592 242.099 289.864 242.643 290.408C243.203 290.952 243.483 291.672 243.483 292.568V294.776C243.483 295.608 243.339 296.312 243.051 296.888C242.779 297.464 242.363 298.056 241.803 298.664L238.827 302H243.483V305H233.595V302.264L238.155 297.368C238.635 296.856 238.955 296.424 239.115 296.072C239.275 295.72 239.355 295.28 239.355 294.752V293.12C239.355 292.944 239.307 292.816 239.211 292.736C239.115 292.64 238.963 292.592 238.755 292.592H238.275C238.067 292.592 237.915 292.64 237.819 292.736C237.723 292.816 237.675 292.944 237.675 293.12ZM249.218 298.832H253.418V301.472C253.418 301.648 253.466 301.784 253.562 301.88C253.658 301.96 253.81 302 254.018 302H254.282C254.49 302 254.642 301.96 254.738 301.88C254.834 301.784 254.882 301.648 254.882 301.472V289.592H259.082V302.024C259.082 302.92 258.81 303.64 258.266 304.184C257.738 304.728 256.834 305 255.554 305H252.746C251.466 305 250.554 304.728 250.01 304.184C249.482 303.64 249.218 302.92 249.218 302.024V298.832ZM260.786 293.024H264.866V301.472C264.866 301.648 264.914 301.784 265.01 301.88C265.106 301.96 265.258 302 265.466 302H265.874C266.098 302 266.258 301.944 266.354 301.832C266.466 301.72 266.522 301.536 266.522 301.28V300.632H266.666V302.792C266.666 303.464 266.474 304 266.09 304.4C265.722 304.8 265.162 305 264.41 305H263.978C262.842 305 262.026 304.728 261.53 304.184C261.034 303.64 260.786 302.92 260.786 302.024V293.024ZM266.522 293.024H270.602V305H266.594V302.72H266.522V293.024ZM276.611 305H272.531V293.024H276.611V305ZM272.459 291.824V288.944H276.683V291.824H272.459ZM282.611 305H278.531V293.024H282.539V295.304H282.611V305ZM288.347 305H284.267V296.552C284.267 296.376 284.219 296.248 284.123 296.168C284.027 296.072 283.875 296.024 283.667 296.024H283.259C283.051 296.024 282.891 296.08 282.779 296.192C282.667 296.304 282.611 296.488 282.611 296.744V297.392H282.467V295.232C282.467 294.56 282.651 294.024 283.019 293.624C283.403 293.224 283.971 293.024 284.723 293.024H285.155C286.291 293.024 287.107 293.296 287.603 293.84C288.099 294.384 288.347 295.104 288.347 296V305Z"/>
</mask>
<path d="M190.416 289.592H193.416V286.592H190.416V289.592ZM190.416 292.592V295.592H193.416V292.592H190.416ZM185.472 292.592H182.472V295.592H185.472V292.592ZM185.472 289.592V286.592H182.472V289.592H185.472ZM187.632 289.592V286.592H184.632V289.592H187.632ZM191.832 289.592H194.832V286.592H191.832V289.592ZM191.832 305V308H194.832V305H191.832ZM187.632 305H184.632V308H187.632V305ZM190.416 289.592H187.416V292.592H190.416H193.416V289.592H190.416ZM190.416 292.592V289.592H185.472V292.592V295.592H190.416V292.592ZM185.472 292.592H188.472V289.592H185.472H182.472V292.592H185.472ZM185.472 289.592V292.592H190.416V289.592V286.592H185.472V289.592ZM187.632 289.592V292.592H191.832V289.592V286.592H187.632V289.592ZM191.832 289.592H188.832V305H191.832H194.832V289.592H191.832ZM191.832 305V302H187.632V305V308H191.832V305ZM187.632 305H190.632V289.592H187.632H184.632V305H187.632ZM198.174 289.592H201.174V286.592H198.174V289.592ZM198.174 292.592V295.592H201.174V292.592H198.174ZM193.23 292.592H190.23V295.592H193.23V292.592ZM193.23 289.592V286.592H190.23V289.592H193.23ZM195.39 289.592V286.592H192.39V289.592H195.39ZM199.59 289.592H202.59V286.592H199.59V289.592ZM199.59 305V308H202.59V305H199.59ZM195.39 305H192.39V308H195.39V305ZM198.174 289.592H195.174V292.592H198.174H201.174V289.592H198.174ZM198.174 292.592V289.592H193.23V292.592V295.592H198.174V292.592ZM193.23 292.592H196.23V289.592H193.23H190.23V292.592H193.23ZM193.23 289.592V292.592H198.174V289.592V286.592H193.23V289.592ZM195.39 289.592V292.592H199.59V289.592V286.592H195.39V289.592ZM199.59 289.592H196.59V305H199.59H202.59V289.592H199.59ZM199.59 305V302H195.39V305V308H199.59V305ZM195.39 305H198.39V289.592H195.39H192.39V305H195.39ZM221.248 305.864V308.864H228.171L223.438 303.813L221.248 305.864ZM217.072 305.864L214.91 307.944L215.795 308.864H217.072V305.864ZM208.624 297.08L206.449 299.146L206.456 299.153L206.462 299.16L208.624 297.08ZM207.328 295.544L204.802 297.161L204.817 297.185L204.832 297.208L207.328 295.544ZM207.736 290.408L205.615 288.287L205.599 288.303L205.584 288.319L207.736 290.408ZM215.968 290.408L218.153 288.352L218.153 288.352L215.968 290.408ZM216.448 295.736L213.744 294.438L213.744 294.438L216.448 295.736ZM215.584 296.792L217.433 299.155L217.44 299.149L217.446 299.144L215.584 296.792ZM214.216 297.728L215.701 300.335L215.747 300.308L215.793 300.28L214.216 297.728ZM210.592 299.792L209.108 297.185L209.044 297.222L208.982 297.261L210.592 299.792ZM210.184 300.152L207.784 298.352L207.784 298.352L210.184 300.152ZM210.184 302.12L208.063 304.241L208.159 304.338L208.264 304.425L210.184 302.12ZM216.232 302.12L218.153 304.425L218.257 304.338L218.354 304.241L216.232 302.12ZM216.376 298.976V295.976H213.376V298.976H216.376ZM219.688 298.976H222.688V295.976H219.688V298.976ZM218.776 304.184L216.776 301.948L216.761 301.962L216.746 301.975L218.776 304.184ZM206.872 304.184L204.72 306.273L204.735 306.289L204.751 306.305L206.872 304.184ZM206.296 299.264L209.073 300.4L209.082 300.379L209.09 300.357L206.296 299.264ZM206.992 298.304L208.935 300.59L208.945 300.582L206.992 298.304ZM208.336 297.416L209.768 300.053L209.791 300.04L209.814 300.027L208.336 297.416ZM211.432 295.664L212.91 298.275L212.93 298.264L212.95 298.252L211.432 295.664ZM212.44 295.016L214.269 297.394L214.282 297.384L214.294 297.375L212.44 295.016ZM212.632 292.424L210.511 294.545L210.607 294.642L210.712 294.729L212.632 292.424ZM211.168 292.424L213.089 294.729L213.193 294.642L213.29 294.545L211.168 292.424ZM211.144 295.04L208.413 296.281L208.436 296.332L208.461 296.382L211.144 295.04ZM211.624 295.64L209.503 297.761L209.54 297.798L209.577 297.833L211.624 295.64ZM212.68 296.72L210.49 298.769L210.491 298.771L212.68 296.72ZM221.248 305.864V302.864H217.072V305.864V308.864H221.248V305.864ZM217.072 305.864L219.235 303.784L210.787 295L208.624 297.08L206.462 299.16L214.91 307.944L217.072 305.864ZM208.624 297.08L210.799 295.014C210.223 294.408 209.935 294.045 209.825 293.88L207.328 295.544L204.832 297.208C205.234 297.811 205.809 298.472 206.449 299.146L208.624 297.08ZM207.328 295.544L209.855 293.927C209.881 293.968 209.907 294.022 209.925 294.084C209.942 294.145 209.944 294.187 209.944 294.2H206.944H203.944C203.944 295.242 204.222 296.256 204.802 297.161L207.328 295.544ZM206.944 294.2H209.944V292.568H206.944H203.944V294.2H206.944ZM206.944 292.568H209.944C209.944 292.414 209.967 292.367 209.959 292.389C209.955 292.399 209.947 292.418 209.932 292.442C209.917 292.466 209.902 292.485 209.889 292.497L207.736 290.408L205.584 288.319C204.415 289.523 203.944 291.044 203.944 292.568H206.944ZM207.736 290.408L209.858 292.529C209.703 292.684 209.596 292.698 209.686 292.671C209.786 292.641 210.03 292.592 210.472 292.592V289.592V286.592C208.896 286.592 206.997 286.905 205.615 288.287L207.736 290.408ZM210.472 289.592V292.592H213.28V289.592V286.592H210.472V289.592ZM213.28 289.592V292.592C213.725 292.592 213.958 292.641 214.041 292.667C214.113 292.689 213.967 292.659 213.784 292.464L215.968 290.408L218.153 288.352C216.781 286.894 214.831 286.592 213.28 286.592V289.592ZM215.968 290.408L213.784 292.464C213.77 292.449 213.754 292.429 213.741 292.407C213.727 292.384 213.72 292.367 213.718 292.361C213.713 292.348 213.736 292.405 213.736 292.568H216.736H219.736C219.736 291.069 219.29 289.56 218.153 288.352L215.968 290.408ZM216.736 292.568H213.736V294.2H216.736H219.736V292.568H216.736ZM216.736 294.2H213.736C213.736 294.362 213.724 294.457 213.716 294.499C213.708 294.541 213.708 294.511 213.744 294.438L216.448 295.736L219.153 297.034C219.602 296.099 219.736 295.103 219.736 294.2H216.736ZM216.448 295.736L213.744 294.438C213.748 294.428 213.753 294.42 213.758 294.413C213.762 294.406 213.765 294.402 213.766 294.4C213.767 294.399 213.765 294.402 213.759 294.408C213.752 294.415 213.74 294.426 213.722 294.44L215.584 296.792L217.446 299.144C218.15 298.587 218.744 297.886 219.153 297.034L216.448 295.736ZM215.584 296.792L213.735 294.429C213.48 294.63 213.121 294.878 212.64 295.176L214.216 297.728L215.793 300.28C216.399 299.906 216.953 299.53 217.433 299.155L215.584 296.792ZM214.216 297.728L212.732 295.121L209.108 297.185L210.592 299.792L212.077 302.399L215.701 300.335L214.216 297.728ZM210.592 299.792L208.982 297.261C208.589 297.511 208.152 297.862 207.784 298.352L210.184 300.152L212.584 301.952C212.409 302.186 212.244 302.297 212.203 302.323L210.592 299.792ZM210.184 300.152L207.784 298.352C207.147 299.201 207.04 300.123 207.04 300.704H210.04H213.04C213.04 300.805 213.029 301.359 212.584 301.952L210.184 300.152ZM210.04 300.704H207.04V301.712H210.04H213.04V300.704H210.04ZM210.04 301.712H207.04C207.04 302.438 207.252 303.43 208.063 304.241L210.184 302.12L212.306 299.999C212.925 300.618 213.04 301.338 213.04 301.712H210.04ZM210.184 302.12L208.264 304.425C209.156 305.168 210.161 305.24 210.64 305.24V302.24V299.24C210.716 299.24 210.895 299.246 211.134 299.309C211.376 299.373 211.74 299.511 212.105 299.815L210.184 302.12ZM210.64 302.24V305.24H215.776V302.24V299.24H210.64V302.24ZM215.776 302.24V305.24C216.256 305.24 217.26 305.168 218.153 304.425L216.232 302.12L214.312 299.815C214.676 299.511 215.04 299.373 215.283 299.309C215.521 299.246 215.7 299.24 215.776 299.24V302.24ZM216.232 302.12L218.354 304.241C219.165 303.43 219.376 302.438 219.376 301.712H216.376H213.376C213.376 301.338 213.492 300.618 214.111 299.999L216.232 302.12ZM216.376 301.712H219.376V298.976H216.376H213.376V301.712H216.376ZM216.376 298.976V301.976H219.688V298.976V295.976H216.376V298.976ZM219.688 298.976H216.688V302.024H219.688H222.688V298.976H219.688ZM219.688 302.024H216.688C216.688 302.078 216.684 302.105 216.683 302.108C216.683 302.111 216.685 302.096 216.697 302.069C216.708 302.042 216.724 302.013 216.743 301.988C216.761 301.962 216.774 301.95 216.776 301.948L218.776 304.184L220.777 306.42C222.088 305.247 222.688 303.68 222.688 302.024H219.688ZM218.776 304.184L216.746 301.975C216.856 301.875 216.91 301.881 216.793 301.915C216.667 301.952 216.408 302 215.968 302V305V308C217.576 308 219.412 307.674 220.806 306.393L218.776 304.184ZM215.968 305V302H209.608V305V308H215.968V305ZM209.608 305V302C209.166 302 208.922 301.951 208.822 301.921C208.732 301.894 208.839 301.908 208.994 302.063L206.872 304.184L204.751 306.305C206.133 307.687 208.032 308 209.608 308V305ZM206.872 304.184L209.025 302.095C209.038 302.107 209.053 302.126 209.068 302.15C209.083 302.174 209.091 302.193 209.095 302.203C209.103 302.225 209.08 302.178 209.08 302.024H206.08H203.08C203.08 303.548 203.551 305.069 204.72 306.273L206.872 304.184ZM206.08 302.024H209.08V300.632H206.08H203.08V302.024H206.08ZM206.08 300.632H209.08C209.08 300.477 209.091 300.383 209.098 300.338C209.105 300.292 209.105 300.321 209.073 300.4L206.296 299.264L203.52 298.128C203.176 298.969 203.08 299.85 203.08 300.632H206.08ZM206.296 299.264L209.09 300.357C209.069 300.41 209.041 300.463 209.007 300.509C208.974 300.554 208.946 300.58 208.935 300.59L206.992 298.304L205.049 296.018C204.376 296.591 203.839 297.312 203.503 298.171L206.296 299.264ZM206.992 298.304L208.945 300.582C209.067 300.477 209.32 300.296 209.768 300.053L208.336 297.416L206.905 294.779C206.233 295.144 205.59 295.555 205.04 296.026L206.992 298.304ZM208.336 297.416L209.814 300.027L212.91 298.275L211.432 295.664L209.955 293.053L206.859 294.805L208.336 297.416ZM211.432 295.664L212.95 298.252C213.434 297.968 213.905 297.674 214.269 297.394L212.44 295.016L210.611 292.638C210.56 292.678 210.359 292.816 209.915 293.076L211.432 295.664ZM212.44 295.016L214.294 297.375C215.337 296.555 215.776 295.383 215.776 294.272H212.776H209.776C209.776 294.08 209.811 293.79 209.958 293.463C210.11 293.126 210.338 292.853 210.587 292.657L212.44 295.016ZM212.776 294.272H215.776V292.808H212.776H209.776V294.272H212.776ZM212.776 292.808H215.776C215.776 292.121 215.579 290.974 214.553 290.119L212.632 292.424L210.712 294.729C209.878 294.034 209.776 293.143 209.776 292.808H212.776ZM212.632 292.424L214.754 290.303C213.857 289.406 212.765 289.28 212.176 289.28V292.28V295.28C212.003 295.28 211.215 295.25 210.511 294.545L212.632 292.424ZM212.176 292.28V289.28H211.624V292.28V295.28H212.176V292.28ZM211.624 292.28V289.28C211.035 289.28 209.943 289.406 209.047 290.303L211.168 292.424L213.29 294.545C212.585 295.25 211.797 295.28 211.624 295.28V292.28ZM211.168 292.424L209.248 290.119C208.222 290.974 208.024 292.121 208.024 292.808H211.024H214.024C214.024 293.143 213.923 294.034 213.089 294.729L211.168 292.424ZM211.024 292.808H208.024V294.368H211.024H214.024V292.808H211.024ZM211.024 294.368H208.024C208.024 294.906 208.099 295.591 208.413 296.281L211.144 295.04L213.875 293.799C213.955 293.974 213.991 294.12 214.008 294.213C214.024 294.304 214.024 294.36 214.024 294.368H211.024ZM211.144 295.04L208.461 296.382C208.762 296.984 209.201 297.459 209.503 297.761L211.624 295.64L213.746 293.519C213.68 293.453 213.66 293.427 213.667 293.436C213.672 293.442 213.69 293.465 213.716 293.503C213.741 293.541 213.782 293.607 213.828 293.698L211.144 295.04ZM211.624 295.64L209.577 297.833C209.739 297.984 210.034 298.282 210.49 298.769L212.68 296.72L214.871 294.671C214.399 294.166 213.989 293.744 213.671 293.447L211.624 295.64ZM212.68 296.72L210.491 298.771L219.059 307.915L221.248 305.864L223.438 303.813L214.87 294.669L212.68 296.72ZM230.541 289.592H233.541V286.592H230.541V289.592ZM230.541 292.592V295.592H233.541V292.592H230.541ZM225.597 292.592H222.597V295.592H225.597V292.592ZM225.597 289.592V286.592H222.597V289.592H225.597ZM227.757 289.592V286.592H224.757V289.592H227.757ZM231.957 289.592H234.957V286.592H231.957V289.592ZM231.957 305V308H234.957V305H231.957ZM227.757 305H224.757V308H227.757V305ZM230.541 289.592H227.541V292.592H230.541H233.541V289.592H230.541ZM230.541 292.592V289.592H225.597V292.592V295.592H230.541V292.592ZM225.597 292.592H228.597V289.592H225.597H222.597V292.592H225.597ZM225.597 289.592V292.592H230.541V289.592V286.592H225.597V289.592ZM227.757 289.592V292.592H231.957V289.592V286.592H227.757V289.592ZM231.957 289.592H228.957V305H231.957H234.957V289.592H231.957ZM231.957 305V302H227.757V305V308H231.957V305ZM227.757 305H230.757V289.592H227.757H224.757V305H227.757ZM237.675 294.872V297.872H240.675V294.872H237.675ZM233.475 294.872H230.475V297.872H233.475V294.872ZM234.267 290.408L232.146 288.287L232.13 288.303L232.114 288.319L234.267 290.408ZM242.643 290.408L240.522 292.529L240.537 292.545L240.552 292.56L242.643 290.408ZM243.051 296.888L240.368 295.546L240.352 295.577L240.338 295.607L243.051 296.888ZM241.803 298.664L239.596 296.632L239.58 296.649L239.564 296.667L241.803 298.664ZM238.827 302L236.588 300.003L232.13 305H238.827V302ZM243.483 302H246.483V299H243.483V302ZM243.483 305V308H246.483V305H243.483ZM233.595 305H230.595V308H233.595V305ZM233.595 302.264L231.4 300.219L230.595 301.083V302.264H233.595ZM238.155 297.368L235.966 295.316L235.96 295.323L238.155 297.368ZM239.115 296.072L241.846 297.313V297.313L239.115 296.072ZM239.211 292.736L237.09 294.857L237.186 294.954L237.29 295.041L239.211 292.736ZM237.819 292.736L239.739 295.041L239.844 294.954L239.94 294.857L237.819 292.736ZM237.675 293.12H234.675V294.872H237.675H240.675V293.12H237.675ZM237.675 294.872V291.872H233.475V294.872V297.872H237.675V294.872ZM233.475 294.872H236.475V292.568H233.475H230.475V294.872H233.475ZM233.475 292.568H236.475C236.475 292.414 236.497 292.367 236.489 292.389C236.486 292.399 236.477 292.418 236.463 292.442C236.448 292.466 236.432 292.485 236.42 292.497L234.267 290.408L232.114 288.319C230.945 289.523 230.475 291.044 230.475 292.568H233.475ZM234.267 290.408L236.388 292.529C236.234 292.684 236.126 292.698 236.216 292.671C236.317 292.641 236.56 292.592 237.003 292.592V289.592V286.592C235.427 286.592 233.527 286.905 232.146 288.287L234.267 290.408ZM237.003 289.592V292.592H239.907V289.592V286.592H237.003V289.592ZM239.907 289.592V292.592C240.35 292.592 240.593 292.641 240.693 292.671C240.784 292.698 240.676 292.684 240.522 292.529L242.643 290.408L244.764 288.287C243.382 286.905 241.483 286.592 239.907 286.592V289.592ZM242.643 290.408L240.552 292.56C240.544 292.551 240.528 292.534 240.512 292.509C240.495 292.484 240.484 292.461 240.477 292.443C240.47 292.426 240.471 292.424 240.474 292.441C240.478 292.459 240.483 292.5 240.483 292.568H243.483H246.483C246.483 290.992 245.962 289.45 244.733 288.256L242.643 290.408ZM243.483 292.568H240.483V294.776H243.483H246.483V292.568H243.483ZM243.483 294.776H240.483C240.483 295.274 240.396 295.49 240.368 295.546L243.051 296.888L245.734 298.23C246.282 297.134 246.483 295.942 246.483 294.776H243.483ZM243.051 296.888L240.338 295.607C240.228 295.841 240.008 296.184 239.596 296.632L241.803 298.664L244.009 300.696C244.718 299.928 245.33 299.087 245.764 298.169L243.051 296.888ZM241.803 298.664L239.564 296.667L236.588 300.003L238.827 302L241.066 303.997L244.042 300.661L241.803 298.664ZM238.827 302V305H243.483V302V299H238.827V302ZM243.483 302H240.483V305H243.483H246.483V302H243.483ZM243.483 305V302H233.595V305V308H243.483V305ZM233.595 305H236.595V302.264H233.595H230.595V305H233.595ZM233.595 302.264L235.79 304.309L240.35 299.413L238.155 297.368L235.96 295.323L231.4 300.219L233.595 302.264ZM238.155 297.368L240.343 299.42C240.896 298.83 241.482 298.114 241.846 297.313L239.115 296.072L236.384 294.831C236.418 294.756 236.423 294.768 236.344 294.874C236.27 294.974 236.15 295.121 235.966 295.316L238.155 297.368ZM239.115 296.072L241.846 297.313C242.235 296.457 242.355 295.561 242.355 294.752H239.355H236.355C236.355 294.867 236.346 294.927 236.343 294.941C236.341 294.955 236.347 294.911 236.384 294.831L239.115 296.072ZM239.355 294.752H242.355V293.12H239.355H236.355V294.752H239.355ZM239.355 293.12H242.355C242.355 292.433 242.157 291.286 241.131 290.431L239.211 292.736L237.29 295.041C236.456 294.346 236.355 293.455 236.355 293.12H239.355ZM239.211 292.736L241.332 290.615C240.436 289.718 239.344 289.592 238.755 289.592V292.592V295.592C238.582 295.592 237.794 295.562 237.09 294.857L239.211 292.736ZM238.755 292.592V289.592H238.275V292.592V295.592H238.755V292.592ZM238.275 292.592V289.592C237.686 289.592 236.594 289.718 235.698 290.615L237.819 292.736L239.94 294.857C239.236 295.562 238.448 295.592 238.275 295.592V292.592ZM237.819 292.736L235.898 290.431C234.872 291.286 234.675 292.433 234.675 293.12H237.675H240.675C240.675 293.455 240.573 294.346 239.739 295.041L237.819 292.736ZM249.218 298.832V295.832H246.218V298.832H249.218ZM253.418 298.832H256.418V295.832H253.418V298.832ZM253.562 301.88L251.44 304.001L251.536 304.098L251.641 304.185L253.562 301.88ZM254.738 301.88L256.658 304.185L256.763 304.098L256.859 304.001L254.738 301.88ZM254.882 289.592V286.592H251.882V289.592H254.882ZM259.082 289.592H262.082V286.592H259.082V289.592ZM258.266 304.184L256.144 302.063L256.128 302.079L256.113 302.095L258.266 304.184ZM250.01 304.184L247.857 306.273L247.872 306.289L247.888 306.305L250.01 304.184ZM249.218 298.832V301.832H253.418V298.832V295.832H249.218V298.832ZM253.418 298.832H250.418V301.472H253.418H256.418V298.832H253.418ZM253.418 301.472H250.418C250.418 302.198 250.629 303.19 251.44 304.001L253.562 301.88L255.683 299.759C256.302 300.378 256.418 301.098 256.418 301.472H253.418ZM253.562 301.88L251.641 304.185C252.533 304.928 253.538 305 254.018 305V302V299C254.094 299 254.272 299.006 254.511 299.069C254.753 299.133 255.117 299.271 255.482 299.575L253.562 301.88ZM254.018 302V305H254.282V302V299H254.018V302ZM254.282 302V305C254.761 305 255.766 304.928 256.658 304.185L254.738 301.88L252.817 299.575C253.182 299.271 253.546 299.133 253.788 299.069C254.027 299.006 254.206 299 254.282 299V302ZM254.738 301.88L256.859 304.001C257.67 303.19 257.882 302.198 257.882 301.472H254.882H251.882C251.882 301.098 251.997 300.378 252.616 299.759L254.738 301.88ZM254.882 301.472H257.882V289.592H254.882H251.882V301.472H254.882ZM254.882 289.592V292.592H259.082V289.592V286.592H254.882V289.592ZM259.082 289.592H256.082V302.024H259.082H262.082V289.592H259.082ZM259.082 302.024H256.082C256.082 302.168 256.06 302.205 256.071 302.176C256.076 302.162 256.086 302.14 256.102 302.116C256.118 302.091 256.133 302.073 256.144 302.063L258.266 304.184L260.387 306.305C261.586 305.106 262.082 303.574 262.082 302.024H259.082ZM258.266 304.184L256.113 302.095C256.282 301.921 256.408 301.899 256.327 301.923C256.235 301.951 255.997 302 255.554 302V305V308C257.117 308 259.041 307.692 260.418 306.273L258.266 304.184ZM255.554 305V302H252.746V305V308H255.554V305ZM252.746 305V302C252.303 302 252.06 301.951 251.959 301.921C251.869 301.894 251.977 301.908 252.131 302.063L250.01 304.184L247.888 306.305C249.27 307.687 251.17 308 252.746 308V305ZM250.01 304.184L252.162 302.095C252.175 302.107 252.19 302.126 252.205 302.15C252.22 302.174 252.228 302.193 252.232 302.203C252.24 302.225 252.218 302.178 252.218 302.024H249.218H246.218C246.218 303.548 246.688 305.069 247.857 306.273L250.01 304.184ZM249.218 302.024H252.218V298.832H249.218H246.218V302.024H249.218ZM260.786 293.024V290.024H257.786V293.024H260.786ZM264.866 293.024H267.866V290.024H264.866V293.024ZM265.01 301.88L262.889 304.001L262.985 304.098L263.09 304.185L265.01 301.88ZM266.354 301.832L264.233 299.711L264.151 299.792L264.077 299.88L266.354 301.832ZM266.522 300.632V297.632H263.522V300.632H266.522ZM266.666 300.632H269.666V297.632H266.666V300.632ZM266.09 304.4L263.926 302.322L263.904 302.345L263.882 302.369L266.09 304.4ZM261.53 304.184L259.313 306.205V306.205L261.53 304.184ZM266.522 293.024V290.024H263.522V293.024H266.522ZM270.602 293.024H273.602V290.024H270.602V293.024ZM270.602 305V308H273.602V305H270.602ZM266.594 305H263.594V308H266.594V305ZM266.594 302.72H269.594V299.72H266.594V302.72ZM266.522 302.72H263.522V305.72H266.522V302.72ZM260.786 293.024V296.024H264.866V293.024V290.024H260.786V293.024ZM264.866 293.024H261.866V301.472H264.866H267.866V293.024H264.866ZM264.866 301.472H261.866C261.866 302.198 262.077 303.19 262.889 304.001L265.01 301.88L267.132 299.759C267.751 300.378 267.866 301.098 267.866 301.472H264.866ZM265.01 301.88L263.09 304.185C263.982 304.928 264.987 305 265.466 305V302V299C265.542 299 265.721 299.006 265.96 299.069C266.202 299.133 266.566 299.271 266.931 299.575L265.01 301.88ZM265.466 302V305H265.874V302V299H265.466V302ZM265.874 302V305C266.516 305 267.724 304.844 268.632 303.784L266.354 301.832L264.077 299.88C264.793 299.044 265.68 299 265.874 299V302ZM266.354 301.832L268.476 303.953C269.413 303.016 269.522 301.862 269.522 301.28H266.522H263.522C263.522 301.204 263.529 301.004 263.61 300.737C263.695 300.457 263.874 300.07 264.233 299.711L266.354 301.832ZM266.522 301.28H269.522V300.632H266.522H263.522V301.28H266.522ZM266.522 300.632V303.632H266.666V300.632V297.632H266.522V300.632ZM266.666 300.632H263.666V302.792H266.666H269.666V300.632H266.666ZM266.666 302.792H263.666C263.666 302.844 263.659 302.796 263.698 302.686C263.741 302.567 263.818 302.436 263.926 302.322L266.09 304.4L268.254 306.478C269.284 305.405 269.666 304.064 269.666 302.792H266.666ZM266.09 304.4L263.882 302.369C264.058 302.178 264.251 302.073 264.385 302.025C264.502 301.983 264.529 302 264.41 302V305V308C265.669 308 267.17 307.657 268.298 306.431L266.09 304.4ZM264.41 305V302H263.978V305V308H264.41V305ZM263.978 305V302C263.812 302 263.688 301.99 263.6 301.978C263.512 301.965 263.47 301.952 263.463 301.95C263.457 301.948 263.49 301.958 263.547 301.994C263.605 302.03 263.677 302.085 263.747 302.163L261.53 304.184L259.313 306.205C260.625 307.644 262.453 308 263.978 308V305ZM261.53 304.184L263.747 302.163C263.762 302.179 263.778 302.2 263.79 302.221C263.803 302.242 263.808 302.257 263.809 302.259C263.81 302.263 263.786 302.197 263.786 302.024H260.786H257.786C257.786 303.497 258.209 304.994 259.313 306.205L261.53 304.184ZM260.786 302.024H263.786V293.024H260.786H257.786V302.024H260.786ZM266.522 293.024V296.024H270.602V293.024V290.024H266.522V293.024ZM270.602 293.024H267.602V305H270.602H273.602V293.024H270.602ZM270.602 305V302H266.594V305V308H270.602V305ZM266.594 305H269.594V302.72H266.594H263.594V305H266.594ZM266.594 302.72V299.72H266.522V302.72V305.72H266.594V302.72ZM266.522 302.72H269.522V293.024H266.522H263.522V302.72H266.522ZM276.611 305V308H279.611V305H276.611ZM272.531 305H269.531V308H272.531V305ZM272.531 293.024V290.024H269.531V293.024H272.531ZM276.611 293.024H279.611V290.024H276.611V293.024ZM272.459 291.824H269.459V294.824H272.459V291.824ZM272.459 288.944V285.944H269.459V288.944H272.459ZM276.683 288.944H279.683V285.944H276.683V288.944ZM276.683 291.824V294.824H279.683V291.824H276.683ZM276.611 305V302H272.531V305V308H276.611V305ZM272.531 305H275.531V293.024H272.531H269.531V305H272.531ZM272.531 293.024V296.024H276.611V293.024V290.024H272.531V293.024ZM276.611 293.024H273.611V305H276.611H279.611V293.024H276.611ZM272.459 291.824H275.459V288.944H272.459H269.459V291.824H272.459ZM272.459 288.944V291.944H276.683V288.944V285.944H272.459V288.944ZM276.683 288.944H273.683V291.824H276.683H279.683V288.944H276.683ZM276.683 291.824V288.824H272.459V291.824V294.824H276.683V291.824ZM282.611 305V308H285.611V305H282.611ZM278.531 305H275.531V308H278.531V305ZM278.531 293.024V290.024H275.531V293.024H278.531ZM282.539 293.024H285.539V290.024H282.539V293.024ZM282.539 295.304H279.539V298.304H282.539V295.304ZM282.611 295.304H285.611V292.304H282.611V295.304ZM288.347 305V308H291.347V305H288.347ZM284.267 305H281.267V308H284.267V305ZM284.123 296.168L282.002 298.289L282.098 298.386L282.203 298.473L284.123 296.168ZM282.611 297.392V300.392H285.611V297.392H282.611ZM282.467 297.392H279.467V300.392H282.467V297.392ZM283.019 293.624L280.855 291.546L280.833 291.569L280.811 291.593L283.019 293.624ZM287.603 293.84L285.386 295.861V295.861L287.603 293.84ZM282.611 305V302H278.531V305V308H282.611V305ZM278.531 305H281.531V293.024H278.531H275.531V305H278.531ZM278.531 293.024V296.024H282.539V293.024V290.024H278.531V293.024ZM282.539 293.024H279.539V295.304H282.539H285.539V293.024H282.539ZM282.539 295.304V298.304H282.611V295.304V292.304H282.539V295.304ZM282.611 295.304H279.611V305H282.611H285.611V295.304H282.611ZM288.347 305V302H284.267V305V308H288.347V305ZM284.267 305H287.267V296.552H284.267H281.267V305H284.267ZM284.267 296.552H287.267C287.267 295.865 287.07 294.718 286.044 293.863L284.123 296.168L282.203 298.473C281.369 297.778 281.267 296.887 281.267 296.552H284.267ZM284.123 296.168L286.245 294.047C285.348 293.15 284.256 293.024 283.667 293.024V296.024V299.024C283.494 299.024 282.706 298.994 282.002 298.289L284.123 296.168ZM283.667 296.024V293.024H283.259V296.024V299.024H283.667V296.024ZM283.259 296.024V293.024C282.514 293.024 281.492 293.236 280.658 294.071L282.779 296.192L284.901 298.313C284.29 298.924 283.588 299.024 283.259 299.024V296.024ZM282.779 296.192L280.658 294.071C279.721 295.008 279.611 296.162 279.611 296.744H282.611H285.611C285.611 296.82 285.605 297.02 285.523 297.287C285.438 297.567 285.26 297.954 284.901 298.313L282.779 296.192ZM282.611 296.744H279.611V297.392H282.611H285.611V296.744H282.611ZM282.611 297.392V294.392H282.467V297.392V300.392H282.611V297.392ZM282.467 297.392H285.467V295.232H282.467H279.467V297.392H282.467ZM282.467 295.232H285.467C285.467 295.167 285.476 295.202 285.443 295.3C285.406 295.407 285.336 295.537 285.227 295.655L283.019 293.624L280.811 291.593C279.821 292.67 279.467 293.994 279.467 295.232H282.467ZM283.019 293.624L285.183 295.702C285.023 295.869 284.85 295.961 284.73 296.004C284.625 296.04 284.606 296.024 284.723 296.024V293.024V290.024C283.455 290.024 281.984 290.371 280.855 291.546L283.019 293.624ZM284.723 293.024V296.024H285.155V293.024V290.024H284.723V293.024ZM285.155 293.024V296.024C285.321 296.024 285.445 296.034 285.533 296.046C285.621 296.059 285.664 296.072 285.671 296.074C285.677 296.076 285.643 296.066 285.587 296.03C285.528 295.994 285.457 295.939 285.386 295.861L287.603 293.84L289.82 291.819C288.509 290.38 286.681 290.024 285.155 290.024V293.024ZM287.603 293.84L285.386 295.861C285.371 295.845 285.356 295.824 285.343 295.803C285.331 295.782 285.326 295.767 285.325 295.765C285.323 295.761 285.347 295.827 285.347 296H288.347H291.347C291.347 294.527 290.924 293.03 289.82 291.819L287.603 293.84ZM288.347 296H285.347V305H288.347H291.347V296H288.347Z" fill="#800016" mask="url(#path-3-outside-1_731_769)"/>
<mask id="path-5-outside-2_731_769" maskUnits="userSpaceOnUse" x="-0.959961" y="285" width="52" height="23" fill="black">
<rect fill="white" x="-0.959961" y="285" width="52" height="23"/>
<path d="M10.032 289.592H13.872V305H10.272L6.84004 296.912V305H3.00004V289.592H6.60004L10.032 297.824V289.592ZM19.8769 305H15.7969V293.024H19.8769V305ZM15.7249 291.824V288.944H19.9489V291.824H15.7249ZM27.5329 299.456V296.384C27.5329 296.208 27.4849 296.08 27.3889 296C27.2929 295.904 27.1409 295.856 26.9329 295.856H26.5729V293.024H28.1329C29.4129 293.024 30.3009 293.296 30.7969 293.84C31.2929 294.384 31.5409 295.104 31.5409 296V299.456H27.5329ZM27.5329 301.64V299.144H31.5409V302.024C31.5409 302.92 31.2929 303.64 30.7969 304.184C30.3009 304.728 29.4129 305 28.1329 305H26.5729V302.168H26.9329C27.1409 302.168 27.2929 302.128 27.3889 302.048C27.4849 301.952 27.5329 301.816 27.5329 301.64ZM25.6849 296.384V299.456H21.6769V296C21.6769 295.104 21.9249 294.384 22.4209 293.84C22.9169 293.296 23.8049 293.024 25.0849 293.024H26.6449V295.856H26.2849C26.0769 295.856 25.9249 295.904 25.8289 296C25.7329 296.08 25.6849 296.208 25.6849 296.384ZM25.6849 299.144V301.64C25.6849 301.816 25.7329 301.952 25.8289 302.048C25.9249 302.128 26.0769 302.168 26.2849 302.168H26.6449V305H25.0849C23.8049 305 22.9169 304.728 22.4209 304.184C21.9249 303.64 21.6769 302.92 21.6769 302.024V299.144H25.6849ZM40.3116 292.904V296.456H38.9436C37.9356 296.456 37.4316 297 37.4316 298.088V298.736H37.2876V295.592C37.2876 295.048 37.3916 294.576 37.5996 294.176C37.8076 293.776 38.1116 293.464 38.5116 293.24C38.9116 293.016 39.3916 292.904 39.9516 292.904H40.3116ZM37.4316 305H33.3516V293.024H37.3596V295.784L37.4316 295.304V305ZM45.9507 290.672V301.472C45.9507 301.648 45.9987 301.784 46.0947 301.88C46.1907 301.96 46.3427 302 46.5507 302H47.4387V305H45.3987C44.1187 305 43.2067 304.728 42.6627 304.184C42.1347 303.64 41.8707 302.92 41.8707 302.024V290.672H45.9507ZM47.4627 293.024V296.024H40.5507V293.024H47.4627Z"/>
</mask>
<path d="M10.032 289.592V286.592H7.03204V289.592H10.032ZM13.872 289.592H16.872V286.592H13.872V289.592ZM13.872 305V308H16.872V305H13.872ZM10.272 305L7.51038 306.172L8.28612 308H10.272V305ZM6.84004 296.912L9.6017 295.74L3.84004 296.912H6.84004ZM6.84004 305V308H9.84004V305H6.84004ZM3.00004 305H3.91006e-05V308H3.00004V305ZM3.00004 289.592V286.592H3.91006e-05V289.592H3.00004ZM6.60004 289.592L9.36903 288.438L8.59959 286.592H6.60004V289.592ZM10.032 297.824L7.26305 298.978L13.032 297.824H10.032ZM10.032 289.592V292.592H13.872V289.592V286.592H10.032V289.592ZM13.872 289.592H10.872V305H13.872H16.872V289.592H13.872ZM13.872 305V302H10.272V305V308H13.872V305ZM10.272 305L13.0337 303.828L9.6017 295.74L6.84004 296.912L4.07838 298.084L7.51038 306.172L10.272 305ZM6.84004 296.912H3.84004V305H6.84004H9.84004V296.912H6.84004ZM6.84004 305V302H3.00004V305V308H6.84004V305ZM3.00004 305H6.00004V289.592H3.00004H3.91006e-05V305H3.00004ZM3.00004 289.592V292.592H6.60004V289.592V286.592H3.00004V289.592ZM6.60004 289.592L3.83105 290.746L7.26305 298.978L10.032 297.824L12.801 296.67L9.36903 288.438L6.60004 289.592ZM10.032 297.824H13.032V289.592H10.032H7.03204V297.824H10.032ZM19.8769 305V308H22.8769V305H19.8769ZM15.7969 305H12.7969V308H15.7969V305ZM15.7969 293.024V290.024H12.7969V293.024H15.7969ZM19.8769 293.024H22.8769V290.024H19.8769V293.024ZM15.7249 291.824H12.7249V294.824H15.7249V291.824ZM15.7249 288.944V285.944H12.7249V288.944H15.7249ZM19.9489 288.944H22.9489V285.944H19.9489V288.944ZM19.9489 291.824V294.824H22.9489V291.824H19.9489ZM19.8769 305V302H15.7969V305V308H19.8769V305ZM15.7969 305H18.7969V293.024H15.7969H12.7969V305H15.7969ZM15.7969 293.024V296.024H19.8769V293.024V290.024H15.7969V293.024ZM19.8769 293.024H16.8769V305H19.8769H22.8769V293.024H19.8769ZM15.7249 291.824H18.7249V288.944H15.7249H12.7249V291.824H15.7249ZM15.7249 288.944V291.944H19.9489V288.944V285.944H15.7249V288.944ZM19.9489 288.944H16.9489V291.824H19.9489H22.9489V288.944H19.9489ZM19.9489 291.824V288.824H15.7249V291.824V294.824H19.9489V291.824ZM27.5329 299.456H24.5329V302.456H27.5329V299.456ZM27.3889 296L25.2676 298.121L25.3638 298.218L25.4684 298.305L27.3889 296ZM26.5729 295.856H23.5729V298.856H26.5729V295.856ZM26.5729 293.024V290.024H23.5729V293.024H26.5729ZM30.7969 293.84L33.0138 291.819L33.0138 291.819L30.7969 293.84ZM31.5409 299.456V302.456H34.5409V299.456H31.5409ZM27.5329 299.144V296.144H24.5329V299.144H27.5329ZM31.5409 299.144H34.5409V296.144H31.5409V299.144ZM30.7969 304.184L33.0138 306.205V306.205L30.7969 304.184ZM26.5729 305H23.5729V308H26.5729V305ZM26.5729 302.168V299.168H23.5729V302.168H26.5729ZM27.3889 302.048L29.3095 304.353L29.414 304.266L29.5102 304.169L27.3889 302.048ZM25.6849 299.456V302.456H28.6849V299.456H25.6849ZM21.6769 299.456H18.6769V302.456H21.6769V299.456ZM22.4209 293.84L20.204 291.819L20.204 291.819L22.4209 293.84ZM26.6449 293.024H29.6449V290.024H26.6449V293.024ZM26.6449 295.856V298.856H29.6449V295.856H26.6449ZM25.8289 296L27.7495 298.305L27.854 298.218L27.9502 298.121L25.8289 296ZM25.6849 299.144H28.6849V296.144H25.6849V299.144ZM25.8289 302.048L23.7076 304.169L23.8038 304.266L23.9084 304.353L25.8289 302.048ZM26.6449 302.168H29.6449V299.168H26.6449V302.168ZM26.6449 305V308H29.6449V305H26.6449ZM22.4209 304.184L20.204 306.205V306.205L22.4209 304.184ZM21.6769 299.144V296.144H18.6769V299.144H21.6769ZM27.5329 299.456H30.5329V296.384H27.5329H24.5329V299.456H27.5329ZM27.5329 296.384H30.5329C30.5329 295.697 30.3354 294.55 29.3095 293.695L27.3889 296L25.4684 298.305C24.6345 297.61 24.5329 296.719 24.5329 296.384H27.5329ZM27.3889 296L29.5102 293.879C28.614 292.982 27.5218 292.856 26.9329 292.856V295.856V298.856C26.7601 298.856 25.9718 298.826 25.2676 298.121L27.3889 296ZM26.9329 295.856V292.856H26.5729V295.856V298.856H26.9329V295.856ZM26.5729 295.856H29.5729V293.024H26.5729H23.5729V295.856H26.5729ZM26.5729 293.024V296.024H28.1329V293.024V290.024H26.5729V293.024ZM28.1329 293.024V296.024C28.5791 296.024 28.8058 296.074 28.8803 296.096C28.9431 296.116 28.7775 296.078 28.58 295.861L30.7969 293.84L33.0138 291.819C31.6478 290.321 29.6701 290.024 28.1329 290.024V293.024ZM30.7969 293.84L28.58 295.861C28.5648 295.845 28.5497 295.824 28.537 295.803C28.5245 295.782 28.5192 295.767 28.5185 295.765C28.517 295.761 28.5409 295.827 28.5409 296H31.5409H34.5409C34.5409 294.527 34.1178 293.03 33.0138 291.819L30.7969 293.84ZM31.5409 296H28.5409V299.456H31.5409H34.5409V296H31.5409ZM31.5409 299.456V296.456H27.5329V299.456V302.456H31.5409V299.456ZM27.5329 301.64H30.5329V299.144H27.5329H24.5329V301.64H27.5329ZM27.5329 299.144V302.144H31.5409V299.144V296.144H27.5329V299.144ZM31.5409 299.144H28.5409V302.024H31.5409H34.5409V299.144H31.5409ZM31.5409 302.024H28.5409C28.5409 302.197 28.517 302.263 28.5185 302.259C28.5192 302.257 28.5245 302.242 28.537 302.221C28.5497 302.2 28.5648 302.179 28.58 302.163L30.7969 304.184L33.0138 306.205C34.1178 304.994 34.5409 303.497 34.5409 302.024H31.5409ZM30.7969 304.184L28.58 302.163C28.7775 301.946 28.9431 301.908 28.8803 301.928C28.8058 301.95 28.5791 302 28.1329 302V305V308C29.6701 308 31.6478 307.703 33.0138 306.205L30.7969 304.184ZM28.1329 305V302H26.5729V305V308H28.1329V305ZM26.5729 305H29.5729V302.168H26.5729H23.5729V305H26.5729ZM26.5729 302.168V305.168H26.9329V302.168V299.168H26.5729V302.168ZM26.9329 302.168V305.168C27.4126 305.168 28.417 305.096 29.3095 304.353L27.3889 302.048L25.4684 299.743C25.833 299.439 26.197 299.301 26.4394 299.237C26.678 299.174 26.8569 299.168 26.9329 299.168V302.168ZM27.3889 302.048L29.5102 304.169C30.3217 303.358 30.5329 302.366 30.5329 301.64H27.5329H24.5329C24.5329 301.266 24.6481 300.546 25.2676 299.927L27.3889 302.048ZM25.6849 296.384H22.6849V299.456H25.6849H28.6849V296.384H25.6849ZM25.6849 299.456V296.456H21.6769V299.456V302.456H25.6849V299.456ZM21.6769 299.456H24.6769V296H21.6769H18.6769V299.456H21.6769ZM21.6769 296H24.6769C24.6769 295.827 24.7009 295.761 24.6994 295.765C24.6986 295.767 24.6933 295.782 24.6808 295.803C24.6682 295.824 24.653 295.845 24.6378 295.861L22.4209 293.84L20.204 291.819C19.1 293.03 18.6769 294.527 18.6769 296H21.6769ZM22.4209 293.84L24.6378 295.861C24.4404 296.078 24.2748 296.116 24.3375 296.096C24.4121 296.074 24.6388 296.024 25.0849 296.024V293.024V290.024C23.5477 290.024 21.57 290.321 20.204 291.819L22.4209 293.84ZM25.0849 293.024V296.024H26.6449V293.024V290.024H25.0849V293.024ZM26.6449 293.024H23.6449V295.856H26.6449H29.6449V293.024H26.6449ZM26.6449 295.856V292.856H26.2849V295.856V298.856H26.6449V295.856ZM26.2849 295.856V292.856C25.6961 292.856 24.6038 292.982 23.7076 293.879L25.8289 296L27.9502 298.121C27.246 298.826 26.4578 298.856 26.2849 298.856V295.856ZM25.8289 296L23.9084 293.695C22.8825 294.55 22.6849 295.697 22.6849 296.384H25.6849H28.6849C28.6849 296.719 28.5834 297.61 27.7495 298.305L25.8289 296ZM25.6849 299.144H22.6849V301.64H25.6849H28.6849V299.144H25.6849ZM25.6849 301.64H22.6849C22.6849 302.366 22.8961 303.358 23.7076 304.169L25.8289 302.048L27.9502 299.927C28.5697 300.546 28.6849 301.266 28.6849 301.64H25.6849ZM25.8289 302.048L23.9084 304.353C24.8008 305.096 25.8053 305.168 26.2849 305.168V302.168V299.168C26.3609 299.168 26.5399 299.174 26.7784 299.237C27.0208 299.301 27.3848 299.439 27.7495 299.743L25.8289 302.048ZM26.2849 302.168V305.168H26.6449V302.168V299.168H26.2849V302.168ZM26.6449 302.168H23.6449V305H26.6449H29.6449V302.168H26.6449ZM26.6449 305V302H25.0849V305V308H26.6449V305ZM25.0849 305V302C24.6388 302 24.4121 301.95 24.3375 301.928C24.2748 301.908 24.4404 301.946 24.6378 302.163L22.4209 304.184L20.204 306.205C21.57 307.703 23.5477 308 25.0849 308V305ZM22.4209 304.184L24.6378 302.163C24.653 302.179 24.6682 302.2 24.6808 302.221C24.6933 302.242 24.6986 302.257 24.6994 302.259C24.7009 302.263 24.6769 302.197 24.6769 302.024H21.6769H18.6769C18.6769 303.497 19.1 304.994 20.204 306.205L22.4209 304.184ZM21.6769 302.024H24.6769V299.144H21.6769H18.6769V302.024H21.6769ZM21.6769 299.144V302.144H25.6849V299.144V296.144H21.6769V299.144ZM40.3116 292.904H43.3116V289.904H40.3116V292.904ZM40.3116 296.456V299.456H43.3116V296.456H40.3116ZM37.4316 298.736V301.736H40.4316V298.736H37.4316ZM37.2876 298.736H34.2876V301.736H37.2876V298.736ZM37.5996 294.176L34.938 292.792V292.792L37.5996 294.176ZM38.5116 293.24L39.9774 295.858L39.9774 295.858L38.5116 293.24ZM37.4316 305V308H40.4316V305H37.4316ZM33.3516 305H30.3516V308H33.3516V305ZM33.3516 293.024V290.024H30.3516V293.024H33.3516ZM37.3596 293.024H40.3596V290.024H37.3596V293.024ZM37.3596 295.784H34.3596L40.3264 296.229L37.3596 295.784ZM37.4316 295.304H40.4316L34.4648 294.859L37.4316 295.304ZM40.3116 292.904H37.3116V296.456H40.3116H43.3116V292.904H40.3116ZM40.3116 296.456V293.456H38.9436V296.456V299.456H40.3116V296.456ZM38.9436 296.456V293.456C37.9159 293.456 36.6105 293.744 35.6089 294.825C34.6474 295.863 34.4316 297.136 34.4316 298.088H37.4316H40.4316C40.4316 297.952 40.4678 298.409 40.0103 298.903C39.5127 299.44 38.9633 299.456 38.9436 299.456V296.456ZM37.4316 298.088H34.4316V298.736H37.4316H40.4316V298.088H37.4316ZM37.4316 298.736V295.736H37.2876V298.736V301.736H37.4316V298.736ZM37.2876 298.736H40.2876V295.592H37.2876H34.2876V298.736H37.2876ZM37.2876 295.592H40.2876C40.2876 295.51 40.2954 295.475 40.2953 295.476C40.2952 295.476 40.2933 295.485 40.2877 295.5C40.2822 295.516 40.2737 295.536 40.2613 295.56L37.5996 294.176L34.938 292.792C34.4662 293.699 34.2876 294.665 34.2876 295.592H37.2876ZM37.5996 294.176L40.2613 295.56C40.2346 295.611 40.1921 295.674 40.1323 295.736C40.0727 295.797 40.0158 295.836 39.9774 295.858L38.5116 293.24L37.0458 290.622C36.1446 291.127 35.4206 291.864 34.938 292.792L37.5996 294.176ZM38.5116 293.24L39.9774 295.858C39.9468 295.875 39.9192 295.887 39.8967 295.896C39.8744 295.904 39.8592 295.908 39.8533 295.91C39.842 295.912 39.8706 295.904 39.9516 295.904V292.904V289.904C38.9912 289.904 37.9828 290.098 37.0458 290.622L38.5116 293.24ZM39.9516 292.904V295.904H40.3116V292.904V289.904H39.9516V292.904ZM37.4316 305V302H33.3516V305V308H37.4316V305ZM33.3516 305H36.3516V293.024H33.3516H30.3516V305H33.3516ZM33.3516 293.024V296.024H37.3596V293.024V290.024H33.3516V293.024ZM37.3596 293.024H34.3596V295.784H37.3596H40.3596V293.024H37.3596ZM37.3596 295.784L40.3264 296.229L40.3984 295.749L37.4316 295.304L34.4648 294.859L34.3928 295.339L37.3596 295.784ZM37.4316 295.304H34.4316V305H37.4316H40.4316V295.304H37.4316ZM45.9507 290.672H48.9507V287.672H45.9507V290.672ZM46.0947 301.88L43.9733 304.001L44.0696 304.098L44.1741 304.185L46.0947 301.88ZM47.4387 302H50.4387V299H47.4387V302ZM47.4387 305V308H50.4387V305H47.4387ZM42.6627 304.184L40.5099 306.273L40.5255 306.289L40.5413 306.305L42.6627 304.184ZM41.8707 290.672V287.672H38.8707V290.672H41.8707ZM47.4627 293.024H50.4627V290.024H47.4627V293.024ZM47.4627 296.024V299.024H50.4627V296.024H47.4627ZM40.5507 296.024H37.5507V299.024H40.5507V296.024ZM40.5507 293.024V290.024H37.5507V293.024H40.5507ZM45.9507 290.672H42.9507V301.472H45.9507H48.9507V290.672H45.9507ZM45.9507 301.472H42.9507C42.9507 302.198 43.1618 303.19 43.9733 304.001L46.0947 301.88L48.216 299.759C48.8355 300.378 48.9507 301.098 48.9507 301.472H45.9507ZM46.0947 301.88L44.1741 304.185C45.0666 304.928 46.071 305 46.5507 305V302V299C46.6267 299 46.8056 299.006 47.0441 299.069C47.2866 299.133 47.6505 299.271 48.0152 299.575L46.0947 301.88ZM46.5507 302V305H47.4387V302V299H46.5507V302ZM47.4387 302H44.4387V305H47.4387H50.4387V302H47.4387ZM47.4387 305V302H45.3987V305V308H47.4387V305ZM45.3987 305V302C44.9559 302 44.7128 301.951 44.6121 301.921C44.5218 301.894 44.6297 301.908 44.784 302.063L42.6627 304.184L40.5413 306.305C41.9232 307.687 43.8228 308 45.3987 308V305ZM42.6627 304.184L44.8154 302.095C44.8279 302.107 44.8435 302.126 44.8583 302.15C44.8731 302.174 44.8815 302.193 44.8853 302.203C44.8931 302.225 44.8707 302.178 44.8707 302.024H41.8707H38.8707C38.8707 303.548 39.3412 305.069 40.5099 306.273L42.6627 304.184ZM41.8707 302.024H44.8707V290.672H41.8707H38.8707V302.024H41.8707ZM41.8707 290.672V293.672H45.9507V290.672V287.672H41.8707V290.672ZM47.4627 293.024H44.4627V296.024H47.4627H50.4627V293.024H47.4627ZM47.4627 296.024V293.024H40.5507V296.024V299.024H47.4627V296.024ZM40.5507 296.024H43.5507V293.024H40.5507H37.5507V296.024H40.5507ZM40.5507 293.024V296.024H47.4627V293.024V290.024H40.5507V293.024Z" fill="#800016" mask="url(#path-5-outside-2_731_769)"/>
</svg>
