<svg width="292" height="320" viewBox="0 0 292 320" fill="none" xmlns="http://www.w3.org/2000/svg">
<path d="M12.5 185L39 173L70 176.5L72.5 101H123.5L145.5 115.5H216L255.5 117.5L247 180.5H278.5L281.5 266L149 259.5L44 272.5L12.5 261V185Z" fill="#AC372E"/>
<path d="M111.392 123.098V167.098C111.392 168.85 110.396 169.727 108.403 169.727H100.394V120.469H108.403C110.396 120.469 111.392 121.343 111.392 123.098Z" fill="#F1DDB6"/>
<path d="M170.852 147.968H159.613V140.434C159.613 138.683 160.609 137.805 162.602 137.805H167.863C169.856 137.805 170.852 138.679 170.852 140.434V147.968Z" fill="#F1DDB6"/>
<path d="M36.5989 240.371V198.762C36.5989 197.01 37.5953 196.133 39.588 196.133H44.6082C46.601 196.133 47.5973 197.007 47.5973 198.762V240.371C47.5973 242.123 46.601 243 44.6082 243H39.588C37.5953 243 36.5989 242.126 36.5989 240.371Z" fill="#F1DDB6"/>
<path d="M164.892 222.433H153.652V214.899C153.652 213.148 154.648 212.27 156.641 212.27H161.903C163.895 212.27 164.892 213.144 164.892 214.899V222.433Z" fill="#F1DDB6"/>
<path fill-rule="evenodd" clip-rule="evenodd" d="M211.417 82.4602L238.623 89.2459L247.121 84.1383L242.014 75.6395L204.603 66.3122L213.934 28.9049L226.68 21.2452L213.913 0L192.671 12.7639L200.327 25.5103L191 62.921L153.589 53.5937L145.094 58.7014L150.198 67.1967L177.408 73.9824L168.902 108.086H158.005C154.152 108.086 150.048 108.477 146.038 109.607C144.482 105.502 141.955 101.629 138.134 98.402C131.201 92.5532 122.5 90.987 114.808 90.987H63.8053V167.217C59.5366 165.903 55.1282 165.455 51.0099 165.455H33.3131C14.6585 164.976 -0.248488 176.705 0.00322413 196.01V243.119C-0.251984 262.441 14.6759 274.153 33.3096 273.678H37.0783L44.6122 281.809H111.641L104.002 273.678H166.623C173.38 273.678 180.918 272.468 187.35 268.21C193.783 272.468 201.32 273.678 208.078 273.678H219.797C227.25 273.678 235.651 272.206 242.472 266.794C249.293 272.206 257.694 273.678 265.147 273.678H291.042L291.161 182.551H283.63V170.832H252.18L268.276 108.086H205.026L211.417 82.4602ZM114.742 106.719H79.4704V183.481H114.742C126.457 183.481 132.316 178.537 132.316 168.654V121.546C132.316 111.662 126.46 106.719 114.742 106.719ZM172.523 123.818H157.938V123.814C146.223 123.814 140.364 128.758 140.364 138.641V168.651C140.364 178.534 146.22 183.477 157.938 183.477H172.523C184.239 183.477 190.098 178.534 190.098 168.651V163.27H170.849V166.619C170.849 168.532 169.853 169.49 167.86 169.49H162.598C160.606 169.49 159.609 168.616 159.609 166.861V158.97H190.098V138.644C190.098 128.761 184.242 123.818 172.523 123.818ZM220.555 162.078L213.262 123.818H193.052L208.357 183.481H232.63L247.936 123.818H227.729L220.555 162.078ZM15.6753 243.119C15.6753 253.002 21.5311 257.946 33.2497 257.946H43.8916L51.4254 266.077H75.2192L64.0985 254.24C67.0456 251.768 68.5209 248.062 68.5209 243.119V196.01C68.5209 186.127 62.6651 181.184 50.9465 181.184H33.2497C21.5346 181.184 15.6753 186.127 15.6753 196.01V243.119ZM125.988 198.283H105.662L105.659 198.279V239.41C105.659 241.801 104.586 242.997 102.432 242.997H100.401C98.4082 242.997 97.4119 242.123 97.4119 240.368V198.283H77.0861V243.119C77.0861 253.002 82.3895 257.946 92.9894 257.946H95.143C101.278 257.946 104.907 255.393 106.023 250.293V257.946H125.988V198.283ZM166.563 198.283H151.977V198.279C140.262 198.279 134.403 203.223 134.403 213.106V243.115C134.403 252.999 140.259 257.942 151.977 257.942H166.563C178.278 257.942 184.137 252.999 184.137 243.115V237.735H164.888V241.084C164.888 242.997 163.892 243.955 161.899 243.955H156.638C154.645 243.955 153.649 243.081 153.649 241.326V233.435H184.137V213.109C184.137 203.226 178.281 198.283 166.563 198.283ZM217.583 237.379V242.158C217.583 243.909 216.587 244.787 214.594 244.787H213.161C211.168 244.787 210.172 243.913 210.172 242.158V238.211H190.444V243.112C190.444 252.995 196.3 257.939 208.018 257.939H219.737C231.452 257.939 237.311 252.995 237.311 243.112V236.536C237.311 231.834 235.955 228.247 233.246 225.775C230.617 223.227 226.233 221.951 220.094 221.951H212.801C210.808 221.951 209.812 221.077 209.812 219.322V214.06C209.812 212.309 210.808 211.431 212.801 211.431H213.997C215.989 211.431 216.986 212.305 216.986 214.06V218.126H236.353V213.106C236.353 203.223 230.498 198.279 218.779 198.279H207.658C195.943 198.279 190.084 203.223 190.084 213.106V220.042C190.084 229.848 195.824 234.75 207.302 234.75H214.594C216.587 234.75 217.583 235.624 217.583 237.379ZM267.835 213.228H275.369V198.279H267.835V186.561H247.509V198.279H240.933V213.225H247.509V243.115C247.509 252.999 253.365 257.942 265.084 257.942H275.246V242.997H270.824C268.831 242.997 267.835 242.123 267.835 240.368V213.228Z" fill="#F1DDB6"/>
<path d="M125.597 281.778H150.883L150.883 281.778L150.884 281.778H161.721L155.453 306.921L155.452 306.92L155.452 306.921L134.207 319.688L121.443 298.443L125.597 281.778Z" fill="#F1DDB6"/>
</svg>
