<svg width="225" height="247" viewBox="0 0 225 247" fill="none" xmlns="http://www.w3.org/2000/svg">
<path d="M9.66016 142.936L30.1385 133.665L54.0944 136.369L56.0263 78.0354H95.4375L112.438 89.2385H166.919L197.443 90.7838L190.874 139.459H215.217L217.535 205.519L115.143 200.497L34.0024 210.541L9.66016 201.656V142.936Z" fill="#F1DDB6"/>
<path d="M86.0806 95.1087V129.105C86.0806 130.458 85.3106 131.136 83.7707 131.136H77.5813V93.0774H83.7707C85.3106 93.0774 86.0806 93.7527 86.0806 95.1087Z" fill="#17260F"/>
<path d="M132.029 114.324H123.344V108.503C123.344 107.15 124.114 106.472 125.654 106.472H129.72C131.259 106.472 132.029 107.147 132.029 108.503V114.324Z" fill="#17260F"/>
<path d="M28.2825 185.717V153.569C28.2825 152.215 29.0525 151.537 30.5924 151.537H34.4719C36.0118 151.537 36.7817 152.213 36.7817 153.569V185.717C36.7817 187.071 36.0118 187.749 34.4719 187.749H30.5924C29.0525 187.749 28.2825 187.073 28.2825 185.717Z" fill="#17260F"/>
<path d="M127.423 171.858H118.738V166.037C118.738 164.684 119.507 164.006 121.047 164.006H125.113C126.653 164.006 127.423 164.681 127.423 166.037V171.858Z" fill="#17260F"/>
<path fill-rule="evenodd" clip-rule="evenodd" d="M163.376 63.711L184.4 68.9539L190.968 65.0075L187.021 58.4411L158.111 51.2346L165.321 22.3327L175.171 16.4146L165.305 0L148.89 9.86174L154.807 19.71L147.599 48.6145L118.689 41.408L112.124 45.3543L116.068 51.918L137.095 57.1608L130.522 83.5101H122.101C119.124 83.5101 115.953 83.8126 112.854 84.6851C111.652 81.514 109.698 78.5212 106.745 76.028C101.388 71.5091 94.6639 70.299 88.7204 70.299H49.3067V129.197C46.0081 128.181 42.6013 127.835 39.4189 127.835H25.7434C11.3276 127.465 -0.192024 136.527 0.0024915 151.443V187.84C-0.194725 202.769 11.3411 211.818 25.7407 211.451H28.653L34.4749 217.734H86.2727L80.3697 211.451H128.761C133.983 211.451 139.808 210.516 144.779 207.226C149.75 210.516 155.574 211.451 160.796 211.451H169.852C175.612 211.451 182.104 210.314 187.375 206.132C192.646 210.314 199.138 211.451 204.897 211.451H224.908L225 141.044H219.181V131.99H194.877L207.315 83.5101H158.438L163.376 63.711ZM88.6687 82.454H61.4122V141.762H88.6687C97.7218 141.762 102.25 137.943 102.25 130.307V93.9094C102.25 86.2733 97.7245 82.454 88.6687 82.454ZM133.321 95.6651H122.05V95.6624C112.997 95.6624 108.469 99.4818 108.469 107.118V130.304C108.469 137.94 112.994 141.759 122.05 141.759H133.321C142.374 141.759 146.902 137.94 146.902 130.304V126.147H132.027V128.735C132.027 130.212 131.257 130.952 129.717 130.952H125.651C124.111 130.952 123.341 130.277 123.341 128.921V122.825H146.902V107.12C146.902 99.4845 142.377 95.6651 133.321 95.6651ZM170.438 125.226L164.803 95.6651H149.185L161.012 141.762H179.769L191.597 95.6651H175.982L170.438 125.226ZM12.1134 187.84C12.1134 195.476 16.6386 199.296 25.6944 199.296H33.918L39.74 205.579H58.1271L49.5333 196.433C51.8108 194.523 52.9508 191.66 52.9508 187.84V151.443C52.9508 143.807 48.4256 139.988 39.3699 139.988H25.6944C16.6413 139.988 12.1134 143.807 12.1134 151.443V187.84ZM97.3598 153.199H81.6527L81.6499 153.196V184.974C81.6499 186.822 80.8205 187.746 79.1564 187.746H77.5867C76.0468 187.746 75.2769 187.071 75.2769 185.715V153.199H59.5698V187.84C59.5698 195.476 63.6681 199.296 71.8593 199.296H73.5235C78.2648 199.296 81.0691 197.324 81.9309 193.383V199.296H97.3598V153.199ZM128.715 153.199H117.443V153.196C108.39 153.196 103.863 157.015 103.863 164.651V187.838C103.863 195.474 108.388 199.293 117.443 199.293H128.715C137.768 199.293 142.295 195.474 142.295 187.838V183.681H127.42V186.268C127.42 187.746 126.651 188.486 125.111 188.486H121.045C119.505 188.486 118.735 187.811 118.735 186.455V180.358H142.295V164.654C142.295 157.018 137.77 153.199 128.715 153.199ZM168.142 183.405V187.098C168.142 188.451 167.372 189.129 165.832 189.129H164.724C163.184 189.129 162.414 188.454 162.414 187.098V184.048H147.169V187.835C147.169 195.471 151.694 199.29 160.75 199.29H169.806C178.859 199.29 183.387 195.471 183.387 187.835V182.754C183.387 179.121 182.339 176.35 180.245 174.44C178.213 172.471 174.825 171.485 170.081 171.485H164.446C162.906 171.485 162.136 170.81 162.136 169.454V165.389C162.136 164.035 162.906 163.358 164.446 163.358H165.37C166.91 163.358 167.68 164.033 167.68 165.389V168.53H182.647V164.651C182.647 157.015 178.121 153.196 169.066 153.196H160.472C151.419 153.196 146.891 157.015 146.891 164.651V170.01C146.891 177.587 151.327 181.374 160.196 181.374H165.832C167.372 181.374 168.142 182.049 168.142 183.405ZM206.975 164.746H212.796V153.196H206.975V144.142H191.267V153.196H186.186V164.743H191.267V187.838C191.267 195.474 195.793 199.293 204.848 199.293H212.702V187.746H209.284C207.744 187.746 206.975 187.071 206.975 185.715V164.746Z" fill="#17260F"/>
<path d="M97.0572 217.709H116.598L116.598 217.71L116.598 217.709H124.973L120.129 237.136L120.129 237.135L120.129 237.136L103.711 247L93.8477 230.585L97.0572 217.709Z" fill="#17260F"/>
</svg>
